<?xml version="1.0" standalone="no"?>
 <!DOCTYPE svg PUBLIC "-//W3C//DTD SVG 1.1//EN" 
 "http://www.w3.org/Graphics/SVG/1.1/DTD/svg11.dtd"> 
<svg
  xmlns:svg="http://www.w3.org/2000/svg"
  xmlns="http://www.w3.org/2000/svg"
  xmlns:xlink="http://www.w3.org/1999/xlink"
  version="1.1"
  width="297.0022mm" height="210.0072mm" viewBox="0.0000 0.0000 297.0022 210.0072">

  <desc>Image generated by Eeschema-SVG </desc>
<g style="fill:#000000; fill-opacity:1.0000;stroke:#000000; stroke-opacity:1.0000;
stroke-linecap:round; stroke-linejoin:round;"
 transform="translate(0 0) scale(1 1)">
</g>
<g style="fill:#840000; fill-opacity:1.0000; 
stroke:#840000; stroke-width:0.1524; stroke-opacity:1; 
stroke-linecap:round; stroke-linejoin:round;">
<rect x="63.500000" y="18.923000" width="0.863600" height="0.254000" rx="0.000000" />
<rect x="63.500000" y="21.463000" width="0.863600" height="0.254000" rx="0.000000" />
<path style="fill:none; 
stroke:#840000; stroke-width:0.1524; stroke-opacity:1; 
stroke-linecap:round; stroke-linejoin:round;fill:none"
d="M 64.7700,19.0500
64.3636,19.0500
" /> 
<path style="fill:none; 
stroke:#840000; stroke-width:0.1524; stroke-opacity:1; 
stroke-linecap:round; stroke-linejoin:round;fill:none"
d="M 64.7700,21.5900
64.3636,21.5900
" /> 
</g>
<g style="fill:none; 
stroke:#840000; stroke-width:0.1524; stroke-opacity:1; 
stroke-linecap:round; stroke-linejoin:round;">
<path d="M64.7700 19.0500
L68.5800 19.0500
" />
</g>
<g style="fill:none; 
stroke:#A90000; stroke-width:0.1524; stroke-opacity:1; 
stroke-linecap:round; stroke-linejoin:round;">
<text x="66.6750" y="18.7960"
textLength="1.4127" font-size="1.6933" lengthAdjust="spacingAndGlyphs"
text-anchor="middle" opacity="0" stroke-opacity="0">1</text>
<g class="stroked-text"><desc>1</desc>
<path d="M67.0379 18.6325
L66.3122 18.6325
" />
<path d="M66.6750 18.6325
L66.6750 17.3625
" />
<path d="M66.6750 17.3625
L66.5541 17.5440
" />
<path d="M66.5541 17.5440
L66.4331 17.6649
" />
<path d="M66.4331 17.6649
L66.3122 17.7254
" />
</g></g>
<g style="fill:none; 
stroke:#840000; stroke-width:0.1524; stroke-opacity:1; 
stroke-linecap:round; stroke-linejoin:round;">
<path d="M64.7700 21.5900
L68.5800 21.5900
" />
</g>
<g style="fill:none; 
stroke:#A90000; stroke-width:0.1524; stroke-opacity:1; 
stroke-linecap:round; stroke-linejoin:round;">
<text x="66.6750" y="21.3360"
textLength="1.4127" font-size="1.6933" lengthAdjust="spacingAndGlyphs"
text-anchor="middle" opacity="0" stroke-opacity="0">2</text>
<g class="stroked-text"><desc>2</desc>
<path d="M66.3122 20.0235
L66.3726 19.9630
" />
<path d="M66.3726 19.9630
L66.4936 19.9025
" />
<path d="M66.4936 19.9025
L66.7960 19.9025
" />
<path d="M66.7960 19.9025
L66.9169 19.9630
" />
<path d="M66.9169 19.9630
L66.9774 20.0235
" />
<path d="M66.9774 20.0235
L67.0379 20.1444
" />
<path d="M67.0379 20.1444
L67.0379 20.2654
" />
<path d="M67.0379 20.2654
L66.9774 20.4468
" />
<path d="M66.9774 20.4468
L66.2517 21.1725
" />
<path d="M66.2517 21.1725
L67.0379 21.1725
" />
</g></g>
<g style="fill:none; 
stroke:#006464; stroke-width:0.1524; stroke-opacity:1; 
stroke-linecap:round; stroke-linejoin:round;">
<text x="64.1350" y="14.6050"
textLength="2.3803" font-size="1.6933" lengthAdjust="spacingAndGlyphs"
text-anchor="middle" opacity="0" stroke-opacity="0">J1</text>
<g class="stroked-text"><desc>J1</desc>
<path d="M63.7117 13.2795
L63.7117 14.1867
" />
<path d="M63.7117 14.1867
L63.6512 14.3681
" />
<path d="M63.6512 14.3681
L63.5303 14.4891
" />
<path d="M63.5303 14.4891
L63.3488 14.5495
" />
<path d="M63.3488 14.5495
L63.2279 14.5495
" />
<path d="M64.9817 14.5495
L64.2560 14.5495
" />
<path d="M64.6188 14.5495
L64.6188 13.2795
" />
<path d="M64.6188 13.2795
L64.4979 13.4610
" />
<path d="M64.4979 13.4610
L64.3769 13.5819
" />
<path d="M64.3769 13.5819
L64.2560 13.6424
" />
</g><text x="64.1350" y="17.1450"
textLength="11.8751" font-size="1.6933" lengthAdjust="spacingAndGlyphs"
text-anchor="middle" opacity="0" stroke-opacity="0">POWER-OUT</text>
<g class="stroked-text"><desc>POWER-OUT</desc>
<path d="M58.6014 17.0895
L58.6014 15.8195
" />
<path d="M58.6014 15.8195
L59.0852 15.8195
" />
<path d="M59.0852 15.8195
L59.2062 15.8800
" />
<path d="M59.2062 15.8800
L59.2667 15.9405
" />
<path d="M59.2667 15.9405
L59.3271 16.0614
" />
<path d="M59.3271 16.0614
L59.3271 16.2429
" />
<path d="M59.3271 16.2429
L59.2667 16.3638
" />
<path d="M59.2667 16.3638
L59.2062 16.4243
" />
<path d="M59.2062 16.4243
L59.0852 16.4848
" />
<path d="M59.0852 16.4848
L58.6014 16.4848
" />
<path d="M60.1133 15.8195
L60.3552 15.8195
" />
<path d="M60.3552 15.8195
L60.4762 15.8800
" />
<path d="M60.4762 15.8800
L60.5971 16.0010
" />
<path d="M60.5971 16.0010
L60.6576 16.2429
" />
<path d="M60.6576 16.2429
L60.6576 16.6662
" />
<path d="M60.6576 16.6662
L60.5971 16.9081
" />
<path d="M60.5971 16.9081
L60.4762 17.0291
" />
<path d="M60.4762 17.0291
L60.3552 17.0895
" />
<path d="M60.3552 17.0895
L60.1133 17.0895
" />
<path d="M60.1133 17.0895
L59.9924 17.0291
" />
<path d="M59.9924 17.0291
L59.8714 16.9081
" />
<path d="M59.8714 16.9081
L59.8110 16.6662
" />
<path d="M59.8110 16.6662
L59.8110 16.2429
" />
<path d="M59.8110 16.2429
L59.8714 16.0010
" />
<path d="M59.8714 16.0010
L59.9924 15.8800
" />
<path d="M59.9924 15.8800
L60.1133 15.8195
" />
<path d="M61.0810 15.8195
L61.3834 17.0895
" />
<path d="M61.3834 17.0895
L61.6253 16.1824
" />
<path d="M61.6253 16.1824
L61.8672 17.0895
" />
<path d="M61.8672 17.0895
L62.1696 15.8195
" />
<path d="M62.6533 16.4243
L63.0767 16.4243
" />
<path d="M63.2581 17.0895
L62.6533 17.0895
" />
<path d="M62.6533 17.0895
L62.6533 15.8195
" />
<path d="M62.6533 15.8195
L63.2581 15.8195
" />
<path d="M64.5280 17.0895
L64.1047 16.4848
" />
<path d="M63.8023 17.0895
L63.8023 15.8195
" />
<path d="M63.8023 15.8195
L64.2861 15.8195
" />
<path d="M64.2861 15.8195
L64.4071 15.8800
" />
<path d="M64.4071 15.8800
L64.4676 15.9405
" />
<path d="M64.4676 15.9405
L64.5280 16.0614
" />
<path d="M64.5280 16.0614
L64.5280 16.2429
" />
<path d="M64.5280 16.2429
L64.4676 16.3638
" />
<path d="M64.4676 16.3638
L64.4071 16.4243
" />
<path d="M64.4071 16.4243
L64.2861 16.4848
" />
<path d="M64.2861 16.4848
L63.8023 16.4848
" />
<path d="M65.0723 16.6057
L66.0400 16.6057
" />
<path d="M66.8866 15.8195
L67.1285 15.8195
" />
<path d="M67.1285 15.8195
L67.2495 15.8800
" />
<path d="M67.2495 15.8800
L67.3704 16.0010
" />
<path d="M67.3704 16.0010
L67.4309 16.2429
" />
<path d="M67.4309 16.2429
L67.4309 16.6662
" />
<path d="M67.4309 16.6662
L67.3704 16.9081
" />
<path d="M67.3704 16.9081
L67.2495 17.0291
" />
<path d="M67.2495 17.0291
L67.1285 17.0895
" />
<path d="M67.1285 17.0895
L66.8866 17.0895
" />
<path d="M66.8866 17.0895
L66.7657 17.0291
" />
<path d="M66.7657 17.0291
L66.6447 16.9081
" />
<path d="M66.6447 16.9081
L66.5843 16.6662
" />
<path d="M66.5843 16.6662
L66.5843 16.2429
" />
<path d="M66.5843 16.2429
L66.6447 16.0010
" />
<path d="M66.6447 16.0010
L66.7657 15.8800
" />
<path d="M66.7657 15.8800
L66.8866 15.8195
" />
<path d="M67.9752 15.8195
L67.9752 16.8476
" />
<path d="M67.9752 16.8476
L68.0357 16.9686
" />
<path d="M68.0357 16.9686
L68.0962 17.0291
" />
<path d="M68.0962 17.0291
L68.2171 17.0895
" />
<path d="M68.2171 17.0895
L68.4590 17.0895
" />
<path d="M68.4590 17.0895
L68.5800 17.0291
" />
<path d="M68.5800 17.0291
L68.6405 16.9686
" />
<path d="M68.6405 16.9686
L68.7009 16.8476
" />
<path d="M68.7009 16.8476
L68.7009 15.8195
" />
<path d="M69.1243 15.8195
L69.8500 15.8195
" />
<path d="M69.4872 17.0895
L69.4872 15.8195
" />
</g></g>
<g style="fill:#FFFFC2; fill-opacity:1.0000; stroke:none;">
<rect x="14.605000" y="33.020000" width="6.350000" height="7.620000" rx="0.000000" />
</g>
<g style="fill:none; 
stroke:#840000; stroke-width:0.1524; stroke-opacity:1; 
stroke-linecap:round; stroke-linejoin:round;">
<circle cx="15.7480" cy="36.8300" r="0.4572" /> 
<path style="fill:none; 
stroke:#840000; stroke-width:0.1524; stroke-opacity:1; 
stroke-linecap:round; stroke-linejoin:round;fill:none"
d="M 16.1290,36.5760
19.4310,34.5440
" /> 
<circle cx="19.8120" cy="34.2900" r="0.4572" /> 
<circle cx="19.8120" cy="39.3700" r="0.4572" /> 
<rect x="14.605000" y="33.020000" width="6.350000" height="7.620000" rx="0.000000" />
<path d="M15.2400 36.8300
L12.7000 36.8300
" />
</g>
<g style="fill:none; 
stroke:#A90000; stroke-width:0.1524; stroke-opacity:1; 
stroke-linecap:round; stroke-linejoin:round;">
<text x="13.9700" y="36.5760"
textLength="1.4127" font-size="1.6933" lengthAdjust="spacingAndGlyphs"
text-anchor="middle" opacity="0" stroke-opacity="0">2</text>
<g class="stroked-text"><desc>2</desc>
<path d="M13.6072 35.2635
L13.6676 35.2030
" />
<path d="M13.6676 35.2030
L13.7886 35.1425
" />
<path d="M13.7886 35.1425
L14.0910 35.1425
" />
<path d="M14.0910 35.1425
L14.2119 35.2030
" />
<path d="M14.2119 35.2030
L14.2724 35.2635
" />
<path d="M14.2724 35.2635
L14.3329 35.3844
" />
<path d="M14.3329 35.3844
L14.3329 35.5054
" />
<path d="M14.3329 35.5054
L14.2724 35.6868
" />
<path d="M14.2724 35.6868
L13.5467 36.4125
" />
<path d="M13.5467 36.4125
L14.3329 36.4125
" />
</g></g>
<g style="fill:none; 
stroke:#840000; stroke-width:0.1524; stroke-opacity:1; 
stroke-linecap:round; stroke-linejoin:round;">
<path d="M20.3200 34.2900
L22.8600 34.2900
" />
</g>
<g style="fill:none; 
stroke:#A90000; stroke-width:0.1524; stroke-opacity:1; 
stroke-linecap:round; stroke-linejoin:round;">
<text x="21.5900" y="34.0360"
textLength="1.4127" font-size="1.6933" lengthAdjust="spacingAndGlyphs"
text-anchor="middle" opacity="0" stroke-opacity="0">1</text>
<g class="stroked-text"><desc>1</desc>
<path d="M21.9529 33.8725
L21.2272 33.8725
" />
<path d="M21.5900 33.8725
L21.5900 32.6025
" />
<path d="M21.5900 32.6025
L21.4691 32.7840
" />
<path d="M21.4691 32.7840
L21.3481 32.9049
" />
<path d="M21.3481 32.9049
L21.2272 32.9654
" />
</g></g>
<g style="fill:none; 
stroke:#840000; stroke-width:0.1524; stroke-opacity:1; 
stroke-linecap:round; stroke-linejoin:round;">
<path d="M20.3200 39.3700
L22.8600 39.3700
" />
</g>
<g style="fill:none; 
stroke:#A90000; stroke-width:0.1524; stroke-opacity:1; 
stroke-linecap:round; stroke-linejoin:round;">
<text x="21.5900" y="39.1160"
textLength="1.4127" font-size="1.6933" lengthAdjust="spacingAndGlyphs"
text-anchor="middle" opacity="0" stroke-opacity="0">3</text>
<g class="stroked-text"><desc>3</desc>
<path d="M21.1667 37.6825
L21.9529 37.6825
" />
<path d="M21.9529 37.6825
L21.5295 38.1663
" />
<path d="M21.5295 38.1663
L21.7110 38.1663
" />
<path d="M21.7110 38.1663
L21.8319 38.2268
" />
<path d="M21.8319 38.2268
L21.8924 38.2873
" />
<path d="M21.8924 38.2873
L21.9529 38.4082
" />
<path d="M21.9529 38.4082
L21.9529 38.7106
" />
<path d="M21.9529 38.7106
L21.8924 38.8316
" />
<path d="M21.8924 38.8316
L21.8319 38.8921
" />
<path d="M21.8319 38.8921
L21.7110 38.9525
" />
<path d="M21.7110 38.9525
L21.3481 38.9525
" />
<path d="M21.3481 38.9525
L21.2272 38.8921
" />
<path d="M21.2272 38.8921
L21.1667 38.8316
" />
</g></g>
<g style="fill:none; 
stroke:#006464; stroke-width:0.1524; stroke-opacity:1; 
stroke-linecap:round; stroke-linejoin:round;">
<text x="17.7800" y="28.5750"
textLength="4.0736" font-size="1.6933" lengthAdjust="spacingAndGlyphs"
text-anchor="middle" opacity="0" stroke-opacity="0">SW1</text>
<g class="stroked-text"><desc>SW1</desc>
<path d="M16.0867 28.4591
L16.2681 28.5195
" />
<path d="M16.2681 28.5195
L16.5705 28.5195
" />
<path d="M16.5705 28.5195
L16.6914 28.4591
" />
<path d="M16.6914 28.4591
L16.7519 28.3986
" />
<path d="M16.7519 28.3986
L16.8124 28.2776
" />
<path d="M16.8124 28.2776
L16.8124 28.1567
" />
<path d="M16.8124 28.1567
L16.7519 28.0357
" />
<path d="M16.7519 28.0357
L16.6914 27.9752
" />
<path d="M16.6914 27.9752
L16.5705 27.9148
" />
<path d="M16.5705 27.9148
L16.3286 27.8543
" />
<path d="M16.3286 27.8543
L16.2076 27.7938
" />
<path d="M16.2076 27.7938
L16.1471 27.7333
" />
<path d="M16.1471 27.7333
L16.0867 27.6124
" />
<path d="M16.0867 27.6124
L16.0867 27.4914
" />
<path d="M16.0867 27.4914
L16.1471 27.3705
" />
<path d="M16.1471 27.3705
L16.2076 27.3100
" />
<path d="M16.2076 27.3100
L16.3286 27.2495
" />
<path d="M16.3286 27.2495
L16.6309 27.2495
" />
<path d="M16.6309 27.2495
L16.8124 27.3100
" />
<path d="M17.2357 27.2495
L17.5381 28.5195
" />
<path d="M17.5381 28.5195
L17.7800 27.6124
" />
<path d="M17.7800 27.6124
L18.0219 28.5195
" />
<path d="M18.0219 28.5195
L18.3243 27.2495
" />
<path d="M19.4733 28.5195
L18.7476 28.5195
" />
<path d="M19.1104 28.5195
L19.1104 27.2495
" />
<path d="M19.1104 27.2495
L18.9895 27.4310
" />
<path d="M18.9895 27.4310
L18.8685 27.5519
" />
<path d="M18.8685 27.5519
L18.7476 27.6124
" />
</g><text x="17.7800" y="31.1150"
textLength="10.6656" font-size="1.6933" lengthAdjust="spacingAndGlyphs"
text-anchor="middle" opacity="0" stroke-opacity="0">DISCHARGE</text>
<g class="stroked-text"><desc>DISCHARGE</desc>
<path d="M12.8511 31.0595
L12.8511 29.7895
" />
<path d="M12.8511 29.7895
L13.1535 29.7895
" />
<path d="M13.1535 29.7895
L13.3349 29.8500
" />
<path d="M13.3349 29.8500
L13.4559 29.9710
" />
<path d="M13.4559 29.9710
L13.5164 30.0919
" />
<path d="M13.5164 30.0919
L13.5768 30.3338
" />
<path d="M13.5768 30.3338
L13.5768 30.5152
" />
<path d="M13.5768 30.5152
L13.5164 30.7571
" />
<path d="M13.5164 30.7571
L13.4559 30.8781
" />
<path d="M13.4559 30.8781
L13.3349 30.9991
" />
<path d="M13.3349 30.9991
L13.1535 31.0595
" />
<path d="M13.1535 31.0595
L12.8511 31.0595
" />
<path d="M14.1211 31.0595
L14.1211 29.7895
" />
<path d="M14.6655 30.9991
L14.8469 31.0595
" />
<path d="M14.8469 31.0595
L15.1493 31.0595
" />
<path d="M15.1493 31.0595
L15.2702 30.9991
" />
<path d="M15.2702 30.9991
L15.3307 30.9386
" />
<path d="M15.3307 30.9386
L15.3912 30.8176
" />
<path d="M15.3912 30.8176
L15.3912 30.6967
" />
<path d="M15.3912 30.6967
L15.3307 30.5757
" />
<path d="M15.3307 30.5757
L15.2702 30.5152
" />
<path d="M15.2702 30.5152
L15.1493 30.4548
" />
<path d="M15.1493 30.4548
L14.9074 30.3943
" />
<path d="M14.9074 30.3943
L14.7864 30.3338
" />
<path d="M14.7864 30.3338
L14.7259 30.2733
" />
<path d="M14.7259 30.2733
L14.6655 30.1524
" />
<path d="M14.6655 30.1524
L14.6655 30.0314
" />
<path d="M14.6655 30.0314
L14.7259 29.9105
" />
<path d="M14.7259 29.9105
L14.7864 29.8500
" />
<path d="M14.7864 29.8500
L14.9074 29.7895
" />
<path d="M14.9074 29.7895
L15.2097 29.7895
" />
<path d="M15.2097 29.7895
L15.3912 29.8500
" />
<path d="M16.6611 30.9386
L16.6007 30.9991
" />
<path d="M16.6007 30.9991
L16.4192 31.0595
" />
<path d="M16.4192 31.0595
L16.2983 31.0595
" />
<path d="M16.2983 31.0595
L16.1169 30.9991
" />
<path d="M16.1169 30.9991
L15.9959 30.8781
" />
<path d="M15.9959 30.8781
L15.9354 30.7571
" />
<path d="M15.9354 30.7571
L15.8750 30.5152
" />
<path d="M15.8750 30.5152
L15.8750 30.3338
" />
<path d="M15.8750 30.3338
L15.9354 30.0919
" />
<path d="M15.9354 30.0919
L15.9959 29.9710
" />
<path d="M15.9959 29.9710
L16.1169 29.8500
" />
<path d="M16.1169 29.8500
L16.2983 29.7895
" />
<path d="M16.2983 29.7895
L16.4192 29.7895
" />
<path d="M16.4192 29.7895
L16.6007 29.8500
" />
<path d="M16.6007 29.8500
L16.6611 29.9105
" />
<path d="M17.2054 31.0595
L17.2054 29.7895
" />
<path d="M17.2054 30.3943
L17.9311 30.3943
" />
<path d="M17.9311 31.0595
L17.9311 29.7895
" />
<path d="M18.4755 30.6967
L19.0802 30.6967
" />
<path d="M18.3545 31.0595
L18.7778 29.7895
" />
<path d="M18.7778 29.7895
L19.2012 31.0595
" />
<path d="M20.3502 31.0595
L19.9269 30.4548
" />
<path d="M19.6245 31.0595
L19.6245 29.7895
" />
<path d="M19.6245 29.7895
L20.1083 29.7895
" />
<path d="M20.1083 29.7895
L20.2293 29.8500
" />
<path d="M20.2293 29.8500
L20.2898 29.9105
" />
<path d="M20.2898 29.9105
L20.3502 30.0314
" />
<path d="M20.3502 30.0314
L20.3502 30.2129
" />
<path d="M20.3502 30.2129
L20.2898 30.3338
" />
<path d="M20.2898 30.3338
L20.2293 30.3943
" />
<path d="M20.2293 30.3943
L20.1083 30.4548
" />
<path d="M20.1083 30.4548
L19.6245 30.4548
" />
<path d="M21.5598 29.8500
L21.4388 29.7895
" />
<path d="M21.4388 29.7895
L21.2574 29.7895
" />
<path d="M21.2574 29.7895
L21.0760 29.8500
" />
<path d="M21.0760 29.8500
L20.9550 29.9710
" />
<path d="M20.9550 29.9710
L20.8945 30.0919
" />
<path d="M20.8945 30.0919
L20.8341 30.3338
" />
<path d="M20.8341 30.3338
L20.8341 30.5152
" />
<path d="M20.8341 30.5152
L20.8945 30.7571
" />
<path d="M20.8945 30.7571
L20.9550 30.8781
" />
<path d="M20.9550 30.8781
L21.0760 30.9991
" />
<path d="M21.0760 30.9991
L21.2574 31.0595
" />
<path d="M21.2574 31.0595
L21.3783 31.0595
" />
<path d="M21.3783 31.0595
L21.5598 30.9991
" />
<path d="M21.5598 30.9991
L21.6202 30.9386
" />
<path d="M21.6202 30.9386
L21.6202 30.5152
" />
<path d="M21.6202 30.5152
L21.3783 30.5152
" />
<path d="M22.1645 30.3943
L22.5879 30.3943
" />
<path d="M22.7693 31.0595
L22.1645 31.0595
" />
<path d="M22.1645 31.0595
L22.1645 29.7895
" />
<path d="M22.1645 29.7895
L22.7693 29.7895
" />
</g></g>
<g style="fill:none; 
stroke:#840084; stroke-width:0.1524; stroke-opacity:1; 
stroke-linecap:round; stroke-linejoin:round;">
<text x="17.7800" y="43.3070"
textLength="4.3156" font-size="1.6933" lengthAdjust="spacingAndGlyphs"
text-anchor="middle" opacity="0" stroke-opacity="0">7.5A</text>
<g class="stroked-text"><desc>7.5A</desc>
<path d="M15.9052 41.9815
L16.7518 41.9815
" />
<path d="M16.7518 41.9815
L16.2076 43.2515
" />
<path d="M17.2356 43.1306
L17.2961 43.1911
" />
<path d="M17.2961 43.1911
L17.2356 43.2515
" />
<path d="M17.2356 43.2515
L17.1752 43.1911
" />
<path d="M17.1752 43.1911
L17.2356 43.1306
" />
<path d="M17.2356 43.1306
L17.2356 43.2515
" />
<path d="M18.4452 41.9815
L17.8404 41.9815
" />
<path d="M17.8404 41.9815
L17.7800 42.5863
" />
<path d="M17.7800 42.5863
L17.8404 42.5258
" />
<path d="M17.8404 42.5258
L17.9614 42.4653
" />
<path d="M17.9614 42.4653
L18.2638 42.4653
" />
<path d="M18.2638 42.4653
L18.3847 42.5258
" />
<path d="M18.3847 42.5258
L18.4452 42.5863
" />
<path d="M18.4452 42.5863
L18.5057 42.7072
" />
<path d="M18.5057 42.7072
L18.5057 43.0096
" />
<path d="M18.5057 43.0096
L18.4452 43.1306
" />
<path d="M18.4452 43.1306
L18.3847 43.1911
" />
<path d="M18.3847 43.1911
L18.2638 43.2515
" />
<path d="M18.2638 43.2515
L17.9614 43.2515
" />
<path d="M17.9614 43.2515
L17.8404 43.1911
" />
<path d="M17.8404 43.1911
L17.7800 43.1306
" />
<path d="M18.9895 42.8887
L19.5942 42.8887
" />
<path d="M18.8685 43.2515
L19.2918 41.9815
" />
<path d="M19.2918 41.9815
L19.7152 43.2515
" />
</g><path style="fill:none; 
stroke:#840000; stroke-width:0.1524; stroke-opacity:1; 
stroke-linecap:round; stroke-linejoin:round;fill:none"
d="M 73.6600,29.2100
73.6600,30.4800
74.9300,30.4800
73.6600,31.7500
72.3900,30.4800
73.6600,30.4800
" /> 
</g>
<g style="fill:none; 
stroke:#840000; stroke-width:0.1524; stroke-opacity:1; 
stroke-linecap:round; stroke-linejoin:round;">
<path d="M73.6600 29.2100
L73.6600 29.2100
" />
</g>
<g style="fill:none; 
stroke:#006464; stroke-width:0.1524; stroke-opacity:1; 
stroke-linecap:round; stroke-linejoin:round;">
<text x="73.6600" y="34.9250"
textLength="4.0737" font-size="1.6933" lengthAdjust="spacingAndGlyphs"
text-anchor="middle" opacity="0" stroke-opacity="0">GND</text>
<g class="stroked-text"><desc>GND</desc>
<path d="M72.6924 33.6600
L72.5714 33.5995
" />
<path d="M72.5714 33.5995
L72.3900 33.5995
" />
<path d="M72.3900 33.5995
L72.2086 33.6600
" />
<path d="M72.2086 33.6600
L72.0876 33.7810
" />
<path d="M72.0876 33.7810
L72.0271 33.9019
" />
<path d="M72.0271 33.9019
L71.9667 34.1438
" />
<path d="M71.9667 34.1438
L71.9667 34.3252
" />
<path d="M71.9667 34.3252
L72.0271 34.5671
" />
<path d="M72.0271 34.5671
L72.0876 34.6881
" />
<path d="M72.0876 34.6881
L72.2086 34.8091
" />
<path d="M72.2086 34.8091
L72.3900 34.8695
" />
<path d="M72.3900 34.8695
L72.5109 34.8695
" />
<path d="M72.5109 34.8695
L72.6924 34.8091
" />
<path d="M72.6924 34.8091
L72.7528 34.7486
" />
<path d="M72.7528 34.7486
L72.7528 34.3252
" />
<path d="M72.7528 34.3252
L72.5109 34.3252
" />
<path d="M73.2971 34.8695
L73.2971 33.5995
" />
<path d="M73.2971 33.5995
L74.0228 34.8695
" />
<path d="M74.0228 34.8695
L74.0228 33.5995
" />
<path d="M74.6276 34.8695
L74.6276 33.5995
" />
<path d="M74.6276 33.5995
L74.9300 33.5995
" />
<path d="M74.9300 33.5995
L75.1114 33.6600
" />
<path d="M75.1114 33.6600
L75.2324 33.7810
" />
<path d="M75.2324 33.7810
L75.2929 33.9019
" />
<path d="M75.2929 33.9019
L75.3533 34.1438
" />
<path d="M75.3533 34.1438
L75.3533 34.3252
" />
<path d="M75.3533 34.3252
L75.2929 34.5671
" />
<path d="M75.2929 34.5671
L75.2324 34.6881
" />
<path d="M75.2324 34.6881
L75.1114 34.8091
" />
<path d="M75.1114 34.8091
L74.9300 34.8695
" />
<path d="M74.9300 34.8695
L74.6276 34.8695
" />
</g><path style="fill:none; 
stroke:#840000; stroke-width:0.1524; stroke-opacity:1; 
stroke-linecap:round; stroke-linejoin:round;fill:none"
d="M 58.4200,78.7400
57.1500,78.7400
56.5150,79.7560
55.8800,78.7400
56.5150,77.7240
57.1500,78.7400
" /> 
</g>
<g style="fill:none; 
stroke:#840000; stroke-width:0.1524; stroke-opacity:1; 
stroke-linecap:round; stroke-linejoin:round;">
<path d="M58.4200 78.7400
L58.4200 78.7400
" />
</g>
<g style="fill:none; 
stroke:#006464; stroke-width:0.1524; stroke-opacity:1; 
stroke-linecap:round; stroke-linejoin:round;">
<text x="49.7816" y="79.3748"
textLength="9.6375" font-size="1.6933" lengthAdjust="spacingAndGlyphs"
text-anchor="middle" opacity="0" stroke-opacity="0">PWR_FLAG</text>
<g class="stroked-text"><desc>PWR_FLAG</desc>
<path d="M45.3668 79.3193
L45.3668 78.0493
" />
<path d="M45.3668 78.0493
L45.8506 78.0493
" />
<path d="M45.8506 78.0493
L45.9716 78.1098
" />
<path d="M45.9716 78.1098
L46.0321 78.1703
" />
<path d="M46.0321 78.1703
L46.0925 78.2912
" />
<path d="M46.0925 78.2912
L46.0925 78.4727
" />
<path d="M46.0925 78.4727
L46.0321 78.5936
" />
<path d="M46.0321 78.5936
L45.9716 78.6541
" />
<path d="M45.9716 78.6541
L45.8506 78.7146
" />
<path d="M45.8506 78.7146
L45.3668 78.7146
" />
<path d="M46.5159 78.0493
L46.8183 79.3193
" />
<path d="M46.8183 79.3193
L47.0602 78.4122
" />
<path d="M47.0602 78.4122
L47.3021 79.3193
" />
<path d="M47.3021 79.3193
L47.6045 78.0493
" />
<path d="M48.8139 79.3193
L48.3906 78.7146
" />
<path d="M48.0882 79.3193
L48.0882 78.0493
" />
<path d="M48.0882 78.0493
L48.5720 78.0493
" />
<path d="M48.5720 78.0493
L48.6930 78.1098
" />
<path d="M48.6930 78.1098
L48.7535 78.1703
" />
<path d="M48.7535 78.1703
L48.8139 78.2912
" />
<path d="M48.8139 78.2912
L48.8139 78.4727
" />
<path d="M48.8139 78.4727
L48.7535 78.5936
" />
<path d="M48.7535 78.5936
L48.6930 78.6541
" />
<path d="M48.6930 78.6541
L48.5720 78.7146
" />
<path d="M48.5720 78.7146
L48.0882 78.7146
" />
<path d="M49.0559 79.4403
L50.0235 79.4403
" />
<path d="M50.7492 78.6541
L50.3258 78.6541
" />
<path d="M50.3258 79.3193
L50.3258 78.0493
" />
<path d="M50.3258 78.0493
L50.9306 78.0493
" />
<path d="M52.0192 79.3193
L51.4144 79.3193
" />
<path d="M51.4144 79.3193
L51.4144 78.0493
" />
<path d="M52.3821 78.9565
L52.9868 78.9565
" />
<path d="M52.2611 79.3193
L52.6844 78.0493
" />
<path d="M52.6844 78.0493
L53.1078 79.3193
" />
<path d="M54.1964 78.1098
L54.0754 78.0493
" />
<path d="M54.0754 78.0493
L53.8940 78.0493
" />
<path d="M53.8940 78.0493
L53.7126 78.1098
" />
<path d="M53.7126 78.1098
L53.5916 78.2308
" />
<path d="M53.5916 78.2308
L53.5311 78.3517
" />
<path d="M53.5311 78.3517
L53.4707 78.5936
" />
<path d="M53.4707 78.5936
L53.4707 78.7750
" />
<path d="M53.4707 78.7750
L53.5311 79.0169
" />
<path d="M53.5311 79.0169
L53.5916 79.1379
" />
<path d="M53.5916 79.1379
L53.7126 79.2589
" />
<path d="M53.7126 79.2589
L53.8940 79.3193
" />
<path d="M53.8940 79.3193
L54.0149 79.3193
" />
<path d="M54.0149 79.3193
L54.1964 79.2589
" />
<path d="M54.1964 79.2589
L54.2568 79.1984
" />
<path d="M54.2568 79.1984
L54.2568 78.7750
" />
<path d="M54.2568 78.7750
L54.0149 78.7750
" />
</g></g>
<g style="fill:none; 
stroke:#840000; stroke-width:0.2540; stroke-opacity:1; 
stroke-linecap:round; stroke-linejoin:round;">
<rect x="39.370000" y="48.514000" width="5.080000" height="2.032000" rx="0.000000" />
</g>
<g style="fill:none; 
stroke:#840000; stroke-width:0.1524; stroke-opacity:1; 
stroke-linecap:round; stroke-linejoin:round;">
<path d="M39.3700 49.5300
L38.1000 49.5300
" />
<path d="M44.4500 49.5300
L45.7200 49.5300
" />
</g>
<g style="fill:none; 
stroke:#006464; stroke-width:0.1524; stroke-opacity:1; 
stroke-linecap:round; stroke-linejoin:round;">
<text x="41.9099" y="43.8149"
textLength="2.6827" font-size="1.6933" lengthAdjust="spacingAndGlyphs"
text-anchor="middle" opacity="0" stroke-opacity="0">R2</text>
<g class="stroked-text"><desc>R2</desc>
<path d="M41.6982 43.7594
L41.2749 43.1547
" />
<path d="M40.9725 43.7594
L40.9725 42.4894
" />
<path d="M40.9725 42.4894
L41.4563 42.4894
" />
<path d="M41.4563 42.4894
L41.5773 42.5499
" />
<path d="M41.5773 42.5499
L41.6378 42.6104
" />
<path d="M41.6378 42.6104
L41.6982 42.7313
" />
<path d="M41.6982 42.7313
L41.6982 42.9128
" />
<path d="M41.6982 42.9128
L41.6378 43.0337
" />
<path d="M41.6378 43.0337
L41.5773 43.0942
" />
<path d="M41.5773 43.0942
L41.4563 43.1547
" />
<path d="M41.4563 43.1547
L40.9725 43.1547
" />
<path d="M42.1821 42.6104
L42.2425 42.5499
" />
<path d="M42.2425 42.5499
L42.3635 42.4894
" />
<path d="M42.3635 42.4894
L42.6659 42.4894
" />
<path d="M42.6659 42.4894
L42.7868 42.5499
" />
<path d="M42.7868 42.5499
L42.8473 42.6104
" />
<path d="M42.8473 42.6104
L42.9078 42.7313
" />
<path d="M42.9078 42.7313
L42.9078 42.8523
" />
<path d="M42.9078 42.8523
L42.8473 43.0337
" />
<path d="M42.8473 43.0337
L42.1216 43.7594
" />
<path d="M42.1216 43.7594
L42.9078 43.7594
" />
</g><text x="41.9099" y="46.3549"
textLength="25.8447" font-size="1.6933" lengthAdjust="spacingAndGlyphs"
text-anchor="middle" opacity="0" stroke-opacity="0">900-910m立 1% 20-100W</text>
<g class="stroked-text"><desc>900-910m立 1% 20-100W</desc>
<path d="M29.4520 46.2994
L29.6939 46.2994
" />
<path d="M29.6939 46.2994
L29.8149 46.2390
" />
<path d="M29.8149 46.2390
L29.8753 46.1785
" />
<path d="M29.8753 46.1785
L29.9963 45.9970
" />
<path d="M29.9963 45.9970
L30.0568 45.7551
" />
<path d="M30.0568 45.7551
L30.0568 45.2713
" />
<path d="M30.0568 45.2713
L29.9963 45.1504
" />
<path d="M29.9963 45.1504
L29.9358 45.0899
" />
<path d="M29.9358 45.0899
L29.8149 45.0294
" />
<path d="M29.8149 45.0294
L29.5730 45.0294
" />
<path d="M29.5730 45.0294
L29.4520 45.0899
" />
<path d="M29.4520 45.0899
L29.3915 45.1504
" />
<path d="M29.3915 45.1504
L29.3311 45.2713
" />
<path d="M29.3311 45.2713
L29.3311 45.5737
" />
<path d="M29.3311 45.5737
L29.3915 45.6947
" />
<path d="M29.3915 45.6947
L29.4520 45.7551
" />
<path d="M29.4520 45.7551
L29.5730 45.8156
" />
<path d="M29.5730 45.8156
L29.8149 45.8156
" />
<path d="M29.8149 45.8156
L29.9358 45.7551
" />
<path d="M29.9358 45.7551
L29.9963 45.6947
" />
<path d="M29.9963 45.6947
L30.0568 45.5737
" />
<path d="M30.8429 45.0294
L30.9639 45.0294
" />
<path d="M30.9639 45.0294
L31.0848 45.0899
" />
<path d="M31.0848 45.0899
L31.1453 45.1504
" />
<path d="M31.1453 45.1504
L31.2058 45.2713
" />
<path d="M31.2058 45.2713
L31.2663 45.5132
" />
<path d="M31.2663 45.5132
L31.2663 45.8156
" />
<path d="M31.2663 45.8156
L31.2058 46.0575
" />
<path d="M31.2058 46.0575
L31.1453 46.1785
" />
<path d="M31.1453 46.1785
L31.0848 46.2390
" />
<path d="M31.0848 46.2390
L30.9639 46.2994
" />
<path d="M30.9639 46.2994
L30.8429 46.2994
" />
<path d="M30.8429 46.2994
L30.7220 46.2390
" />
<path d="M30.7220 46.2390
L30.6615 46.1785
" />
<path d="M30.6615 46.1785
L30.6010 46.0575
" />
<path d="M30.6010 46.0575
L30.5406 45.8156
" />
<path d="M30.5406 45.8156
L30.5406 45.5132
" />
<path d="M30.5406 45.5132
L30.6010 45.2713
" />
<path d="M30.6010 45.2713
L30.6615 45.1504
" />
<path d="M30.6615 45.1504
L30.7220 45.0899
" />
<path d="M30.7220 45.0899
L30.8429 45.0294
" />
<path d="M32.0524 45.0294
L32.1734 45.0294
" />
<path d="M32.1734 45.0294
L32.2943 45.0899
" />
<path d="M32.2943 45.0899
L32.3548 45.1504
" />
<path d="M32.3548 45.1504
L32.4153 45.2713
" />
<path d="M32.4153 45.2713
L32.4758 45.5132
" />
<path d="M32.4758 45.5132
L32.4758 45.8156
" />
<path d="M32.4758 45.8156
L32.4153 46.0575
" />
<path d="M32.4153 46.0575
L32.3548 46.1785
" />
<path d="M32.3548 46.1785
L32.2943 46.2390
" />
<path d="M32.2943 46.2390
L32.1734 46.2994
" />
<path d="M32.1734 46.2994
L32.0524 46.2994
" />
<path d="M32.0524 46.2994
L31.9315 46.2390
" />
<path d="M31.9315 46.2390
L31.8710 46.1785
" />
<path d="M31.8710 46.1785
L31.8105 46.0575
" />
<path d="M31.8105 46.0575
L31.7501 45.8156
" />
<path d="M31.7501 45.8156
L31.7501 45.5132
" />
<path d="M31.7501 45.5132
L31.8105 45.2713
" />
<path d="M31.8105 45.2713
L31.8710 45.1504
" />
<path d="M31.8710 45.1504
L31.9315 45.0899
" />
<path d="M31.9315 45.0899
L32.0524 45.0294
" />
<path d="M33.0200 45.8156
L33.9877 45.8156
" />
<path d="M34.6529 46.2994
L34.8948 46.2994
" />
<path d="M34.8948 46.2994
L35.0158 46.2390
" />
<path d="M35.0158 46.2390
L35.0762 46.1785
" />
<path d="M35.0762 46.1785
L35.1972 45.9970
" />
<path d="M35.1972 45.9970
L35.2577 45.7551
" />
<path d="M35.2577 45.7551
L35.2577 45.2713
" />
<path d="M35.2577 45.2713
L35.1972 45.1504
" />
<path d="M35.1972 45.1504
L35.1367 45.0899
" />
<path d="M35.1367 45.0899
L35.0158 45.0294
" />
<path d="M35.0158 45.0294
L34.7739 45.0294
" />
<path d="M34.7739 45.0294
L34.6529 45.0899
" />
<path d="M34.6529 45.0899
L34.5924 45.1504
" />
<path d="M34.5924 45.1504
L34.5320 45.2713
" />
<path d="M34.5320 45.2713
L34.5320 45.5737
" />
<path d="M34.5320 45.5737
L34.5924 45.6947
" />
<path d="M34.5924 45.6947
L34.6529 45.7551
" />
<path d="M34.6529 45.7551
L34.7739 45.8156
" />
<path d="M34.7739 45.8156
L35.0158 45.8156
" />
<path d="M35.0158 45.8156
L35.1367 45.7551
" />
<path d="M35.1367 45.7551
L35.1972 45.6947
" />
<path d="M35.1972 45.6947
L35.2577 45.5737
" />
<path d="M36.4672 46.2994
L35.7415 46.2994
" />
<path d="M36.1043 46.2994
L36.1043 45.0294
" />
<path d="M36.1043 45.0294
L35.9834 45.2109
" />
<path d="M35.9834 45.2109
L35.8624 45.3318
" />
<path d="M35.8624 45.3318
L35.7415 45.3923
" />
<path d="M37.2533 45.0294
L37.3743 45.0294
" />
<path d="M37.3743 45.0294
L37.4952 45.0899
" />
<path d="M37.4952 45.0899
L37.5557 45.1504
" />
<path d="M37.5557 45.1504
L37.6162 45.2713
" />
<path d="M37.6162 45.2713
L37.6767 45.5132
" />
<path d="M37.6767 45.5132
L37.6767 45.8156
" />
<path d="M37.6767 45.8156
L37.6162 46.0575
" />
<path d="M37.6162 46.0575
L37.5557 46.1785
" />
<path d="M37.5557 46.1785
L37.4952 46.2390
" />
<path d="M37.4952 46.2390
L37.3743 46.2994
" />
<path d="M37.3743 46.2994
L37.2533 46.2994
" />
<path d="M37.2533 46.2994
L37.1324 46.2390
" />
<path d="M37.1324 46.2390
L37.0719 46.1785
" />
<path d="M37.0719 46.1785
L37.0114 46.0575
" />
<path d="M37.0114 46.0575
L36.9510 45.8156
" />
<path d="M36.9510 45.8156
L36.9510 45.5132
" />
<path d="M36.9510 45.5132
L37.0114 45.2713
" />
<path d="M37.0114 45.2713
L37.0719 45.1504
" />
<path d="M37.0719 45.1504
L37.1324 45.0899
" />
<path d="M37.1324 45.0899
L37.2533 45.0294
" />
<path d="M38.2209 46.2994
L38.2209 45.4528
" />
<path d="M38.2209 45.5737
L38.2814 45.5132
" />
<path d="M38.2814 45.5132
L38.4024 45.4528
" />
<path d="M38.4024 45.4528
L38.5838 45.4528
" />
<path d="M38.5838 45.4528
L38.7047 45.5132
" />
<path d="M38.7047 45.5132
L38.7652 45.6342
" />
<path d="M38.7652 45.6342
L38.7652 46.2994
" />
<path d="M38.7652 45.6342
L38.8257 45.5132
" />
<path d="M38.8257 45.5132
L38.9466 45.4528
" />
<path d="M38.9466 45.4528
L39.1281 45.4528
" />
<path d="M39.1281 45.4528
L39.2490 45.5132
" />
<path d="M39.2490 45.5132
L39.3095 45.6342
" />
<path d="M39.3095 45.6342
L39.3095 46.2994
" />
<path d="M39.8538 46.2994
L40.1561 46.2994
" />
<path d="M40.1561 46.2994
L40.1561 46.0575
" />
<path d="M40.1561 46.0575
L40.0352 45.9970
" />
<path d="M40.0352 45.9970
L39.9142 45.8761
" />
<path d="M39.9142 45.8761
L39.8538 45.6947
" />
<path d="M39.8538 45.6947
L39.8538 45.3923
" />
<path d="M39.8538 45.3923
L39.9142 45.2109
" />
<path d="M39.9142 45.2109
L40.0352 45.0899
" />
<path d="M40.0352 45.0899
L40.2166 45.0294
" />
<path d="M40.2166 45.0294
L40.4585 45.0294
" />
<path d="M40.4585 45.0294
L40.6399 45.0899
" />
<path d="M40.6399 45.0899
L40.7609 45.2109
" />
<path d="M40.7609 45.2109
L40.8214 45.3923
" />
<path d="M40.8214 45.3923
L40.8214 45.6947
" />
<path d="M40.8214 45.6947
L40.7609 45.8761
" />
<path d="M40.7609 45.8761
L40.6399 45.9970
" />
<path d="M40.6399 45.9970
L40.5190 46.0575
" />
<path d="M40.5190 46.0575
L40.5190 46.2994
" />
<path d="M40.5190 46.2994
L40.8214 46.2994
" />
<path d="M42.9985 46.2994
L42.2728 46.2994
" />
<path d="M42.6356 46.2994
L42.6356 45.0294
" />
<path d="M42.6356 45.0294
L42.5147 45.2109
" />
<path d="M42.5147 45.2109
L42.3937 45.3318
" />
<path d="M42.3937 45.3318
L42.2728 45.3923
" />
<path d="M43.4823 46.2994
L44.4499 45.0294
" />
<path d="M43.6637 45.0294
L43.7846 45.0899
" />
<path d="M43.7846 45.0899
L43.8451 45.2109
" />
<path d="M43.8451 45.2109
L43.7846 45.3318
" />
<path d="M43.7846 45.3318
L43.6637 45.3923
" />
<path d="M43.6637 45.3923
L43.5427 45.3318
" />
<path d="M43.5427 45.3318
L43.4823 45.2109
" />
<path d="M43.4823 45.2109
L43.5427 45.0899
" />
<path d="M43.5427 45.0899
L43.6637 45.0294
" />
<path d="M44.3894 46.2390
L44.4499 46.1180
" />
<path d="M44.4499 46.1180
L44.3894 45.9970
" />
<path d="M44.3894 45.9970
L44.2684 45.9366
" />
<path d="M44.2684 45.9366
L44.1475 45.9970
" />
<path d="M44.1475 45.9970
L44.0870 46.1180
" />
<path d="M44.0870 46.1180
L44.1475 46.2390
" />
<path d="M44.1475 46.2390
L44.2684 46.2994
" />
<path d="M44.2684 46.2994
L44.3894 46.2390
" />
<path d="M45.9013 45.1504
L45.9617 45.0899
" />
<path d="M45.9617 45.0899
L46.0827 45.0294
" />
<path d="M46.0827 45.0294
L46.3851 45.0294
" />
<path d="M46.3851 45.0294
L46.5060 45.0899
" />
<path d="M46.5060 45.0899
L46.5665 45.1504
" />
<path d="M46.5665 45.1504
L46.6270 45.2713
" />
<path d="M46.6270 45.2713
L46.6270 45.3923
" />
<path d="M46.6270 45.3923
L46.5665 45.5737
" />
<path d="M46.5665 45.5737
L45.8408 46.2994
" />
<path d="M45.8408 46.2994
L46.6270 46.2994
" />
<path d="M47.4131 45.0294
L47.5341 45.0294
" />
<path d="M47.5341 45.0294
L47.6550 45.0899
" />
<path d="M47.6550 45.0899
L47.7155 45.1504
" />
<path d="M47.7155 45.1504
L47.7760 45.2713
" />
<path d="M47.7760 45.2713
L47.8365 45.5132
" />
<path d="M47.8365 45.5132
L47.8365 45.8156
" />
<path d="M47.8365 45.8156
L47.7760 46.0575
" />
<path d="M47.7760 46.0575
L47.7155 46.1785
" />
<path d="M47.7155 46.1785
L47.6550 46.2390
" />
<path d="M47.6550 46.2390
L47.5341 46.2994
" />
<path d="M47.5341 46.2994
L47.4131 46.2994
" />
<path d="M47.4131 46.2994
L47.2922 46.2390
" />
<path d="M47.2922 46.2390
L47.2317 46.1785
" />
<path d="M47.2317 46.1785
L47.1712 46.0575
" />
<path d="M47.1712 46.0575
L47.1108 45.8156
" />
<path d="M47.1108 45.8156
L47.1108 45.5132
" />
<path d="M47.1108 45.5132
L47.1712 45.2713
" />
<path d="M47.1712 45.2713
L47.2317 45.1504
" />
<path d="M47.2317 45.1504
L47.2922 45.0899
" />
<path d="M47.2922 45.0899
L47.4131 45.0294
" />
<path d="M48.3807 45.8156
L49.3484 45.8156
" />
<path d="M50.6184 46.2994
L49.8927 46.2994
" />
<path d="M50.2555 46.2994
L50.2555 45.0294
" />
<path d="M50.2555 45.0294
L50.1346 45.2109
" />
<path d="M50.1346 45.2109
L50.0136 45.3318
" />
<path d="M50.0136 45.3318
L49.8927 45.3923
" />
<path d="M51.4045 45.0294
L51.5255 45.0294
" />
<path d="M51.5255 45.0294
L51.6464 45.0899
" />
<path d="M51.6464 45.0899
L51.7069 45.1504
" />
<path d="M51.7069 45.1504
L51.7674 45.2713
" />
<path d="M51.7674 45.2713
L51.8279 45.5132
" />
<path d="M51.8279 45.5132
L51.8279 45.8156
" />
<path d="M51.8279 45.8156
L51.7674 46.0575
" />
<path d="M51.7674 46.0575
L51.7069 46.1785
" />
<path d="M51.7069 46.1785
L51.6464 46.2390
" />
<path d="M51.6464 46.2390
L51.5255 46.2994
" />
<path d="M51.5255 46.2994
L51.4045 46.2994
" />
<path d="M51.4045 46.2994
L51.2836 46.2390
" />
<path d="M51.2836 46.2390
L51.2231 46.1785
" />
<path d="M51.2231 46.1785
L51.1626 46.0575
" />
<path d="M51.1626 46.0575
L51.1022 45.8156
" />
<path d="M51.1022 45.8156
L51.1022 45.5132
" />
<path d="M51.1022 45.5132
L51.1626 45.2713
" />
<path d="M51.1626 45.2713
L51.2231 45.1504
" />
<path d="M51.2231 45.1504
L51.2836 45.0899
" />
<path d="M51.2836 45.0899
L51.4045 45.0294
" />
<path d="M52.6140 45.0294
L52.7350 45.0294
" />
<path d="M52.7350 45.0294
L52.8559 45.0899
" />
<path d="M52.8559 45.0899
L52.9164 45.1504
" />
<path d="M52.9164 45.1504
L52.9769 45.2713
" />
<path d="M52.9769 45.2713
L53.0374 45.5132
" />
<path d="M53.0374 45.5132
L53.0374 45.8156
" />
<path d="M53.0374 45.8156
L52.9769 46.0575
" />
<path d="M52.9769 46.0575
L52.9164 46.1785
" />
<path d="M52.9164 46.1785
L52.8559 46.2390
" />
<path d="M52.8559 46.2390
L52.7350 46.2994
" />
<path d="M52.7350 46.2994
L52.6140 46.2994
" />
<path d="M52.6140 46.2994
L52.4931 46.2390
" />
<path d="M52.4931 46.2390
L52.4326 46.1785
" />
<path d="M52.4326 46.1785
L52.3721 46.0575
" />
<path d="M52.3721 46.0575
L52.3117 45.8156
" />
<path d="M52.3117 45.8156
L52.3117 45.5132
" />
<path d="M52.3117 45.5132
L52.3721 45.2713
" />
<path d="M52.3721 45.2713
L52.4326 45.1504
" />
<path d="M52.4326 45.1504
L52.4931 45.0899
" />
<path d="M52.4931 45.0899
L52.6140 45.0294
" />
<path d="M53.4607 45.0294
L53.7631 46.2994
" />
<path d="M53.7631 46.2994
L54.0050 45.3923
" />
<path d="M54.0050 45.3923
L54.2469 46.2994
" />
<path d="M54.2469 46.2994
L54.5493 45.0294
" />
</g></g>
<g style="fill:#840000; fill-opacity:1.0000; 
stroke:#840000; stroke-width:0.1524; stroke-opacity:1; 
stroke-linecap:round; stroke-linejoin:round;">
<rect x="143.916400" y="18.923000" width="0.863600" height="0.254000" rx="0.000000" />
<rect x="143.916400" y="21.463000" width="0.863600" height="0.254000" rx="0.000000" />
<path style="fill:none; 
stroke:#840000; stroke-width:0.1524; stroke-opacity:1; 
stroke-linecap:round; stroke-linejoin:round;fill:none"
d="M 143.5100,19.0500
143.9164,19.0500
" /> 
<path style="fill:none; 
stroke:#840000; stroke-width:0.1524; stroke-opacity:1; 
stroke-linecap:round; stroke-linejoin:round;fill:none"
d="M 143.5100,21.5900
143.9164,21.5900
" /> 
</g>
<g style="fill:none; 
stroke:#840000; stroke-width:0.1524; stroke-opacity:1; 
stroke-linecap:round; stroke-linejoin:round;">
<path d="M143.5100 19.0500
L139.7000 19.0500
" />
</g>
<g style="fill:none; 
stroke:#A90000; stroke-width:0.1524; stroke-opacity:1; 
stroke-linecap:round; stroke-linejoin:round;">
<text x="141.6050" y="18.7960"
textLength="1.4127" font-size="1.6933" lengthAdjust="spacingAndGlyphs"
text-anchor="middle" opacity="0" stroke-opacity="0">1</text>
<g class="stroked-text"><desc>1</desc>
<path d="M141.9679 18.6325
L141.2422 18.6325
" />
<path d="M141.6050 18.6325
L141.6050 17.3625
" />
<path d="M141.6050 17.3625
L141.4841 17.5440
" />
<path d="M141.4841 17.5440
L141.3631 17.6649
" />
<path d="M141.3631 17.6649
L141.2422 17.7254
" />
</g></g>
<g style="fill:none; 
stroke:#840000; stroke-width:0.1524; stroke-opacity:1; 
stroke-linecap:round; stroke-linejoin:round;">
<path d="M143.5100 21.5900
L139.7000 21.5900
" />
</g>
<g style="fill:none; 
stroke:#A90000; stroke-width:0.1524; stroke-opacity:1; 
stroke-linecap:round; stroke-linejoin:round;">
<text x="141.6050" y="21.3360"
textLength="1.4127" font-size="1.6933" lengthAdjust="spacingAndGlyphs"
text-anchor="middle" opacity="0" stroke-opacity="0">2</text>
<g class="stroked-text"><desc>2</desc>
<path d="M141.2422 20.0235
L141.3026 19.9630
" />
<path d="M141.3026 19.9630
L141.4236 19.9025
" />
<path d="M141.4236 19.9025
L141.7260 19.9025
" />
<path d="M141.7260 19.9025
L141.8469 19.9630
" />
<path d="M141.8469 19.9630
L141.9074 20.0235
" />
<path d="M141.9074 20.0235
L141.9679 20.1444
" />
<path d="M141.9679 20.1444
L141.9679 20.2654
" />
<path d="M141.9679 20.2654
L141.9074 20.4468
" />
<path d="M141.9074 20.4468
L141.1817 21.1725
" />
<path d="M141.1817 21.1725
L141.9679 21.1725
" />
</g></g>
<g style="fill:none; 
stroke:#006464; stroke-width:0.1524; stroke-opacity:1; 
stroke-linecap:round; stroke-linejoin:round;">
<text x="144.1449" y="14.6050"
textLength="2.3803" font-size="1.6933" lengthAdjust="spacingAndGlyphs"
text-anchor="middle" opacity="0" stroke-opacity="0">J2</text>
<g class="stroked-text"><desc>J2</desc>
<path d="M143.7216 13.2795
L143.7216 14.1867
" />
<path d="M143.7216 14.1867
L143.6611 14.3681
" />
<path d="M143.6611 14.3681
L143.5402 14.4891
" />
<path d="M143.5402 14.4891
L143.3587 14.5495
" />
<path d="M143.3587 14.5495
L143.2378 14.5495
" />
<path d="M144.2659 13.4005
L144.3263 13.3400
" />
<path d="M144.3263 13.3400
L144.4473 13.2795
" />
<path d="M144.4473 13.2795
L144.7497 13.2795
" />
<path d="M144.7497 13.2795
L144.8706 13.3400
" />
<path d="M144.8706 13.3400
L144.9311 13.4005
" />
<path d="M144.9311 13.4005
L144.9916 13.5214
" />
<path d="M144.9916 13.5214
L144.9916 13.6424
" />
<path d="M144.9916 13.6424
L144.9311 13.8238
" />
<path d="M144.9311 13.8238
L144.2054 14.5495
" />
<path d="M144.2054 14.5495
L144.9916 14.5495
" />
</g><text x="144.1450" y="17.1450"
textLength="10.1818" font-size="1.6933" lengthAdjust="spacingAndGlyphs"
text-anchor="middle" opacity="0" stroke-opacity="0">POWER-IN</text>
<g class="stroked-text"><desc>POWER-IN</desc>
<path d="M139.4580 17.0895
L139.4580 15.8195
" />
<path d="M139.4580 15.8195
L139.9418 15.8195
" />
<path d="M139.9418 15.8195
L140.0628 15.8800
" />
<path d="M140.0628 15.8800
L140.1233 15.9405
" />
<path d="M140.1233 15.9405
L140.1837 16.0614
" />
<path d="M140.1837 16.0614
L140.1837 16.2429
" />
<path d="M140.1837 16.2429
L140.1233 16.3638
" />
<path d="M140.1233 16.3638
L140.0628 16.4243
" />
<path d="M140.0628 16.4243
L139.9418 16.4848
" />
<path d="M139.9418 16.4848
L139.4580 16.4848
" />
<path d="M140.9699 15.8195
L141.2118 15.8195
" />
<path d="M141.2118 15.8195
L141.3328 15.8800
" />
<path d="M141.3328 15.8800
L141.4537 16.0010
" />
<path d="M141.4537 16.0010
L141.5142 16.2429
" />
<path d="M141.5142 16.2429
L141.5142 16.6662
" />
<path d="M141.5142 16.6662
L141.4537 16.9081
" />
<path d="M141.4537 16.9081
L141.3328 17.0291
" />
<path d="M141.3328 17.0291
L141.2118 17.0895
" />
<path d="M141.2118 17.0895
L140.9699 17.0895
" />
<path d="M140.9699 17.0895
L140.8490 17.0291
" />
<path d="M140.8490 17.0291
L140.7280 16.9081
" />
<path d="M140.7280 16.9081
L140.6676 16.6662
" />
<path d="M140.6676 16.6662
L140.6676 16.2429
" />
<path d="M140.6676 16.2429
L140.7280 16.0010
" />
<path d="M140.7280 16.0010
L140.8490 15.8800
" />
<path d="M140.8490 15.8800
L140.9699 15.8195
" />
<path d="M141.9376 15.8195
L142.2400 17.0895
" />
<path d="M142.2400 17.0895
L142.4819 16.1824
" />
<path d="M142.4819 16.1824
L142.7238 17.0895
" />
<path d="M142.7238 17.0895
L143.0262 15.8195
" />
<path d="M143.5099 16.4243
L143.9333 16.4243
" />
<path d="M144.1147 17.0895
L143.5099 17.0895
" />
<path d="M143.5099 17.0895
L143.5099 15.8195
" />
<path d="M143.5099 15.8195
L144.1147 15.8195
" />
<path d="M145.3846 17.0895
L144.9613 16.4848
" />
<path d="M144.6589 17.0895
L144.6589 15.8195
" />
<path d="M144.6589 15.8195
L145.1427 15.8195
" />
<path d="M145.1427 15.8195
L145.2637 15.8800
" />
<path d="M145.2637 15.8800
L145.3242 15.9405
" />
<path d="M145.3242 15.9405
L145.3846 16.0614
" />
<path d="M145.3846 16.0614
L145.3846 16.2429
" />
<path d="M145.3846 16.2429
L145.3242 16.3638
" />
<path d="M145.3242 16.3638
L145.2637 16.4243
" />
<path d="M145.2637 16.4243
L145.1427 16.4848
" />
<path d="M145.1427 16.4848
L144.6589 16.4848
" />
<path d="M145.9289 16.6057
L146.8966 16.6057
" />
<path d="M147.5013 17.0895
L147.5013 15.8195
" />
<path d="M148.1061 17.0895
L148.1061 15.8195
" />
<path d="M148.1061 15.8195
L148.8318 17.0895
" />
<path d="M148.8318 17.0895
L148.8318 15.8195
" />
</g></g>
<g style="fill:none; 
stroke:#840000; stroke-width:0.2540; stroke-opacity:1; 
stroke-linecap:round; stroke-linejoin:round;">
<rect x="39.370000" y="38.354000" width="5.080000" height="2.032000" rx="0.000000" />
</g>
<g style="fill:none; 
stroke:#840000; stroke-width:0.1524; stroke-opacity:1; 
stroke-linecap:round; stroke-linejoin:round;">
<path d="M39.3700 39.3700
L38.1000 39.3700
" />
<path d="M44.4500 39.3700
L45.7200 39.3700
" />
</g>
<g style="fill:none; 
stroke:#006464; stroke-width:0.1524; stroke-opacity:1; 
stroke-linecap:round; stroke-linejoin:round;">
<text x="41.9099" y="33.6549"
textLength="2.6827" font-size="1.6933" lengthAdjust="spacingAndGlyphs"
text-anchor="middle" opacity="0" stroke-opacity="0">R1</text>
<g class="stroked-text"><desc>R1</desc>
<path d="M41.6982 33.5994
L41.2749 32.9947
" />
<path d="M40.9725 33.5994
L40.9725 32.3294
" />
<path d="M40.9725 32.3294
L41.4563 32.3294
" />
<path d="M41.4563 32.3294
L41.5773 32.3899
" />
<path d="M41.5773 32.3899
L41.6378 32.4504
" />
<path d="M41.6378 32.4504
L41.6982 32.5713
" />
<path d="M41.6982 32.5713
L41.6982 32.7528
" />
<path d="M41.6982 32.7528
L41.6378 32.8737
" />
<path d="M41.6378 32.8737
L41.5773 32.9342
" />
<path d="M41.5773 32.9342
L41.4563 32.9947
" />
<path d="M41.4563 32.9947
L40.9725 32.9947
" />
<path d="M42.9078 33.5994
L42.1821 33.5994
" />
<path d="M42.5449 33.5994
L42.5449 32.3294
" />
<path d="M42.5449 32.3294
L42.4240 32.5109
" />
<path d="M42.4240 32.5109
L42.3030 32.6318
" />
<path d="M42.3030 32.6318
L42.1821 32.6923
" />
</g><text x="41.9099" y="36.1949"
textLength="25.8447" font-size="1.6933" lengthAdjust="spacingAndGlyphs"
text-anchor="middle" opacity="0" stroke-opacity="0">900-910m立 1% 20-100W</text>
<g class="stroked-text"><desc>900-910m立 1% 20-100W</desc>
<path d="M29.4520 36.1394
L29.6939 36.1394
" />
<path d="M29.6939 36.1394
L29.8149 36.0790
" />
<path d="M29.8149 36.0790
L29.8753 36.0185
" />
<path d="M29.8753 36.0185
L29.9963 35.8370
" />
<path d="M29.9963 35.8370
L30.0568 35.5951
" />
<path d="M30.0568 35.5951
L30.0568 35.1113
" />
<path d="M30.0568 35.1113
L29.9963 34.9904
" />
<path d="M29.9963 34.9904
L29.9358 34.9299
" />
<path d="M29.9358 34.9299
L29.8149 34.8694
" />
<path d="M29.8149 34.8694
L29.5730 34.8694
" />
<path d="M29.5730 34.8694
L29.4520 34.9299
" />
<path d="M29.4520 34.9299
L29.3915 34.9904
" />
<path d="M29.3915 34.9904
L29.3311 35.1113
" />
<path d="M29.3311 35.1113
L29.3311 35.4137
" />
<path d="M29.3311 35.4137
L29.3915 35.5347
" />
<path d="M29.3915 35.5347
L29.4520 35.5951
" />
<path d="M29.4520 35.5951
L29.5730 35.6556
" />
<path d="M29.5730 35.6556
L29.8149 35.6556
" />
<path d="M29.8149 35.6556
L29.9358 35.5951
" />
<path d="M29.9358 35.5951
L29.9963 35.5347
" />
<path d="M29.9963 35.5347
L30.0568 35.4137
" />
<path d="M30.8429 34.8694
L30.9639 34.8694
" />
<path d="M30.9639 34.8694
L31.0848 34.9299
" />
<path d="M31.0848 34.9299
L31.1453 34.9904
" />
<path d="M31.1453 34.9904
L31.2058 35.1113
" />
<path d="M31.2058 35.1113
L31.2663 35.3532
" />
<path d="M31.2663 35.3532
L31.2663 35.6556
" />
<path d="M31.2663 35.6556
L31.2058 35.8975
" />
<path d="M31.2058 35.8975
L31.1453 36.0185
" />
<path d="M31.1453 36.0185
L31.0848 36.0790
" />
<path d="M31.0848 36.0790
L30.9639 36.1394
" />
<path d="M30.9639 36.1394
L30.8429 36.1394
" />
<path d="M30.8429 36.1394
L30.7220 36.0790
" />
<path d="M30.7220 36.0790
L30.6615 36.0185
" />
<path d="M30.6615 36.0185
L30.6010 35.8975
" />
<path d="M30.6010 35.8975
L30.5406 35.6556
" />
<path d="M30.5406 35.6556
L30.5406 35.3532
" />
<path d="M30.5406 35.3532
L30.6010 35.1113
" />
<path d="M30.6010 35.1113
L30.6615 34.9904
" />
<path d="M30.6615 34.9904
L30.7220 34.9299
" />
<path d="M30.7220 34.9299
L30.8429 34.8694
" />
<path d="M32.0524 34.8694
L32.1734 34.8694
" />
<path d="M32.1734 34.8694
L32.2943 34.9299
" />
<path d="M32.2943 34.9299
L32.3548 34.9904
" />
<path d="M32.3548 34.9904
L32.4153 35.1113
" />
<path d="M32.4153 35.1113
L32.4758 35.3532
" />
<path d="M32.4758 35.3532
L32.4758 35.6556
" />
<path d="M32.4758 35.6556
L32.4153 35.8975
" />
<path d="M32.4153 35.8975
L32.3548 36.0185
" />
<path d="M32.3548 36.0185
L32.2943 36.0790
" />
<path d="M32.2943 36.0790
L32.1734 36.1394
" />
<path d="M32.1734 36.1394
L32.0524 36.1394
" />
<path d="M32.0524 36.1394
L31.9315 36.0790
" />
<path d="M31.9315 36.0790
L31.8710 36.0185
" />
<path d="M31.8710 36.0185
L31.8105 35.8975
" />
<path d="M31.8105 35.8975
L31.7501 35.6556
" />
<path d="M31.7501 35.6556
L31.7501 35.3532
" />
<path d="M31.7501 35.3532
L31.8105 35.1113
" />
<path d="M31.8105 35.1113
L31.8710 34.9904
" />
<path d="M31.8710 34.9904
L31.9315 34.9299
" />
<path d="M31.9315 34.9299
L32.0524 34.8694
" />
<path d="M33.0200 35.6556
L33.9877 35.6556
" />
<path d="M34.6529 36.1394
L34.8948 36.1394
" />
<path d="M34.8948 36.1394
L35.0158 36.0790
" />
<path d="M35.0158 36.0790
L35.0762 36.0185
" />
<path d="M35.0762 36.0185
L35.1972 35.8370
" />
<path d="M35.1972 35.8370
L35.2577 35.5951
" />
<path d="M35.2577 35.5951
L35.2577 35.1113
" />
<path d="M35.2577 35.1113
L35.1972 34.9904
" />
<path d="M35.1972 34.9904
L35.1367 34.9299
" />
<path d="M35.1367 34.9299
L35.0158 34.8694
" />
<path d="M35.0158 34.8694
L34.7739 34.8694
" />
<path d="M34.7739 34.8694
L34.6529 34.9299
" />
<path d="M34.6529 34.9299
L34.5924 34.9904
" />
<path d="M34.5924 34.9904
L34.5320 35.1113
" />
<path d="M34.5320 35.1113
L34.5320 35.4137
" />
<path d="M34.5320 35.4137
L34.5924 35.5347
" />
<path d="M34.5924 35.5347
L34.6529 35.5951
" />
<path d="M34.6529 35.5951
L34.7739 35.6556
" />
<path d="M34.7739 35.6556
L35.0158 35.6556
" />
<path d="M35.0158 35.6556
L35.1367 35.5951
" />
<path d="M35.1367 35.5951
L35.1972 35.5347
" />
<path d="M35.1972 35.5347
L35.2577 35.4137
" />
<path d="M36.4672 36.1394
L35.7415 36.1394
" />
<path d="M36.1043 36.1394
L36.1043 34.8694
" />
<path d="M36.1043 34.8694
L35.9834 35.0509
" />
<path d="M35.9834 35.0509
L35.8624 35.1718
" />
<path d="M35.8624 35.1718
L35.7415 35.2323
" />
<path d="M37.2533 34.8694
L37.3743 34.8694
" />
<path d="M37.3743 34.8694
L37.4952 34.9299
" />
<path d="M37.4952 34.9299
L37.5557 34.9904
" />
<path d="M37.5557 34.9904
L37.6162 35.1113
" />
<path d="M37.6162 35.1113
L37.6767 35.3532
" />
<path d="M37.6767 35.3532
L37.6767 35.6556
" />
<path d="M37.6767 35.6556
L37.6162 35.8975
" />
<path d="M37.6162 35.8975
L37.5557 36.0185
" />
<path d="M37.5557 36.0185
L37.4952 36.0790
" />
<path d="M37.4952 36.0790
L37.3743 36.1394
" />
<path d="M37.3743 36.1394
L37.2533 36.1394
" />
<path d="M37.2533 36.1394
L37.1324 36.0790
" />
<path d="M37.1324 36.0790
L37.0719 36.0185
" />
<path d="M37.0719 36.0185
L37.0114 35.8975
" />
<path d="M37.0114 35.8975
L36.9510 35.6556
" />
<path d="M36.9510 35.6556
L36.9510 35.3532
" />
<path d="M36.9510 35.3532
L37.0114 35.1113
" />
<path d="M37.0114 35.1113
L37.0719 34.9904
" />
<path d="M37.0719 34.9904
L37.1324 34.9299
" />
<path d="M37.1324 34.9299
L37.2533 34.8694
" />
<path d="M38.2209 36.1394
L38.2209 35.2928
" />
<path d="M38.2209 35.4137
L38.2814 35.3532
" />
<path d="M38.2814 35.3532
L38.4024 35.2928
" />
<path d="M38.4024 35.2928
L38.5838 35.2928
" />
<path d="M38.5838 35.2928
L38.7047 35.3532
" />
<path d="M38.7047 35.3532
L38.7652 35.4742
" />
<path d="M38.7652 35.4742
L38.7652 36.1394
" />
<path d="M38.7652 35.4742
L38.8257 35.3532
" />
<path d="M38.8257 35.3532
L38.9466 35.2928
" />
<path d="M38.9466 35.2928
L39.1281 35.2928
" />
<path d="M39.1281 35.2928
L39.2490 35.3532
" />
<path d="M39.2490 35.3532
L39.3095 35.4742
" />
<path d="M39.3095 35.4742
L39.3095 36.1394
" />
<path d="M39.8538 36.1394
L40.1561 36.1394
" />
<path d="M40.1561 36.1394
L40.1561 35.8975
" />
<path d="M40.1561 35.8975
L40.0352 35.8370
" />
<path d="M40.0352 35.8370
L39.9142 35.7161
" />
<path d="M39.9142 35.7161
L39.8538 35.5347
" />
<path d="M39.8538 35.5347
L39.8538 35.2323
" />
<path d="M39.8538 35.2323
L39.9142 35.0509
" />
<path d="M39.9142 35.0509
L40.0352 34.9299
" />
<path d="M40.0352 34.9299
L40.2166 34.8694
" />
<path d="M40.2166 34.8694
L40.4585 34.8694
" />
<path d="M40.4585 34.8694
L40.6399 34.9299
" />
<path d="M40.6399 34.9299
L40.7609 35.0509
" />
<path d="M40.7609 35.0509
L40.8214 35.2323
" />
<path d="M40.8214 35.2323
L40.8214 35.5347
" />
<path d="M40.8214 35.5347
L40.7609 35.7161
" />
<path d="M40.7609 35.7161
L40.6399 35.8370
" />
<path d="M40.6399 35.8370
L40.5190 35.8975
" />
<path d="M40.5190 35.8975
L40.5190 36.1394
" />
<path d="M40.5190 36.1394
L40.8214 36.1394
" />
<path d="M42.9985 36.1394
L42.2728 36.1394
" />
<path d="M42.6356 36.1394
L42.6356 34.8694
" />
<path d="M42.6356 34.8694
L42.5147 35.0509
" />
<path d="M42.5147 35.0509
L42.3937 35.1718
" />
<path d="M42.3937 35.1718
L42.2728 35.2323
" />
<path d="M43.4823 36.1394
L44.4499 34.8694
" />
<path d="M43.6637 34.8694
L43.7846 34.9299
" />
<path d="M43.7846 34.9299
L43.8451 35.0509
" />
<path d="M43.8451 35.0509
L43.7846 35.1718
" />
<path d="M43.7846 35.1718
L43.6637 35.2323
" />
<path d="M43.6637 35.2323
L43.5427 35.1718
" />
<path d="M43.5427 35.1718
L43.4823 35.0509
" />
<path d="M43.4823 35.0509
L43.5427 34.9299
" />
<path d="M43.5427 34.9299
L43.6637 34.8694
" />
<path d="M44.3894 36.0790
L44.4499 35.9580
" />
<path d="M44.4499 35.9580
L44.3894 35.8370
" />
<path d="M44.3894 35.8370
L44.2684 35.7766
" />
<path d="M44.2684 35.7766
L44.1475 35.8370
" />
<path d="M44.1475 35.8370
L44.0870 35.9580
" />
<path d="M44.0870 35.9580
L44.1475 36.0790
" />
<path d="M44.1475 36.0790
L44.2684 36.1394
" />
<path d="M44.2684 36.1394
L44.3894 36.0790
" />
<path d="M45.9013 34.9904
L45.9617 34.9299
" />
<path d="M45.9617 34.9299
L46.0827 34.8694
" />
<path d="M46.0827 34.8694
L46.3851 34.8694
" />
<path d="M46.3851 34.8694
L46.5060 34.9299
" />
<path d="M46.5060 34.9299
L46.5665 34.9904
" />
<path d="M46.5665 34.9904
L46.6270 35.1113
" />
<path d="M46.6270 35.1113
L46.6270 35.2323
" />
<path d="M46.6270 35.2323
L46.5665 35.4137
" />
<path d="M46.5665 35.4137
L45.8408 36.1394
" />
<path d="M45.8408 36.1394
L46.6270 36.1394
" />
<path d="M47.4131 34.8694
L47.5341 34.8694
" />
<path d="M47.5341 34.8694
L47.6550 34.9299
" />
<path d="M47.6550 34.9299
L47.7155 34.9904
" />
<path d="M47.7155 34.9904
L47.7760 35.1113
" />
<path d="M47.7760 35.1113
L47.8365 35.3532
" />
<path d="M47.8365 35.3532
L47.8365 35.6556
" />
<path d="M47.8365 35.6556
L47.7760 35.8975
" />
<path d="M47.7760 35.8975
L47.7155 36.0185
" />
<path d="M47.7155 36.0185
L47.6550 36.0790
" />
<path d="M47.6550 36.0790
L47.5341 36.1394
" />
<path d="M47.5341 36.1394
L47.4131 36.1394
" />
<path d="M47.4131 36.1394
L47.2922 36.0790
" />
<path d="M47.2922 36.0790
L47.2317 36.0185
" />
<path d="M47.2317 36.0185
L47.1712 35.8975
" />
<path d="M47.1712 35.8975
L47.1108 35.6556
" />
<path d="M47.1108 35.6556
L47.1108 35.3532
" />
<path d="M47.1108 35.3532
L47.1712 35.1113
" />
<path d="M47.1712 35.1113
L47.2317 34.9904
" />
<path d="M47.2317 34.9904
L47.2922 34.9299
" />
<path d="M47.2922 34.9299
L47.4131 34.8694
" />
<path d="M48.3807 35.6556
L49.3484 35.6556
" />
<path d="M50.6184 36.1394
L49.8927 36.1394
" />
<path d="M50.2555 36.1394
L50.2555 34.8694
" />
<path d="M50.2555 34.8694
L50.1346 35.0509
" />
<path d="M50.1346 35.0509
L50.0136 35.1718
" />
<path d="M50.0136 35.1718
L49.8927 35.2323
" />
<path d="M51.4045 34.8694
L51.5255 34.8694
" />
<path d="M51.5255 34.8694
L51.6464 34.9299
" />
<path d="M51.6464 34.9299
L51.7069 34.9904
" />
<path d="M51.7069 34.9904
L51.7674 35.1113
" />
<path d="M51.7674 35.1113
L51.8279 35.3532
" />
<path d="M51.8279 35.3532
L51.8279 35.6556
" />
<path d="M51.8279 35.6556
L51.7674 35.8975
" />
<path d="M51.7674 35.8975
L51.7069 36.0185
" />
<path d="M51.7069 36.0185
L51.6464 36.0790
" />
<path d="M51.6464 36.0790
L51.5255 36.1394
" />
<path d="M51.5255 36.1394
L51.4045 36.1394
" />
<path d="M51.4045 36.1394
L51.2836 36.0790
" />
<path d="M51.2836 36.0790
L51.2231 36.0185
" />
<path d="M51.2231 36.0185
L51.1626 35.8975
" />
<path d="M51.1626 35.8975
L51.1022 35.6556
" />
<path d="M51.1022 35.6556
L51.1022 35.3532
" />
<path d="M51.1022 35.3532
L51.1626 35.1113
" />
<path d="M51.1626 35.1113
L51.2231 34.9904
" />
<path d="M51.2231 34.9904
L51.2836 34.9299
" />
<path d="M51.2836 34.9299
L51.4045 34.8694
" />
<path d="M52.6140 34.8694
L52.7350 34.8694
" />
<path d="M52.7350 34.8694
L52.8559 34.9299
" />
<path d="M52.8559 34.9299
L52.9164 34.9904
" />
<path d="M52.9164 34.9904
L52.9769 35.1113
" />
<path d="M52.9769 35.1113
L53.0374 35.3532
" />
<path d="M53.0374 35.3532
L53.0374 35.6556
" />
<path d="M53.0374 35.6556
L52.9769 35.8975
" />
<path d="M52.9769 35.8975
L52.9164 36.0185
" />
<path d="M52.9164 36.0185
L52.8559 36.0790
" />
<path d="M52.8559 36.0790
L52.7350 36.1394
" />
<path d="M52.7350 36.1394
L52.6140 36.1394
" />
<path d="M52.6140 36.1394
L52.4931 36.0790
" />
<path d="M52.4931 36.0790
L52.4326 36.0185
" />
<path d="M52.4326 36.0185
L52.3721 35.8975
" />
<path d="M52.3721 35.8975
L52.3117 35.6556
" />
<path d="M52.3117 35.6556
L52.3117 35.3532
" />
<path d="M52.3117 35.3532
L52.3721 35.1113
" />
<path d="M52.3721 35.1113
L52.4326 34.9904
" />
<path d="M52.4326 34.9904
L52.4931 34.9299
" />
<path d="M52.4931 34.9299
L52.6140 34.8694
" />
<path d="M53.4607 34.8694
L53.7631 36.1394
" />
<path d="M53.7631 36.1394
L54.0050 35.2323
" />
<path d="M54.0050 35.2323
L54.2469 36.1394
" />
<path d="M54.2469 36.1394
L54.5493 34.8694
" />
</g></g>
<g style="fill:none; 
stroke:#840000; stroke-width:0.1524; stroke-opacity:1; 
stroke-linecap:round; stroke-linejoin:round;">
<rect x="56.134000" y="68.834000" width="4.572000" height="0.508000" rx="0.000000" />
<path style="fill:none; 
stroke:#840000; stroke-width:0.1524; stroke-opacity:1; 
stroke-linecap:round; stroke-linejoin:round;fill:none"
d="M 56.6420,67.5640
57.6580,67.5640
" /> 
<path style="fill:none; 
stroke:#840000; stroke-width:0.1524; stroke-opacity:1; 
stroke-linecap:round; stroke-linejoin:round;fill:none"
d="M 57.1500,67.0560
57.1500,68.0720
" /> 
</g>
<g style="fill:#840000; fill-opacity:1.0000; 
stroke:#840000; stroke-width:0.1524; stroke-opacity:1; 
stroke-linecap:round; stroke-linejoin:round;">
<rect x="56.134000" y="70.358000" width="4.572000" height="0.508000" rx="0.000000" />
</g>
<g style="fill:none; 
stroke:#840000; stroke-width:0.1524; stroke-opacity:1; 
stroke-linecap:round; stroke-linejoin:round;">
<path d="M58.4200 68.8340
L58.4200 66.0400
" />
<path d="M58.4200 70.8660
L58.4200 73.6600
" />
</g>
<g style="fill:none; 
stroke:#006464; stroke-width:0.1524; stroke-opacity:1; 
stroke-linecap:round; stroke-linejoin:round;">
<text x="63.5809" y="68.3259"
textLength="2.6827" font-size="1.6933" lengthAdjust="spacingAndGlyphs"
text-anchor="middle" opacity="0" stroke-opacity="0">C1</text>
<g class="stroked-text"><desc>C1</desc>
<path d="M63.3692 68.1495
L63.3088 68.2100
" />
<path d="M63.3088 68.2100
L63.1273 68.2704
" />
<path d="M63.1273 68.2704
L63.0064 68.2704
" />
<path d="M63.0064 68.2704
L62.8250 68.2100
" />
<path d="M62.8250 68.2100
L62.7040 68.0890
" />
<path d="M62.7040 68.0890
L62.6435 67.9680
" />
<path d="M62.6435 67.9680
L62.5831 67.7261
" />
<path d="M62.5831 67.7261
L62.5831 67.5447
" />
<path d="M62.5831 67.5447
L62.6435 67.3028
" />
<path d="M62.6435 67.3028
L62.7040 67.1819
" />
<path d="M62.7040 67.1819
L62.8250 67.0609
" />
<path d="M62.8250 67.0609
L63.0064 67.0004
" />
<path d="M63.0064 67.0004
L63.1273 67.0004
" />
<path d="M63.1273 67.0004
L63.3088 67.0609
" />
<path d="M63.3088 67.0609
L63.3692 67.1214
" />
<path d="M64.5788 68.2704
L63.8531 68.2704
" />
<path d="M64.2159 68.2704
L64.2159 67.0004
" />
<path d="M64.2159 67.0004
L64.0950 67.1819
" />
<path d="M64.0950 67.1819
L63.9740 67.3028
" />
<path d="M63.9740 67.3028
L63.8531 67.3633
" />
</g><text x="67.2397" y="70.8659"
textLength="10.0003" font-size="1.6933" lengthAdjust="spacingAndGlyphs"
text-anchor="middle" opacity="0" stroke-opacity="0">800F 2.7V</text>
<g class="stroked-text"><desc>800F 2.7V</desc>
<path d="M62.8250 70.0847
L62.7040 70.0242
" />
<path d="M62.7040 70.0242
L62.6435 69.9638
" />
<path d="M62.6435 69.9638
L62.5831 69.8428
" />
<path d="M62.5831 69.8428
L62.5831 69.7823
" />
<path d="M62.5831 69.7823
L62.6435 69.6614
" />
<path d="M62.6435 69.6614
L62.7040 69.6009
" />
<path d="M62.7040 69.6009
L62.8250 69.5404
" />
<path d="M62.8250 69.5404
L63.0669 69.5404
" />
<path d="M63.0669 69.5404
L63.1878 69.6009
" />
<path d="M63.1878 69.6009
L63.2483 69.6614
" />
<path d="M63.2483 69.6614
L63.3088 69.7823
" />
<path d="M63.3088 69.7823
L63.3088 69.8428
" />
<path d="M63.3088 69.8428
L63.2483 69.9638
" />
<path d="M63.2483 69.9638
L63.1878 70.0242
" />
<path d="M63.1878 70.0242
L63.0669 70.0847
" />
<path d="M63.0669 70.0847
L62.8250 70.0847
" />
<path d="M62.8250 70.0847
L62.7040 70.1452
" />
<path d="M62.7040 70.1452
L62.6435 70.2057
" />
<path d="M62.6435 70.2057
L62.5831 70.3266
" />
<path d="M62.5831 70.3266
L62.5831 70.5685
" />
<path d="M62.5831 70.5685
L62.6435 70.6895
" />
<path d="M62.6435 70.6895
L62.7040 70.7500
" />
<path d="M62.7040 70.7500
L62.8250 70.8104
" />
<path d="M62.8250 70.8104
L63.0669 70.8104
" />
<path d="M63.0669 70.8104
L63.1878 70.7500
" />
<path d="M63.1878 70.7500
L63.2483 70.6895
" />
<path d="M63.2483 70.6895
L63.3088 70.5685
" />
<path d="M63.3088 70.5685
L63.3088 70.3266
" />
<path d="M63.3088 70.3266
L63.2483 70.2057
" />
<path d="M63.2483 70.2057
L63.1878 70.1452
" />
<path d="M63.1878 70.1452
L63.0669 70.0847
" />
<path d="M64.0949 69.5404
L64.2159 69.5404
" />
<path d="M64.2159 69.5404
L64.3368 69.6009
" />
<path d="M64.3368 69.6009
L64.3973 69.6614
" />
<path d="M64.3973 69.6614
L64.4578 69.7823
" />
<path d="M64.4578 69.7823
L64.5183 70.0242
" />
<path d="M64.5183 70.0242
L64.5183 70.3266
" />
<path d="M64.5183 70.3266
L64.4578 70.5685
" />
<path d="M64.4578 70.5685
L64.3973 70.6895
" />
<path d="M64.3973 70.6895
L64.3368 70.7500
" />
<path d="M64.3368 70.7500
L64.2159 70.8104
" />
<path d="M64.2159 70.8104
L64.0949 70.8104
" />
<path d="M64.0949 70.8104
L63.9740 70.7500
" />
<path d="M63.9740 70.7500
L63.9135 70.6895
" />
<path d="M63.9135 70.6895
L63.8530 70.5685
" />
<path d="M63.8530 70.5685
L63.7926 70.3266
" />
<path d="M63.7926 70.3266
L63.7926 70.0242
" />
<path d="M63.7926 70.0242
L63.8530 69.7823
" />
<path d="M63.8530 69.7823
L63.9135 69.6614
" />
<path d="M63.9135 69.6614
L63.9740 69.6009
" />
<path d="M63.9740 69.6009
L64.0949 69.5404
" />
<path d="M65.3044 69.5404
L65.4254 69.5404
" />
<path d="M65.4254 69.5404
L65.5463 69.6009
" />
<path d="M65.5463 69.6009
L65.6068 69.6614
" />
<path d="M65.6068 69.6614
L65.6673 69.7823
" />
<path d="M65.6673 69.7823
L65.7278 70.0242
" />
<path d="M65.7278 70.0242
L65.7278 70.3266
" />
<path d="M65.7278 70.3266
L65.6673 70.5685
" />
<path d="M65.6673 70.5685
L65.6068 70.6895
" />
<path d="M65.6068 70.6895
L65.5463 70.7500
" />
<path d="M65.5463 70.7500
L65.4254 70.8104
" />
<path d="M65.4254 70.8104
L65.3044 70.8104
" />
<path d="M65.3044 70.8104
L65.1835 70.7500
" />
<path d="M65.1835 70.7500
L65.1230 70.6895
" />
<path d="M65.1230 70.6895
L65.0625 70.5685
" />
<path d="M65.0625 70.5685
L65.0021 70.3266
" />
<path d="M65.0021 70.3266
L65.0021 70.0242
" />
<path d="M65.0021 70.0242
L65.0625 69.7823
" />
<path d="M65.0625 69.7823
L65.1230 69.6614
" />
<path d="M65.1230 69.6614
L65.1835 69.6009
" />
<path d="M65.1835 69.6009
L65.3044 69.5404
" />
<path d="M66.6954 70.1452
L66.2720 70.1452
" />
<path d="M66.2720 70.8104
L66.2720 69.5404
" />
<path d="M66.2720 69.5404
L66.8768 69.5404
" />
<path d="M68.2678 69.6614
L68.3282 69.6009
" />
<path d="M68.3282 69.6009
L68.4492 69.5404
" />
<path d="M68.4492 69.5404
L68.7516 69.5404
" />
<path d="M68.7516 69.5404
L68.8725 69.6009
" />
<path d="M68.8725 69.6009
L68.9330 69.6614
" />
<path d="M68.9330 69.6614
L68.9935 69.7823
" />
<path d="M68.9935 69.7823
L68.9935 69.9033
" />
<path d="M68.9935 69.9033
L68.9330 70.0847
" />
<path d="M68.9330 70.0847
L68.2073 70.8104
" />
<path d="M68.2073 70.8104
L68.9935 70.8104
" />
<path d="M69.5377 70.6895
L69.5982 70.7500
" />
<path d="M69.5982 70.7500
L69.5377 70.8104
" />
<path d="M69.5377 70.8104
L69.4773 70.7500
" />
<path d="M69.4773 70.7500
L69.5377 70.6895
" />
<path d="M69.5377 70.6895
L69.5377 70.8104
" />
<path d="M70.0216 69.5404
L70.8682 69.5404
" />
<path d="M70.8682 69.5404
L70.3240 70.8104
" />
<path d="M71.1706 69.5404
L71.5939 70.8104
" />
<path d="M71.5939 70.8104
L72.0173 69.5404
" />
</g><path style="fill:none; 
stroke:#840000; stroke-width:0.1524; stroke-opacity:1; 
stroke-linecap:round; stroke-linejoin:round;fill:none"
d="M 58.4200,59.6900
57.1500,59.6900
56.5150,60.7060
55.8800,59.6900
56.5150,58.6740
57.1500,59.6900
" /> 
</g>
<g style="fill:none; 
stroke:#840000; stroke-width:0.1524; stroke-opacity:1; 
stroke-linecap:round; stroke-linejoin:round;">
<path d="M58.4200 59.6900
L58.4200 59.6900
" />
</g>
<g style="fill:none; 
stroke:#006464; stroke-width:0.1524; stroke-opacity:1; 
stroke-linecap:round; stroke-linejoin:round;">
<text x="49.7816" y="60.3248"
textLength="9.6375" font-size="1.6933" lengthAdjust="spacingAndGlyphs"
text-anchor="middle" opacity="0" stroke-opacity="0">PWR_FLAG</text>
<g class="stroked-text"><desc>PWR_FLAG</desc>
<path d="M45.3668 60.2693
L45.3668 58.9993
" />
<path d="M45.3668 58.9993
L45.8506 58.9993
" />
<path d="M45.8506 58.9993
L45.9716 59.0598
" />
<path d="M45.9716 59.0598
L46.0321 59.1203
" />
<path d="M46.0321 59.1203
L46.0925 59.2412
" />
<path d="M46.0925 59.2412
L46.0925 59.4227
" />
<path d="M46.0925 59.4227
L46.0321 59.5436
" />
<path d="M46.0321 59.5436
L45.9716 59.6041
" />
<path d="M45.9716 59.6041
L45.8506 59.6646
" />
<path d="M45.8506 59.6646
L45.3668 59.6646
" />
<path d="M46.5159 58.9993
L46.8183 60.2693
" />
<path d="M46.8183 60.2693
L47.0602 59.3622
" />
<path d="M47.0602 59.3622
L47.3021 60.2693
" />
<path d="M47.3021 60.2693
L47.6045 58.9993
" />
<path d="M48.8139 60.2693
L48.3906 59.6646
" />
<path d="M48.0882 60.2693
L48.0882 58.9993
" />
<path d="M48.0882 58.9993
L48.5720 58.9993
" />
<path d="M48.5720 58.9993
L48.6930 59.0598
" />
<path d="M48.6930 59.0598
L48.7535 59.1203
" />
<path d="M48.7535 59.1203
L48.8139 59.2412
" />
<path d="M48.8139 59.2412
L48.8139 59.4227
" />
<path d="M48.8139 59.4227
L48.7535 59.5436
" />
<path d="M48.7535 59.5436
L48.6930 59.6041
" />
<path d="M48.6930 59.6041
L48.5720 59.6646
" />
<path d="M48.5720 59.6646
L48.0882 59.6646
" />
<path d="M49.0559 60.3903
L50.0235 60.3903
" />
<path d="M50.7492 59.6041
L50.3258 59.6041
" />
<path d="M50.3258 60.2693
L50.3258 58.9993
" />
<path d="M50.3258 58.9993
L50.9306 58.9993
" />
<path d="M52.0192 60.2693
L51.4144 60.2693
" />
<path d="M51.4144 60.2693
L51.4144 58.9993
" />
<path d="M52.3821 59.9065
L52.9868 59.9065
" />
<path d="M52.2611 60.2693
L52.6844 58.9993
" />
<path d="M52.6844 58.9993
L53.1078 60.2693
" />
<path d="M54.1964 59.0598
L54.0754 58.9993
" />
<path d="M54.0754 58.9993
L53.8940 58.9993
" />
<path d="M53.8940 58.9993
L53.7126 59.0598
" />
<path d="M53.7126 59.0598
L53.5916 59.1808
" />
<path d="M53.5916 59.1808
L53.5311 59.3017
" />
<path d="M53.5311 59.3017
L53.4707 59.5436
" />
<path d="M53.4707 59.5436
L53.4707 59.7250
" />
<path d="M53.4707 59.7250
L53.5311 59.9669
" />
<path d="M53.5311 59.9669
L53.5916 60.0879
" />
<path d="M53.5916 60.0879
L53.7126 60.2089
" />
<path d="M53.7126 60.2089
L53.8940 60.2693
" />
<path d="M53.8940 60.2693
L54.0149 60.2693
" />
<path d="M54.0149 60.2693
L54.1964 60.2089
" />
<path d="M54.1964 60.2089
L54.2568 60.1484
" />
<path d="M54.2568 60.1484
L54.2568 59.7250
" />
<path d="M54.2568 59.7250
L54.0149 59.7250
" />
</g><path style="fill:none; 
stroke:#840000; stroke-width:0.1524; stroke-opacity:1; 
stroke-linecap:round; stroke-linejoin:round;fill:none"
d="M 58.4200,90.1700
58.4200,91.4400
59.6900,91.4400
58.4200,92.7100
57.1500,91.4400
58.4200,91.4400
" /> 
</g>
<g style="fill:none; 
stroke:#840000; stroke-width:0.1524; stroke-opacity:1; 
stroke-linecap:round; stroke-linejoin:round;">
<path d="M58.4200 90.1700
L58.4200 90.1700
" />
</g>
<g style="fill:none; 
stroke:#006464; stroke-width:0.1524; stroke-opacity:1; 
stroke-linecap:round; stroke-linejoin:round;">
<text x="58.4200" y="95.8850"
textLength="4.0737" font-size="1.6933" lengthAdjust="spacingAndGlyphs"
text-anchor="middle" opacity="0" stroke-opacity="0">GND</text>
<g class="stroked-text"><desc>GND</desc>
<path d="M57.4524 94.6200
L57.3314 94.5595
" />
<path d="M57.3314 94.5595
L57.1500 94.5595
" />
<path d="M57.1500 94.5595
L56.9686 94.6200
" />
<path d="M56.9686 94.6200
L56.8476 94.7410
" />
<path d="M56.8476 94.7410
L56.7871 94.8619
" />
<path d="M56.7871 94.8619
L56.7267 95.1038
" />
<path d="M56.7267 95.1038
L56.7267 95.2852
" />
<path d="M56.7267 95.2852
L56.7871 95.5271
" />
<path d="M56.7871 95.5271
L56.8476 95.6481
" />
<path d="M56.8476 95.6481
L56.9686 95.7691
" />
<path d="M56.9686 95.7691
L57.1500 95.8295
" />
<path d="M57.1500 95.8295
L57.2709 95.8295
" />
<path d="M57.2709 95.8295
L57.4524 95.7691
" />
<path d="M57.4524 95.7691
L57.5128 95.7086
" />
<path d="M57.5128 95.7086
L57.5128 95.2852
" />
<path d="M57.5128 95.2852
L57.2709 95.2852
" />
<path d="M58.0571 95.8295
L58.0571 94.5595
" />
<path d="M58.0571 94.5595
L58.7828 95.8295
" />
<path d="M58.7828 95.8295
L58.7828 94.5595
" />
<path d="M59.3876 95.8295
L59.3876 94.5595
" />
<path d="M59.3876 94.5595
L59.6900 94.5595
" />
<path d="M59.6900 94.5595
L59.8714 94.6200
" />
<path d="M59.8714 94.6200
L59.9924 94.7410
" />
<path d="M59.9924 94.7410
L60.0529 94.8619
" />
<path d="M60.0529 94.8619
L60.1133 95.1038
" />
<path d="M60.1133 95.1038
L60.1133 95.2852
" />
<path d="M60.1133 95.2852
L60.0529 95.5271
" />
<path d="M60.0529 95.5271
L59.9924 95.6481
" />
<path d="M59.9924 95.6481
L59.8714 95.7691
" />
<path d="M59.8714 95.7691
L59.6900 95.8295
" />
<path d="M59.6900 95.8295
L59.3876 95.8295
" />
</g></g>
<g style="fill:none; 
stroke:#009600; stroke-width:0.1524; stroke-opacity:1; 
stroke-linecap:round; stroke-linejoin:round;">
<path d="M58.4200 49.5300
L58.4200 59.6900
" />
<path d="M25.4000 39.3700
L25.4000 49.5300
" />
<path d="M58.4200 59.6900
L58.4200 66.0400
" />
<path d="M12.7000 36.8300
L8.8900 36.8300
" />
<path d="M8.8900 36.8300
L8.8900 87.6300
" />
<path d="M8.8900 87.6300
L58.4200 87.6300
" />
<path d="M58.4200 73.6600
L58.4200 78.7400
" />
<path d="M25.4000 49.5300
L38.1000 49.5300
" />
<path d="M22.8600 39.3700
L25.4000 39.3700
" />
<path d="M58.4200 78.7400
L58.4200 87.6300
" />
<path d="M73.6600 29.2100
L73.6600 21.5900
" />
<path d="M73.6600 21.5900
L68.5800 21.5900
" />
<path d="M45.7200 39.3700
L58.4200 39.3700
" />
<path d="M45.7200 49.5300
L58.4200 49.5300
" />
<path d="M58.4200 39.3700
L58.4200 49.5300
" />
<path d="M25.4000 39.3700
L38.1000 39.3700
" />
<path d="M58.4200 87.6300
L58.4200 90.1700
" />
</g>
<g style="fill:none; 
stroke:#000084; stroke-width:0.1524; stroke-opacity:1; 
stroke-linecap:round; stroke-linejoin:round;">
<path d="M22.2504 33.6804
L23.4696 34.8996
" />
<path d="M23.4696 33.6804
L22.2504 34.8996
" />
</g>
<g style="fill:#009600; fill-opacity:1.0000; 
stroke:#009600; stroke-width:0.1524; stroke-opacity:1; 
stroke-linecap:round; stroke-linejoin:round;">
<circle cx="58.4200" cy="78.7400" r="0.4572" /> 
<circle cx="58.4200" cy="87.6300" r="0.4572" /> 
<circle cx="58.4200" cy="49.5300" r="0.4572" /> 
<circle cx="25.4000" cy="39.3700" r="0.4572" /> 
<circle cx="58.4200" cy="59.6900" r="0.4572" /> 
</g> 
</svg>
