<?xml version="1.0" standalone="no"?>
 <!DOCTYPE svg PUBLIC "-//W3C//DTD SVG 1.1//EN" 
 "http://www.w3.org/Graphics/SVG/1.1/DTD/svg11.dtd"> 
<svg
  xmlns:svg="http://www.w3.org/2000/svg"
  xmlns="http://www.w3.org/2000/svg"
  xmlns:xlink="http://www.w3.org/1999/xlink"
  version="1.1"
  width="297.0022mm" height="210.0072mm" viewBox="0.0000 0.0000 297.0022 210.0072">

  <desc>Image generated by Eeschema-SVG </desc>
<g style="fill:#000000; fill-opacity:1.0000;stroke:#000000; stroke-opacity:1.0000;
stroke-linecap:round; stroke-linejoin:round;"
 transform="translate(0 0) scale(1 1)">
<path style="fill:none; 
stroke:#840000; stroke-width:0.1524; stroke-opacity:1; 
stroke-linecap:round; stroke-linejoin:round;fill:none"
d="M 52.0700,62.2300
52.0700,63.5000
53.3400,63.5000
52.0700,64.7700
50.8000,63.5000
52.0700,63.5000
" /> 
</g>
<g style="fill:none; 
stroke:#840000; stroke-width:0.1524; stroke-opacity:1; 
stroke-linecap:round; stroke-linejoin:round;">
<path d="M52.0700 62.2300
L52.0700 62.2300
" />
</g>
<g style="fill:none; 
stroke:#006464; stroke-width:0.1524; stroke-opacity:1; 
stroke-linecap:round; stroke-linejoin:round;">
<text x="52.0700" y="67.9450"
textLength="4.0737" font-size="1.6933" lengthAdjust="spacingAndGlyphs"
text-anchor="middle" opacity="0" stroke-opacity="0">GND</text>
<g class="stroked-text"><desc>GND</desc>
<path d="M51.1024 66.6800
L50.9814 66.6195
" />
<path d="M50.9814 66.6195
L50.8000 66.6195
" />
<path d="M50.8000 66.6195
L50.6186 66.6800
" />
<path d="M50.6186 66.6800
L50.4976 66.8010
" />
<path d="M50.4976 66.8010
L50.4371 66.9219
" />
<path d="M50.4371 66.9219
L50.3767 67.1638
" />
<path d="M50.3767 67.1638
L50.3767 67.3452
" />
<path d="M50.3767 67.3452
L50.4371 67.5871
" />
<path d="M50.4371 67.5871
L50.4976 67.7081
" />
<path d="M50.4976 67.7081
L50.6186 67.8291
" />
<path d="M50.6186 67.8291
L50.8000 67.8895
" />
<path d="M50.8000 67.8895
L50.9209 67.8895
" />
<path d="M50.9209 67.8895
L51.1024 67.8291
" />
<path d="M51.1024 67.8291
L51.1628 67.7686
" />
<path d="M51.1628 67.7686
L51.1628 67.3452
" />
<path d="M51.1628 67.3452
L50.9209 67.3452
" />
<path d="M51.7071 67.8895
L51.7071 66.6195
" />
<path d="M51.7071 66.6195
L52.4328 67.8895
" />
<path d="M52.4328 67.8895
L52.4328 66.6195
" />
<path d="M53.0376 67.8895
L53.0376 66.6195
" />
<path d="M53.0376 66.6195
L53.3400 66.6195
" />
<path d="M53.3400 66.6195
L53.5214 66.6800
" />
<path d="M53.5214 66.6800
L53.6424 66.8010
" />
<path d="M53.6424 66.8010
L53.7029 66.9219
" />
<path d="M53.7029 66.9219
L53.7633 67.1638
" />
<path d="M53.7633 67.1638
L53.7633 67.3452
" />
<path d="M53.7633 67.3452
L53.7029 67.5871
" />
<path d="M53.7029 67.5871
L53.6424 67.7081
" />
<path d="M53.6424 67.7081
L53.5214 67.8291
" />
<path d="M53.5214 67.8291
L53.3400 67.8895
" />
<path d="M53.3400 67.8895
L53.0376 67.8895
" />
</g></g>
<g style="fill:#FFFFC2; fill-opacity:1.0000; stroke:none;">
<rect x="44.450000" y="44.450000" width="15.240000" height="10.160000" rx="0.000000" />
</g>
<g style="fill:none; 
stroke:#840000; stroke-width:0.1524; stroke-opacity:1; 
stroke-linecap:round; stroke-linejoin:round;">
<rect x="44.450000" y="44.450000" width="15.240000" height="10.160000" rx="0.000000" />
<path d="M44.4500 49.5300
L41.9100 49.5300
" />
</g>
<g style="fill:none; 
stroke:#006464; stroke-width:0.1524; stroke-opacity:1; 
stroke-linecap:round; stroke-linejoin:round;">
<text x="44.9580" y="50.1650"
textLength="2.6827" font-size="1.6933" lengthAdjust="spacingAndGlyphs"
text-anchor="start" opacity="0" stroke-opacity="0">EN</text>
<g class="stroked-text"><desc>EN</desc>
<path d="M45.3605 49.4443
L45.7839 49.4443
" />
<path d="M45.9653 50.1095
L45.3605 50.1095
" />
<path d="M45.3605 50.1095
L45.3605 48.8395
" />
<path d="M45.3605 48.8395
L45.9653 48.8395
" />
<path d="M46.5095 50.1095
L46.5095 48.8395
" />
<path d="M46.5095 48.8395
L47.2352 50.1095
" />
<path d="M47.2352 50.1095
L47.2352 48.8395
" />
</g></g>
<g style="fill:none; 
stroke:#A90000; stroke-width:0.1524; stroke-opacity:1; 
stroke-linecap:round; stroke-linejoin:round;">
<text x="43.1800" y="49.2760"
textLength="1.4127" font-size="1.6933" lengthAdjust="spacingAndGlyphs"
text-anchor="middle" opacity="0" stroke-opacity="0">5</text>
<g class="stroked-text"><desc>5</desc>
<path d="M43.4824 47.8425
L42.8776 47.8425
" />
<path d="M42.8776 47.8425
L42.8172 48.4473
" />
<path d="M42.8172 48.4473
L42.8776 48.3868
" />
<path d="M42.8776 48.3868
L42.9986 48.3263
" />
<path d="M42.9986 48.3263
L43.3010 48.3263
" />
<path d="M43.3010 48.3263
L43.4219 48.3868
" />
<path d="M43.4219 48.3868
L43.4824 48.4473
" />
<path d="M43.4824 48.4473
L43.5429 48.5682
" />
<path d="M43.5429 48.5682
L43.5429 48.8706
" />
<path d="M43.5429 48.8706
L43.4824 48.9916
" />
<path d="M43.4824 48.9916
L43.4219 49.0521
" />
<path d="M43.4219 49.0521
L43.3010 49.1125
" />
<path d="M43.3010 49.1125
L42.9986 49.1125
" />
<path d="M42.9986 49.1125
L42.8776 49.0521
" />
<path d="M42.8776 49.0521
L42.8172 48.9916
" />
</g></g>
<g style="fill:none; 
stroke:#840000; stroke-width:0.1524; stroke-opacity:1; 
stroke-linecap:round; stroke-linejoin:round;">
<path d="M44.4500 52.0700
L41.9100 52.0700
" />
</g>
<g style="fill:none; 
stroke:#006464; stroke-width:0.1524; stroke-opacity:1; 
stroke-linecap:round; stroke-linejoin:round;">
<text x="44.9580" y="52.7050"
textLength="5.4041" font-size="1.6933" lengthAdjust="spacingAndGlyphs"
text-anchor="start" opacity="0" stroke-opacity="0">MODE</text>
<g class="stroked-text"><desc>MODE</desc>
<path d="M45.3605 52.6495
L45.3605 51.3795
" />
<path d="M45.3605 51.3795
L45.7839 52.2867
" />
<path d="M45.7839 52.2867
L46.2072 51.3795
" />
<path d="M46.2072 51.3795
L46.2072 52.6495
" />
<path d="M47.0538 51.3795
L47.2957 51.3795
" />
<path d="M47.2957 51.3795
L47.4167 51.4400
" />
<path d="M47.4167 51.4400
L47.5376 51.5610
" />
<path d="M47.5376 51.5610
L47.5981 51.8029
" />
<path d="M47.5981 51.8029
L47.5981 52.2262
" />
<path d="M47.5981 52.2262
L47.5376 52.4681
" />
<path d="M47.5376 52.4681
L47.4167 52.5891
" />
<path d="M47.4167 52.5891
L47.2957 52.6495
" />
<path d="M47.2957 52.6495
L47.0538 52.6495
" />
<path d="M47.0538 52.6495
L46.9329 52.5891
" />
<path d="M46.9329 52.5891
L46.8119 52.4681
" />
<path d="M46.8119 52.4681
L46.7515 52.2262
" />
<path d="M46.7515 52.2262
L46.7515 51.8029
" />
<path d="M46.7515 51.8029
L46.8119 51.5610
" />
<path d="M46.8119 51.5610
L46.9329 51.4400
" />
<path d="M46.9329 51.4400
L47.0538 51.3795
" />
<path d="M48.1424 52.6495
L48.1424 51.3795
" />
<path d="M48.1424 51.3795
L48.4448 51.3795
" />
<path d="M48.4448 51.3795
L48.6262 51.4400
" />
<path d="M48.6262 51.4400
L48.7472 51.5610
" />
<path d="M48.7472 51.5610
L48.8077 51.6819
" />
<path d="M48.8077 51.6819
L48.8681 51.9238
" />
<path d="M48.8681 51.9238
L48.8681 52.1052
" />
<path d="M48.8681 52.1052
L48.8077 52.3471
" />
<path d="M48.8077 52.3471
L48.7472 52.4681
" />
<path d="M48.7472 52.4681
L48.6262 52.5891
" />
<path d="M48.6262 52.5891
L48.4448 52.6495
" />
<path d="M48.4448 52.6495
L48.1424 52.6495
" />
<path d="M49.4124 51.9843
L49.8358 51.9843
" />
<path d="M50.0172 52.6495
L49.4124 52.6495
" />
<path d="M49.4124 52.6495
L49.4124 51.3795
" />
<path d="M49.4124 51.3795
L50.0172 51.3795
" />
</g></g>
<g style="fill:none; 
stroke:#A90000; stroke-width:0.1524; stroke-opacity:1; 
stroke-linecap:round; stroke-linejoin:round;">
<text x="43.1800" y="51.8160"
textLength="1.4127" font-size="1.6933" lengthAdjust="spacingAndGlyphs"
text-anchor="middle" opacity="0" stroke-opacity="0">6</text>
<g class="stroked-text"><desc>6</desc>
<path d="M43.4219 50.3825
L43.1800 50.3825
" />
<path d="M43.1800 50.3825
L43.0591 50.4430
" />
<path d="M43.0591 50.4430
L42.9986 50.5035
" />
<path d="M42.9986 50.5035
L42.8776 50.6849
" />
<path d="M42.8776 50.6849
L42.8172 50.9268
" />
<path d="M42.8172 50.9268
L42.8172 51.4106
" />
<path d="M42.8172 51.4106
L42.8776 51.5316
" />
<path d="M42.8776 51.5316
L42.9381 51.5921
" />
<path d="M42.9381 51.5921
L43.0591 51.6525
" />
<path d="M43.0591 51.6525
L43.3010 51.6525
" />
<path d="M43.3010 51.6525
L43.4219 51.5921
" />
<path d="M43.4219 51.5921
L43.4824 51.5316
" />
<path d="M43.4824 51.5316
L43.5429 51.4106
" />
<path d="M43.5429 51.4106
L43.5429 51.1082
" />
<path d="M43.5429 51.1082
L43.4824 50.9873
" />
<path d="M43.4824 50.9873
L43.4219 50.9268
" />
<path d="M43.4219 50.9268
L43.3010 50.8663
" />
<path d="M43.3010 50.8663
L43.0591 50.8663
" />
<path d="M43.0591 50.8663
L42.9381 50.9268
" />
<path d="M42.9381 50.9268
L42.8776 50.9873
" />
<path d="M42.8776 50.9873
L42.8172 51.1082
" />
</g></g>
<g style="fill:none; 
stroke:#840000; stroke-width:0.1524; stroke-opacity:1; 
stroke-linecap:round; stroke-linejoin:round;">
<path d="M46.9900 44.4500
L46.9900 41.9100
" />
</g>
<g style="fill:none; 
stroke:#006464; stroke-width:0.1524; stroke-opacity:1; 
stroke-linecap:round; stroke-linejoin:round;">
<g transform="rotate(-90.000000 46.9900 44.9580)">
<text x="46.9900" y="45.5930"
textLength="3.2271" font-size="1.6933" lengthAdjust="spacingAndGlyphs"
text-anchor="end" opacity="0" stroke-opacity="0">VIN</text>
</g>
<g class="stroked-text"><desc>VIN</desc>
<path d="M46.2995 47.9611
L47.5695 47.5378
" />
<path d="M47.5695 47.5378
L46.2995 47.1144
" />
<path d="M47.5695 46.6911
L46.2995 46.6911
" />
<path d="M47.5695 46.0863
L46.2995 46.0863
" />
<path d="M46.2995 46.0863
L47.5695 45.3606
" />
<path d="M47.5695 45.3606
L46.2995 45.3606
" />
</g></g>
<g style="fill:none; 
stroke:#A90000; stroke-width:0.1524; stroke-opacity:1; 
stroke-linecap:round; stroke-linejoin:round;">
<g transform="rotate(-90.000000 46.7360 43.1800)">
<text x="46.7360" y="43.1800"
textLength="1.4127" font-size="1.6933" lengthAdjust="spacingAndGlyphs"
text-anchor="middle" opacity="0" stroke-opacity="0">7</text>
</g>
<g class="stroked-text"><desc>7</desc>
<path d="M45.3025 43.6032
L45.3025 42.7566
" />
<path d="M45.3025 42.7566
L46.5725 43.3008
" />
</g></g>
<g style="fill:none; 
stroke:#840000; stroke-width:0.1524; stroke-opacity:1; 
stroke-linecap:round; stroke-linejoin:round;">
<path d="M52.0700 54.6100
L52.0700 57.1500
" />
</g>
<g style="fill:none; 
stroke:#006464; stroke-width:0.1524; stroke-opacity:1; 
stroke-linecap:round; stroke-linejoin:round;">
<g transform="rotate(-90.000000 52.0700 54.1020)">
<text x="52.0700" y="54.7370"
textLength="4.0737" font-size="1.6933" lengthAdjust="spacingAndGlyphs"
text-anchor="start" opacity="0" stroke-opacity="0">GND</text>
</g>
<g class="stroked-text"><desc>GND</desc>
<path d="M51.4400 53.0341
L51.3795 53.1551
" />
<path d="M51.3795 53.1551
L51.3795 53.3365
" />
<path d="M51.3795 53.3365
L51.4400 53.5179
" />
<path d="M51.4400 53.5179
L51.5610 53.6389
" />
<path d="M51.5610 53.6389
L51.6819 53.6994
" />
<path d="M51.6819 53.6994
L51.9238 53.7598
" />
<path d="M51.9238 53.7598
L52.1052 53.7598
" />
<path d="M52.1052 53.7598
L52.3471 53.6994
" />
<path d="M52.3471 53.6994
L52.4681 53.6389
" />
<path d="M52.4681 53.6389
L52.5891 53.5179
" />
<path d="M52.5891 53.5179
L52.6495 53.3365
" />
<path d="M52.6495 53.3365
L52.6495 53.2156
" />
<path d="M52.6495 53.2156
L52.5891 53.0341
" />
<path d="M52.5891 53.0341
L52.5286 52.9737
" />
<path d="M52.5286 52.9737
L52.1052 52.9737
" />
<path d="M52.1052 52.9737
L52.1052 53.2156
" />
<path d="M52.6495 52.4294
L51.3795 52.4294
" />
<path d="M51.3795 52.4294
L52.6495 51.7037
" />
<path d="M52.6495 51.7037
L51.3795 51.7037
" />
<path d="M52.6495 51.0989
L51.3795 51.0989
" />
<path d="M51.3795 51.0989
L51.3795 50.7965
" />
<path d="M51.3795 50.7965
L51.4400 50.6151
" />
<path d="M51.4400 50.6151
L51.5610 50.4941
" />
<path d="M51.5610 50.4941
L51.6819 50.4336
" />
<path d="M51.6819 50.4336
L51.9238 50.3732
" />
<path d="M51.9238 50.3732
L52.1052 50.3732
" />
<path d="M52.1052 50.3732
L52.3471 50.4336
" />
<path d="M52.3471 50.4336
L52.4681 50.4941
" />
<path d="M52.4681 50.4941
L52.5891 50.6151
" />
<path d="M52.5891 50.6151
L52.6495 50.7965
" />
<path d="M52.6495 50.7965
L52.6495 51.0989
" />
</g></g>
<g style="fill:none; 
stroke:#A90000; stroke-width:0.1524; stroke-opacity:1; 
stroke-linecap:round; stroke-linejoin:round;">
<g transform="rotate(-90.000000 51.8160 55.8800)">
<text x="51.8160" y="55.8800"
textLength="1.4127" font-size="1.6933" lengthAdjust="spacingAndGlyphs"
text-anchor="middle" opacity="0" stroke-opacity="0">1</text>
</g>
<g class="stroked-text"><desc>1</desc>
<path d="M51.6525 55.5170
L51.6525 56.2427
" />
<path d="M51.6525 55.8799
L50.3825 55.8799
" />
<path d="M50.3825 55.8799
L50.5640 56.0008
" />
<path d="M50.5640 56.0008
L50.6849 56.1218
" />
<path d="M50.6849 56.1218
L50.7454 56.2427
" />
</g></g>
<g style="fill:none; 
stroke:#840000; stroke-width:0.1524; stroke-opacity:1; 
stroke-linecap:round; stroke-linejoin:round;">
<path d="M57.1500 44.4500
L57.1500 41.9100
" />
</g>
<g style="fill:none; 
stroke:#006464; stroke-width:0.1524; stroke-opacity:1; 
stroke-linecap:round; stroke-linejoin:round;">
<g transform="rotate(-90.000000 57.1500 44.9580)">
<text x="57.1500" y="45.5930"
textLength="2.8641" font-size="1.6933" lengthAdjust="spacingAndGlyphs"
text-anchor="end" opacity="0" stroke-opacity="0">SW</text>
</g>
<g class="stroked-text"><desc>SW</desc>
<path d="M57.6691 47.4771
L57.7295 47.2957
" />
<path d="M57.7295 47.2957
L57.7295 46.9933
" />
<path d="M57.7295 46.9933
L57.6691 46.8724
" />
<path d="M57.6691 46.8724
L57.6086 46.8119
" />
<path d="M57.6086 46.8119
L57.4876 46.7514
" />
<path d="M57.4876 46.7514
L57.3667 46.7514
" />
<path d="M57.3667 46.7514
L57.2457 46.8119
" />
<path d="M57.2457 46.8119
L57.1852 46.8724
" />
<path d="M57.1852 46.8724
L57.1248 46.9933
" />
<path d="M57.1248 46.9933
L57.0643 47.2352
" />
<path d="M57.0643 47.2352
L57.0038 47.3562
" />
<path d="M57.0038 47.3562
L56.9433 47.4167
" />
<path d="M56.9433 47.4167
L56.8224 47.4771
" />
<path d="M56.8224 47.4771
L56.7014 47.4771
" />
<path d="M56.7014 47.4771
L56.5805 47.4167
" />
<path d="M56.5805 47.4167
L56.5200 47.3562
" />
<path d="M56.5200 47.3562
L56.4595 47.2352
" />
<path d="M56.4595 47.2352
L56.4595 46.9329
" />
<path d="M56.4595 46.9329
L56.5200 46.7514
" />
<path d="M56.4595 46.3281
L57.7295 46.0257
" />
<path d="M57.7295 46.0257
L56.8224 45.7838
" />
<path d="M56.8224 45.7838
L57.7295 45.5419
" />
<path d="M57.7295 45.5419
L56.4595 45.2396
" />
</g></g>
<g style="fill:none; 
stroke:#A90000; stroke-width:0.1524; stroke-opacity:1; 
stroke-linecap:round; stroke-linejoin:round;">
<g transform="rotate(-90.000000 56.8960 43.1800)">
<text x="56.8960" y="43.1800"
textLength="1.4127" font-size="1.6933" lengthAdjust="spacingAndGlyphs"
text-anchor="middle" opacity="0" stroke-opacity="0">2</text>
</g>
<g class="stroked-text"><desc>2</desc>
<path d="M55.5835 43.5427
L55.5230 43.4823
" />
<path d="M55.5230 43.4823
L55.4625 43.3613
" />
<path d="M55.4625 43.3613
L55.4625 43.0589
" />
<path d="M55.4625 43.0589
L55.5230 42.9380
" />
<path d="M55.5230 42.9380
L55.5835 42.8775
" />
<path d="M55.5835 42.8775
L55.7044 42.8170
" />
<path d="M55.7044 42.8170
L55.8254 42.8170
" />
<path d="M55.8254 42.8170
L56.0068 42.8775
" />
<path d="M56.0068 42.8775
L56.7325 43.6032
" />
<path d="M56.7325 43.6032
L56.7325 42.8170
" />
</g></g>
<g style="fill:none; 
stroke:#840000; stroke-width:0.1524; stroke-opacity:1; 
stroke-linecap:round; stroke-linejoin:round;">
<path d="M59.6900 49.5300
L62.2300 49.5300
" />
</g>
<g style="fill:none; 
stroke:#006464; stroke-width:0.1524; stroke-opacity:1; 
stroke-linecap:round; stroke-linejoin:round;">
<text x="59.1820" y="50.1650"
textLength="4.9204" font-size="1.6933" lengthAdjust="spacingAndGlyphs"
text-anchor="end" opacity="0" stroke-opacity="0">VOUT</text>
<g class="stroked-text"><desc>VOUT</desc>
<path d="M54.4855 48.8395
L54.9088 50.1095
" />
<path d="M54.9088 50.1095
L55.3322 48.8395
" />
<path d="M55.9974 48.8395
L56.2393 48.8395
" />
<path d="M56.2393 48.8395
L56.3603 48.9000
" />
<path d="M56.3603 48.9000
L56.4812 49.0210
" />
<path d="M56.4812 49.0210
L56.5417 49.2629
" />
<path d="M56.5417 49.2629
L56.5417 49.6862
" />
<path d="M56.5417 49.6862
L56.4812 49.9281
" />
<path d="M56.4812 49.9281
L56.3603 50.0491
" />
<path d="M56.3603 50.0491
L56.2393 50.1095
" />
<path d="M56.2393 50.1095
L55.9974 50.1095
" />
<path d="M55.9974 50.1095
L55.8765 50.0491
" />
<path d="M55.8765 50.0491
L55.7555 49.9281
" />
<path d="M55.7555 49.9281
L55.6951 49.6862
" />
<path d="M55.6951 49.6862
L55.6951 49.2629
" />
<path d="M55.6951 49.2629
L55.7555 49.0210
" />
<path d="M55.7555 49.0210
L55.8765 48.9000
" />
<path d="M55.8765 48.9000
L55.9974 48.8395
" />
<path d="M57.0860 48.8395
L57.0860 49.8676
" />
<path d="M57.0860 49.8676
L57.1465 49.9886
" />
<path d="M57.1465 49.9886
L57.2070 50.0491
" />
<path d="M57.2070 50.0491
L57.3279 50.1095
" />
<path d="M57.3279 50.1095
L57.5698 50.1095
" />
<path d="M57.5698 50.1095
L57.6908 50.0491
" />
<path d="M57.6908 50.0491
L57.7513 49.9886
" />
<path d="M57.7513 49.9886
L57.8117 49.8676
" />
<path d="M57.8117 49.8676
L57.8117 48.8395
" />
<path d="M58.2351 48.8395
L58.9608 48.8395
" />
<path d="M58.5980 50.1095
L58.5980 48.8395
" />
</g></g>
<g style="fill:none; 
stroke:#A90000; stroke-width:0.1524; stroke-opacity:1; 
stroke-linecap:round; stroke-linejoin:round;">
<text x="60.9600" y="49.2760"
textLength="1.4127" font-size="1.6933" lengthAdjust="spacingAndGlyphs"
text-anchor="middle" opacity="0" stroke-opacity="0">3</text>
<g class="stroked-text"><desc>3</desc>
<path d="M60.5367 47.8425
L61.3229 47.8425
" />
<path d="M61.3229 47.8425
L60.8995 48.3263
" />
<path d="M60.8995 48.3263
L61.0810 48.3263
" />
<path d="M61.0810 48.3263
L61.2019 48.3868
" />
<path d="M61.2019 48.3868
L61.2624 48.4473
" />
<path d="M61.2624 48.4473
L61.3229 48.5682
" />
<path d="M61.3229 48.5682
L61.3229 48.8706
" />
<path d="M61.3229 48.8706
L61.2624 48.9916
" />
<path d="M61.2624 48.9916
L61.2019 49.0521
" />
<path d="M61.2019 49.0521
L61.0810 49.1125
" />
<path d="M61.0810 49.1125
L60.7181 49.1125
" />
<path d="M60.7181 49.1125
L60.5972 49.0521
" />
<path d="M60.5972 49.0521
L60.5367 48.9916
" />
</g></g>
<g style="fill:none; 
stroke:#840000; stroke-width:0.1524; stroke-opacity:1; 
stroke-linecap:round; stroke-linejoin:round;">
<path d="M59.6900 52.0700
L62.2300 52.0700
" />
</g>
<g style="fill:none; 
stroke:#006464; stroke-width:0.1524; stroke-opacity:1; 
stroke-linecap:round; stroke-linejoin:round;">
<text x="59.1820" y="52.7050"
textLength="2.5618" font-size="1.6933" lengthAdjust="spacingAndGlyphs"
text-anchor="end" opacity="0" stroke-opacity="0">FB</text>
<g class="stroked-text"><desc>FB</desc>
<path d="M57.4489 51.9843
L57.0255 51.9843
" />
<path d="M57.0255 52.6495
L57.0255 51.3795
" />
<path d="M57.0255 51.3795
L57.6303 51.3795
" />
<path d="M58.5375 51.9843
L58.7189 52.0448
" />
<path d="M58.7189 52.0448
L58.7794 52.1052
" />
<path d="M58.7794 52.1052
L58.8398 52.2262
" />
<path d="M58.8398 52.2262
L58.8398 52.4076
" />
<path d="M58.8398 52.4076
L58.7794 52.5286
" />
<path d="M58.7794 52.5286
L58.7189 52.5891
" />
<path d="M58.7189 52.5891
L58.5979 52.6495
" />
<path d="M58.5979 52.6495
L58.1141 52.6495
" />
<path d="M58.1141 52.6495
L58.1141 51.3795
" />
<path d="M58.1141 51.3795
L58.5375 51.3795
" />
<path d="M58.5375 51.3795
L58.6584 51.4400
" />
<path d="M58.6584 51.4400
L58.7189 51.5005
" />
<path d="M58.7189 51.5005
L58.7794 51.6214
" />
<path d="M58.7794 51.6214
L58.7794 51.7424
" />
<path d="M58.7794 51.7424
L58.7189 51.8633
" />
<path d="M58.7189 51.8633
L58.6584 51.9238
" />
<path d="M58.6584 51.9238
L58.5375 51.9843
" />
<path d="M58.5375 51.9843
L58.1141 51.9843
" />
</g></g>
<g style="fill:none; 
stroke:#A90000; stroke-width:0.1524; stroke-opacity:1; 
stroke-linecap:round; stroke-linejoin:round;">
<text x="60.9600" y="51.8160"
textLength="1.4127" font-size="1.6933" lengthAdjust="spacingAndGlyphs"
text-anchor="middle" opacity="0" stroke-opacity="0">4</text>
<g class="stroked-text"><desc>4</desc>
<path d="M61.2019 50.8059
L61.2019 51.6525
" />
<path d="M60.8995 50.3221
L60.5972 51.2292
" />
<path d="M60.5972 51.2292
L61.3833 51.2292
" />
</g></g>
<g style="fill:none; 
stroke:#006464; stroke-width:0.1524; stroke-opacity:1; 
stroke-linecap:round; stroke-linejoin:round;">
<text x="55.5945" y="57.7850"
textLength="2.7432" font-size="1.6933" lengthAdjust="spacingAndGlyphs"
text-anchor="middle" opacity="0" stroke-opacity="0">U2</text>
<g class="stroked-text"><desc>U2</desc>
<path d="M54.6268 56.4595
L54.6268 57.4876
" />
<path d="M54.6268 57.4876
L54.6873 57.6086
" />
<path d="M54.6873 57.6086
L54.7478 57.6691
" />
<path d="M54.7478 57.6691
L54.8687 57.7295
" />
<path d="M54.8687 57.7295
L55.1106 57.7295
" />
<path d="M55.1106 57.7295
L55.2316 57.6691
" />
<path d="M55.2316 57.6691
L55.2921 57.6086
" />
<path d="M55.2921 57.6086
L55.3525 57.4876
" />
<path d="M55.3525 57.4876
L55.3525 56.4595
" />
<path d="M55.8969 56.5805
L55.9573 56.5200
" />
<path d="M55.9573 56.5200
L56.0783 56.4595
" />
<path d="M56.0783 56.4595
L56.3807 56.4595
" />
<path d="M56.3807 56.4595
L56.5016 56.5200
" />
<path d="M56.5016 56.5200
L56.5621 56.5805
" />
<path d="M56.5621 56.5805
L56.6226 56.7014
" />
<path d="M56.6226 56.7014
L56.6226 56.8224
" />
<path d="M56.6226 56.8224
L56.5621 57.0038
" />
<path d="M56.5621 57.0038
L55.8364 57.7295
" />
<path d="M55.8364 57.7295
L56.6226 57.7295
" />
</g><text x="59.0718" y="60.3250"
textLength="9.6978" font-size="1.6933" lengthAdjust="spacingAndGlyphs"
text-anchor="middle" opacity="0" stroke-opacity="0">TPS61022</text>
<g class="stroked-text"><desc>TPS61022</desc>
<path d="M54.4454 58.9995
L55.1711 58.9995
" />
<path d="M54.8083 60.2695
L54.8083 58.9995
" />
<path d="M55.5944 60.2695
L55.5944 58.9995
" />
<path d="M55.5944 58.9995
L56.0782 58.9995
" />
<path d="M56.0782 58.9995
L56.1992 59.0600
" />
<path d="M56.1992 59.0600
L56.2597 59.1205
" />
<path d="M56.2597 59.1205
L56.3201 59.2414
" />
<path d="M56.3201 59.2414
L56.3201 59.4229
" />
<path d="M56.3201 59.4229
L56.2597 59.5438
" />
<path d="M56.2597 59.5438
L56.1992 59.6043
" />
<path d="M56.1992 59.6043
L56.0782 59.6648
" />
<path d="M56.0782 59.6648
L55.5944 59.6648
" />
<path d="M56.8040 60.2091
L56.9854 60.2695
" />
<path d="M56.9854 60.2695
L57.2878 60.2695
" />
<path d="M57.2878 60.2695
L57.4087 60.2091
" />
<path d="M57.4087 60.2091
L57.4692 60.1486
" />
<path d="M57.4692 60.1486
L57.5297 60.0276
" />
<path d="M57.5297 60.0276
L57.5297 59.9067
" />
<path d="M57.5297 59.9067
L57.4692 59.7857
" />
<path d="M57.4692 59.7857
L57.4087 59.7252
" />
<path d="M57.4087 59.7252
L57.2878 59.6648
" />
<path d="M57.2878 59.6648
L57.0459 59.6043
" />
<path d="M57.0459 59.6043
L56.9249 59.5438
" />
<path d="M56.9249 59.5438
L56.8644 59.4833
" />
<path d="M56.8644 59.4833
L56.8040 59.3624
" />
<path d="M56.8040 59.3624
L56.8040 59.2414
" />
<path d="M56.8040 59.2414
L56.8644 59.1205
" />
<path d="M56.8644 59.1205
L56.9249 59.0600
" />
<path d="M56.9249 59.0600
L57.0459 58.9995
" />
<path d="M57.0459 58.9995
L57.3482 58.9995
" />
<path d="M57.3482 58.9995
L57.5297 59.0600
" />
<path d="M58.6182 58.9995
L58.3763 58.9995
" />
<path d="M58.3763 58.9995
L58.2554 59.0600
" />
<path d="M58.2554 59.0600
L58.1949 59.1205
" />
<path d="M58.1949 59.1205
L58.0739 59.3019
" />
<path d="M58.0739 59.3019
L58.0135 59.5438
" />
<path d="M58.0135 59.5438
L58.0135 60.0276
" />
<path d="M58.0135 60.0276
L58.0739 60.1486
" />
<path d="M58.0739 60.1486
L58.1344 60.2091
" />
<path d="M58.1344 60.2091
L58.2554 60.2695
" />
<path d="M58.2554 60.2695
L58.4973 60.2695
" />
<path d="M58.4973 60.2695
L58.6182 60.2091
" />
<path d="M58.6182 60.2091
L58.6787 60.1486
" />
<path d="M58.6787 60.1486
L58.7392 60.0276
" />
<path d="M58.7392 60.0276
L58.7392 59.7252
" />
<path d="M58.7392 59.7252
L58.6787 59.6043
" />
<path d="M58.6787 59.6043
L58.6182 59.5438
" />
<path d="M58.6182 59.5438
L58.4973 59.4833
" />
<path d="M58.4973 59.4833
L58.2554 59.4833
" />
<path d="M58.2554 59.4833
L58.1344 59.5438
" />
<path d="M58.1344 59.5438
L58.0739 59.6043
" />
<path d="M58.0739 59.6043
L58.0135 59.7252
" />
<path d="M59.9487 60.2695
L59.2230 60.2695
" />
<path d="M59.5858 60.2695
L59.5858 58.9995
" />
<path d="M59.5858 58.9995
L59.4649 59.1810
" />
<path d="M59.4649 59.1810
L59.3439 59.3019
" />
<path d="M59.3439 59.3019
L59.2230 59.3624
" />
<path d="M60.7348 58.9995
L60.8558 58.9995
" />
<path d="M60.8558 58.9995
L60.9767 59.0600
" />
<path d="M60.9767 59.0600
L61.0372 59.1205
" />
<path d="M61.0372 59.1205
L61.0977 59.2414
" />
<path d="M61.0977 59.2414
L61.1582 59.4833
" />
<path d="M61.1582 59.4833
L61.1582 59.7857
" />
<path d="M61.1582 59.7857
L61.0977 60.0276
" />
<path d="M61.0977 60.0276
L61.0372 60.1486
" />
<path d="M61.0372 60.1486
L60.9767 60.2091
" />
<path d="M60.9767 60.2091
L60.8558 60.2695
" />
<path d="M60.8558 60.2695
L60.7348 60.2695
" />
<path d="M60.7348 60.2695
L60.6139 60.2091
" />
<path d="M60.6139 60.2091
L60.5534 60.1486
" />
<path d="M60.5534 60.1486
L60.4929 60.0276
" />
<path d="M60.4929 60.0276
L60.4325 59.7857
" />
<path d="M60.4325 59.7857
L60.4325 59.4833
" />
<path d="M60.4325 59.4833
L60.4929 59.2414
" />
<path d="M60.4929 59.2414
L60.5534 59.1205
" />
<path d="M60.5534 59.1205
L60.6139 59.0600
" />
<path d="M60.6139 59.0600
L60.7348 58.9995
" />
<path d="M61.6420 59.1205
L61.7024 59.0600
" />
<path d="M61.7024 59.0600
L61.8234 58.9995
" />
<path d="M61.8234 58.9995
L62.1258 58.9995
" />
<path d="M62.1258 58.9995
L62.2467 59.0600
" />
<path d="M62.2467 59.0600
L62.3072 59.1205
" />
<path d="M62.3072 59.1205
L62.3677 59.2414
" />
<path d="M62.3677 59.2414
L62.3677 59.3624
" />
<path d="M62.3677 59.3624
L62.3072 59.5438
" />
<path d="M62.3072 59.5438
L61.5815 60.2695
" />
<path d="M61.5815 60.2695
L62.3677 60.2695
" />
<path d="M62.8515 59.1205
L62.9119 59.0600
" />
<path d="M62.9119 59.0600
L63.0329 58.9995
" />
<path d="M63.0329 58.9995
L63.3353 58.9995
" />
<path d="M63.3353 58.9995
L63.4562 59.0600
" />
<path d="M63.4562 59.0600
L63.5167 59.1205
" />
<path d="M63.5167 59.1205
L63.5772 59.2414
" />
<path d="M63.5772 59.2414
L63.5772 59.3624
" />
<path d="M63.5772 59.3624
L63.5167 59.5438
" />
<path d="M63.5167 59.5438
L62.7910 60.2695
" />
<path d="M62.7910 60.2695
L63.5772 60.2695
" />
</g></g>
<g style="fill:none; 
stroke:#725600; stroke-width:0.1524; stroke-opacity:1; 
stroke-linecap:round; stroke-linejoin:round;">
<text x="75.1205" y="50.1650"
textLength="4.9204" font-size="1.6933" lengthAdjust="spacingAndGlyphs"
text-anchor="start" opacity="0" stroke-opacity="0">VOUT</text>
<g class="stroked-text"><desc>VOUT</desc>
<path d="M75.3416 48.8395
L75.7649 50.1095
" />
<path d="M75.7649 50.1095
L76.1883 48.8395
" />
<path d="M76.8535 48.8395
L77.0954 48.8395
" />
<path d="M77.0954 48.8395
L77.2164 48.9000
" />
<path d="M77.2164 48.9000
L77.3373 49.0210
" />
<path d="M77.3373 49.0210
L77.3978 49.2629
" />
<path d="M77.3978 49.2629
L77.3978 49.6862
" />
<path d="M77.3978 49.6862
L77.3373 49.9281
" />
<path d="M77.3373 49.9281
L77.2164 50.0491
" />
<path d="M77.2164 50.0491
L77.0954 50.1095
" />
<path d="M77.0954 50.1095
L76.8535 50.1095
" />
<path d="M76.8535 50.1095
L76.7326 50.0491
" />
<path d="M76.7326 50.0491
L76.6116 49.9281
" />
<path d="M76.6116 49.9281
L76.5512 49.6862
" />
<path d="M76.5512 49.6862
L76.5512 49.2629
" />
<path d="M76.5512 49.2629
L76.6116 49.0210
" />
<path d="M76.6116 49.0210
L76.7326 48.9000
" />
<path d="M76.7326 48.9000
L76.8535 48.8395
" />
<path d="M77.9421 48.8395
L77.9421 49.8676
" />
<path d="M77.9421 49.8676
L78.0026 49.9886
" />
<path d="M78.0026 49.9886
L78.0631 50.0491
" />
<path d="M78.0631 50.0491
L78.1840 50.1095
" />
<path d="M78.1840 50.1095
L78.4259 50.1095
" />
<path d="M78.4259 50.1095
L78.5469 50.0491
" />
<path d="M78.5469 50.0491
L78.6074 49.9886
" />
<path d="M78.6074 49.9886
L78.6678 49.8676
" />
<path d="M78.6678 49.8676
L78.6678 48.8395
" />
<path d="M79.0912 48.8395
L79.8169 48.8395
" />
<path d="M79.4541 50.1095
L79.4541 48.8395
" />
</g><path style="fill:none; 
stroke:#725600; stroke-width:0.1524; stroke-opacity:1; 
stroke-linecap:round; stroke-linejoin:round;fill:none"
d="M 73.6600,48.8950
74.9300,48.8950
74.9300,50.1650
73.6600,50.1650
Z" /> 
</g>
<g style="fill:none; 
stroke:#725600; stroke-width:0.1524; stroke-opacity:1; 
stroke-linecap:round; stroke-linejoin:round;">
<text x="25.2095" y="24.7650"
textLength="10.0608" font-size="1.6933" lengthAdjust="spacingAndGlyphs"
text-anchor="end" opacity="0" stroke-opacity="0">SUPERCAP</text>
<g class="stroked-text"><desc>SUPERCAP</desc>
<path d="M15.4936 24.6491
L15.6750 24.7095
" />
<path d="M15.6750 24.7095
L15.9774 24.7095
" />
<path d="M15.9774 24.7095
L16.0983 24.6491
" />
<path d="M16.0983 24.6491
L16.1588 24.5886
" />
<path d="M16.1588 24.5886
L16.2193 24.4676
" />
<path d="M16.2193 24.4676
L16.2193 24.3467
" />
<path d="M16.2193 24.3467
L16.1588 24.2257
" />
<path d="M16.1588 24.2257
L16.0983 24.1652
" />
<path d="M16.0983 24.1652
L15.9774 24.1048
" />
<path d="M15.9774 24.1048
L15.7355 24.0443
" />
<path d="M15.7355 24.0443
L15.6145 23.9838
" />
<path d="M15.6145 23.9838
L15.5540 23.9233
" />
<path d="M15.5540 23.9233
L15.4936 23.8024
" />
<path d="M15.4936 23.8024
L15.4936 23.6814
" />
<path d="M15.4936 23.6814
L15.5540 23.5605
" />
<path d="M15.5540 23.5605
L15.6145 23.5000
" />
<path d="M15.6145 23.5000
L15.7355 23.4395
" />
<path d="M15.7355 23.4395
L16.0378 23.4395
" />
<path d="M16.0378 23.4395
L16.2193 23.5000
" />
<path d="M16.7635 23.4395
L16.7635 24.4676
" />
<path d="M16.7635 24.4676
L16.8240 24.5886
" />
<path d="M16.8240 24.5886
L16.8845 24.6491
" />
<path d="M16.8845 24.6491
L17.0054 24.7095
" />
<path d="M17.0054 24.7095
L17.2473 24.7095
" />
<path d="M17.2473 24.7095
L17.3683 24.6491
" />
<path d="M17.3683 24.6491
L17.4288 24.5886
" />
<path d="M17.4288 24.5886
L17.4892 24.4676
" />
<path d="M17.4892 24.4676
L17.4892 23.4395
" />
<path d="M18.0940 24.7095
L18.0940 23.4395
" />
<path d="M18.0940 23.4395
L18.5778 23.4395
" />
<path d="M18.5778 23.4395
L18.6988 23.5000
" />
<path d="M18.6988 23.5000
L18.7593 23.5605
" />
<path d="M18.7593 23.5605
L18.8197 23.6814
" />
<path d="M18.8197 23.6814
L18.8197 23.8629
" />
<path d="M18.8197 23.8629
L18.7593 23.9838
" />
<path d="M18.7593 23.9838
L18.6988 24.0443
" />
<path d="M18.6988 24.0443
L18.5778 24.1048
" />
<path d="M18.5778 24.1048
L18.0940 24.1048
" />
<path d="M19.3640 24.0443
L19.7874 24.0443
" />
<path d="M19.9688 24.7095
L19.3640 24.7095
" />
<path d="M19.3640 24.7095
L19.3640 23.4395
" />
<path d="M19.3640 23.4395
L19.9688 23.4395
" />
<path d="M21.2387 24.7095
L20.8154 24.1048
" />
<path d="M20.5130 24.7095
L20.5130 23.4395
" />
<path d="M20.5130 23.4395
L20.9968 23.4395
" />
<path d="M20.9968 23.4395
L21.1178 23.5000
" />
<path d="M21.1178 23.5000
L21.1783 23.5605
" />
<path d="M21.1783 23.5605
L21.2387 23.6814
" />
<path d="M21.2387 23.6814
L21.2387 23.8629
" />
<path d="M21.2387 23.8629
L21.1783 23.9838
" />
<path d="M21.1783 23.9838
L21.1178 24.0443
" />
<path d="M21.1178 24.0443
L20.9968 24.1048
" />
<path d="M20.9968 24.1048
L20.5130 24.1048
" />
<path d="M22.5087 24.5886
L22.4483 24.6491
" />
<path d="M22.4483 24.6491
L22.2668 24.7095
" />
<path d="M22.2668 24.7095
L22.1459 24.7095
" />
<path d="M22.1459 24.7095
L21.9645 24.6491
" />
<path d="M21.9645 24.6491
L21.8435 24.5281
" />
<path d="M21.8435 24.5281
L21.7830 24.4071
" />
<path d="M21.7830 24.4071
L21.7226 24.1652
" />
<path d="M21.7226 24.1652
L21.7226 23.9838
" />
<path d="M21.7226 23.9838
L21.7830 23.7419
" />
<path d="M21.7830 23.7419
L21.8435 23.6210
" />
<path d="M21.8435 23.6210
L21.9645 23.5000
" />
<path d="M21.9645 23.5000
L22.1459 23.4395
" />
<path d="M22.1459 23.4395
L22.2668 23.4395
" />
<path d="M22.2668 23.4395
L22.4483 23.5000
" />
<path d="M22.4483 23.5000
L22.5087 23.5605
" />
<path d="M22.9926 24.3467
L23.5973 24.3467
" />
<path d="M22.8716 24.7095
L23.2949 23.4395
" />
<path d="M23.2949 23.4395
L23.7183 24.7095
" />
<path d="M24.1416 24.7095
L24.1416 23.4395
" />
<path d="M24.1416 23.4395
L24.6254 23.4395
" />
<path d="M24.6254 23.4395
L24.7464 23.5000
" />
<path d="M24.7464 23.5000
L24.8069 23.5605
" />
<path d="M24.8069 23.5605
L24.8673 23.6814
" />
<path d="M24.8673 23.6814
L24.8673 23.8629
" />
<path d="M24.8673 23.8629
L24.8069 23.9838
" />
<path d="M24.8069 23.9838
L24.7464 24.0443
" />
<path d="M24.7464 24.0443
L24.6254 24.1048
" />
<path d="M24.6254 24.1048
L24.1416 24.1048
" />
</g><path style="fill:none; 
stroke:#725600; stroke-width:0.1524; stroke-opacity:1; 
stroke-linecap:round; stroke-linejoin:round;fill:none"
d="M 26.6700,23.4950
25.4000,23.4950
25.4000,24.7650
26.6700,24.7650
Z" /> 
</g>
<g style="fill:none; 
stroke:#009600; stroke-width:0.1524; stroke-opacity:1; 
stroke-linecap:round; stroke-linejoin:round;">
<path d="M52.0700 57.1500
L52.0700 62.2300
" />
<path d="M26.6700 24.1300
L46.9900 24.1300
" />
<path d="M46.9900 24.1300
L46.9900 41.9100
" />
<path d="M62.2300 49.5300
L73.6600 49.5300
" />
</g> 
</svg>
