<?xml version="1.0" standalone="no"?>
 <!DOCTYPE svg PUBLIC "-//W3C//DTD SVG 1.1//EN" 
 "http://www.w3.org/Graphics/SVG/1.1/DTD/svg11.dtd"> 
<svg
  xmlns:svg="http://www.w3.org/2000/svg"
  xmlns="http://www.w3.org/2000/svg"
  xmlns:xlink="http://www.w3.org/1999/xlink"
  version="1.1"
  width="297.0022mm" height="210.0072mm" viewBox="0.0000 0.0000 297.0022 210.0072">

  <desc>Image generated by Eeschema-SVG </desc>
<g style="fill:#000000; fill-opacity:1.0000;stroke:#000000; stroke-opacity:1.0000;
stroke-linecap:round; stroke-linejoin:round;"
 transform="translate(0 0) scale(1 1)">
</g>
<g style="fill:#840000; fill-opacity:1.0000; 
stroke:#840000; stroke-width:0.1524; stroke-opacity:1; 
stroke-linecap:round; stroke-linejoin:round;">
<rect x="12.700000" y="12.573000" width="0.863600" height="0.254000" rx="0.000000" />
<rect x="12.700000" y="15.113000" width="0.863600" height="0.254000" rx="0.000000" />
<path style="fill:none; 
stroke:#840000; stroke-width:0.1524; stroke-opacity:1; 
stroke-linecap:round; stroke-linejoin:round;fill:none"
d="M 13.9700,12.7000
13.5636,12.7000
" /> 
<path style="fill:none; 
stroke:#840000; stroke-width:0.1524; stroke-opacity:1; 
stroke-linecap:round; stroke-linejoin:round;fill:none"
d="M 13.9700,15.2400
13.5636,15.2400
" /> 
</g>
<g style="fill:none; 
stroke:#840000; stroke-width:0.1524; stroke-opacity:1; 
stroke-linecap:round; stroke-linejoin:round;">
<path d="M13.9700 12.7000
L17.7800 12.7000
" />
</g>
<g style="fill:none; 
stroke:#A90000; stroke-width:0.1524; stroke-opacity:1; 
stroke-linecap:round; stroke-linejoin:round;">
<text x="15.8750" y="12.4460"
textLength="1.4127" font-size="1.6933" lengthAdjust="spacingAndGlyphs"
text-anchor="middle" opacity="0" stroke-opacity="0">1</text>
<g class="stroked-text"><desc>1</desc>
<path d="M16.2379 12.2825
L15.5122 12.2825
" />
<path d="M15.8750 12.2825
L15.8750 11.0125
" />
<path d="M15.8750 11.0125
L15.7541 11.1940
" />
<path d="M15.7541 11.1940
L15.6331 11.3149
" />
<path d="M15.6331 11.3149
L15.5122 11.3754
" />
</g></g>
<g style="fill:none; 
stroke:#840000; stroke-width:0.1524; stroke-opacity:1; 
stroke-linecap:round; stroke-linejoin:round;">
<path d="M13.9700 15.2400
L17.7800 15.2400
" />
</g>
<g style="fill:none; 
stroke:#A90000; stroke-width:0.1524; stroke-opacity:1; 
stroke-linecap:round; stroke-linejoin:round;">
<text x="15.8750" y="14.9860"
textLength="1.4127" font-size="1.6933" lengthAdjust="spacingAndGlyphs"
text-anchor="middle" opacity="0" stroke-opacity="0">2</text>
<g class="stroked-text"><desc>2</desc>
<path d="M15.5122 13.6735
L15.5726 13.6130
" />
<path d="M15.5726 13.6130
L15.6936 13.5525
" />
<path d="M15.6936 13.5525
L15.9960 13.5525
" />
<path d="M15.9960 13.5525
L16.1169 13.6130
" />
<path d="M16.1169 13.6130
L16.1774 13.6735
" />
<path d="M16.1774 13.6735
L16.2379 13.7944
" />
<path d="M16.2379 13.7944
L16.2379 13.9154
" />
<path d="M16.2379 13.9154
L16.1774 14.0968
" />
<path d="M16.1774 14.0968
L15.4517 14.8225
" />
<path d="M15.4517 14.8225
L16.2379 14.8225
" />
</g></g>
<g style="fill:none; 
stroke:#006464; stroke-width:0.1524; stroke-opacity:1; 
stroke-linecap:round; stroke-linejoin:round;">
<text x="13.3350" y="8.2550"
textLength="2.3803" font-size="1.6933" lengthAdjust="spacingAndGlyphs"
text-anchor="middle" opacity="0" stroke-opacity="0">J2</text>
<g class="stroked-text"><desc>J2</desc>
<path d="M12.9117 6.9295
L12.9117 7.8367
" />
<path d="M12.9117 7.8367
L12.8512 8.0181
" />
<path d="M12.8512 8.0181
L12.7303 8.1391
" />
<path d="M12.7303 8.1391
L12.5488 8.1995
" />
<path d="M12.5488 8.1995
L12.4279 8.1995
" />
<path d="M13.4560 7.0505
L13.5164 6.9900
" />
<path d="M13.5164 6.9900
L13.6374 6.9295
" />
<path d="M13.6374 6.9295
L13.9398 6.9295
" />
<path d="M13.9398 6.9295
L14.0607 6.9900
" />
<path d="M14.0607 6.9900
L14.1212 7.0505
" />
<path d="M14.1212 7.0505
L14.1817 7.1714
" />
<path d="M14.1817 7.1714
L14.1817 7.2924
" />
<path d="M14.1817 7.2924
L14.1212 7.4738
" />
<path d="M14.1212 7.4738
L13.3955 8.1995
" />
<path d="M13.3955 8.1995
L14.1817 8.1995
" />
</g><text x="13.3350" y="10.7950"
textLength="10.1818" font-size="1.6933" lengthAdjust="spacingAndGlyphs"
text-anchor="middle" opacity="0" stroke-opacity="0">POWER-IN</text>
<g class="stroked-text"><desc>POWER-IN</desc>
<path d="M8.6480 10.7395
L8.6480 9.4695
" />
<path d="M8.6480 9.4695
L9.1318 9.4695
" />
<path d="M9.1318 9.4695
L9.2528 9.5300
" />
<path d="M9.2528 9.5300
L9.3133 9.5905
" />
<path d="M9.3133 9.5905
L9.3737 9.7114
" />
<path d="M9.3737 9.7114
L9.3737 9.8929
" />
<path d="M9.3737 9.8929
L9.3133 10.0138
" />
<path d="M9.3133 10.0138
L9.2528 10.0743
" />
<path d="M9.2528 10.0743
L9.1318 10.1348
" />
<path d="M9.1318 10.1348
L8.6480 10.1348
" />
<path d="M10.1599 9.4695
L10.4018 9.4695
" />
<path d="M10.4018 9.4695
L10.5228 9.5300
" />
<path d="M10.5228 9.5300
L10.6437 9.6510
" />
<path d="M10.6437 9.6510
L10.7042 9.8929
" />
<path d="M10.7042 9.8929
L10.7042 10.3162
" />
<path d="M10.7042 10.3162
L10.6437 10.5581
" />
<path d="M10.6437 10.5581
L10.5228 10.6791
" />
<path d="M10.5228 10.6791
L10.4018 10.7395
" />
<path d="M10.4018 10.7395
L10.1599 10.7395
" />
<path d="M10.1599 10.7395
L10.0390 10.6791
" />
<path d="M10.0390 10.6791
L9.9180 10.5581
" />
<path d="M9.9180 10.5581
L9.8576 10.3162
" />
<path d="M9.8576 10.3162
L9.8576 9.8929
" />
<path d="M9.8576 9.8929
L9.9180 9.6510
" />
<path d="M9.9180 9.6510
L10.0390 9.5300
" />
<path d="M10.0390 9.5300
L10.1599 9.4695
" />
<path d="M11.1276 9.4695
L11.4300 10.7395
" />
<path d="M11.4300 10.7395
L11.6719 9.8324
" />
<path d="M11.6719 9.8324
L11.9138 10.7395
" />
<path d="M11.9138 10.7395
L12.2162 9.4695
" />
<path d="M12.6999 10.0743
L13.1233 10.0743
" />
<path d="M13.3047 10.7395
L12.6999 10.7395
" />
<path d="M12.6999 10.7395
L12.6999 9.4695
" />
<path d="M12.6999 9.4695
L13.3047 9.4695
" />
<path d="M14.5746 10.7395
L14.1513 10.1348
" />
<path d="M13.8489 10.7395
L13.8489 9.4695
" />
<path d="M13.8489 9.4695
L14.3327 9.4695
" />
<path d="M14.3327 9.4695
L14.4537 9.5300
" />
<path d="M14.4537 9.5300
L14.5142 9.5905
" />
<path d="M14.5142 9.5905
L14.5746 9.7114
" />
<path d="M14.5746 9.7114
L14.5746 9.8929
" />
<path d="M14.5746 9.8929
L14.5142 10.0138
" />
<path d="M14.5142 10.0138
L14.4537 10.0743
" />
<path d="M14.4537 10.0743
L14.3327 10.1348
" />
<path d="M14.3327 10.1348
L13.8489 10.1348
" />
<path d="M15.1189 10.2557
L16.0866 10.2557
" />
<path d="M16.6913 10.7395
L16.6913 9.4695
" />
<path d="M17.2961 10.7395
L17.2961 9.4695
" />
<path d="M17.2961 9.4695
L18.0218 10.7395
" />
<path d="M18.0218 10.7395
L18.0218 9.4695
" />
</g></g> 
</svg>
