<?xml version="1.0" standalone="no"?>
 <!DOCTYPE svg PUBLIC "-//W3C//DTD SVG 1.1//EN" 
 "http://www.w3.org/Graphics/SVG/1.1/DTD/svg11.dtd"> 
<svg
  xmlns:svg="http://www.w3.org/2000/svg"
  xmlns="http://www.w3.org/2000/svg"
  xmlns:xlink="http://www.w3.org/1999/xlink"
  version="1.1"
  width="297.0022mm" height="210.0072mm" viewBox="0.0000 0.0000 297.0022 210.0072">

  <desc>Image generated by Eeschema-SVG </desc>
<g style="fill:#000000; fill-opacity:1.0000;stroke:#000000; stroke-opacity:1.0000;
stroke-linecap:round; stroke-linejoin:round;"
 transform="translate(0 0) scale(1 1)">
</g>
<g style="fill:#FFFFC2; fill-opacity:1.0000; stroke:none;">
<rect x="47.625000" y="45.720000" width="6.350000" height="7.620000" rx="0.000000" />
</g>
<g style="fill:none; 
stroke:#840000; stroke-width:0.1524; stroke-opacity:1; 
stroke-linecap:round; stroke-linejoin:round;">
<circle cx="48.7680" cy="49.5300" r="0.4572" /> 
<path style="fill:none; 
stroke:#840000; stroke-width:0.1524; stroke-opacity:1; 
stroke-linecap:round; stroke-linejoin:round;fill:none"
d="M 49.1490,49.2760
52.4510,47.2440
" /> 
<circle cx="52.8320" cy="46.9900" r="0.4572" /> 
<circle cx="52.8320" cy="49.5300" r="0.4572" /> 
<circle cx="52.8320" cy="52.0700" r="0.4572" /> 
<rect x="47.625000" y="45.720000" width="6.350000" height="7.620000" rx="0.000000" />
<path d="M48.2600 49.5300
L45.7200 49.5300
" />
</g>
<g style="fill:none; 
stroke:#A90000; stroke-width:0.1524; stroke-opacity:1; 
stroke-linecap:round; stroke-linejoin:round;">
<text x="46.9900" y="49.2760"
textLength="1.4127" font-size="1.6933" lengthAdjust="spacingAndGlyphs"
text-anchor="middle" opacity="0" stroke-opacity="0">2</text>
<g class="stroked-text"><desc>2</desc>
<path d="M46.6272 47.9635
L46.6876 47.9030
" />
<path d="M46.6876 47.9030
L46.8086 47.8425
" />
<path d="M46.8086 47.8425
L47.1110 47.8425
" />
<path d="M47.1110 47.8425
L47.2319 47.9030
" />
<path d="M47.2319 47.9030
L47.2924 47.9635
" />
<path d="M47.2924 47.9635
L47.3529 48.0844
" />
<path d="M47.3529 48.0844
L47.3529 48.2054
" />
<path d="M47.3529 48.2054
L47.2924 48.3868
" />
<path d="M47.2924 48.3868
L46.5667 49.1125
" />
<path d="M46.5667 49.1125
L47.3529 49.1125
" />
</g></g>
<g style="fill:none; 
stroke:#840000; stroke-width:0.1524; stroke-opacity:1; 
stroke-linecap:round; stroke-linejoin:round;">
<path d="M53.3400 46.9900
L55.8800 46.9900
" />
</g>
<g style="fill:none; 
stroke:#A90000; stroke-width:0.1524; stroke-opacity:1; 
stroke-linecap:round; stroke-linejoin:round;">
<text x="54.6100" y="46.7360"
textLength="1.4127" font-size="1.6933" lengthAdjust="spacingAndGlyphs"
text-anchor="middle" opacity="0" stroke-opacity="0">1</text>
<g class="stroked-text"><desc>1</desc>
<path d="M54.9729 46.5725
L54.2472 46.5725
" />
<path d="M54.6100 46.5725
L54.6100 45.3025
" />
<path d="M54.6100 45.3025
L54.4891 45.4840
" />
<path d="M54.4891 45.4840
L54.3681 45.6049
" />
<path d="M54.3681 45.6049
L54.2472 45.6654
" />
</g></g>
<g style="fill:none; 
stroke:#840000; stroke-width:0.1524; stroke-opacity:1; 
stroke-linecap:round; stroke-linejoin:round;">
<path d="M53.3400 52.0700
L55.8800 52.0700
" />
</g>
<g style="fill:none; 
stroke:#A90000; stroke-width:0.1524; stroke-opacity:1; 
stroke-linecap:round; stroke-linejoin:round;">
<text x="54.6100" y="51.8160"
textLength="1.4127" font-size="1.6933" lengthAdjust="spacingAndGlyphs"
text-anchor="middle" opacity="0" stroke-opacity="0">3</text>
<g class="stroked-text"><desc>3</desc>
<path d="M54.1867 50.3825
L54.9729 50.3825
" />
<path d="M54.9729 50.3825
L54.5495 50.8663
" />
<path d="M54.5495 50.8663
L54.7310 50.8663
" />
<path d="M54.7310 50.8663
L54.8519 50.9268
" />
<path d="M54.8519 50.9268
L54.9124 50.9873
" />
<path d="M54.9124 50.9873
L54.9729 51.1082
" />
<path d="M54.9729 51.1082
L54.9729 51.4106
" />
<path d="M54.9729 51.4106
L54.9124 51.5316
" />
<path d="M54.9124 51.5316
L54.8519 51.5921
" />
<path d="M54.8519 51.5921
L54.7310 51.6525
" />
<path d="M54.7310 51.6525
L54.3681 51.6525
" />
<path d="M54.3681 51.6525
L54.2472 51.5921
" />
<path d="M54.2472 51.5921
L54.1867 51.5316
" />
</g></g>
<g style="fill:none; 
stroke:#006464; stroke-width:0.1524; stroke-opacity:1; 
stroke-linecap:round; stroke-linejoin:round;">
<text x="50.8000" y="41.2750"
textLength="4.0736" font-size="1.6933" lengthAdjust="spacingAndGlyphs"
text-anchor="middle" opacity="0" stroke-opacity="0">SW1</text>
<g class="stroked-text"><desc>SW1</desc>
<path d="M49.1067 41.1591
L49.2881 41.2195
" />
<path d="M49.2881 41.2195
L49.5905 41.2195
" />
<path d="M49.5905 41.2195
L49.7114 41.1591
" />
<path d="M49.7114 41.1591
L49.7719 41.0986
" />
<path d="M49.7719 41.0986
L49.8324 40.9776
" />
<path d="M49.8324 40.9776
L49.8324 40.8567
" />
<path d="M49.8324 40.8567
L49.7719 40.7357
" />
<path d="M49.7719 40.7357
L49.7114 40.6752
" />
<path d="M49.7114 40.6752
L49.5905 40.6148
" />
<path d="M49.5905 40.6148
L49.3486 40.5543
" />
<path d="M49.3486 40.5543
L49.2276 40.4938
" />
<path d="M49.2276 40.4938
L49.1671 40.4333
" />
<path d="M49.1671 40.4333
L49.1067 40.3124
" />
<path d="M49.1067 40.3124
L49.1067 40.1914
" />
<path d="M49.1067 40.1914
L49.1671 40.0705
" />
<path d="M49.1671 40.0705
L49.2276 40.0100
" />
<path d="M49.2276 40.0100
L49.3486 39.9495
" />
<path d="M49.3486 39.9495
L49.6509 39.9495
" />
<path d="M49.6509 39.9495
L49.8324 40.0100
" />
<path d="M50.2557 39.9495
L50.5581 41.2195
" />
<path d="M50.5581 41.2195
L50.8000 40.3124
" />
<path d="M50.8000 40.3124
L51.0419 41.2195
" />
<path d="M51.0419 41.2195
L51.3443 39.9495
" />
<path d="M52.4933 41.2195
L51.7676 41.2195
" />
<path d="M52.1304 41.2195
L52.1304 39.9495
" />
<path d="M52.1304 39.9495
L52.0095 40.1310
" />
<path d="M52.0095 40.1310
L51.8885 40.2519
" />
<path d="M51.8885 40.2519
L51.7676 40.3124
" />
</g><text x="50.8000" y="43.8150"
textLength="5.4041" font-size="1.6933" lengthAdjust="spacingAndGlyphs"
text-anchor="middle" opacity="0" stroke-opacity="0">MODE</text>
<g class="stroked-text"><desc>MODE</desc>
<path d="M48.5019 43.7595
L48.5019 42.4895
" />
<path d="M48.5019 42.4895
L48.9253 43.3967
" />
<path d="M48.9253 43.3967
L49.3486 42.4895
" />
<path d="M49.3486 42.4895
L49.3486 43.7595
" />
<path d="M50.1952 42.4895
L50.4371 42.4895
" />
<path d="M50.4371 42.4895
L50.5581 42.5500
" />
<path d="M50.5581 42.5500
L50.6790 42.6710
" />
<path d="M50.6790 42.6710
L50.7395 42.9129
" />
<path d="M50.7395 42.9129
L50.7395 43.3362
" />
<path d="M50.7395 43.3362
L50.6790 43.5781
" />
<path d="M50.6790 43.5781
L50.5581 43.6991
" />
<path d="M50.5581 43.6991
L50.4371 43.7595
" />
<path d="M50.4371 43.7595
L50.1952 43.7595
" />
<path d="M50.1952 43.7595
L50.0743 43.6991
" />
<path d="M50.0743 43.6991
L49.9533 43.5781
" />
<path d="M49.9533 43.5781
L49.8929 43.3362
" />
<path d="M49.8929 43.3362
L49.8929 42.9129
" />
<path d="M49.8929 42.9129
L49.9533 42.6710
" />
<path d="M49.9533 42.6710
L50.0743 42.5500
" />
<path d="M50.0743 42.5500
L50.1952 42.4895
" />
<path d="M51.2838 43.7595
L51.2838 42.4895
" />
<path d="M51.2838 42.4895
L51.5862 42.4895
" />
<path d="M51.5862 42.4895
L51.7676 42.5500
" />
<path d="M51.7676 42.5500
L51.8886 42.6710
" />
<path d="M51.8886 42.6710
L51.9491 42.7919
" />
<path d="M51.9491 42.7919
L52.0095 43.0338
" />
<path d="M52.0095 43.0338
L52.0095 43.2152
" />
<path d="M52.0095 43.2152
L51.9491 43.4571
" />
<path d="M51.9491 43.4571
L51.8886 43.5781
" />
<path d="M51.8886 43.5781
L51.7676 43.6991
" />
<path d="M51.7676 43.6991
L51.5862 43.7595
" />
<path d="M51.5862 43.7595
L51.2838 43.7595
" />
<path d="M52.5538 43.0943
L52.9772 43.0943
" />
<path d="M53.1586 43.7595
L52.5538 43.7595
" />
<path d="M52.5538 43.7595
L52.5538 42.4895
" />
<path d="M52.5538 42.4895
L53.1586 42.4895
" />
</g></g>
<g style="fill:none; 
stroke:#840084; stroke-width:0.1524; stroke-opacity:1; 
stroke-linecap:round; stroke-linejoin:round;">
<text x="50.8000" y="56.0070"
textLength="4.3156" font-size="1.6933" lengthAdjust="spacingAndGlyphs"
text-anchor="middle" opacity="0" stroke-opacity="0">7.5A</text>
<g class="stroked-text"><desc>7.5A</desc>
<path d="M48.9252 54.6815
L49.7718 54.6815
" />
<path d="M49.7718 54.6815
L49.2276 55.9515
" />
<path d="M50.2556 55.8306
L50.3161 55.8911
" />
<path d="M50.3161 55.8911
L50.2556 55.9515
" />
<path d="M50.2556 55.9515
L50.1952 55.8911
" />
<path d="M50.1952 55.8911
L50.2556 55.8306
" />
<path d="M50.2556 55.8306
L50.2556 55.9515
" />
<path d="M51.4652 54.6815
L50.8604 54.6815
" />
<path d="M50.8604 54.6815
L50.8000 55.2863
" />
<path d="M50.8000 55.2863
L50.8604 55.2258
" />
<path d="M50.8604 55.2258
L50.9814 55.1653
" />
<path d="M50.9814 55.1653
L51.2838 55.1653
" />
<path d="M51.2838 55.1653
L51.4047 55.2258
" />
<path d="M51.4047 55.2258
L51.4652 55.2863
" />
<path d="M51.4652 55.2863
L51.5257 55.4072
" />
<path d="M51.5257 55.4072
L51.5257 55.7096
" />
<path d="M51.5257 55.7096
L51.4652 55.8306
" />
<path d="M51.4652 55.8306
L51.4047 55.8911
" />
<path d="M51.4047 55.8911
L51.2838 55.9515
" />
<path d="M51.2838 55.9515
L50.9814 55.9515
" />
<path d="M50.9814 55.9515
L50.8604 55.8911
" />
<path d="M50.8604 55.8911
L50.8000 55.8306
" />
<path d="M52.0095 55.5887
L52.6142 55.5887
" />
<path d="M51.8885 55.9515
L52.3118 54.6815
" />
<path d="M52.3118 54.6815
L52.7352 55.9515
" />
</g></g>
<g style="fill:#840000; fill-opacity:1.0000; 
stroke:#840000; stroke-width:0.1524; stroke-opacity:1; 
stroke-linecap:round; stroke-linejoin:round;">
<rect x="143.916400" y="13.843000" width="0.863600" height="0.254000" rx="0.000000" />
<rect x="143.916400" y="16.383000" width="0.863600" height="0.254000" rx="0.000000" />
<path style="fill:none; 
stroke:#840000; stroke-width:0.1524; stroke-opacity:1; 
stroke-linecap:round; stroke-linejoin:round;fill:none"
d="M 143.5100,13.9700
143.9164,13.9700
" /> 
<path style="fill:none; 
stroke:#840000; stroke-width:0.1524; stroke-opacity:1; 
stroke-linecap:round; stroke-linejoin:round;fill:none"
d="M 143.5100,16.5100
143.9164,16.5100
" /> 
</g>
<g style="fill:none; 
stroke:#840000; stroke-width:0.1524; stroke-opacity:1; 
stroke-linecap:round; stroke-linejoin:round;">
<path d="M143.5100 13.9700
L139.7000 13.9700
" />
</g>
<g style="fill:none; 
stroke:#A90000; stroke-width:0.1524; stroke-opacity:1; 
stroke-linecap:round; stroke-linejoin:round;">
<text x="141.6050" y="13.7160"
textLength="1.4127" font-size="1.6933" lengthAdjust="spacingAndGlyphs"
text-anchor="middle" opacity="0" stroke-opacity="0">1</text>
<g class="stroked-text"><desc>1</desc>
<path d="M141.9679 13.5525
L141.2422 13.5525
" />
<path d="M141.6050 13.5525
L141.6050 12.2825
" />
<path d="M141.6050 12.2825
L141.4841 12.4640
" />
<path d="M141.4841 12.4640
L141.3631 12.5849
" />
<path d="M141.3631 12.5849
L141.2422 12.6454
" />
</g></g>
<g style="fill:none; 
stroke:#840000; stroke-width:0.1524; stroke-opacity:1; 
stroke-linecap:round; stroke-linejoin:round;">
<path d="M143.5100 16.5100
L139.7000 16.5100
" />
</g>
<g style="fill:none; 
stroke:#A90000; stroke-width:0.1524; stroke-opacity:1; 
stroke-linecap:round; stroke-linejoin:round;">
<text x="141.6050" y="16.2560"
textLength="1.4127" font-size="1.6933" lengthAdjust="spacingAndGlyphs"
text-anchor="middle" opacity="0" stroke-opacity="0">2</text>
<g class="stroked-text"><desc>2</desc>
<path d="M141.2422 14.9435
L141.3026 14.8830
" />
<path d="M141.3026 14.8830
L141.4236 14.8225
" />
<path d="M141.4236 14.8225
L141.7260 14.8225
" />
<path d="M141.7260 14.8225
L141.8469 14.8830
" />
<path d="M141.8469 14.8830
L141.9074 14.9435
" />
<path d="M141.9074 14.9435
L141.9679 15.0644
" />
<path d="M141.9679 15.0644
L141.9679 15.1854
" />
<path d="M141.9679 15.1854
L141.9074 15.3668
" />
<path d="M141.9074 15.3668
L141.1817 16.0925
" />
<path d="M141.1817 16.0925
L141.9679 16.0925
" />
</g></g>
<g style="fill:none; 
stroke:#006464; stroke-width:0.1524; stroke-opacity:1; 
stroke-linecap:round; stroke-linejoin:round;">
<text x="144.1449" y="9.5250"
textLength="2.3803" font-size="1.6933" lengthAdjust="spacingAndGlyphs"
text-anchor="middle" opacity="0" stroke-opacity="0">J2</text>
<g class="stroked-text"><desc>J2</desc>
<path d="M143.7216 8.1995
L143.7216 9.1067
" />
<path d="M143.7216 9.1067
L143.6611 9.2881
" />
<path d="M143.6611 9.2881
L143.5402 9.4091
" />
<path d="M143.5402 9.4091
L143.3587 9.4695
" />
<path d="M143.3587 9.4695
L143.2378 9.4695
" />
<path d="M144.2659 8.3205
L144.3263 8.2600
" />
<path d="M144.3263 8.2600
L144.4473 8.1995
" />
<path d="M144.4473 8.1995
L144.7497 8.1995
" />
<path d="M144.7497 8.1995
L144.8706 8.2600
" />
<path d="M144.8706 8.2600
L144.9311 8.3205
" />
<path d="M144.9311 8.3205
L144.9916 8.4414
" />
<path d="M144.9916 8.4414
L144.9916 8.5624
" />
<path d="M144.9916 8.5624
L144.9311 8.7438
" />
<path d="M144.9311 8.7438
L144.2054 9.4695
" />
<path d="M144.2054 9.4695
L144.9916 9.4695
" />
</g><text x="144.1450" y="12.0650"
textLength="10.1818" font-size="1.6933" lengthAdjust="spacingAndGlyphs"
text-anchor="middle" opacity="0" stroke-opacity="0">POWER-IN</text>
<g class="stroked-text"><desc>POWER-IN</desc>
<path d="M139.4580 12.0095
L139.4580 10.7395
" />
<path d="M139.4580 10.7395
L139.9418 10.7395
" />
<path d="M139.9418 10.7395
L140.0628 10.8000
" />
<path d="M140.0628 10.8000
L140.1233 10.8605
" />
<path d="M140.1233 10.8605
L140.1837 10.9814
" />
<path d="M140.1837 10.9814
L140.1837 11.1629
" />
<path d="M140.1837 11.1629
L140.1233 11.2838
" />
<path d="M140.1233 11.2838
L140.0628 11.3443
" />
<path d="M140.0628 11.3443
L139.9418 11.4048
" />
<path d="M139.9418 11.4048
L139.4580 11.4048
" />
<path d="M140.9699 10.7395
L141.2118 10.7395
" />
<path d="M141.2118 10.7395
L141.3328 10.8000
" />
<path d="M141.3328 10.8000
L141.4537 10.9210
" />
<path d="M141.4537 10.9210
L141.5142 11.1629
" />
<path d="M141.5142 11.1629
L141.5142 11.5862
" />
<path d="M141.5142 11.5862
L141.4537 11.8281
" />
<path d="M141.4537 11.8281
L141.3328 11.9491
" />
<path d="M141.3328 11.9491
L141.2118 12.0095
" />
<path d="M141.2118 12.0095
L140.9699 12.0095
" />
<path d="M140.9699 12.0095
L140.8490 11.9491
" />
<path d="M140.8490 11.9491
L140.7280 11.8281
" />
<path d="M140.7280 11.8281
L140.6676 11.5862
" />
<path d="M140.6676 11.5862
L140.6676 11.1629
" />
<path d="M140.6676 11.1629
L140.7280 10.9210
" />
<path d="M140.7280 10.9210
L140.8490 10.8000
" />
<path d="M140.8490 10.8000
L140.9699 10.7395
" />
<path d="M141.9376 10.7395
L142.2400 12.0095
" />
<path d="M142.2400 12.0095
L142.4819 11.1024
" />
<path d="M142.4819 11.1024
L142.7238 12.0095
" />
<path d="M142.7238 12.0095
L143.0262 10.7395
" />
<path d="M143.5099 11.3443
L143.9333 11.3443
" />
<path d="M144.1147 12.0095
L143.5099 12.0095
" />
<path d="M143.5099 12.0095
L143.5099 10.7395
" />
<path d="M143.5099 10.7395
L144.1147 10.7395
" />
<path d="M145.3846 12.0095
L144.9613 11.4048
" />
<path d="M144.6589 12.0095
L144.6589 10.7395
" />
<path d="M144.6589 10.7395
L145.1427 10.7395
" />
<path d="M145.1427 10.7395
L145.2637 10.8000
" />
<path d="M145.2637 10.8000
L145.3242 10.8605
" />
<path d="M145.3242 10.8605
L145.3846 10.9814
" />
<path d="M145.3846 10.9814
L145.3846 11.1629
" />
<path d="M145.3846 11.1629
L145.3242 11.2838
" />
<path d="M145.3242 11.2838
L145.2637 11.3443
" />
<path d="M145.2637 11.3443
L145.1427 11.4048
" />
<path d="M145.1427 11.4048
L144.6589 11.4048
" />
<path d="M145.9289 11.5257
L146.8966 11.5257
" />
<path d="M147.5013 12.0095
L147.5013 10.7395
" />
<path d="M148.1061 12.0095
L148.1061 10.7395
" />
<path d="M148.1061 10.7395
L148.8318 12.0095
" />
<path d="M148.8318 12.0095
L148.8318 10.7395
" />
</g></g>
<g style="fill:none; 
stroke:#840000; stroke-width:0.1524; stroke-opacity:1; 
stroke-linecap:round; stroke-linejoin:round;">
<rect x="23.114000" y="89.154000" width="4.572000" height="0.508000" rx="0.000000" />
<path style="fill:none; 
stroke:#840000; stroke-width:0.1524; stroke-opacity:1; 
stroke-linecap:round; stroke-linejoin:round;fill:none"
d="M 23.6220,87.8840
24.6380,87.8840
" /> 
<path style="fill:none; 
stroke:#840000; stroke-width:0.1524; stroke-opacity:1; 
stroke-linecap:round; stroke-linejoin:round;fill:none"
d="M 24.1300,87.3760
24.1300,88.3920
" /> 
</g>
<g style="fill:#840000; fill-opacity:1.0000; 
stroke:#840000; stroke-width:0.1524; stroke-opacity:1; 
stroke-linecap:round; stroke-linejoin:round;">
<rect x="23.114000" y="90.678000" width="4.572000" height="0.508000" rx="0.000000" />
</g>
<g style="fill:none; 
stroke:#840000; stroke-width:0.1524; stroke-opacity:1; 
stroke-linecap:round; stroke-linejoin:round;">
<path d="M25.4000 89.1540
L25.4000 86.3600
" />
<path d="M25.4000 91.1860
L25.4000 93.9800
" />
</g>
<g style="fill:none; 
stroke:#006464; stroke-width:0.1524; stroke-opacity:1; 
stroke-linecap:round; stroke-linejoin:round;">
<text x="30.5609" y="88.6459"
textLength="2.6827" font-size="1.6933" lengthAdjust="spacingAndGlyphs"
text-anchor="middle" opacity="0" stroke-opacity="0">C1</text>
<g class="stroked-text"><desc>C1</desc>
<path d="M30.3492 88.4695
L30.2888 88.5300
" />
<path d="M30.2888 88.5300
L30.1073 88.5904
" />
<path d="M30.1073 88.5904
L29.9864 88.5904
" />
<path d="M29.9864 88.5904
L29.8050 88.5300
" />
<path d="M29.8050 88.5300
L29.6840 88.4090
" />
<path d="M29.6840 88.4090
L29.6235 88.2880
" />
<path d="M29.6235 88.2880
L29.5631 88.0461
" />
<path d="M29.5631 88.0461
L29.5631 87.8647
" />
<path d="M29.5631 87.8647
L29.6235 87.6228
" />
<path d="M29.6235 87.6228
L29.6840 87.5019
" />
<path d="M29.6840 87.5019
L29.8050 87.3809
" />
<path d="M29.8050 87.3809
L29.9864 87.3204
" />
<path d="M29.9864 87.3204
L30.1073 87.3204
" />
<path d="M30.1073 87.3204
L30.2888 87.3809
" />
<path d="M30.2888 87.3809
L30.3492 87.4414
" />
<path d="M31.5588 88.5904
L30.8331 88.5904
" />
<path d="M31.1959 88.5904
L31.1959 87.3204
" />
<path d="M31.1959 87.3204
L31.0750 87.5019
" />
<path d="M31.0750 87.5019
L30.9540 87.6228
" />
<path d="M30.9540 87.6228
L30.8331 87.6833
" />
</g><text x="34.2197" y="91.1859"
textLength="10.0003" font-size="1.6933" lengthAdjust="spacingAndGlyphs"
text-anchor="middle" opacity="0" stroke-opacity="0">800F 2.7V</text>
<g class="stroked-text"><desc>800F 2.7V</desc>
<path d="M29.8050 90.4047
L29.6840 90.3442
" />
<path d="M29.6840 90.3442
L29.6235 90.2838
" />
<path d="M29.6235 90.2838
L29.5631 90.1628
" />
<path d="M29.5631 90.1628
L29.5631 90.1023
" />
<path d="M29.5631 90.1023
L29.6235 89.9814
" />
<path d="M29.6235 89.9814
L29.6840 89.9209
" />
<path d="M29.6840 89.9209
L29.8050 89.8604
" />
<path d="M29.8050 89.8604
L30.0469 89.8604
" />
<path d="M30.0469 89.8604
L30.1678 89.9209
" />
<path d="M30.1678 89.9209
L30.2283 89.9814
" />
<path d="M30.2283 89.9814
L30.2888 90.1023
" />
<path d="M30.2888 90.1023
L30.2888 90.1628
" />
<path d="M30.2888 90.1628
L30.2283 90.2838
" />
<path d="M30.2283 90.2838
L30.1678 90.3442
" />
<path d="M30.1678 90.3442
L30.0469 90.4047
" />
<path d="M30.0469 90.4047
L29.8050 90.4047
" />
<path d="M29.8050 90.4047
L29.6840 90.4652
" />
<path d="M29.6840 90.4652
L29.6235 90.5257
" />
<path d="M29.6235 90.5257
L29.5631 90.6466
" />
<path d="M29.5631 90.6466
L29.5631 90.8885
" />
<path d="M29.5631 90.8885
L29.6235 91.0095
" />
<path d="M29.6235 91.0095
L29.6840 91.0700
" />
<path d="M29.6840 91.0700
L29.8050 91.1304
" />
<path d="M29.8050 91.1304
L30.0469 91.1304
" />
<path d="M30.0469 91.1304
L30.1678 91.0700
" />
<path d="M30.1678 91.0700
L30.2283 91.0095
" />
<path d="M30.2283 91.0095
L30.2888 90.8885
" />
<path d="M30.2888 90.8885
L30.2888 90.6466
" />
<path d="M30.2888 90.6466
L30.2283 90.5257
" />
<path d="M30.2283 90.5257
L30.1678 90.4652
" />
<path d="M30.1678 90.4652
L30.0469 90.4047
" />
<path d="M31.0749 89.8604
L31.1959 89.8604
" />
<path d="M31.1959 89.8604
L31.3168 89.9209
" />
<path d="M31.3168 89.9209
L31.3773 89.9814
" />
<path d="M31.3773 89.9814
L31.4378 90.1023
" />
<path d="M31.4378 90.1023
L31.4983 90.3442
" />
<path d="M31.4983 90.3442
L31.4983 90.6466
" />
<path d="M31.4983 90.6466
L31.4378 90.8885
" />
<path d="M31.4378 90.8885
L31.3773 91.0095
" />
<path d="M31.3773 91.0095
L31.3168 91.0700
" />
<path d="M31.3168 91.0700
L31.1959 91.1304
" />
<path d="M31.1959 91.1304
L31.0749 91.1304
" />
<path d="M31.0749 91.1304
L30.9540 91.0700
" />
<path d="M30.9540 91.0700
L30.8935 91.0095
" />
<path d="M30.8935 91.0095
L30.8330 90.8885
" />
<path d="M30.8330 90.8885
L30.7726 90.6466
" />
<path d="M30.7726 90.6466
L30.7726 90.3442
" />
<path d="M30.7726 90.3442
L30.8330 90.1023
" />
<path d="M30.8330 90.1023
L30.8935 89.9814
" />
<path d="M30.8935 89.9814
L30.9540 89.9209
" />
<path d="M30.9540 89.9209
L31.0749 89.8604
" />
<path d="M32.2844 89.8604
L32.4054 89.8604
" />
<path d="M32.4054 89.8604
L32.5263 89.9209
" />
<path d="M32.5263 89.9209
L32.5868 89.9814
" />
<path d="M32.5868 89.9814
L32.6473 90.1023
" />
<path d="M32.6473 90.1023
L32.7078 90.3442
" />
<path d="M32.7078 90.3442
L32.7078 90.6466
" />
<path d="M32.7078 90.6466
L32.6473 90.8885
" />
<path d="M32.6473 90.8885
L32.5868 91.0095
" />
<path d="M32.5868 91.0095
L32.5263 91.0700
" />
<path d="M32.5263 91.0700
L32.4054 91.1304
" />
<path d="M32.4054 91.1304
L32.2844 91.1304
" />
<path d="M32.2844 91.1304
L32.1635 91.0700
" />
<path d="M32.1635 91.0700
L32.1030 91.0095
" />
<path d="M32.1030 91.0095
L32.0425 90.8885
" />
<path d="M32.0425 90.8885
L31.9821 90.6466
" />
<path d="M31.9821 90.6466
L31.9821 90.3442
" />
<path d="M31.9821 90.3442
L32.0425 90.1023
" />
<path d="M32.0425 90.1023
L32.1030 89.9814
" />
<path d="M32.1030 89.9814
L32.1635 89.9209
" />
<path d="M32.1635 89.9209
L32.2844 89.8604
" />
<path d="M33.6754 90.4652
L33.2520 90.4652
" />
<path d="M33.2520 91.1304
L33.2520 89.8604
" />
<path d="M33.2520 89.8604
L33.8568 89.8604
" />
<path d="M35.2478 89.9814
L35.3082 89.9209
" />
<path d="M35.3082 89.9209
L35.4292 89.8604
" />
<path d="M35.4292 89.8604
L35.7316 89.8604
" />
<path d="M35.7316 89.8604
L35.8525 89.9209
" />
<path d="M35.8525 89.9209
L35.9130 89.9814
" />
<path d="M35.9130 89.9814
L35.9735 90.1023
" />
<path d="M35.9735 90.1023
L35.9735 90.2233
" />
<path d="M35.9735 90.2233
L35.9130 90.4047
" />
<path d="M35.9130 90.4047
L35.1873 91.1304
" />
<path d="M35.1873 91.1304
L35.9735 91.1304
" />
<path d="M36.5177 91.0095
L36.5782 91.0700
" />
<path d="M36.5782 91.0700
L36.5177 91.1304
" />
<path d="M36.5177 91.1304
L36.4573 91.0700
" />
<path d="M36.4573 91.0700
L36.5177 91.0095
" />
<path d="M36.5177 91.0095
L36.5177 91.1304
" />
<path d="M37.0016 89.8604
L37.8482 89.8604
" />
<path d="M37.8482 89.8604
L37.3040 91.1304
" />
<path d="M38.1506 89.8604
L38.5739 91.1304
" />
<path d="M38.5739 91.1304
L38.9973 89.8604
" />
</g><path style="fill:none; 
stroke:#840000; stroke-width:0.1524; stroke-opacity:1; 
stroke-linecap:round; stroke-linejoin:round;fill:none"
d="M 25.4000,99.0600
24.1300,99.0600
23.4950,100.0760
22.8600,99.0600
23.4950,98.0440
24.1300,99.0600
" /> 
</g>
<g style="fill:none; 
stroke:#840000; stroke-width:0.1524; stroke-opacity:1; 
stroke-linecap:round; stroke-linejoin:round;">
<path d="M25.4000 99.0600
L25.4000 99.0600
" />
</g>
<g style="fill:none; 
stroke:#006464; stroke-width:0.1524; stroke-opacity:1; 
stroke-linecap:round; stroke-linejoin:round;">
<text x="16.7616" y="99.6948"
textLength="9.6375" font-size="1.6933" lengthAdjust="spacingAndGlyphs"
text-anchor="middle" opacity="0" stroke-opacity="0">PWR_FLAG</text>
<g class="stroked-text"><desc>PWR_FLAG</desc>
<path d="M12.3468 99.6393
L12.3468 98.3693
" />
<path d="M12.3468 98.3693
L12.8306 98.3693
" />
<path d="M12.8306 98.3693
L12.9516 98.4298
" />
<path d="M12.9516 98.4298
L13.0121 98.4903
" />
<path d="M13.0121 98.4903
L13.0725 98.6112
" />
<path d="M13.0725 98.6112
L13.0725 98.7927
" />
<path d="M13.0725 98.7927
L13.0121 98.9136
" />
<path d="M13.0121 98.9136
L12.9516 98.9741
" />
<path d="M12.9516 98.9741
L12.8306 99.0346
" />
<path d="M12.8306 99.0346
L12.3468 99.0346
" />
<path d="M13.4959 98.3693
L13.7983 99.6393
" />
<path d="M13.7983 99.6393
L14.0402 98.7322
" />
<path d="M14.0402 98.7322
L14.2821 99.6393
" />
<path d="M14.2821 99.6393
L14.5845 98.3693
" />
<path d="M15.7939 99.6393
L15.3706 99.0346
" />
<path d="M15.0682 99.6393
L15.0682 98.3693
" />
<path d="M15.0682 98.3693
L15.5520 98.3693
" />
<path d="M15.5520 98.3693
L15.6730 98.4298
" />
<path d="M15.6730 98.4298
L15.7335 98.4903
" />
<path d="M15.7335 98.4903
L15.7939 98.6112
" />
<path d="M15.7939 98.6112
L15.7939 98.7927
" />
<path d="M15.7939 98.7927
L15.7335 98.9136
" />
<path d="M15.7335 98.9136
L15.6730 98.9741
" />
<path d="M15.6730 98.9741
L15.5520 99.0346
" />
<path d="M15.5520 99.0346
L15.0682 99.0346
" />
<path d="M16.0359 99.7603
L17.0035 99.7603
" />
<path d="M17.7292 98.9741
L17.3058 98.9741
" />
<path d="M17.3058 99.6393
L17.3058 98.3693
" />
<path d="M17.3058 98.3693
L17.9106 98.3693
" />
<path d="M18.9992 99.6393
L18.3944 99.6393
" />
<path d="M18.3944 99.6393
L18.3944 98.3693
" />
<path d="M19.3621 99.2765
L19.9668 99.2765
" />
<path d="M19.2411 99.6393
L19.6644 98.3693
" />
<path d="M19.6644 98.3693
L20.0878 99.6393
" />
<path d="M21.1764 98.4298
L21.0554 98.3693
" />
<path d="M21.0554 98.3693
L20.8740 98.3693
" />
<path d="M20.8740 98.3693
L20.6926 98.4298
" />
<path d="M20.6926 98.4298
L20.5716 98.5508
" />
<path d="M20.5716 98.5508
L20.5111 98.6717
" />
<path d="M20.5111 98.6717
L20.4507 98.9136
" />
<path d="M20.4507 98.9136
L20.4507 99.0950
" />
<path d="M20.4507 99.0950
L20.5111 99.3369
" />
<path d="M20.5111 99.3369
L20.5716 99.4579
" />
<path d="M20.5716 99.4579
L20.6926 99.5789
" />
<path d="M20.6926 99.5789
L20.8740 99.6393
" />
<path d="M20.8740 99.6393
L20.9949 99.6393
" />
<path d="M20.9949 99.6393
L21.1764 99.5789
" />
<path d="M21.1764 99.5789
L21.2368 99.5184
" />
<path d="M21.2368 99.5184
L21.2368 99.0950
" />
<path d="M21.2368 99.0950
L20.9949 99.0950
" />
</g><path style="fill:none; 
stroke:#840000; stroke-width:0.1524; stroke-opacity:1; 
stroke-linecap:round; stroke-linejoin:round;fill:none"
d="M 25.4000,80.0100
24.1300,80.0100
23.4950,81.0260
22.8600,80.0100
23.4950,78.9940
24.1300,80.0100
" /> 
</g>
<g style="fill:none; 
stroke:#840000; stroke-width:0.1524; stroke-opacity:1; 
stroke-linecap:round; stroke-linejoin:round;">
<path d="M25.4000 80.0100
L25.4000 80.0100
" />
</g>
<g style="fill:none; 
stroke:#006464; stroke-width:0.1524; stroke-opacity:1; 
stroke-linecap:round; stroke-linejoin:round;">
<text x="16.7616" y="80.6448"
textLength="9.6375" font-size="1.6933" lengthAdjust="spacingAndGlyphs"
text-anchor="middle" opacity="0" stroke-opacity="0">PWR_FLAG</text>
<g class="stroked-text"><desc>PWR_FLAG</desc>
<path d="M12.3468 80.5893
L12.3468 79.3193
" />
<path d="M12.3468 79.3193
L12.8306 79.3193
" />
<path d="M12.8306 79.3193
L12.9516 79.3798
" />
<path d="M12.9516 79.3798
L13.0121 79.4403
" />
<path d="M13.0121 79.4403
L13.0725 79.5612
" />
<path d="M13.0725 79.5612
L13.0725 79.7427
" />
<path d="M13.0725 79.7427
L13.0121 79.8636
" />
<path d="M13.0121 79.8636
L12.9516 79.9241
" />
<path d="M12.9516 79.9241
L12.8306 79.9846
" />
<path d="M12.8306 79.9846
L12.3468 79.9846
" />
<path d="M13.4959 79.3193
L13.7983 80.5893
" />
<path d="M13.7983 80.5893
L14.0402 79.6822
" />
<path d="M14.0402 79.6822
L14.2821 80.5893
" />
<path d="M14.2821 80.5893
L14.5845 79.3193
" />
<path d="M15.7939 80.5893
L15.3706 79.9846
" />
<path d="M15.0682 80.5893
L15.0682 79.3193
" />
<path d="M15.0682 79.3193
L15.5520 79.3193
" />
<path d="M15.5520 79.3193
L15.6730 79.3798
" />
<path d="M15.6730 79.3798
L15.7335 79.4403
" />
<path d="M15.7335 79.4403
L15.7939 79.5612
" />
<path d="M15.7939 79.5612
L15.7939 79.7427
" />
<path d="M15.7939 79.7427
L15.7335 79.8636
" />
<path d="M15.7335 79.8636
L15.6730 79.9241
" />
<path d="M15.6730 79.9241
L15.5520 79.9846
" />
<path d="M15.5520 79.9846
L15.0682 79.9846
" />
<path d="M16.0359 80.7103
L17.0035 80.7103
" />
<path d="M17.7292 79.9241
L17.3058 79.9241
" />
<path d="M17.3058 80.5893
L17.3058 79.3193
" />
<path d="M17.3058 79.3193
L17.9106 79.3193
" />
<path d="M18.9992 80.5893
L18.3944 80.5893
" />
<path d="M18.3944 80.5893
L18.3944 79.3193
" />
<path d="M19.3621 80.2265
L19.9668 80.2265
" />
<path d="M19.2411 80.5893
L19.6644 79.3193
" />
<path d="M19.6644 79.3193
L20.0878 80.5893
" />
<path d="M21.1764 79.3798
L21.0554 79.3193
" />
<path d="M21.0554 79.3193
L20.8740 79.3193
" />
<path d="M20.8740 79.3193
L20.6926 79.3798
" />
<path d="M20.6926 79.3798
L20.5716 79.5008
" />
<path d="M20.5716 79.5008
L20.5111 79.6217
" />
<path d="M20.5111 79.6217
L20.4507 79.8636
" />
<path d="M20.4507 79.8636
L20.4507 80.0450
" />
<path d="M20.4507 80.0450
L20.5111 80.2869
" />
<path d="M20.5111 80.2869
L20.5716 80.4079
" />
<path d="M20.5716 80.4079
L20.6926 80.5289
" />
<path d="M20.6926 80.5289
L20.8740 80.5893
" />
<path d="M20.8740 80.5893
L20.9949 80.5893
" />
<path d="M20.9949 80.5893
L21.1764 80.5289
" />
<path d="M21.1764 80.5289
L21.2368 80.4684
" />
<path d="M21.2368 80.4684
L21.2368 80.0450
" />
<path d="M21.2368 80.0450
L20.9949 80.0450
" />
</g><path style="fill:none; 
stroke:#840000; stroke-width:0.1524; stroke-opacity:1; 
stroke-linecap:round; stroke-linejoin:round;fill:none"
d="M 25.4000,110.4900
25.4000,111.7600
26.6700,111.7600
25.4000,113.0300
24.1300,111.7600
25.4000,111.7600
" /> 
</g>
<g style="fill:none; 
stroke:#840000; stroke-width:0.1524; stroke-opacity:1; 
stroke-linecap:round; stroke-linejoin:round;">
<path d="M25.4000 110.4900
L25.4000 110.4900
" />
</g>
<g style="fill:none; 
stroke:#006464; stroke-width:0.1524; stroke-opacity:1; 
stroke-linecap:round; stroke-linejoin:round;">
<text x="25.4000" y="116.2050"
textLength="4.0737" font-size="1.6933" lengthAdjust="spacingAndGlyphs"
text-anchor="middle" opacity="0" stroke-opacity="0">GND</text>
<g class="stroked-text"><desc>GND</desc>
<path d="M24.4324 114.9400
L24.3114 114.8795
" />
<path d="M24.3114 114.8795
L24.1300 114.8795
" />
<path d="M24.1300 114.8795
L23.9486 114.9400
" />
<path d="M23.9486 114.9400
L23.8276 115.0610
" />
<path d="M23.8276 115.0610
L23.7671 115.1819
" />
<path d="M23.7671 115.1819
L23.7067 115.4238
" />
<path d="M23.7067 115.4238
L23.7067 115.6052
" />
<path d="M23.7067 115.6052
L23.7671 115.8471
" />
<path d="M23.7671 115.8471
L23.8276 115.9681
" />
<path d="M23.8276 115.9681
L23.9486 116.0891
" />
<path d="M23.9486 116.0891
L24.1300 116.1495
" />
<path d="M24.1300 116.1495
L24.2509 116.1495
" />
<path d="M24.2509 116.1495
L24.4324 116.0891
" />
<path d="M24.4324 116.0891
L24.4928 116.0286
" />
<path d="M24.4928 116.0286
L24.4928 115.6052
" />
<path d="M24.4928 115.6052
L24.2509 115.6052
" />
<path d="M25.0371 116.1495
L25.0371 114.8795
" />
<path d="M25.0371 114.8795
L25.7628 116.1495
" />
<path d="M25.7628 116.1495
L25.7628 114.8795
" />
<path d="M26.3676 116.1495
L26.3676 114.8795
" />
<path d="M26.3676 114.8795
L26.6700 114.8795
" />
<path d="M26.6700 114.8795
L26.8514 114.9400
" />
<path d="M26.8514 114.9400
L26.9724 115.0610
" />
<path d="M26.9724 115.0610
L27.0329 115.1819
" />
<path d="M27.0329 115.1819
L27.0933 115.4238
" />
<path d="M27.0933 115.4238
L27.0933 115.6052
" />
<path d="M27.0933 115.6052
L27.0329 115.8471
" />
<path d="M27.0329 115.8471
L26.9724 115.9681
" />
<path d="M26.9724 115.9681
L26.8514 116.0891
" />
<path d="M26.8514 116.0891
L26.6700 116.1495
" />
<path d="M26.6700 116.1495
L26.3676 116.1495
" />
</g><path style="fill:none; 
stroke:#840000; stroke-width:0.1524; stroke-opacity:1; 
stroke-linecap:round; stroke-linejoin:round;fill:none"
d="M 73.6600,16.5100
74.9300,16.5100
74.9300,15.2400
76.2000,16.5100
74.9300,17.7800
74.9300,16.5100
" /> 
</g>
<g style="fill:none; 
stroke:#840000; stroke-width:0.1524; stroke-opacity:1; 
stroke-linecap:round; stroke-linejoin:round;">
<path d="M73.6600 16.5100
L73.6600 16.5100
" />
</g>
<g style="fill:none; 
stroke:#006464; stroke-width:0.1524; stroke-opacity:1; 
stroke-linecap:round; stroke-linejoin:round;">
<text x="79.5164" y="17.1448"
textLength="4.0737" font-size="1.6933" lengthAdjust="spacingAndGlyphs"
text-anchor="middle" opacity="0" stroke-opacity="0">GND</text>
<g class="stroked-text"><desc>GND</desc>
<path d="M78.5488 15.8798
L78.4278 15.8193
" />
<path d="M78.4278 15.8193
L78.2464 15.8193
" />
<path d="M78.2464 15.8193
L78.0650 15.8798
" />
<path d="M78.0650 15.8798
L77.9440 16.0008
" />
<path d="M77.9440 16.0008
L77.8835 16.1217
" />
<path d="M77.8835 16.1217
L77.8231 16.3636
" />
<path d="M77.8231 16.3636
L77.8231 16.5450
" />
<path d="M77.8231 16.5450
L77.8835 16.7869
" />
<path d="M77.8835 16.7869
L77.9440 16.9079
" />
<path d="M77.9440 16.9079
L78.0650 17.0289
" />
<path d="M78.0650 17.0289
L78.2464 17.0893
" />
<path d="M78.2464 17.0893
L78.3673 17.0893
" />
<path d="M78.3673 17.0893
L78.5488 17.0289
" />
<path d="M78.5488 17.0289
L78.6092 16.9684
" />
<path d="M78.6092 16.9684
L78.6092 16.5450
" />
<path d="M78.6092 16.5450
L78.3673 16.5450
" />
<path d="M79.1535 17.0893
L79.1535 15.8193
" />
<path d="M79.1535 15.8193
L79.8792 17.0893
" />
<path d="M79.8792 17.0893
L79.8792 15.8193
" />
<path d="M80.4840 17.0893
L80.4840 15.8193
" />
<path d="M80.4840 15.8193
L80.7864 15.8193
" />
<path d="M80.7864 15.8193
L80.9678 15.8798
" />
<path d="M80.9678 15.8798
L81.0888 16.0008
" />
<path d="M81.0888 16.0008
L81.1493 16.1217
" />
<path d="M81.1493 16.1217
L81.2097 16.3636
" />
<path d="M81.2097 16.3636
L81.2097 16.5450
" />
<path d="M81.2097 16.5450
L81.1493 16.7869
" />
<path d="M81.1493 16.7869
L81.0888 16.9079
" />
<path d="M81.0888 16.9079
L80.9678 17.0289
" />
<path d="M80.9678 17.0289
L80.7864 17.0893
" />
<path d="M80.7864 17.0893
L80.4840 17.0893
" />
</g><path style="fill:none; 
stroke:#840000; stroke-width:0.1524; stroke-opacity:1; 
stroke-linecap:round; stroke-linejoin:round;fill:none"
d="M 74.9300,13.2080
76.2000,13.9700
" /> 
<path style="fill:none; 
stroke:#840000; stroke-width:0.1524; stroke-opacity:1; 
stroke-linecap:round; stroke-linejoin:round;fill:none"
d="M 76.2000,13.9700
74.9300,14.7320
" /> 
<path style="fill:none; 
stroke:#840000; stroke-width:0.1524; stroke-opacity:1; 
stroke-linecap:round; stroke-linejoin:round;fill:none"
d="M 73.6600,13.9700
76.2000,13.9700
" /> 
</g>
<g style="fill:none; 
stroke:#840000; stroke-width:0.1524; stroke-opacity:1; 
stroke-linecap:round; stroke-linejoin:round;">
<path d="M73.6600 13.9700
L73.6600 13.9700
" />
</g>
<g style="fill:none; 
stroke:#006464; stroke-width:0.1524; stroke-opacity:1; 
stroke-linecap:round; stroke-linejoin:round;">
<text x="80.4236" y="14.6049"
textLength="5.8880" font-size="1.6933" lengthAdjust="spacingAndGlyphs"
text-anchor="middle" opacity="0" stroke-opacity="0">+3.3V</text>
<g class="stroked-text"><desc>+3.3V</desc>
<path d="M77.8835 14.0656
L78.8512 14.0656
" />
<path d="M78.3673 14.5494
L78.3673 13.5818
" />
<path d="M79.3350 13.2794
L80.1212 13.2794
" />
<path d="M80.1212 13.2794
L79.6978 13.7632
" />
<path d="M79.6978 13.7632
L79.8793 13.7632
" />
<path d="M79.8793 13.7632
L80.0002 13.8237
" />
<path d="M80.0002 13.8237
L80.0607 13.8842
" />
<path d="M80.0607 13.8842
L80.1212 14.0051
" />
<path d="M80.1212 14.0051
L80.1212 14.3075
" />
<path d="M80.1212 14.3075
L80.0607 14.4285
" />
<path d="M80.0607 14.4285
L80.0002 14.4890
" />
<path d="M80.0002 14.4890
L79.8793 14.5494
" />
<path d="M79.8793 14.5494
L79.5164 14.5494
" />
<path d="M79.5164 14.5494
L79.3955 14.4890
" />
<path d="M79.3955 14.4890
L79.3350 14.4285
" />
<path d="M80.6654 14.4285
L80.7259 14.4890
" />
<path d="M80.7259 14.4890
L80.6654 14.5494
" />
<path d="M80.6654 14.5494
L80.6050 14.4890
" />
<path d="M80.6050 14.4890
L80.6654 14.4285
" />
<path d="M80.6654 14.4285
L80.6654 14.5494
" />
<path d="M81.1493 13.2794
L81.9355 13.2794
" />
<path d="M81.9355 13.2794
L81.5121 13.7632
" />
<path d="M81.5121 13.7632
L81.6936 13.7632
" />
<path d="M81.6936 13.7632
L81.8145 13.8237
" />
<path d="M81.8145 13.8237
L81.8750 13.8842
" />
<path d="M81.8750 13.8842
L81.9355 14.0051
" />
<path d="M81.9355 14.0051
L81.9355 14.3075
" />
<path d="M81.9355 14.3075
L81.8750 14.4285
" />
<path d="M81.8750 14.4285
L81.8145 14.4890
" />
<path d="M81.8145 14.4890
L81.6936 14.5494
" />
<path d="M81.6936 14.5494
L81.3307 14.5494
" />
<path d="M81.3307 14.5494
L81.2098 14.4890
" />
<path d="M81.2098 14.4890
L81.1493 14.4285
" />
<path d="M82.2983 13.2794
L82.7216 14.5494
" />
<path d="M82.7216 14.5494
L83.1450 13.2794
" />
</g></g>
<g style="fill:#840000; fill-opacity:1.0000; 
stroke:#840000; stroke-width:0.1524; stroke-opacity:1; 
stroke-linecap:round; stroke-linejoin:round;">
<rect x="63.500000" y="13.843000" width="0.863600" height="0.254000" rx="0.000000" />
<rect x="63.500000" y="16.383000" width="0.863600" height="0.254000" rx="0.000000" />
<rect x="63.500000" y="18.923000" width="0.863600" height="0.254000" rx="0.000000" />
<rect x="63.500000" y="21.463000" width="0.863600" height="0.254000" rx="0.000000" />
<rect x="63.500000" y="24.003000" width="0.863600" height="0.254000" rx="0.000000" />
<rect x="63.500000" y="26.543000" width="0.863600" height="0.254000" rx="0.000000" />
<path style="fill:none; 
stroke:#840000; stroke-width:0.1524; stroke-opacity:1; 
stroke-linecap:round; stroke-linejoin:round;fill:none"
d="M 64.7700,13.9700
64.3636,13.9700
" /> 
<path style="fill:none; 
stroke:#840000; stroke-width:0.1524; stroke-opacity:1; 
stroke-linecap:round; stroke-linejoin:round;fill:none"
d="M 64.7700,16.5100
64.3636,16.5100
" /> 
<path style="fill:none; 
stroke:#840000; stroke-width:0.1524; stroke-opacity:1; 
stroke-linecap:round; stroke-linejoin:round;fill:none"
d="M 64.7700,19.0500
64.3636,19.0500
" /> 
<path style="fill:none; 
stroke:#840000; stroke-width:0.1524; stroke-opacity:1; 
stroke-linecap:round; stroke-linejoin:round;fill:none"
d="M 64.7700,21.5900
64.3636,21.5900
" /> 
<path style="fill:none; 
stroke:#840000; stroke-width:0.1524; stroke-opacity:1; 
stroke-linecap:round; stroke-linejoin:round;fill:none"
d="M 64.7700,24.1300
64.3636,24.1300
" /> 
<path style="fill:none; 
stroke:#840000; stroke-width:0.1524; stroke-opacity:1; 
stroke-linecap:round; stroke-linejoin:round;fill:none"
d="M 64.7700,26.6700
64.3636,26.6700
" /> 
</g>
<g style="fill:none; 
stroke:#840000; stroke-width:0.1524; stroke-opacity:1; 
stroke-linecap:round; stroke-linejoin:round;">
<path d="M64.7700 13.9700
L68.5800 13.9700
" />
</g>
<g style="fill:none; 
stroke:#A90000; stroke-width:0.1524; stroke-opacity:1; 
stroke-linecap:round; stroke-linejoin:round;">
<text x="66.6750" y="13.7160"
textLength="1.4127" font-size="1.6933" lengthAdjust="spacingAndGlyphs"
text-anchor="middle" opacity="0" stroke-opacity="0">1</text>
<g class="stroked-text"><desc>1</desc>
<path d="M67.0379 13.5525
L66.3122 13.5525
" />
<path d="M66.6750 13.5525
L66.6750 12.2825
" />
<path d="M66.6750 12.2825
L66.5541 12.4640
" />
<path d="M66.5541 12.4640
L66.4331 12.5849
" />
<path d="M66.4331 12.5849
L66.3122 12.6454
" />
</g></g>
<g style="fill:none; 
stroke:#840000; stroke-width:0.1524; stroke-opacity:1; 
stroke-linecap:round; stroke-linejoin:round;">
<path d="M64.7700 16.5100
L68.5800 16.5100
" />
</g>
<g style="fill:none; 
stroke:#A90000; stroke-width:0.1524; stroke-opacity:1; 
stroke-linecap:round; stroke-linejoin:round;">
<text x="66.6750" y="16.2560"
textLength="1.4127" font-size="1.6933" lengthAdjust="spacingAndGlyphs"
text-anchor="middle" opacity="0" stroke-opacity="0">2</text>
<g class="stroked-text"><desc>2</desc>
<path d="M66.3122 14.9435
L66.3726 14.8830
" />
<path d="M66.3726 14.8830
L66.4936 14.8225
" />
<path d="M66.4936 14.8225
L66.7960 14.8225
" />
<path d="M66.7960 14.8225
L66.9169 14.8830
" />
<path d="M66.9169 14.8830
L66.9774 14.9435
" />
<path d="M66.9774 14.9435
L67.0379 15.0644
" />
<path d="M67.0379 15.0644
L67.0379 15.1854
" />
<path d="M67.0379 15.1854
L66.9774 15.3668
" />
<path d="M66.9774 15.3668
L66.2517 16.0925
" />
<path d="M66.2517 16.0925
L67.0379 16.0925
" />
</g></g>
<g style="fill:none; 
stroke:#840000; stroke-width:0.1524; stroke-opacity:1; 
stroke-linecap:round; stroke-linejoin:round;">
<path d="M64.7700 19.0500
L68.5800 19.0500
" />
</g>
<g style="fill:none; 
stroke:#A90000; stroke-width:0.1524; stroke-opacity:1; 
stroke-linecap:round; stroke-linejoin:round;">
<text x="66.6750" y="18.7960"
textLength="1.4127" font-size="1.6933" lengthAdjust="spacingAndGlyphs"
text-anchor="middle" opacity="0" stroke-opacity="0">3</text>
<g class="stroked-text"><desc>3</desc>
<path d="M66.2517 17.3625
L67.0379 17.3625
" />
<path d="M67.0379 17.3625
L66.6145 17.8463
" />
<path d="M66.6145 17.8463
L66.7960 17.8463
" />
<path d="M66.7960 17.8463
L66.9169 17.9068
" />
<path d="M66.9169 17.9068
L66.9774 17.9673
" />
<path d="M66.9774 17.9673
L67.0379 18.0882
" />
<path d="M67.0379 18.0882
L67.0379 18.3906
" />
<path d="M67.0379 18.3906
L66.9774 18.5116
" />
<path d="M66.9774 18.5116
L66.9169 18.5721
" />
<path d="M66.9169 18.5721
L66.7960 18.6325
" />
<path d="M66.7960 18.6325
L66.4331 18.6325
" />
<path d="M66.4331 18.6325
L66.3122 18.5721
" />
<path d="M66.3122 18.5721
L66.2517 18.5116
" />
</g></g>
<g style="fill:none; 
stroke:#840000; stroke-width:0.1524; stroke-opacity:1; 
stroke-linecap:round; stroke-linejoin:round;">
<path d="M64.7700 21.5900
L68.5800 21.5900
" />
</g>
<g style="fill:none; 
stroke:#A90000; stroke-width:0.1524; stroke-opacity:1; 
stroke-linecap:round; stroke-linejoin:round;">
<text x="66.6750" y="21.3360"
textLength="1.4127" font-size="1.6933" lengthAdjust="spacingAndGlyphs"
text-anchor="middle" opacity="0" stroke-opacity="0">4</text>
<g class="stroked-text"><desc>4</desc>
<path d="M66.9169 20.3259
L66.9169 21.1725
" />
<path d="M66.6145 19.8421
L66.3122 20.7492
" />
<path d="M66.3122 20.7492
L67.0983 20.7492
" />
</g></g>
<g style="fill:none; 
stroke:#840000; stroke-width:0.1524; stroke-opacity:1; 
stroke-linecap:round; stroke-linejoin:round;">
<path d="M64.7700 24.1300
L68.5800 24.1300
" />
</g>
<g style="fill:none; 
stroke:#A90000; stroke-width:0.1524; stroke-opacity:1; 
stroke-linecap:round; stroke-linejoin:round;">
<text x="66.6750" y="23.8760"
textLength="1.4127" font-size="1.6933" lengthAdjust="spacingAndGlyphs"
text-anchor="middle" opacity="0" stroke-opacity="0">5</text>
<g class="stroked-text"><desc>5</desc>
<path d="M66.9774 22.4425
L66.3726 22.4425
" />
<path d="M66.3726 22.4425
L66.3122 23.0473
" />
<path d="M66.3122 23.0473
L66.3726 22.9868
" />
<path d="M66.3726 22.9868
L66.4936 22.9263
" />
<path d="M66.4936 22.9263
L66.7960 22.9263
" />
<path d="M66.7960 22.9263
L66.9169 22.9868
" />
<path d="M66.9169 22.9868
L66.9774 23.0473
" />
<path d="M66.9774 23.0473
L67.0379 23.1682
" />
<path d="M67.0379 23.1682
L67.0379 23.4706
" />
<path d="M67.0379 23.4706
L66.9774 23.5916
" />
<path d="M66.9774 23.5916
L66.9169 23.6521
" />
<path d="M66.9169 23.6521
L66.7960 23.7125
" />
<path d="M66.7960 23.7125
L66.4936 23.7125
" />
<path d="M66.4936 23.7125
L66.3726 23.6521
" />
<path d="M66.3726 23.6521
L66.3122 23.5916
" />
</g></g>
<g style="fill:none; 
stroke:#840000; stroke-width:0.1524; stroke-opacity:1; 
stroke-linecap:round; stroke-linejoin:round;">
<path d="M64.7700 26.6700
L68.5800 26.6700
" />
</g>
<g style="fill:none; 
stroke:#A90000; stroke-width:0.1524; stroke-opacity:1; 
stroke-linecap:round; stroke-linejoin:round;">
<text x="66.6750" y="26.4160"
textLength="1.4127" font-size="1.6933" lengthAdjust="spacingAndGlyphs"
text-anchor="middle" opacity="0" stroke-opacity="0">6</text>
<g class="stroked-text"><desc>6</desc>
<path d="M66.9169 24.9825
L66.6750 24.9825
" />
<path d="M66.6750 24.9825
L66.5541 25.0430
" />
<path d="M66.5541 25.0430
L66.4936 25.1035
" />
<path d="M66.4936 25.1035
L66.3726 25.2849
" />
<path d="M66.3726 25.2849
L66.3122 25.5268
" />
<path d="M66.3122 25.5268
L66.3122 26.0106
" />
<path d="M66.3122 26.0106
L66.3726 26.1316
" />
<path d="M66.3726 26.1316
L66.4331 26.1921
" />
<path d="M66.4331 26.1921
L66.5541 26.2525
" />
<path d="M66.5541 26.2525
L66.7960 26.2525
" />
<path d="M66.7960 26.2525
L66.9169 26.1921
" />
<path d="M66.9169 26.1921
L66.9774 26.1316
" />
<path d="M66.9774 26.1316
L67.0379 26.0106
" />
<path d="M67.0379 26.0106
L67.0379 25.7082
" />
<path d="M67.0379 25.7082
L66.9774 25.5873
" />
<path d="M66.9774 25.5873
L66.9169 25.5268
" />
<path d="M66.9169 25.5268
L66.7960 25.4663
" />
<path d="M66.7960 25.4663
L66.5541 25.4663
" />
<path d="M66.5541 25.4663
L66.4331 25.5268
" />
<path d="M66.4331 25.5268
L66.3726 25.5873
" />
<path d="M66.3726 25.5873
L66.3122 25.7082
" />
</g></g>
<g style="fill:none; 
stroke:#006464; stroke-width:0.1524; stroke-opacity:1; 
stroke-linecap:round; stroke-linejoin:round;">
<text x="64.1350" y="9.5250"
textLength="2.3803" font-size="1.6933" lengthAdjust="spacingAndGlyphs"
text-anchor="middle" opacity="0" stroke-opacity="0">J1</text>
<g class="stroked-text"><desc>J1</desc>
<path d="M63.7117 8.1995
L63.7117 9.1067
" />
<path d="M63.7117 9.1067
L63.6512 9.2881
" />
<path d="M63.6512 9.2881
L63.5303 9.4091
" />
<path d="M63.5303 9.4091
L63.3488 9.4695
" />
<path d="M63.3488 9.4695
L63.2279 9.4695
" />
<path d="M64.9817 9.4695
L64.2560 9.4695
" />
<path d="M64.6188 9.4695
L64.6188 8.1995
" />
<path d="M64.6188 8.1995
L64.4979 8.3810
" />
<path d="M64.4979 8.3810
L64.3769 8.5019
" />
<path d="M64.3769 8.5019
L64.2560 8.5624
" />
</g><text x="64.1350" y="12.0650"
textLength="11.8751" font-size="1.6933" lengthAdjust="spacingAndGlyphs"
text-anchor="middle" opacity="0" stroke-opacity="0">POWER-OUT</text>
<g class="stroked-text"><desc>POWER-OUT</desc>
<path d="M58.6014 12.0095
L58.6014 10.7395
" />
<path d="M58.6014 10.7395
L59.0852 10.7395
" />
<path d="M59.0852 10.7395
L59.2062 10.8000
" />
<path d="M59.2062 10.8000
L59.2667 10.8605
" />
<path d="M59.2667 10.8605
L59.3271 10.9814
" />
<path d="M59.3271 10.9814
L59.3271 11.1629
" />
<path d="M59.3271 11.1629
L59.2667 11.2838
" />
<path d="M59.2667 11.2838
L59.2062 11.3443
" />
<path d="M59.2062 11.3443
L59.0852 11.4048
" />
<path d="M59.0852 11.4048
L58.6014 11.4048
" />
<path d="M60.1133 10.7395
L60.3552 10.7395
" />
<path d="M60.3552 10.7395
L60.4762 10.8000
" />
<path d="M60.4762 10.8000
L60.5971 10.9210
" />
<path d="M60.5971 10.9210
L60.6576 11.1629
" />
<path d="M60.6576 11.1629
L60.6576 11.5862
" />
<path d="M60.6576 11.5862
L60.5971 11.8281
" />
<path d="M60.5971 11.8281
L60.4762 11.9491
" />
<path d="M60.4762 11.9491
L60.3552 12.0095
" />
<path d="M60.3552 12.0095
L60.1133 12.0095
" />
<path d="M60.1133 12.0095
L59.9924 11.9491
" />
<path d="M59.9924 11.9491
L59.8714 11.8281
" />
<path d="M59.8714 11.8281
L59.8110 11.5862
" />
<path d="M59.8110 11.5862
L59.8110 11.1629
" />
<path d="M59.8110 11.1629
L59.8714 10.9210
" />
<path d="M59.8714 10.9210
L59.9924 10.8000
" />
<path d="M59.9924 10.8000
L60.1133 10.7395
" />
<path d="M61.0810 10.7395
L61.3834 12.0095
" />
<path d="M61.3834 12.0095
L61.6253 11.1024
" />
<path d="M61.6253 11.1024
L61.8672 12.0095
" />
<path d="M61.8672 12.0095
L62.1696 10.7395
" />
<path d="M62.6533 11.3443
L63.0767 11.3443
" />
<path d="M63.2581 12.0095
L62.6533 12.0095
" />
<path d="M62.6533 12.0095
L62.6533 10.7395
" />
<path d="M62.6533 10.7395
L63.2581 10.7395
" />
<path d="M64.5280 12.0095
L64.1047 11.4048
" />
<path d="M63.8023 12.0095
L63.8023 10.7395
" />
<path d="M63.8023 10.7395
L64.2861 10.7395
" />
<path d="M64.2861 10.7395
L64.4071 10.8000
" />
<path d="M64.4071 10.8000
L64.4676 10.8605
" />
<path d="M64.4676 10.8605
L64.5280 10.9814
" />
<path d="M64.5280 10.9814
L64.5280 11.1629
" />
<path d="M64.5280 11.1629
L64.4676 11.2838
" />
<path d="M64.4676 11.2838
L64.4071 11.3443
" />
<path d="M64.4071 11.3443
L64.2861 11.4048
" />
<path d="M64.2861 11.4048
L63.8023 11.4048
" />
<path d="M65.0723 11.5257
L66.0400 11.5257
" />
<path d="M66.8866 10.7395
L67.1285 10.7395
" />
<path d="M67.1285 10.7395
L67.2495 10.8000
" />
<path d="M67.2495 10.8000
L67.3704 10.9210
" />
<path d="M67.3704 10.9210
L67.4309 11.1629
" />
<path d="M67.4309 11.1629
L67.4309 11.5862
" />
<path d="M67.4309 11.5862
L67.3704 11.8281
" />
<path d="M67.3704 11.8281
L67.2495 11.9491
" />
<path d="M67.2495 11.9491
L67.1285 12.0095
" />
<path d="M67.1285 12.0095
L66.8866 12.0095
" />
<path d="M66.8866 12.0095
L66.7657 11.9491
" />
<path d="M66.7657 11.9491
L66.6447 11.8281
" />
<path d="M66.6447 11.8281
L66.5843 11.5862
" />
<path d="M66.5843 11.5862
L66.5843 11.1629
" />
<path d="M66.5843 11.1629
L66.6447 10.9210
" />
<path d="M66.6447 10.9210
L66.7657 10.8000
" />
<path d="M66.7657 10.8000
L66.8866 10.7395
" />
<path d="M67.9752 10.7395
L67.9752 11.7676
" />
<path d="M67.9752 11.7676
L68.0357 11.8886
" />
<path d="M68.0357 11.8886
L68.0962 11.9491
" />
<path d="M68.0962 11.9491
L68.2171 12.0095
" />
<path d="M68.2171 12.0095
L68.4590 12.0095
" />
<path d="M68.4590 12.0095
L68.5800 11.9491
" />
<path d="M68.5800 11.9491
L68.6405 11.8886
" />
<path d="M68.6405 11.8886
L68.7009 11.7676
" />
<path d="M68.7009 11.7676
L68.7009 10.7395
" />
<path d="M69.1243 10.7395
L69.8500 10.7395
" />
<path d="M69.4872 12.0095
L69.4872 10.7395
" />
</g></g>
<g style="fill:none; 
stroke:#840000; stroke-width:0.1524; stroke-opacity:1; 
stroke-linecap:round; stroke-linejoin:round;">
<text x="75.0888" y="24.8558"
textLength="3.7713" font-size="1.6933" lengthAdjust="spacingAndGlyphs"
text-anchor="start" opacity="0" stroke-opacity="0">SDA</text>
<g class="stroked-text"><desc>SDA</desc>
<path d="M75.4309 24.7399
L75.6123 24.8003
" />
<path d="M75.6123 24.8003
L75.9147 24.8003
" />
<path d="M75.9147 24.8003
L76.0356 24.7399
" />
<path d="M76.0356 24.7399
L76.0961 24.6794
" />
<path d="M76.0961 24.6794
L76.1566 24.5584
" />
<path d="M76.1566 24.5584
L76.1566 24.4375
" />
<path d="M76.1566 24.4375
L76.0961 24.3165
" />
<path d="M76.0961 24.3165
L76.0356 24.2560
" />
<path d="M76.0356 24.2560
L75.9147 24.1956
" />
<path d="M75.9147 24.1956
L75.6728 24.1351
" />
<path d="M75.6728 24.1351
L75.5518 24.0746
" />
<path d="M75.5518 24.0746
L75.4913 24.0141
" />
<path d="M75.4913 24.0141
L75.4309 23.8932
" />
<path d="M75.4309 23.8932
L75.4309 23.7722
" />
<path d="M75.4309 23.7722
L75.4913 23.6513
" />
<path d="M75.4913 23.6513
L75.5518 23.5908
" />
<path d="M75.5518 23.5908
L75.6728 23.5303
" />
<path d="M75.6728 23.5303
L75.9751 23.5303
" />
<path d="M75.9751 23.5303
L76.1566 23.5908
" />
<path d="M76.7008 24.8003
L76.7008 23.5303
" />
<path d="M76.7008 23.5303
L77.0032 23.5303
" />
<path d="M77.0032 23.5303
L77.1846 23.5908
" />
<path d="M77.1846 23.5908
L77.3056 23.7118
" />
<path d="M77.3056 23.7118
L77.3661 23.8327
" />
<path d="M77.3661 23.8327
L77.4265 24.0746
" />
<path d="M77.4265 24.0746
L77.4265 24.2560
" />
<path d="M77.4265 24.2560
L77.3661 24.4979
" />
<path d="M77.3661 24.4979
L77.3056 24.6189
" />
<path d="M77.3056 24.6189
L77.1846 24.7399
" />
<path d="M77.1846 24.7399
L77.0032 24.8003
" />
<path d="M77.0032 24.8003
L76.7008 24.8003
" />
<path d="M77.9104 24.4375
L78.5151 24.4375
" />
<path d="M77.7894 24.8003
L78.2127 23.5303
" />
<path d="M78.2127 23.5303
L78.6361 24.8003
" />
</g><path style="fill:none; 
stroke:#840000; stroke-width:0.1524; stroke-opacity:1; 
stroke-linecap:round; stroke-linejoin:round;fill:none"
d="M 73.6600,24.1300
74.7713,25.4004
79.6735,25.4004
80.7848,24.1300
79.6735,22.8596
74.7713,22.8596
Z" /> 
</g>
<g style="fill:none; 
stroke:#840000; stroke-width:0.1524; stroke-opacity:1; 
stroke-linecap:round; stroke-linejoin:round;">
<text x="75.0888" y="22.3158"
textLength="5.7066" font-size="1.6933" lengthAdjust="spacingAndGlyphs"
text-anchor="start" opacity="0" stroke-opacity="0">FAULT</text>
<g class="stroked-text"><desc>FAULT</desc>
<path d="M75.9147 21.5951
L75.4913 21.5951
" />
<path d="M75.4913 22.2603
L75.4913 20.9903
" />
<path d="M75.4913 20.9903
L76.0961 20.9903
" />
<path d="M76.5195 21.8975
L77.1242 21.8975
" />
<path d="M76.3985 22.2603
L76.8218 20.9903
" />
<path d="M76.8218 20.9903
L77.2452 22.2603
" />
<path d="M77.6685 20.9903
L77.6685 22.0184
" />
<path d="M77.6685 22.0184
L77.7290 22.1394
" />
<path d="M77.7290 22.1394
L77.7895 22.1999
" />
<path d="M77.7895 22.1999
L77.9104 22.2603
" />
<path d="M77.9104 22.2603
L78.1523 22.2603
" />
<path d="M78.1523 22.2603
L78.2733 22.1999
" />
<path d="M78.2733 22.1999
L78.3338 22.1394
" />
<path d="M78.3338 22.1394
L78.3942 22.0184
" />
<path d="M78.3942 22.0184
L78.3942 20.9903
" />
<path d="M79.6038 22.2603
L78.9990 22.2603
" />
<path d="M78.9990 22.2603
L78.9990 20.9903
" />
<path d="M79.8457 20.9903
L80.5714 20.9903
" />
<path d="M80.2086 22.2603
L80.2086 20.9903
" />
</g><path style="fill:none; 
stroke:#840000; stroke-width:0.1524; stroke-opacity:1; 
stroke-linecap:round; stroke-linejoin:round;fill:none"
d="M 73.6600,21.5900
74.7713,22.8604
81.6088,22.8604
81.6088,21.5900
81.6088,20.3196
74.7713,20.3196
Z" /> 
</g>
<g style="fill:none; 
stroke:#840000; stroke-width:0.1524; stroke-opacity:1; 
stroke-linecap:round; stroke-linejoin:round;">
<text x="75.0888" y="27.3958"
textLength="3.7108" font-size="1.6933" lengthAdjust="spacingAndGlyphs"
text-anchor="start" opacity="0" stroke-opacity="0">SCL</text>
<g class="stroked-text"><desc>SCL</desc>
<path d="M75.4309 27.2799
L75.6123 27.3403
" />
<path d="M75.6123 27.3403
L75.9147 27.3403
" />
<path d="M75.9147 27.3403
L76.0356 27.2799
" />
<path d="M76.0356 27.2799
L76.0961 27.2194
" />
<path d="M76.0961 27.2194
L76.1566 27.0984
" />
<path d="M76.1566 27.0984
L76.1566 26.9775
" />
<path d="M76.1566 26.9775
L76.0961 26.8565
" />
<path d="M76.0961 26.8565
L76.0356 26.7960
" />
<path d="M76.0356 26.7960
L75.9147 26.7356
" />
<path d="M75.9147 26.7356
L75.6728 26.6751
" />
<path d="M75.6728 26.6751
L75.5518 26.6146
" />
<path d="M75.5518 26.6146
L75.4913 26.5541
" />
<path d="M75.4913 26.5541
L75.4309 26.4332
" />
<path d="M75.4309 26.4332
L75.4309 26.3122
" />
<path d="M75.4309 26.3122
L75.4913 26.1913
" />
<path d="M75.4913 26.1913
L75.5518 26.1308
" />
<path d="M75.5518 26.1308
L75.6728 26.0703
" />
<path d="M75.6728 26.0703
L75.9751 26.0703
" />
<path d="M75.9751 26.0703
L76.1566 26.1308
" />
<path d="M77.4265 27.2194
L77.3661 27.2799
" />
<path d="M77.3661 27.2799
L77.1846 27.3403
" />
<path d="M77.1846 27.3403
L77.0637 27.3403
" />
<path d="M77.0637 27.3403
L76.8823 27.2799
" />
<path d="M76.8823 27.2799
L76.7613 27.1589
" />
<path d="M76.7613 27.1589
L76.7008 27.0379
" />
<path d="M76.7008 27.0379
L76.6404 26.7960
" />
<path d="M76.6404 26.7960
L76.6404 26.6146
" />
<path d="M76.6404 26.6146
L76.7008 26.3727
" />
<path d="M76.7008 26.3727
L76.7613 26.2518
" />
<path d="M76.7613 26.2518
L76.8823 26.1308
" />
<path d="M76.8823 26.1308
L77.0637 26.0703
" />
<path d="M77.0637 26.0703
L77.1846 26.0703
" />
<path d="M77.1846 26.0703
L77.3661 26.1308
" />
<path d="M77.3661 26.1308
L77.4265 26.1913
" />
<path d="M78.5756 27.3403
L77.9708 27.3403
" />
<path d="M77.9708 27.3403
L77.9708 26.0703
" />
</g><path style="fill:none; 
stroke:#840000; stroke-width:0.1524; stroke-opacity:1; 
stroke-linecap:round; stroke-linejoin:round;fill:none"
d="M 73.6600,26.6700
74.7713,27.9404
79.6130,27.9404
80.7243,26.6700
79.6130,25.3996
74.7713,25.3996
Z" /> 
</g>
<g style="fill:none; 
stroke:#840000; stroke-width:0.1524; stroke-opacity:1; 
stroke-linecap:round; stroke-linejoin:round;">
<text x="75.0888" y="19.7758"
textLength="9.6376" font-size="1.6933" lengthAdjust="spacingAndGlyphs"
text-anchor="start" opacity="0" stroke-opacity="0">CHARGING</text>
<g class="stroked-text"><desc>CHARGING</desc>
<path d="M76.2170 19.5994
L76.1566 19.6599
" />
<path d="M76.1566 19.6599
L75.9751 19.7203
" />
<path d="M75.9751 19.7203
L75.8542 19.7203
" />
<path d="M75.8542 19.7203
L75.6728 19.6599
" />
<path d="M75.6728 19.6599
L75.5518 19.5389
" />
<path d="M75.5518 19.5389
L75.4913 19.4179
" />
<path d="M75.4913 19.4179
L75.4309 19.1760
" />
<path d="M75.4309 19.1760
L75.4309 18.9946
" />
<path d="M75.4309 18.9946
L75.4913 18.7527
" />
<path d="M75.4913 18.7527
L75.5518 18.6318
" />
<path d="M75.5518 18.6318
L75.6728 18.5108
" />
<path d="M75.6728 18.5108
L75.8542 18.4503
" />
<path d="M75.8542 18.4503
L75.9751 18.4503
" />
<path d="M75.9751 18.4503
L76.1566 18.5108
" />
<path d="M76.1566 18.5108
L76.2170 18.5713
" />
<path d="M76.7613 19.7203
L76.7613 18.4503
" />
<path d="M76.7613 19.0551
L77.4870 19.0551
" />
<path d="M77.4870 19.7203
L77.4870 18.4503
" />
<path d="M78.0314 19.3575
L78.6361 19.3575
" />
<path d="M77.9104 19.7203
L78.3337 18.4503
" />
<path d="M78.3337 18.4503
L78.7571 19.7203
" />
<path d="M79.9061 19.7203
L79.4828 19.1156
" />
<path d="M79.1804 19.7203
L79.1804 18.4503
" />
<path d="M79.1804 18.4503
L79.6642 18.4503
" />
<path d="M79.6642 18.4503
L79.7852 18.5108
" />
<path d="M79.7852 18.5108
L79.8457 18.5713
" />
<path d="M79.8457 18.5713
L79.9061 18.6922
" />
<path d="M79.9061 18.6922
L79.9061 18.8737
" />
<path d="M79.9061 18.8737
L79.8457 18.9946
" />
<path d="M79.8457 18.9946
L79.7852 19.0551
" />
<path d="M79.7852 19.0551
L79.6642 19.1156
" />
<path d="M79.6642 19.1156
L79.1804 19.1156
" />
<path d="M81.1157 18.5108
L80.9947 18.4503
" />
<path d="M80.9947 18.4503
L80.8133 18.4503
" />
<path d="M80.8133 18.4503
L80.6319 18.5108
" />
<path d="M80.6319 18.5108
L80.5109 18.6318
" />
<path d="M80.5109 18.6318
L80.4504 18.7527
" />
<path d="M80.4504 18.7527
L80.3900 18.9946
" />
<path d="M80.3900 18.9946
L80.3900 19.1760
" />
<path d="M80.3900 19.1760
L80.4504 19.4179
" />
<path d="M80.4504 19.4179
L80.5109 19.5389
" />
<path d="M80.5109 19.5389
L80.6319 19.6599
" />
<path d="M80.6319 19.6599
L80.8133 19.7203
" />
<path d="M80.8133 19.7203
L80.9342 19.7203
" />
<path d="M80.9342 19.7203
L81.1157 19.6599
" />
<path d="M81.1157 19.6599
L81.1761 19.5994
" />
<path d="M81.1761 19.5994
L81.1761 19.1760
" />
<path d="M81.1761 19.1760
L80.9342 19.1760
" />
<path d="M81.7204 19.7203
L81.7204 18.4503
" />
<path d="M82.3252 19.7203
L82.3252 18.4503
" />
<path d="M82.3252 18.4503
L83.0509 19.7203
" />
<path d="M83.0509 19.7203
L83.0509 18.4503
" />
<path d="M84.3210 18.5108
L84.2000 18.4503
" />
<path d="M84.2000 18.4503
L84.0186 18.4503
" />
<path d="M84.0186 18.4503
L83.8372 18.5108
" />
<path d="M83.8372 18.5108
L83.7162 18.6318
" />
<path d="M83.7162 18.6318
L83.6557 18.7527
" />
<path d="M83.6557 18.7527
L83.5953 18.9946
" />
<path d="M83.5953 18.9946
L83.5953 19.1760
" />
<path d="M83.5953 19.1760
L83.6557 19.4179
" />
<path d="M83.6557 19.4179
L83.7162 19.5389
" />
<path d="M83.7162 19.5389
L83.8372 19.6599
" />
<path d="M83.8372 19.6599
L84.0186 19.7203
" />
<path d="M84.0186 19.7203
L84.1395 19.7203
" />
<path d="M84.1395 19.7203
L84.3210 19.6599
" />
<path d="M84.3210 19.6599
L84.3814 19.5994
" />
<path d="M84.3814 19.5994
L84.3814 19.1760
" />
<path d="M84.3814 19.1760
L84.1395 19.1760
" />
</g><path style="fill:none; 
stroke:#840000; stroke-width:0.1524; stroke-opacity:1; 
stroke-linecap:round; stroke-linejoin:round;fill:none"
d="M 73.6600,19.0500
74.7713,20.3204
85.5398,20.3204
85.5398,19.0500
85.5398,17.7796
74.7713,17.7796
Z" /> 
</g>
<g style="fill:none; 
stroke:#009600; stroke-width:0.1524; stroke-opacity:1; 
stroke-linecap:round; stroke-linejoin:round;">
<path d="M25.4000 49.5300
L25.4000 80.0100
" />
<path d="M25.4000 80.0100
L25.4000 86.3600
" />
<path d="M45.7200 49.5300
L25.4000 49.5300
" />
<path d="M68.5800 26.6700
L73.6600 26.6700
" />
<path d="M73.6600 16.5100
L68.5800 16.5100
" />
<path d="M25.4000 99.0600
L25.4000 110.4900
" />
<path d="M25.4000 93.9800
L25.4000 99.0600
" />
<path d="M68.5800 19.0500
L73.6600 19.0500
" />
<path d="M68.5800 13.9700
L73.6600 13.9700
" />
<path d="M68.5800 24.1300
L73.6600 24.1300
" />
<path d="M68.5800 21.5900
L73.6600 21.5900
" />
</g>
<g style="fill:#009600; fill-opacity:1.0000; 
stroke:#009600; stroke-width:0.1524; stroke-opacity:1; 
stroke-linecap:round; stroke-linejoin:round;">
<circle cx="25.4000" cy="99.0600" r="0.4572" /> 
<circle cx="25.4000" cy="80.0100" r="0.4572" /> 
</g> 
</svg>
