<?xml version="1.0" standalone="no"?>
 <!DOCTYPE svg PUBLIC "-//W3C//DTD SVG 1.1//EN" 
 "http://www.w3.org/Graphics/SVG/1.1/DTD/svg11.dtd"> 
<svg
  xmlns:svg="http://www.w3.org/2000/svg"
  xmlns="http://www.w3.org/2000/svg"
  xmlns:xlink="http://www.w3.org/1999/xlink"
  version="1.1"
  width="297.0022mm" height="210.0072mm" viewBox="0.0000 0.0000 297.0022 210.0072">

  <desc>Image generated by Eeschema-SVG </desc>
<g style="fill:#000000; fill-opacity:1.0000;stroke:#000000; stroke-opacity:1.0000;
stroke-linecap:round; stroke-linejoin:round;"
 transform="translate(0 0) scale(1 1)">
<path style="fill:none; 
stroke:#840000; stroke-width:0.1524; stroke-opacity:1; 
stroke-linecap:round; stroke-linejoin:round;fill:none"
d="M 95.2500,80.0100
96.5200,80.0100
96.5200,78.7400
97.7900,80.0100
96.5200,81.2800
96.5200,80.0100
" /> 
</g>
<g style="fill:none; 
stroke:#840000; stroke-width:0.1524; stroke-opacity:1; 
stroke-linecap:round; stroke-linejoin:round;">
<path d="M95.2500 80.0100
L95.2500 80.0100
" />
</g>
<g style="fill:none; 
stroke:#006464; stroke-width:0.1524; stroke-opacity:1; 
stroke-linecap:round; stroke-linejoin:round;">
<text x="101.1064" y="80.6448"
textLength="4.0737" font-size="1.6933" lengthAdjust="spacingAndGlyphs"
text-anchor="middle" opacity="0" stroke-opacity="0">GND</text>
<g class="stroked-text"><desc>GND</desc>
<path d="M100.1388 79.3798
L100.0178 79.3193
" />
<path d="M100.0178 79.3193
L99.8364 79.3193
" />
<path d="M99.8364 79.3193
L99.6550 79.3798
" />
<path d="M99.6550 79.3798
L99.5340 79.5008
" />
<path d="M99.5340 79.5008
L99.4735 79.6217
" />
<path d="M99.4735 79.6217
L99.4131 79.8636
" />
<path d="M99.4131 79.8636
L99.4131 80.0450
" />
<path d="M99.4131 80.0450
L99.4735 80.2869
" />
<path d="M99.4735 80.2869
L99.5340 80.4079
" />
<path d="M99.5340 80.4079
L99.6550 80.5289
" />
<path d="M99.6550 80.5289
L99.8364 80.5893
" />
<path d="M99.8364 80.5893
L99.9573 80.5893
" />
<path d="M99.9573 80.5893
L100.1388 80.5289
" />
<path d="M100.1388 80.5289
L100.1992 80.4684
" />
<path d="M100.1992 80.4684
L100.1992 80.0450
" />
<path d="M100.1992 80.0450
L99.9573 80.0450
" />
<path d="M100.7435 80.5893
L100.7435 79.3193
" />
<path d="M100.7435 79.3193
L101.4692 80.5893
" />
<path d="M101.4692 80.5893
L101.4692 79.3193
" />
<path d="M102.0740 80.5893
L102.0740 79.3193
" />
<path d="M102.0740 79.3193
L102.3764 79.3193
" />
<path d="M102.3764 79.3193
L102.5578 79.3798
" />
<path d="M102.5578 79.3798
L102.6788 79.5008
" />
<path d="M102.6788 79.5008
L102.7393 79.6217
" />
<path d="M102.7393 79.6217
L102.7997 79.8636
" />
<path d="M102.7997 79.8636
L102.7997 80.0450
" />
<path d="M102.7997 80.0450
L102.7393 80.2869
" />
<path d="M102.7393 80.2869
L102.6788 80.4079
" />
<path d="M102.6788 80.4079
L102.5578 80.5289
" />
<path d="M102.5578 80.5289
L102.3764 80.5893
" />
<path d="M102.3764 80.5893
L102.0740 80.5893
" />
</g></g>
<g style="fill:#FFFFC2; fill-opacity:1.0000; stroke:none;">
<rect x="62.230000" y="44.450000" width="25.400000" height="40.640000" rx="0.000000" />
</g>
<g style="fill:none; 
stroke:#840000; stroke-width:0.4100; stroke-opacity:1; 
stroke-linecap:round; stroke-linejoin:round;">
<rect x="62.230000" y="44.450000" width="25.400000" height="40.640000" rx="0.000000" />
</g>
<g style="fill:none; 
stroke:#840000; stroke-width:0.1524; stroke-opacity:1; 
stroke-linecap:round; stroke-linejoin:round;">
<path d="M62.2300 57.1500
L57.1500 57.1500
" />
</g>
<g style="fill:none; 
stroke:#006464; stroke-width:0.1524; stroke-opacity:1; 
stroke-linecap:round; stroke-linejoin:round;">
<text x="63.2460" y="57.6580"
textLength="2.1892" font-size="1.3546" lengthAdjust="spacingAndGlyphs"
text-anchor="start" opacity="0" stroke-opacity="0">CE</text>
<g class="stroked-text"><desc>CE</desc>
<path d="M64.1686 57.5153
L64.1202 57.5637
" />
<path d="M64.1202 57.5637
L63.9751 57.6120
" />
<path d="M63.9751 57.6120
L63.8783 57.6120
" />
<path d="M63.8783 57.6120
L63.7332 57.5637
" />
<path d="M63.7332 57.5637
L63.6364 57.4669
" />
<path d="M63.6364 57.4669
L63.5881 57.3701
" />
<path d="M63.5881 57.3701
L63.5397 57.1766
" />
<path d="M63.5397 57.1766
L63.5397 57.0315
" />
<path d="M63.5397 57.0315
L63.5881 56.8379
" />
<path d="M63.5881 56.8379
L63.6364 56.7412
" />
<path d="M63.6364 56.7412
L63.7332 56.6444
" />
<path d="M63.7332 56.6444
L63.8783 56.5960
" />
<path d="M63.8783 56.5960
L63.9751 56.5960
" />
<path d="M63.9751 56.5960
L64.1202 56.6444
" />
<path d="M64.1202 56.6444
L64.1686 56.6928
" />
<path d="M64.6041 57.0798
L64.9427 57.0798
" />
<path d="M65.0879 57.6120
L64.6041 57.6120
" />
<path d="M64.6041 57.6120
L64.6041 56.5960
" />
<path d="M64.6041 56.5960
L65.0879 56.5960
" />
</g></g>
<g style="fill:none; 
stroke:#A90000; stroke-width:0.1524; stroke-opacity:1; 
stroke-linecap:round; stroke-linejoin:round;">
<text x="59.6900" y="56.8960"
textLength="1.2216" font-size="1.3546" lengthAdjust="spacingAndGlyphs"
text-anchor="middle" opacity="0" stroke-opacity="0">2</text>
<g class="stroked-text"><desc>2</desc>
<path d="M59.3997 55.8444
L59.4481 55.7960
" />
<path d="M59.4481 55.7960
L59.5448 55.7476
" />
<path d="M59.5448 55.7476
L59.7867 55.7476
" />
<path d="M59.7867 55.7476
L59.8835 55.7960
" />
<path d="M59.8835 55.7960
L59.9319 55.8444
" />
<path d="M59.9319 55.8444
L59.9802 55.9412
" />
<path d="M59.9802 55.9412
L59.9802 56.0379
" />
<path d="M59.9802 56.0379
L59.9319 56.1831
" />
<path d="M59.9319 56.1831
L59.3513 56.7636
" />
<path d="M59.3513 56.7636
L59.9802 56.7636
" />
</g></g>
<g style="fill:none; 
stroke:#840000; stroke-width:0.1524; stroke-opacity:1; 
stroke-linecap:round; stroke-linejoin:round;">
<path d="M62.2300 59.6900
L57.1500 59.6900
" />
</g>
<g style="fill:none; 
stroke:#006464; stroke-width:0.1524; stroke-opacity:1; 
stroke-linecap:round; stroke-linejoin:round;">
<text x="63.2460" y="60.1980"
textLength="3.3987" font-size="1.3546" lengthAdjust="spacingAndGlyphs"
text-anchor="start" opacity="0" stroke-opacity="0">ISET</text>
<g class="stroked-text"><desc>ISET</desc>
<path d="M63.5881 60.1520
L63.5881 59.1360
" />
<path d="M64.0235 60.1037
L64.1686 60.1520
" />
<path d="M64.1686 60.1520
L64.4105 60.1520
" />
<path d="M64.4105 60.1520
L64.5073 60.1037
" />
<path d="M64.5073 60.1037
L64.5557 60.0553
" />
<path d="M64.5557 60.0553
L64.6040 59.9585
" />
<path d="M64.6040 59.9585
L64.6040 59.8617
" />
<path d="M64.6040 59.8617
L64.5557 59.7650
" />
<path d="M64.5557 59.7650
L64.5073 59.7166
" />
<path d="M64.5073 59.7166
L64.4105 59.6682
" />
<path d="M64.4105 59.6682
L64.2170 59.6198
" />
<path d="M64.2170 59.6198
L64.1202 59.5715
" />
<path d="M64.1202 59.5715
L64.0719 59.5231
" />
<path d="M64.0719 59.5231
L64.0235 59.4263
" />
<path d="M64.0235 59.4263
L64.0235 59.3296
" />
<path d="M64.0235 59.3296
L64.0719 59.2328
" />
<path d="M64.0719 59.2328
L64.1202 59.1844
" />
<path d="M64.1202 59.1844
L64.2170 59.1360
" />
<path d="M64.2170 59.1360
L64.4589 59.1360
" />
<path d="M64.4589 59.1360
L64.6040 59.1844
" />
<path d="M65.0395 59.6198
L65.3781 59.6198
" />
<path d="M65.5233 60.1520
L65.0395 60.1520
" />
<path d="M65.0395 60.1520
L65.0395 59.1360
" />
<path d="M65.0395 59.1360
L65.5233 59.1360
" />
<path d="M65.8135 59.1360
L66.3941 59.1360
" />
<path d="M66.1038 60.1520
L66.1038 59.1360
" />
</g></g>
<g style="fill:none; 
stroke:#A90000; stroke-width:0.1524; stroke-opacity:1; 
stroke-linecap:round; stroke-linejoin:round;">
<text x="59.6900" y="59.4360"
textLength="1.2216" font-size="1.3546" lengthAdjust="spacingAndGlyphs"
text-anchor="middle" opacity="0" stroke-opacity="0">7</text>
<g class="stroked-text"><desc>7</desc>
<path d="M59.3513 58.2876
L60.0286 58.2876
" />
<path d="M60.0286 58.2876
L59.5932 59.3036
" />
</g></g>
<g style="fill:none; 
stroke:#840000; stroke-width:0.1524; stroke-opacity:1; 
stroke-linecap:round; stroke-linejoin:round;">
<path d="M62.2300 62.2300
L57.1500 62.2300
" />
</g>
<g style="fill:none; 
stroke:#006464; stroke-width:0.1524; stroke-opacity:1; 
stroke-linecap:round; stroke-linejoin:round;">
<text x="63.2460" y="62.7380"
textLength="3.3020" font-size="1.3546" lengthAdjust="spacingAndGlyphs"
text-anchor="start" opacity="0" stroke-opacity="0">SRN</text>
<g class="stroked-text"><desc>SRN</desc>
<path d="M63.5397 62.6437
L63.6848 62.6920
" />
<path d="M63.6848 62.6920
L63.9267 62.6920
" />
<path d="M63.9267 62.6920
L64.0235 62.6437
" />
<path d="M64.0235 62.6437
L64.0719 62.5953
" />
<path d="M64.0719 62.5953
L64.1202 62.4985
" />
<path d="M64.1202 62.4985
L64.1202 62.4017
" />
<path d="M64.1202 62.4017
L64.0719 62.3050
" />
<path d="M64.0719 62.3050
L64.0235 62.2566
" />
<path d="M64.0235 62.2566
L63.9267 62.2082
" />
<path d="M63.9267 62.2082
L63.7332 62.1598
" />
<path d="M63.7332 62.1598
L63.6364 62.1115
" />
<path d="M63.6364 62.1115
L63.5881 62.0631
" />
<path d="M63.5881 62.0631
L63.5397 61.9663
" />
<path d="M63.5397 61.9663
L63.5397 61.8696
" />
<path d="M63.5397 61.8696
L63.5881 61.7728
" />
<path d="M63.5881 61.7728
L63.6364 61.7244
" />
<path d="M63.6364 61.7244
L63.7332 61.6760
" />
<path d="M63.7332 61.6760
L63.9751 61.6760
" />
<path d="M63.9751 61.6760
L64.1202 61.7244
" />
<path d="M65.1362 62.6920
L64.7976 62.2082
" />
<path d="M64.5557 62.6920
L64.5557 61.6760
" />
<path d="M64.5557 61.6760
L64.9427 61.6760
" />
<path d="M64.9427 61.6760
L65.0395 61.7244
" />
<path d="M65.0395 61.7244
L65.0878 61.7728
" />
<path d="M65.0878 61.7728
L65.1362 61.8696
" />
<path d="M65.1362 61.8696
L65.1362 62.0147
" />
<path d="M65.1362 62.0147
L65.0878 62.1115
" />
<path d="M65.0878 62.1115
L65.0395 62.1598
" />
<path d="M65.0395 62.1598
L64.9427 62.2082
" />
<path d="M64.9427 62.2082
L64.5557 62.2082
" />
<path d="M65.5717 62.6920
L65.5717 61.6760
" />
<path d="M65.5717 61.6760
L66.1522 62.6920
" />
<path d="M66.1522 62.6920
L66.1522 61.6760
" />
</g></g>
<g style="fill:none; 
stroke:#A90000; stroke-width:0.1524; stroke-opacity:1; 
stroke-linecap:round; stroke-linejoin:round;">
<text x="59.6900" y="61.9760"
textLength="1.2216" font-size="1.3546" lengthAdjust="spacingAndGlyphs"
text-anchor="middle" opacity="0" stroke-opacity="0">9</text>
<g class="stroked-text"><desc>9</desc>
<path d="M59.4964 61.8436
L59.6900 61.8436
" />
<path d="M59.6900 61.8436
L59.7867 61.7953
" />
<path d="M59.7867 61.7953
L59.8351 61.7469
" />
<path d="M59.8351 61.7469
L59.9319 61.6017
" />
<path d="M59.9319 61.6017
L59.9802 61.4082
" />
<path d="M59.9802 61.4082
L59.9802 61.0212
" />
<path d="M59.9802 61.0212
L59.9319 60.9244
" />
<path d="M59.9319 60.9244
L59.8835 60.8760
" />
<path d="M59.8835 60.8760
L59.7867 60.8276
" />
<path d="M59.7867 60.8276
L59.5932 60.8276
" />
<path d="M59.5932 60.8276
L59.4964 60.8760
" />
<path d="M59.4964 60.8760
L59.4481 60.9244
" />
<path d="M59.4481 60.9244
L59.3997 61.0212
" />
<path d="M59.3997 61.0212
L59.3997 61.2631
" />
<path d="M59.3997 61.2631
L59.4481 61.3598
" />
<path d="M59.4481 61.3598
L59.4964 61.4082
" />
<path d="M59.4964 61.4082
L59.5932 61.4566
" />
<path d="M59.5932 61.4566
L59.7867 61.4566
" />
<path d="M59.7867 61.4566
L59.8835 61.4082
" />
<path d="M59.8835 61.4082
L59.9319 61.3598
" />
<path d="M59.9319 61.3598
L59.9802 61.2631
" />
</g></g>
<g style="fill:none; 
stroke:#840000; stroke-width:0.1524; stroke-opacity:1; 
stroke-linecap:round; stroke-linejoin:round;">
<path d="M62.2300 64.7700
L57.1500 64.7700
" />
</g>
<g style="fill:none; 
stroke:#006464; stroke-width:0.1524; stroke-opacity:1; 
stroke-linecap:round; stroke-linejoin:round;">
<text x="63.2460" y="65.2780"
textLength="3.2536" font-size="1.3546" lengthAdjust="spacingAndGlyphs"
text-anchor="start" opacity="0" stroke-opacity="0">SRP</text>
<g class="stroked-text"><desc>SRP</desc>
<path d="M63.5397 65.1837
L63.6848 65.2320
" />
<path d="M63.6848 65.2320
L63.9267 65.2320
" />
<path d="M63.9267 65.2320
L64.0235 65.1837
" />
<path d="M64.0235 65.1837
L64.0719 65.1353
" />
<path d="M64.0719 65.1353
L64.1202 65.0385
" />
<path d="M64.1202 65.0385
L64.1202 64.9417
" />
<path d="M64.1202 64.9417
L64.0719 64.8450
" />
<path d="M64.0719 64.8450
L64.0235 64.7966
" />
<path d="M64.0235 64.7966
L63.9267 64.7482
" />
<path d="M63.9267 64.7482
L63.7332 64.6998
" />
<path d="M63.7332 64.6998
L63.6364 64.6515
" />
<path d="M63.6364 64.6515
L63.5881 64.6031
" />
<path d="M63.5881 64.6031
L63.5397 64.5063
" />
<path d="M63.5397 64.5063
L63.5397 64.4096
" />
<path d="M63.5397 64.4096
L63.5881 64.3128
" />
<path d="M63.5881 64.3128
L63.6364 64.2644
" />
<path d="M63.6364 64.2644
L63.7332 64.2160
" />
<path d="M63.7332 64.2160
L63.9751 64.2160
" />
<path d="M63.9751 64.2160
L64.1202 64.2644
" />
<path d="M65.1362 65.2320
L64.7976 64.7482
" />
<path d="M64.5557 65.2320
L64.5557 64.2160
" />
<path d="M64.5557 64.2160
L64.9427 64.2160
" />
<path d="M64.9427 64.2160
L65.0395 64.2644
" />
<path d="M65.0395 64.2644
L65.0878 64.3128
" />
<path d="M65.0878 64.3128
L65.1362 64.4096
" />
<path d="M65.1362 64.4096
L65.1362 64.5547
" />
<path d="M65.1362 64.5547
L65.0878 64.6515
" />
<path d="M65.0878 64.6515
L65.0395 64.6998
" />
<path d="M65.0395 64.6998
L64.9427 64.7482
" />
<path d="M64.9427 64.7482
L64.5557 64.7482
" />
<path d="M65.5717 65.2320
L65.5717 64.2160
" />
<path d="M65.5717 64.2160
L65.9587 64.2160
" />
<path d="M65.9587 64.2160
L66.0555 64.2644
" />
<path d="M66.0555 64.2644
L66.1038 64.3128
" />
<path d="M66.1038 64.3128
L66.1522 64.4096
" />
<path d="M66.1522 64.4096
L66.1522 64.5547
" />
<path d="M66.1522 64.5547
L66.1038 64.6515
" />
<path d="M66.1038 64.6515
L66.0555 64.6998
" />
<path d="M66.0555 64.6998
L65.9587 64.7482
" />
<path d="M65.9587 64.7482
L65.5717 64.7482
" />
</g></g>
<g style="fill:none; 
stroke:#A90000; stroke-width:0.1524; stroke-opacity:1; 
stroke-linecap:round; stroke-linejoin:round;">
<text x="59.6900" y="64.5160"
textLength="2.1892" font-size="1.3546" lengthAdjust="spacingAndGlyphs"
text-anchor="middle" opacity="0" stroke-opacity="0">10</text>
<g class="stroked-text"><desc>10</desc>
<path d="M59.4964 64.3836
L58.9159 64.3836
" />
<path d="M59.2062 64.3836
L59.2062 63.3676
" />
<path d="M59.2062 63.3676
L59.1094 63.5128
" />
<path d="M59.1094 63.5128
L59.0126 63.6095
" />
<path d="M59.0126 63.6095
L58.9159 63.6579
" />
<path d="M60.1254 63.3676
L60.2221 63.3676
" />
<path d="M60.2221 63.3676
L60.3189 63.4160
" />
<path d="M60.3189 63.4160
L60.3673 63.4644
" />
<path d="M60.3673 63.4644
L60.4157 63.5612
" />
<path d="M60.4157 63.5612
L60.4640 63.7547
" />
<path d="M60.4640 63.7547
L60.4640 63.9966
" />
<path d="M60.4640 63.9966
L60.4157 64.1901
" />
<path d="M60.4157 64.1901
L60.3673 64.2869
" />
<path d="M60.3673 64.2869
L60.3189 64.3353
" />
<path d="M60.3189 64.3353
L60.2221 64.3836
" />
<path d="M60.2221 64.3836
L60.1254 64.3836
" />
<path d="M60.1254 64.3836
L60.0286 64.3353
" />
<path d="M60.0286 64.3353
L59.9802 64.2869
" />
<path d="M59.9802 64.2869
L59.9319 64.1901
" />
<path d="M59.9319 64.1901
L59.8835 63.9966
" />
<path d="M59.8835 63.9966
L59.8835 63.7547
" />
<path d="M59.8835 63.7547
L59.9319 63.5612
" />
<path d="M59.9319 63.5612
L59.9802 63.4644
" />
<path d="M59.9802 63.4644
L60.0286 63.4160
" />
<path d="M60.0286 63.4160
L60.1254 63.3676
" />
</g></g>
<g style="fill:none; 
stroke:#840000; stroke-width:0.1524; stroke-opacity:1; 
stroke-linecap:round; stroke-linejoin:round;">
<path d="M62.2300 67.3100
L57.1500 67.3100
" />
</g>
<g style="fill:none; 
stroke:#006464; stroke-width:0.1524; stroke-opacity:1; 
stroke-linecap:round; stroke-linejoin:round;">
<text x="63.2460" y="67.8180"
textLength="1.9957" font-size="1.3546" lengthAdjust="spacingAndGlyphs"
text-anchor="start" opacity="0" stroke-opacity="0">TS</text>
<g class="stroked-text"><desc>TS</desc>
<path d="M63.4429 66.7560
L64.0235 66.7560
" />
<path d="M63.7332 67.7720
L63.7332 66.7560
" />
<path d="M64.3138 67.7237
L64.4589 67.7720
" />
<path d="M64.4589 67.7720
L64.7008 67.7720
" />
<path d="M64.7008 67.7720
L64.7976 67.7237
" />
<path d="M64.7976 67.7237
L64.8460 67.6753
" />
<path d="M64.8460 67.6753
L64.8943 67.5785
" />
<path d="M64.8943 67.5785
L64.8943 67.4817
" />
<path d="M64.8943 67.4817
L64.8460 67.3850
" />
<path d="M64.8460 67.3850
L64.7976 67.3366
" />
<path d="M64.7976 67.3366
L64.7008 67.2882
" />
<path d="M64.7008 67.2882
L64.5073 67.2398
" />
<path d="M64.5073 67.2398
L64.4105 67.1915
" />
<path d="M64.4105 67.1915
L64.3622 67.1431
" />
<path d="M64.3622 67.1431
L64.3138 67.0463
" />
<path d="M64.3138 67.0463
L64.3138 66.9496
" />
<path d="M64.3138 66.9496
L64.3622 66.8528
" />
<path d="M64.3622 66.8528
L64.4105 66.8044
" />
<path d="M64.4105 66.8044
L64.5073 66.7560
" />
<path d="M64.5073 66.7560
L64.7492 66.7560
" />
<path d="M64.7492 66.7560
L64.8943 66.8044
" />
</g></g>
<g style="fill:none; 
stroke:#A90000; stroke-width:0.1524; stroke-opacity:1; 
stroke-linecap:round; stroke-linejoin:round;">
<text x="59.6900" y="67.0560"
textLength="1.2216" font-size="1.3546" lengthAdjust="spacingAndGlyphs"
text-anchor="middle" opacity="0" stroke-opacity="0">4</text>
<g class="stroked-text"><desc>4</desc>
<path d="M59.8835 66.2463
L59.8835 66.9236
" />
<path d="M59.6416 65.8593
L59.3997 66.5850
" />
<path d="M59.3997 66.5850
L60.0286 66.5850
" />
</g></g>
<g style="fill:none; 
stroke:#840000; stroke-width:0.1524; stroke-opacity:1; 
stroke-linecap:round; stroke-linejoin:round;">
<path d="M62.2300 69.8500
L57.1500 69.8500
" />
</g>
<g style="fill:none; 
stroke:#006464; stroke-width:0.1524; stroke-opacity:1; 
stroke-linecap:round; stroke-linejoin:round;">
<text x="63.2460" y="70.3580"
textLength="3.0118" font-size="1.3546" lengthAdjust="spacingAndGlyphs"
text-anchor="start" opacity="0" stroke-opacity="0">VFB</text>
<g class="stroked-text"><desc>VFB</desc>
<path d="M63.4429 69.2960
L63.7816 70.3120
" />
<path d="M63.7816 70.3120
L64.1202 69.2960
" />
<path d="M64.7976 69.7798
L64.4590 69.7798
" />
<path d="M64.4590 70.3120
L64.4590 69.2960
" />
<path d="M64.4590 69.2960
L64.9428 69.2960
" />
<path d="M65.6685 69.7798
L65.8137 69.8282
" />
<path d="M65.8137 69.8282
L65.8620 69.8766
" />
<path d="M65.8620 69.8766
L65.9104 69.9734
" />
<path d="M65.9104 69.9734
L65.9104 70.1185
" />
<path d="M65.9104 70.1185
L65.8620 70.2153
" />
<path d="M65.8620 70.2153
L65.8137 70.2637
" />
<path d="M65.8137 70.2637
L65.7169 70.3120
" />
<path d="M65.7169 70.3120
L65.3299 70.3120
" />
<path d="M65.3299 70.3120
L65.3299 69.2960
" />
<path d="M65.3299 69.2960
L65.6685 69.2960
" />
<path d="M65.6685 69.2960
L65.7653 69.3444
" />
<path d="M65.7653 69.3444
L65.8137 69.3928
" />
<path d="M65.8137 69.3928
L65.8620 69.4896
" />
<path d="M65.8620 69.4896
L65.8620 69.5863
" />
<path d="M65.8620 69.5863
L65.8137 69.6831
" />
<path d="M65.8137 69.6831
L65.7653 69.7315
" />
<path d="M65.7653 69.7315
L65.6685 69.7798
" />
<path d="M65.6685 69.7798
L65.3299 69.7798
" />
</g></g>
<g style="fill:none; 
stroke:#A90000; stroke-width:0.1524; stroke-opacity:1; 
stroke-linecap:round; stroke-linejoin:round;">
<text x="59.6900" y="69.5960"
textLength="1.2216" font-size="1.3546" lengthAdjust="spacingAndGlyphs"
text-anchor="middle" opacity="0" stroke-opacity="0">8</text>
<g class="stroked-text"><desc>8</desc>
<path d="M59.5932 68.8831
L59.4964 68.8347
" />
<path d="M59.4964 68.8347
L59.4481 68.7863
" />
<path d="M59.4481 68.7863
L59.3997 68.6895
" />
<path d="M59.3997 68.6895
L59.3997 68.6412
" />
<path d="M59.3997 68.6412
L59.4481 68.5444
" />
<path d="M59.4481 68.5444
L59.4964 68.4960
" />
<path d="M59.4964 68.4960
L59.5932 68.4476
" />
<path d="M59.5932 68.4476
L59.7867 68.4476
" />
<path d="M59.7867 68.4476
L59.8835 68.4960
" />
<path d="M59.8835 68.4960
L59.9319 68.5444
" />
<path d="M59.9319 68.5444
L59.9802 68.6412
" />
<path d="M59.9802 68.6412
L59.9802 68.6895
" />
<path d="M59.9802 68.6895
L59.9319 68.7863
" />
<path d="M59.9319 68.7863
L59.8835 68.8347
" />
<path d="M59.8835 68.8347
L59.7867 68.8831
" />
<path d="M59.7867 68.8831
L59.5932 68.8831
" />
<path d="M59.5932 68.8831
L59.4964 68.9314
" />
<path d="M59.4964 68.9314
L59.4481 68.9798
" />
<path d="M59.4481 68.9798
L59.3997 69.0766
" />
<path d="M59.3997 69.0766
L59.3997 69.2701
" />
<path d="M59.3997 69.2701
L59.4481 69.3669
" />
<path d="M59.4481 69.3669
L59.4964 69.4153
" />
<path d="M59.4964 69.4153
L59.5932 69.4636
" />
<path d="M59.5932 69.4636
L59.7867 69.4636
" />
<path d="M59.7867 69.4636
L59.8835 69.4153
" />
<path d="M59.8835 69.4153
L59.9319 69.3669
" />
<path d="M59.9319 69.3669
L59.9802 69.2701
" />
<path d="M59.9802 69.2701
L59.9802 69.0766
" />
<path d="M59.9802 69.0766
L59.9319 68.9798
" />
<path d="M59.9319 68.9798
L59.8835 68.9314
" />
<path d="M59.8835 68.9314
L59.7867 68.8831
" />
</g></g>
<g style="fill:none; 
stroke:#840000; stroke-width:0.1524; stroke-opacity:1; 
stroke-linecap:round; stroke-linejoin:round;">
<path d="M62.2300 74.9300
L57.1500 74.9300
" />
</g>
<g style="fill:none; 
stroke:#006464; stroke-width:0.1524; stroke-opacity:1; 
stroke-linecap:round; stroke-linejoin:round;">
<text x="63.2460" y="75.4380"
textLength="2.1892" font-size="1.3546" lengthAdjust="spacingAndGlyphs"
text-anchor="start" opacity="0" stroke-opacity="0">EP</text>
<g class="stroked-text"><desc>EP</desc>
<path d="M63.5881 74.8598
L63.9267 74.8598
" />
<path d="M64.0719 75.3920
L63.5881 75.3920
" />
<path d="M63.5881 75.3920
L63.5881 74.3760
" />
<path d="M63.5881 74.3760
L64.0719 74.3760
" />
<path d="M64.5073 75.3920
L64.5073 74.3760
" />
<path d="M64.5073 74.3760
L64.8943 74.3760
" />
<path d="M64.8943 74.3760
L64.9911 74.4244
" />
<path d="M64.9911 74.4244
L65.0394 74.4728
" />
<path d="M65.0394 74.4728
L65.0878 74.5696
" />
<path d="M65.0878 74.5696
L65.0878 74.7147
" />
<path d="M65.0878 74.7147
L65.0394 74.8115
" />
<path d="M65.0394 74.8115
L64.9911 74.8598
" />
<path d="M64.9911 74.8598
L64.8943 74.9082
" />
<path d="M64.8943 74.9082
L64.5073 74.9082
" />
</g></g>
<g style="fill:none; 
stroke:#A90000; stroke-width:0.1524; stroke-opacity:1; 
stroke-linecap:round; stroke-linejoin:round;">
<text x="59.6900" y="74.6760"
textLength="2.1892" font-size="1.3546" lengthAdjust="spacingAndGlyphs"
text-anchor="middle" opacity="0" stroke-opacity="0">17</text>
<g class="stroked-text"><desc>17</desc>
<path d="M59.4964 74.5436
L58.9159 74.5436
" />
<path d="M59.2062 74.5436
L59.2062 73.5276
" />
<path d="M59.2062 73.5276
L59.1094 73.6728
" />
<path d="M59.1094 73.6728
L59.0126 73.7695
" />
<path d="M59.0126 73.7695
L58.9159 73.8179
" />
<path d="M59.8351 73.5276
L60.5124 73.5276
" />
<path d="M60.5124 73.5276
L60.0770 74.5436
" />
</g></g>
<g style="fill:none; 
stroke:#840000; stroke-width:0.1524; stroke-opacity:1; 
stroke-linecap:round; stroke-linejoin:round;">
<path d="M87.6300 46.9900
L92.7100 46.9900
" />
</g>
<g style="fill:none; 
stroke:#006464; stroke-width:0.1524; stroke-opacity:1; 
stroke-linecap:round; stroke-linejoin:round;">
<text x="86.6140" y="47.4980"
textLength="3.1569" font-size="1.3546" lengthAdjust="spacingAndGlyphs"
text-anchor="end" opacity="0" stroke-opacity="0">VCC</text>
<g class="stroked-text"><desc>VCC</desc>
<path d="M83.7076 46.4360
L84.0463 47.4520
" />
<path d="M84.0463 47.4520
L84.3849 46.4360
" />
<path d="M85.3042 47.3553
L85.2558 47.4037
" />
<path d="M85.2558 47.4037
L85.1107 47.4520
" />
<path d="M85.1107 47.4520
L85.0139 47.4520
" />
<path d="M85.0139 47.4520
L84.8688 47.4037
" />
<path d="M84.8688 47.4037
L84.7720 47.3069
" />
<path d="M84.7720 47.3069
L84.7237 47.2101
" />
<path d="M84.7237 47.2101
L84.6753 47.0166
" />
<path d="M84.6753 47.0166
L84.6753 46.8715
" />
<path d="M84.6753 46.8715
L84.7237 46.6779
" />
<path d="M84.7237 46.6779
L84.7720 46.5812
" />
<path d="M84.7720 46.5812
L84.8688 46.4844
" />
<path d="M84.8688 46.4844
L85.0139 46.4360
" />
<path d="M85.0139 46.4360
L85.1107 46.4360
" />
<path d="M85.1107 46.4360
L85.2558 46.4844
" />
<path d="M85.2558 46.4844
L85.3042 46.5328
" />
<path d="M86.3202 47.3553
L86.2718 47.4037
" />
<path d="M86.2718 47.4037
L86.1267 47.4520
" />
<path d="M86.1267 47.4520
L86.0299 47.4520
" />
<path d="M86.0299 47.4520
L85.8848 47.4037
" />
<path d="M85.8848 47.4037
L85.7880 47.3069
" />
<path d="M85.7880 47.3069
L85.7397 47.2101
" />
<path d="M85.7397 47.2101
L85.6913 47.0166
" />
<path d="M85.6913 47.0166
L85.6913 46.8715
" />
<path d="M85.6913 46.8715
L85.7397 46.6779
" />
<path d="M85.7397 46.6779
L85.7880 46.5812
" />
<path d="M85.7880 46.5812
L85.8848 46.4844
" />
<path d="M85.8848 46.4844
L86.0299 46.4360
" />
<path d="M86.0299 46.4360
L86.1267 46.4360
" />
<path d="M86.1267 46.4360
L86.2718 46.4844
" />
<path d="M86.2718 46.4844
L86.3202 46.5328
" />
</g></g>
<g style="fill:none; 
stroke:#A90000; stroke-width:0.1524; stroke-opacity:1; 
stroke-linecap:round; stroke-linejoin:round;">
<text x="90.1700" y="46.7360"
textLength="1.2216" font-size="1.3546" lengthAdjust="spacingAndGlyphs"
text-anchor="middle" opacity="0" stroke-opacity="0">1</text>
<g class="stroked-text"><desc>1</desc>
<path d="M90.4602 46.6036
L89.8797 46.6036
" />
<path d="M90.1700 46.6036
L90.1700 45.5876
" />
<path d="M90.1700 45.5876
L90.0732 45.7328
" />
<path d="M90.0732 45.7328
L89.9764 45.8295
" />
<path d="M89.9764 45.8295
L89.8797 45.8779
" />
</g></g>
<g style="fill:none; 
stroke:#840000; stroke-width:0.1524; stroke-opacity:1; 
stroke-linecap:round; stroke-linejoin:round;">
<path d="M87.6300 49.5300
L92.7100 49.5300
" />
</g>
<g style="fill:none; 
stroke:#006464; stroke-width:0.1524; stroke-opacity:1; 
stroke-linecap:round; stroke-linejoin:round;">
<text x="86.6140" y="50.0380"
textLength="2.3344" font-size="1.3546" lengthAdjust="spacingAndGlyphs"
text-anchor="end" opacity="0" stroke-opacity="0">PH</text>
<g class="stroked-text"><desc>PH</desc>
<path d="M84.6753 49.9920
L84.6753 48.9760
" />
<path d="M84.6753 48.9760
L85.0623 48.9760
" />
<path d="M85.0623 48.9760
L85.1591 49.0244
" />
<path d="M85.1591 49.0244
L85.2074 49.0728
" />
<path d="M85.2074 49.0728
L85.2558 49.1696
" />
<path d="M85.2558 49.1696
L85.2558 49.3147
" />
<path d="M85.2558 49.3147
L85.2074 49.4115
" />
<path d="M85.2074 49.4115
L85.1591 49.4598
" />
<path d="M85.1591 49.4598
L85.0623 49.5082
" />
<path d="M85.0623 49.5082
L84.6753 49.5082
" />
<path d="M85.6913 49.9920
L85.6913 48.9760
" />
<path d="M85.6913 49.4598
L86.2718 49.4598
" />
<path d="M86.2718 49.9920
L86.2718 48.9760
" />
</g></g>
<g style="fill:none; 
stroke:#A90000; stroke-width:0.1524; stroke-opacity:1; 
stroke-linecap:round; stroke-linejoin:round;">
<text x="90.1700" y="49.2760"
textLength="2.1892" font-size="1.3546" lengthAdjust="spacingAndGlyphs"
text-anchor="middle" opacity="0" stroke-opacity="0">14</text>
<g class="stroked-text"><desc>14</desc>
<path d="M89.9764 49.1436
L89.3959 49.1436
" />
<path d="M89.6862 49.1436
L89.6862 48.1276
" />
<path d="M89.6862 48.1276
L89.5894 48.2728
" />
<path d="M89.5894 48.2728
L89.4926 48.3695
" />
<path d="M89.4926 48.3695
L89.3959 48.4179
" />
<path d="M90.8473 48.4663
L90.8473 49.1436
" />
<path d="M90.6054 48.0793
L90.3635 48.8050
" />
<path d="M90.3635 48.8050
L90.9924 48.8050
" />
</g></g>
<g style="fill:none; 
stroke:#840000; stroke-width:0.1524; stroke-opacity:1; 
stroke-linecap:round; stroke-linejoin:round;">
<path d="M87.6300 52.0700
L92.7100 52.0700
" />
</g>
<g style="fill:none; 
stroke:#006464; stroke-width:0.1524; stroke-opacity:1; 
stroke-linecap:round; stroke-linejoin:round;">
<text x="86.6140" y="52.5780"
textLength="3.7858" font-size="1.3546" lengthAdjust="spacingAndGlyphs"
text-anchor="end" opacity="0" stroke-opacity="0">BTST</text>
<g class="stroked-text"><desc>BTST</desc>
<path d="M83.5625 51.9998
L83.7077 52.0482
" />
<path d="M83.7077 52.0482
L83.7560 52.0966
" />
<path d="M83.7560 52.0966
L83.8044 52.1934
" />
<path d="M83.8044 52.1934
L83.8044 52.3385
" />
<path d="M83.8044 52.3385
L83.7560 52.4353
" />
<path d="M83.7560 52.4353
L83.7077 52.4837
" />
<path d="M83.7077 52.4837
L83.6109 52.5320
" />
<path d="M83.6109 52.5320
L83.2239 52.5320
" />
<path d="M83.2239 52.5320
L83.2239 51.5160
" />
<path d="M83.2239 51.5160
L83.5625 51.5160
" />
<path d="M83.5625 51.5160
L83.6593 51.5644
" />
<path d="M83.6593 51.5644
L83.7077 51.6128
" />
<path d="M83.7077 51.6128
L83.7560 51.7096
" />
<path d="M83.7560 51.7096
L83.7560 51.8063
" />
<path d="M83.7560 51.8063
L83.7077 51.9031
" />
<path d="M83.7077 51.9031
L83.6593 51.9515
" />
<path d="M83.6593 51.9515
L83.5625 51.9998
" />
<path d="M83.5625 51.9998
L83.2239 51.9998
" />
<path d="M84.0947 51.5160
L84.6753 51.5160
" />
<path d="M84.3850 52.5320
L84.3850 51.5160
" />
<path d="M84.9656 52.4837
L85.1107 52.5320
" />
<path d="M85.1107 52.5320
L85.3526 52.5320
" />
<path d="M85.3526 52.5320
L85.4494 52.4837
" />
<path d="M85.4494 52.4837
L85.4978 52.4353
" />
<path d="M85.4978 52.4353
L85.5461 52.3385
" />
<path d="M85.5461 52.3385
L85.5461 52.2417
" />
<path d="M85.5461 52.2417
L85.4978 52.1450
" />
<path d="M85.4978 52.1450
L85.4494 52.0966
" />
<path d="M85.4494 52.0966
L85.3526 52.0482
" />
<path d="M85.3526 52.0482
L85.1591 51.9998
" />
<path d="M85.1591 51.9998
L85.0623 51.9515
" />
<path d="M85.0623 51.9515
L85.0140 51.9031
" />
<path d="M85.0140 51.9031
L84.9656 51.8063
" />
<path d="M84.9656 51.8063
L84.9656 51.7096
" />
<path d="M84.9656 51.7096
L85.0140 51.6128
" />
<path d="M85.0140 51.6128
L85.0623 51.5644
" />
<path d="M85.0623 51.5644
L85.1591 51.5160
" />
<path d="M85.1591 51.5160
L85.4010 51.5160
" />
<path d="M85.4010 51.5160
L85.5461 51.5644
" />
<path d="M85.8364 51.5160
L86.4170 51.5160
" />
<path d="M86.1267 52.5320
L86.1267 51.5160
" />
</g></g>
<g style="fill:none; 
stroke:#A90000; stroke-width:0.1524; stroke-opacity:1; 
stroke-linecap:round; stroke-linejoin:round;">
<text x="90.1700" y="51.8160"
textLength="2.1892" font-size="1.3546" lengthAdjust="spacingAndGlyphs"
text-anchor="middle" opacity="0" stroke-opacity="0">16</text>
<g class="stroked-text"><desc>16</desc>
<path d="M89.9764 51.6836
L89.3959 51.6836
" />
<path d="M89.6862 51.6836
L89.6862 50.6676
" />
<path d="M89.6862 50.6676
L89.5894 50.8128
" />
<path d="M89.5894 50.8128
L89.4926 50.9095
" />
<path d="M89.4926 50.9095
L89.3959 50.9579
" />
<path d="M90.8473 50.6676
L90.6538 50.6676
" />
<path d="M90.6538 50.6676
L90.5570 50.7160
" />
<path d="M90.5570 50.7160
L90.5086 50.7644
" />
<path d="M90.5086 50.7644
L90.4119 50.9095
" />
<path d="M90.4119 50.9095
L90.3635 51.1031
" />
<path d="M90.3635 51.1031
L90.3635 51.4901
" />
<path d="M90.3635 51.4901
L90.4119 51.5869
" />
<path d="M90.4119 51.5869
L90.4602 51.6353
" />
<path d="M90.4602 51.6353
L90.5570 51.6836
" />
<path d="M90.5570 51.6836
L90.7505 51.6836
" />
<path d="M90.7505 51.6836
L90.8473 51.6353
" />
<path d="M90.8473 51.6353
L90.8957 51.5869
" />
<path d="M90.8957 51.5869
L90.9440 51.4901
" />
<path d="M90.9440 51.4901
L90.9440 51.2482
" />
<path d="M90.9440 51.2482
L90.8957 51.1514
" />
<path d="M90.8957 51.1514
L90.8473 51.1031
" />
<path d="M90.8473 51.1031
L90.7505 51.0547
" />
<path d="M90.7505 51.0547
L90.5570 51.0547
" />
<path d="M90.5570 51.0547
L90.4602 51.1031
" />
<path d="M90.4602 51.1031
L90.4119 51.1514
" />
<path d="M90.4119 51.1514
L90.3635 51.2482
" />
</g></g>
<g style="fill:none; 
stroke:#840000; stroke-width:0.1524; stroke-opacity:1; 
stroke-linecap:round; stroke-linejoin:round;">
<path d="M87.6300 57.1500
L92.7100 57.1500
" />
</g>
<g style="fill:none; 
stroke:#006464; stroke-width:0.1524; stroke-opacity:1; 
stroke-linecap:round; stroke-linejoin:round;">
<text x="86.6140" y="57.6580"
textLength="2.2860" font-size="1.3546" lengthAdjust="spacingAndGlyphs"
text-anchor="end" opacity="0" stroke-opacity="0">~{PG}</text>
<g class="stroked-text"><desc>~{PG}</desc>
<path d="M84.7237 57.6120
L84.7237 56.5960
" />
<path d="M84.7237 56.5960
L85.1107 56.5960
" />
<path d="M85.1107 56.5960
L85.2075 56.6444
" />
<path d="M85.2075 56.6444
L85.2558 56.6928
" />
<path d="M85.2558 56.6928
L85.3042 56.7896
" />
<path d="M85.3042 56.7896
L85.3042 56.9347
" />
<path d="M85.3042 56.9347
L85.2558 57.0315
" />
<path d="M85.2558 57.0315
L85.2075 57.0798
" />
<path d="M85.2075 57.0798
L85.1107 57.1282
" />
<path d="M85.1107 57.1282
L84.7237 57.1282
" />
<path d="M86.2718 56.6444
L86.1751 56.5960
" />
<path d="M86.1751 56.5960
L86.0299 56.5960
" />
<path d="M86.0299 56.5960
L85.8848 56.6444
" />
<path d="M85.8848 56.6444
L85.7880 56.7412
" />
<path d="M85.7880 56.7412
L85.7397 56.8379
" />
<path d="M85.7397 56.8379
L85.6913 57.0315
" />
<path d="M85.6913 57.0315
L85.6913 57.1766
" />
<path d="M85.6913 57.1766
L85.7397 57.3701
" />
<path d="M85.7397 57.3701
L85.7880 57.4669
" />
<path d="M85.7880 57.4669
L85.8848 57.5637
" />
<path d="M85.8848 57.5637
L86.0299 57.6120
" />
<path d="M86.0299 57.6120
L86.1267 57.6120
" />
<path d="M86.1267 57.6120
L86.2718 57.5637
" />
<path d="M86.2718 57.5637
L86.3202 57.5153
" />
<path d="M86.3202 57.5153
L86.3202 57.1766
" />
<path d="M86.3202 57.1766
L86.1267 57.1766
" />
<path d="M84.5834 56.3140
L86.4122 56.3140
" />
</g></g>
<g style="fill:none; 
stroke:#A90000; stroke-width:0.1524; stroke-opacity:1; 
stroke-linecap:round; stroke-linejoin:round;">
<text x="90.1700" y="56.8960"
textLength="1.2216" font-size="1.3546" lengthAdjust="spacingAndGlyphs"
text-anchor="middle" opacity="0" stroke-opacity="0">5</text>
<g class="stroked-text"><desc>5</desc>
<path d="M90.4119 55.7476
L89.9281 55.7476
" />
<path d="M89.9281 55.7476
L89.8797 56.2314
" />
<path d="M89.8797 56.2314
L89.9281 56.1831
" />
<path d="M89.9281 56.1831
L90.0248 56.1347
" />
<path d="M90.0248 56.1347
L90.2667 56.1347
" />
<path d="M90.2667 56.1347
L90.3635 56.1831
" />
<path d="M90.3635 56.1831
L90.4119 56.2314
" />
<path d="M90.4119 56.2314
L90.4602 56.3282
" />
<path d="M90.4602 56.3282
L90.4602 56.5701
" />
<path d="M90.4602 56.5701
L90.4119 56.6669
" />
<path d="M90.4119 56.6669
L90.3635 56.7153
" />
<path d="M90.3635 56.7153
L90.2667 56.7636
" />
<path d="M90.2667 56.7636
L90.0248 56.7636
" />
<path d="M90.0248 56.7636
L89.9281 56.7153
" />
<path d="M89.9281 56.7153
L89.8797 56.6669
" />
</g></g>
<g style="fill:none; 
stroke:#840000; stroke-width:0.1524; stroke-opacity:1; 
stroke-linecap:round; stroke-linejoin:round;">
<path d="M87.6300 59.6900
L92.7100 59.6900
" />
</g>
<g style="fill:none; 
stroke:#006464; stroke-width:0.1524; stroke-opacity:1; 
stroke-linecap:round; stroke-linejoin:round;">
<text x="86.6140" y="60.1980"
textLength="4.7051" font-size="1.3546" lengthAdjust="spacingAndGlyphs"
text-anchor="end" opacity="0" stroke-opacity="0">HIDRV</text>
<g class="stroked-text"><desc>HIDRV</desc>
<path d="M82.3046 60.1520
L82.3046 59.1360
" />
<path d="M82.3046 59.6198
L82.8851 59.6198
" />
<path d="M82.8851 60.1520
L82.8851 59.1360
" />
<path d="M83.3690 60.1520
L83.3690 59.1360
" />
<path d="M83.8528 60.1520
L83.8528 59.1360
" />
<path d="M83.8528 59.1360
L84.0947 59.1360
" />
<path d="M84.0947 59.1360
L84.2398 59.1844
" />
<path d="M84.2398 59.1844
L84.3366 59.2812
" />
<path d="M84.3366 59.2812
L84.3849 59.3779
" />
<path d="M84.3849 59.3779
L84.4333 59.5715
" />
<path d="M84.4333 59.5715
L84.4333 59.7166
" />
<path d="M84.4333 59.7166
L84.3849 59.9101
" />
<path d="M84.3849 59.9101
L84.3366 60.0069
" />
<path d="M84.3366 60.0069
L84.2398 60.1037
" />
<path d="M84.2398 60.1037
L84.0947 60.1520
" />
<path d="M84.0947 60.1520
L83.8528 60.1520
" />
<path d="M85.4493 60.1520
L85.1107 59.6682
" />
<path d="M84.8688 60.1520
L84.8688 59.1360
" />
<path d="M84.8688 59.1360
L85.2558 59.1360
" />
<path d="M85.2558 59.1360
L85.3526 59.1844
" />
<path d="M85.3526 59.1844
L85.4009 59.2328
" />
<path d="M85.4009 59.2328
L85.4493 59.3296
" />
<path d="M85.4493 59.3296
L85.4493 59.4747
" />
<path d="M85.4493 59.4747
L85.4009 59.5715
" />
<path d="M85.4009 59.5715
L85.3526 59.6198
" />
<path d="M85.3526 59.6198
L85.2558 59.6682
" />
<path d="M85.2558 59.6682
L84.8688 59.6682
" />
<path d="M85.7396 59.1360
L86.0783 60.1520
" />
<path d="M86.0783 60.1520
L86.4169 59.1360
" />
</g></g>
<g style="fill:none; 
stroke:#A90000; stroke-width:0.1524; stroke-opacity:1; 
stroke-linecap:round; stroke-linejoin:round;">
<text x="90.1700" y="59.4360"
textLength="2.1892" font-size="1.3546" lengthAdjust="spacingAndGlyphs"
text-anchor="middle" opacity="0" stroke-opacity="0">15</text>
<g class="stroked-text"><desc>15</desc>
<path d="M89.9764 59.3036
L89.3959 59.3036
" />
<path d="M89.6862 59.3036
L89.6862 58.2876
" />
<path d="M89.6862 58.2876
L89.5894 58.4328
" />
<path d="M89.5894 58.4328
L89.4926 58.5295
" />
<path d="M89.4926 58.5295
L89.3959 58.5779
" />
<path d="M90.8957 58.2876
L90.4119 58.2876
" />
<path d="M90.4119 58.2876
L90.3635 58.7714
" />
<path d="M90.3635 58.7714
L90.4119 58.7231
" />
<path d="M90.4119 58.7231
L90.5086 58.6747
" />
<path d="M90.5086 58.6747
L90.7505 58.6747
" />
<path d="M90.7505 58.6747
L90.8473 58.7231
" />
<path d="M90.8473 58.7231
L90.8957 58.7714
" />
<path d="M90.8957 58.7714
L90.9440 58.8682
" />
<path d="M90.9440 58.8682
L90.9440 59.1101
" />
<path d="M90.9440 59.1101
L90.8957 59.2069
" />
<path d="M90.8957 59.2069
L90.8473 59.2553
" />
<path d="M90.8473 59.2553
L90.7505 59.3036
" />
<path d="M90.7505 59.3036
L90.5086 59.3036
" />
<path d="M90.5086 59.3036
L90.4119 59.2553
" />
<path d="M90.4119 59.2553
L90.3635 59.2069
" />
</g></g>
<g style="fill:none; 
stroke:#840000; stroke-width:0.1524; stroke-opacity:1; 
stroke-linecap:round; stroke-linejoin:round;">
<path d="M87.6300 62.2300
L92.7100 62.2300
" />
</g>
<g style="fill:none; 
stroke:#006464; stroke-width:0.1524; stroke-opacity:1; 
stroke-linecap:round; stroke-linejoin:round;">
<text x="86.6140" y="62.7380"
textLength="5.0438" font-size="1.3546" lengthAdjust="spacingAndGlyphs"
text-anchor="end" opacity="0" stroke-opacity="0">LODRV</text>
<g class="stroked-text"><desc>LODRV</desc>
<path d="M82.4497 62.6920
L81.9659 62.6920
" />
<path d="M81.9659 62.6920
L81.9659 61.6760
" />
<path d="M82.9819 61.6760
L83.1754 61.6760
" />
<path d="M83.1754 61.6760
L83.2722 61.7244
" />
<path d="M83.2722 61.7244
L83.3689 61.8212
" />
<path d="M83.3689 61.8212
L83.4173 62.0147
" />
<path d="M83.4173 62.0147
L83.4173 62.3534
" />
<path d="M83.4173 62.3534
L83.3689 62.5469
" />
<path d="M83.3689 62.5469
L83.2722 62.6437
" />
<path d="M83.2722 62.6437
L83.1754 62.6920
" />
<path d="M83.1754 62.6920
L82.9819 62.6920
" />
<path d="M82.9819 62.6920
L82.8851 62.6437
" />
<path d="M82.8851 62.6437
L82.7884 62.5469
" />
<path d="M82.7884 62.5469
L82.7400 62.3534
" />
<path d="M82.7400 62.3534
L82.7400 62.0147
" />
<path d="M82.7400 62.0147
L82.7884 61.8212
" />
<path d="M82.7884 61.8212
L82.8851 61.7244
" />
<path d="M82.8851 61.7244
L82.9819 61.6760
" />
<path d="M83.8528 62.6920
L83.8528 61.6760
" />
<path d="M83.8528 61.6760
L84.0947 61.6760
" />
<path d="M84.0947 61.6760
L84.2398 61.7244
" />
<path d="M84.2398 61.7244
L84.3366 61.8212
" />
<path d="M84.3366 61.8212
L84.3849 61.9179
" />
<path d="M84.3849 61.9179
L84.4333 62.1115
" />
<path d="M84.4333 62.1115
L84.4333 62.2566
" />
<path d="M84.4333 62.2566
L84.3849 62.4501
" />
<path d="M84.3849 62.4501
L84.3366 62.5469
" />
<path d="M84.3366 62.5469
L84.2398 62.6437
" />
<path d="M84.2398 62.6437
L84.0947 62.6920
" />
<path d="M84.0947 62.6920
L83.8528 62.6920
" />
<path d="M85.4493 62.6920
L85.1107 62.2082
" />
<path d="M84.8688 62.6920
L84.8688 61.6760
" />
<path d="M84.8688 61.6760
L85.2558 61.6760
" />
<path d="M85.2558 61.6760
L85.3526 61.7244
" />
<path d="M85.3526 61.7244
L85.4009 61.7728
" />
<path d="M85.4009 61.7728
L85.4493 61.8696
" />
<path d="M85.4493 61.8696
L85.4493 62.0147
" />
<path d="M85.4493 62.0147
L85.4009 62.1115
" />
<path d="M85.4009 62.1115
L85.3526 62.1598
" />
<path d="M85.3526 62.1598
L85.2558 62.2082
" />
<path d="M85.2558 62.2082
L84.8688 62.2082
" />
<path d="M85.7396 61.6760
L86.0783 62.6920
" />
<path d="M86.0783 62.6920
L86.4169 61.6760
" />
</g></g>
<g style="fill:none; 
stroke:#A90000; stroke-width:0.1524; stroke-opacity:1; 
stroke-linecap:round; stroke-linejoin:round;">
<text x="90.1700" y="61.9760"
textLength="2.1892" font-size="1.3546" lengthAdjust="spacingAndGlyphs"
text-anchor="middle" opacity="0" stroke-opacity="0">13</text>
<g class="stroked-text"><desc>13</desc>
<path d="M89.9764 61.8436
L89.3959 61.8436
" />
<path d="M89.6862 61.8436
L89.6862 60.8276
" />
<path d="M89.6862 60.8276
L89.5894 60.9728
" />
<path d="M89.5894 60.9728
L89.4926 61.0695
" />
<path d="M89.4926 61.0695
L89.3959 61.1179
" />
<path d="M90.3151 60.8276
L90.9440 60.8276
" />
<path d="M90.9440 60.8276
L90.6054 61.2147
" />
<path d="M90.6054 61.2147
L90.7505 61.2147
" />
<path d="M90.7505 61.2147
L90.8473 61.2631
" />
<path d="M90.8473 61.2631
L90.8957 61.3114
" />
<path d="M90.8957 61.3114
L90.9440 61.4082
" />
<path d="M90.9440 61.4082
L90.9440 61.6501
" />
<path d="M90.9440 61.6501
L90.8957 61.7469
" />
<path d="M90.8957 61.7469
L90.8473 61.7953
" />
<path d="M90.8473 61.7953
L90.7505 61.8436
" />
<path d="M90.7505 61.8436
L90.4602 61.8436
" />
<path d="M90.4602 61.8436
L90.3635 61.7953
" />
<path d="M90.3635 61.7953
L90.3151 61.7469
" />
</g></g>
<g style="fill:none; 
stroke:#840000; stroke-width:0.1524; stroke-opacity:1; 
stroke-linecap:round; stroke-linejoin:round;">
<path d="M87.6300 64.7700
L92.7100 64.7700
" />
</g>
<g style="fill:none; 
stroke:#006464; stroke-width:0.1524; stroke-opacity:1; 
stroke-linecap:round; stroke-linejoin:round;">
<text x="86.6140" y="65.2780"
textLength="4.2696" font-size="1.3546" lengthAdjust="spacingAndGlyphs"
text-anchor="end" opacity="0" stroke-opacity="0">REGN</text>
<g class="stroked-text"><desc>REGN</desc>
<path d="M83.3206 65.2320
L82.9820 64.7482
" />
<path d="M82.7401 65.2320
L82.7401 64.2160
" />
<path d="M82.7401 64.2160
L83.1271 64.2160
" />
<path d="M83.1271 64.2160
L83.2239 64.2644
" />
<path d="M83.2239 64.2644
L83.2722 64.3128
" />
<path d="M83.2722 64.3128
L83.3206 64.4096
" />
<path d="M83.3206 64.4096
L83.3206 64.5547
" />
<path d="M83.3206 64.5547
L83.2722 64.6515
" />
<path d="M83.2722 64.6515
L83.2239 64.6998
" />
<path d="M83.2239 64.6998
L83.1271 64.7482
" />
<path d="M83.1271 64.7482
L82.7401 64.7482
" />
<path d="M83.7561 64.6998
L84.0947 64.6998
" />
<path d="M84.2399 65.2320
L83.7561 65.2320
" />
<path d="M83.7561 65.2320
L83.7561 64.2160
" />
<path d="M83.7561 64.2160
L84.2399 64.2160
" />
<path d="M85.2074 64.2644
L85.1107 64.2160
" />
<path d="M85.1107 64.2160
L84.9655 64.2160
" />
<path d="M84.9655 64.2160
L84.8204 64.2644
" />
<path d="M84.8204 64.2644
L84.7236 64.3612
" />
<path d="M84.7236 64.3612
L84.6753 64.4579
" />
<path d="M84.6753 64.4579
L84.6269 64.6515
" />
<path d="M84.6269 64.6515
L84.6269 64.7966
" />
<path d="M84.6269 64.7966
L84.6753 64.9901
" />
<path d="M84.6753 64.9901
L84.7236 65.0869
" />
<path d="M84.7236 65.0869
L84.8204 65.1837
" />
<path d="M84.8204 65.1837
L84.9655 65.2320
" />
<path d="M84.9655 65.2320
L85.0623 65.2320
" />
<path d="M85.0623 65.2320
L85.2074 65.1837
" />
<path d="M85.2074 65.1837
L85.2558 65.1353
" />
<path d="M85.2558 65.1353
L85.2558 64.7966
" />
<path d="M85.2558 64.7966
L85.0623 64.7966
" />
<path d="M85.6913 65.2320
L85.6913 64.2160
" />
<path d="M85.6913 64.2160
L86.2718 65.2320
" />
<path d="M86.2718 65.2320
L86.2718 64.2160
" />
</g></g>
<g style="fill:none; 
stroke:#A90000; stroke-width:0.1524; stroke-opacity:1; 
stroke-linecap:round; stroke-linejoin:round;">
<text x="90.1700" y="64.5160"
textLength="2.1892" font-size="1.3546" lengthAdjust="spacingAndGlyphs"
text-anchor="middle" opacity="0" stroke-opacity="0">12</text>
<g class="stroked-text"><desc>12</desc>
<path d="M89.9764 64.3836
L89.3959 64.3836
" />
<path d="M89.6862 64.3836
L89.6862 63.3676
" />
<path d="M89.6862 63.3676
L89.5894 63.5128
" />
<path d="M89.5894 63.5128
L89.4926 63.6095
" />
<path d="M89.4926 63.6095
L89.3959 63.6579
" />
<path d="M90.3635 63.4644
L90.4119 63.4160
" />
<path d="M90.4119 63.4160
L90.5086 63.3676
" />
<path d="M90.5086 63.3676
L90.7505 63.3676
" />
<path d="M90.7505 63.3676
L90.8473 63.4160
" />
<path d="M90.8473 63.4160
L90.8957 63.4644
" />
<path d="M90.8957 63.4644
L90.9440 63.5612
" />
<path d="M90.9440 63.5612
L90.9440 63.6579
" />
<path d="M90.9440 63.6579
L90.8957 63.8031
" />
<path d="M90.8957 63.8031
L90.3151 64.3836
" />
<path d="M90.3151 64.3836
L90.9440 64.3836
" />
</g></g>
<g style="fill:none; 
stroke:#840000; stroke-width:0.1524; stroke-opacity:1; 
stroke-linecap:round; stroke-linejoin:round;">
<path d="M87.6300 67.3100
L92.7100 67.3100
" />
</g>
<g style="fill:none; 
stroke:#006464; stroke-width:0.1524; stroke-opacity:1; 
stroke-linecap:round; stroke-linejoin:round;">
<text x="86.6140" y="67.8180"
textLength="3.6407" font-size="1.3546" lengthAdjust="spacingAndGlyphs"
text-anchor="end" opacity="0" stroke-opacity="0">STAT</text>
<g class="stroked-text"><desc>STAT</desc>
<path d="M83.3206 67.7237
L83.4657 67.7720
" />
<path d="M83.4657 67.7720
L83.7076 67.7720
" />
<path d="M83.7076 67.7720
L83.8044 67.7237
" />
<path d="M83.8044 67.7237
L83.8528 67.6753
" />
<path d="M83.8528 67.6753
L83.9011 67.5785
" />
<path d="M83.9011 67.5785
L83.9011 67.4817
" />
<path d="M83.9011 67.4817
L83.8528 67.3850
" />
<path d="M83.8528 67.3850
L83.8044 67.3366
" />
<path d="M83.8044 67.3366
L83.7076 67.2882
" />
<path d="M83.7076 67.2882
L83.5141 67.2398
" />
<path d="M83.5141 67.2398
L83.4173 67.1915
" />
<path d="M83.4173 67.1915
L83.3690 67.1431
" />
<path d="M83.3690 67.1431
L83.3206 67.0463
" />
<path d="M83.3206 67.0463
L83.3206 66.9496
" />
<path d="M83.3206 66.9496
L83.3690 66.8528
" />
<path d="M83.3690 66.8528
L83.4173 66.8044
" />
<path d="M83.4173 66.8044
L83.5141 66.7560
" />
<path d="M83.5141 66.7560
L83.7560 66.7560
" />
<path d="M83.7560 66.7560
L83.9011 66.8044
" />
<path d="M84.1914 66.7560
L84.7720 66.7560
" />
<path d="M84.4817 67.7720
L84.4817 66.7560
" />
<path d="M85.0623 67.4817
L85.5461 67.4817
" />
<path d="M84.9655 67.7720
L85.3042 66.7560
" />
<path d="M85.3042 66.7560
L85.6428 67.7720
" />
<path d="M85.8364 66.7560
L86.4170 66.7560
" />
<path d="M86.1267 67.7720
L86.1267 66.7560
" />
</g></g>
<g style="fill:none; 
stroke:#A90000; stroke-width:0.1524; stroke-opacity:1; 
stroke-linecap:round; stroke-linejoin:round;">
<text x="90.1700" y="67.0560"
textLength="1.2216" font-size="1.3546" lengthAdjust="spacingAndGlyphs"
text-anchor="middle" opacity="0" stroke-opacity="0">3</text>
<g class="stroked-text"><desc>3</desc>
<path d="M89.8313 65.9076
L90.4602 65.9076
" />
<path d="M90.4602 65.9076
L90.1216 66.2947
" />
<path d="M90.1216 66.2947
L90.2667 66.2947
" />
<path d="M90.2667 66.2947
L90.3635 66.3431
" />
<path d="M90.3635 66.3431
L90.4119 66.3914
" />
<path d="M90.4119 66.3914
L90.4602 66.4882
" />
<path d="M90.4602 66.4882
L90.4602 66.7301
" />
<path d="M90.4602 66.7301
L90.4119 66.8269
" />
<path d="M90.4119 66.8269
L90.3635 66.8753
" />
<path d="M90.3635 66.8753
L90.2667 66.9236
" />
<path d="M90.2667 66.9236
L89.9764 66.9236
" />
<path d="M89.9764 66.9236
L89.8797 66.8753
" />
<path d="M89.8797 66.8753
L89.8313 66.8269
" />
</g></g>
<g style="fill:none; 
stroke:#840000; stroke-width:0.1524; stroke-opacity:1; 
stroke-linecap:round; stroke-linejoin:round;">
<path d="M87.6300 69.8500
L92.7100 69.8500
" />
</g>
<g style="fill:none; 
stroke:#006464; stroke-width:0.1524; stroke-opacity:1; 
stroke-linecap:round; stroke-linejoin:round;">
<text x="86.6140" y="70.3580"
textLength="3.9310" font-size="1.3546" lengthAdjust="spacingAndGlyphs"
text-anchor="end" opacity="0" stroke-opacity="0">VREF</text>
<g class="stroked-text"><desc>VREF</desc>
<path d="M82.9335 69.2960
L83.2722 70.3120
" />
<path d="M83.2722 70.3120
L83.6108 69.2960
" />
<path d="M84.5301 70.3120
L84.1915 69.8282
" />
<path d="M83.9496 70.3120
L83.9496 69.2960
" />
<path d="M83.9496 69.2960
L84.3366 69.2960
" />
<path d="M84.3366 69.2960
L84.4334 69.3444
" />
<path d="M84.4334 69.3444
L84.4817 69.3928
" />
<path d="M84.4817 69.3928
L84.5301 69.4896
" />
<path d="M84.5301 69.4896
L84.5301 69.6347
" />
<path d="M84.5301 69.6347
L84.4817 69.7315
" />
<path d="M84.4817 69.7315
L84.4334 69.7798
" />
<path d="M84.4334 69.7798
L84.3366 69.8282
" />
<path d="M84.3366 69.8282
L83.9496 69.8282
" />
<path d="M84.9656 69.7798
L85.3042 69.7798
" />
<path d="M85.4494 70.3120
L84.9656 70.3120
" />
<path d="M84.9656 70.3120
L84.9656 69.2960
" />
<path d="M84.9656 69.2960
L85.4494 69.2960
" />
<path d="M86.2234 69.7798
L85.8848 69.7798
" />
<path d="M85.8848 70.3120
L85.8848 69.2960
" />
<path d="M85.8848 69.2960
L86.3686 69.2960
" />
</g></g>
<g style="fill:none; 
stroke:#A90000; stroke-width:0.1524; stroke-opacity:1; 
stroke-linecap:round; stroke-linejoin:round;">
<text x="90.1700" y="69.5960"
textLength="1.2216" font-size="1.3546" lengthAdjust="spacingAndGlyphs"
text-anchor="middle" opacity="0" stroke-opacity="0">6</text>
<g class="stroked-text"><desc>6</desc>
<path d="M90.3635 68.4476
L90.1700 68.4476
" />
<path d="M90.1700 68.4476
L90.0732 68.4960
" />
<path d="M90.0732 68.4960
L90.0248 68.5444
" />
<path d="M90.0248 68.5444
L89.9281 68.6895
" />
<path d="M89.9281 68.6895
L89.8797 68.8831
" />
<path d="M89.8797 68.8831
L89.8797 69.2701
" />
<path d="M89.8797 69.2701
L89.9281 69.3669
" />
<path d="M89.9281 69.3669
L89.9764 69.4153
" />
<path d="M89.9764 69.4153
L90.0732 69.4636
" />
<path d="M90.0732 69.4636
L90.2667 69.4636
" />
<path d="M90.2667 69.4636
L90.3635 69.4153
" />
<path d="M90.3635 69.4153
L90.4119 69.3669
" />
<path d="M90.4119 69.3669
L90.4602 69.2701
" />
<path d="M90.4602 69.2701
L90.4602 69.0282
" />
<path d="M90.4602 69.0282
L90.4119 68.9314
" />
<path d="M90.4119 68.9314
L90.3635 68.8831
" />
<path d="M90.3635 68.8831
L90.2667 68.8347
" />
<path d="M90.2667 68.8347
L90.0732 68.8347
" />
<path d="M90.0732 68.8347
L89.9764 68.8831
" />
<path d="M89.9764 68.8831
L89.9281 68.9314
" />
<path d="M89.9281 68.9314
L89.8797 69.0282
" />
</g></g>
<g style="fill:none; 
stroke:#840000; stroke-width:0.1524; stroke-opacity:1; 
stroke-linecap:round; stroke-linejoin:round;">
<path d="M87.6300 80.0100
L92.7100 80.0100
" />
</g>
<g style="fill:none; 
stroke:#006464; stroke-width:0.1524; stroke-opacity:1; 
stroke-linecap:round; stroke-linejoin:round;">
<text x="86.6140" y="80.5180"
textLength="3.3504" font-size="1.3546" lengthAdjust="spacingAndGlyphs"
text-anchor="end" opacity="0" stroke-opacity="0">GND</text>
<g class="stroked-text"><desc>GND</desc>
<path d="M84.1914 79.5044
L84.0947 79.4560
" />
<path d="M84.0947 79.4560
L83.9495 79.4560
" />
<path d="M83.9495 79.4560
L83.8044 79.5044
" />
<path d="M83.8044 79.5044
L83.7076 79.6012
" />
<path d="M83.7076 79.6012
L83.6593 79.6979
" />
<path d="M83.6593 79.6979
L83.6109 79.8915
" />
<path d="M83.6109 79.8915
L83.6109 80.0366
" />
<path d="M83.6109 80.0366
L83.6593 80.2301
" />
<path d="M83.6593 80.2301
L83.7076 80.3269
" />
<path d="M83.7076 80.3269
L83.8044 80.4237
" />
<path d="M83.8044 80.4237
L83.9495 80.4720
" />
<path d="M83.9495 80.4720
L84.0463 80.4720
" />
<path d="M84.0463 80.4720
L84.1914 80.4237
" />
<path d="M84.1914 80.4237
L84.2398 80.3753
" />
<path d="M84.2398 80.3753
L84.2398 80.0366
" />
<path d="M84.2398 80.0366
L84.0463 80.0366
" />
<path d="M84.6753 80.4720
L84.6753 79.4560
" />
<path d="M84.6753 79.4560
L85.2558 80.4720
" />
<path d="M85.2558 80.4720
L85.2558 79.4560
" />
<path d="M85.7397 80.4720
L85.7397 79.4560
" />
<path d="M85.7397 79.4560
L85.9816 79.4560
" />
<path d="M85.9816 79.4560
L86.1267 79.5044
" />
<path d="M86.1267 79.5044
L86.2235 79.6012
" />
<path d="M86.2235 79.6012
L86.2718 79.6979
" />
<path d="M86.2718 79.6979
L86.3202 79.8915
" />
<path d="M86.3202 79.8915
L86.3202 80.0366
" />
<path d="M86.3202 80.0366
L86.2718 80.2301
" />
<path d="M86.2718 80.2301
L86.2235 80.3269
" />
<path d="M86.2235 80.3269
L86.1267 80.4237
" />
<path d="M86.1267 80.4237
L85.9816 80.4720
" />
<path d="M85.9816 80.4720
L85.7397 80.4720
" />
</g></g>
<g style="fill:none; 
stroke:#A90000; stroke-width:0.1524; stroke-opacity:1; 
stroke-linecap:round; stroke-linejoin:round;">
<text x="90.1700" y="79.7560"
textLength="2.1892" font-size="1.3546" lengthAdjust="spacingAndGlyphs"
text-anchor="middle" opacity="0" stroke-opacity="0">11</text>
<g class="stroked-text"><desc>11</desc>
<path d="M89.9764 79.6236
L89.3959 79.6236
" />
<path d="M89.6862 79.6236
L89.6862 78.6076
" />
<path d="M89.6862 78.6076
L89.5894 78.7528
" />
<path d="M89.5894 78.7528
L89.4926 78.8495
" />
<path d="M89.4926 78.8495
L89.3959 78.8979
" />
<path d="M90.9440 79.6236
L90.3635 79.6236
" />
<path d="M90.6538 79.6236
L90.6538 78.6076
" />
<path d="M90.6538 78.6076
L90.5570 78.7528
" />
<path d="M90.5570 78.7528
L90.4602 78.8495
" />
<path d="M90.4602 78.8495
L90.3635 78.8979
" />
</g></g>
<g style="fill:none; 
stroke:#006464; stroke-width:0.1524; stroke-opacity:1; 
stroke-linecap:round; stroke-linejoin:round;">
<text x="74.9300" y="40.0050"
textLength="4.6180" font-size="1.6933" lengthAdjust="spacingAndGlyphs"
text-anchor="middle" opacity="0" stroke-opacity="0">C.U1</text>
<g class="stroked-text"><desc>C.U1</desc>
<path d="M73.7506 39.8286
L73.6902 39.8891
" />
<path d="M73.6902 39.8891
L73.5087 39.9495
" />
<path d="M73.5087 39.9495
L73.3878 39.9495
" />
<path d="M73.3878 39.9495
L73.2064 39.8891
" />
<path d="M73.2064 39.8891
L73.0854 39.7681
" />
<path d="M73.0854 39.7681
L73.0249 39.6471
" />
<path d="M73.0249 39.6471
L72.9645 39.4052
" />
<path d="M72.9645 39.4052
L72.9645 39.2238
" />
<path d="M72.9645 39.2238
L73.0249 38.9819
" />
<path d="M73.0249 38.9819
L73.0854 38.8610
" />
<path d="M73.0854 38.8610
L73.2064 38.7400
" />
<path d="M73.2064 38.7400
L73.3878 38.6795
" />
<path d="M73.3878 38.6795
L73.5087 38.6795
" />
<path d="M73.5087 38.6795
L73.6902 38.7400
" />
<path d="M73.6902 38.7400
L73.7506 38.8005
" />
<path d="M74.2949 39.8286
L74.3554 39.8891
" />
<path d="M74.3554 39.8891
L74.2949 39.9495
" />
<path d="M74.2949 39.9495
L74.2345 39.8891
" />
<path d="M74.2345 39.8891
L74.2949 39.8286
" />
<path d="M74.2949 39.8286
L74.2949 39.9495
" />
<path d="M74.8997 38.6795
L74.8997 39.7076
" />
<path d="M74.8997 39.7076
L74.9602 39.8286
" />
<path d="M74.9602 39.8286
L75.0207 39.8891
" />
<path d="M75.0207 39.8891
L75.1416 39.9495
" />
<path d="M75.1416 39.9495
L75.3835 39.9495
" />
<path d="M75.3835 39.9495
L75.5045 39.8891
" />
<path d="M75.5045 39.8891
L75.5650 39.8286
" />
<path d="M75.5650 39.8286
L75.6254 39.7076
" />
<path d="M75.6254 39.7076
L75.6254 38.6795
" />
<path d="M76.8955 39.9495
L76.1698 39.9495
" />
<path d="M76.5326 39.9495
L76.5326 38.6795
" />
<path d="M76.5326 38.6795
L76.4117 38.8610
" />
<path d="M76.4117 38.8610
L76.2907 38.9819
" />
<path d="M76.2907 38.9819
L76.1698 39.0424
" />
</g><text x="74.9300" y="42.5450"
textLength="13.5684" font-size="1.6933" lengthAdjust="spacingAndGlyphs"
text-anchor="middle" opacity="0" stroke-opacity="0">BQ24640RVAR</text>
<g class="stroked-text"><desc>BQ24640RVAR</desc>
<path d="M68.9731 41.8243
L69.1545 41.8848
" />
<path d="M69.1545 41.8848
L69.2150 41.9452
" />
<path d="M69.2150 41.9452
L69.2754 42.0662
" />
<path d="M69.2754 42.0662
L69.2754 42.2476
" />
<path d="M69.2754 42.2476
L69.2150 42.3686
" />
<path d="M69.2150 42.3686
L69.1545 42.4291
" />
<path d="M69.1545 42.4291
L69.0335 42.4895
" />
<path d="M69.0335 42.4895
L68.5497 42.4895
" />
<path d="M68.5497 42.4895
L68.5497 41.2195
" />
<path d="M68.5497 41.2195
L68.9731 41.2195
" />
<path d="M68.9731 41.2195
L69.0940 41.2800
" />
<path d="M69.0940 41.2800
L69.1545 41.3405
" />
<path d="M69.1545 41.3405
L69.2150 41.4614
" />
<path d="M69.2150 41.4614
L69.2150 41.5824
" />
<path d="M69.2150 41.5824
L69.1545 41.7033
" />
<path d="M69.1545 41.7033
L69.0940 41.7638
" />
<path d="M69.0940 41.7638
L68.9731 41.8243
" />
<path d="M68.9731 41.8243
L68.5497 41.8243
" />
<path d="M70.6664 42.6105
L70.5454 42.5500
" />
<path d="M70.5454 42.5500
L70.4245 42.4291
" />
<path d="M70.4245 42.4291
L70.2431 42.2476
" />
<path d="M70.2431 42.2476
L70.1221 42.1871
" />
<path d="M70.1221 42.1871
L70.0012 42.1871
" />
<path d="M70.0616 42.4895
L69.9407 42.4291
" />
<path d="M69.9407 42.4291
L69.8197 42.3081
" />
<path d="M69.8197 42.3081
L69.7593 42.0662
" />
<path d="M69.7593 42.0662
L69.7593 41.6429
" />
<path d="M69.7593 41.6429
L69.8197 41.4010
" />
<path d="M69.8197 41.4010
L69.9407 41.2800
" />
<path d="M69.9407 41.2800
L70.0616 41.2195
" />
<path d="M70.0616 41.2195
L70.3035 41.2195
" />
<path d="M70.3035 41.2195
L70.4245 41.2800
" />
<path d="M70.4245 41.2800
L70.5454 41.4010
" />
<path d="M70.5454 41.4010
L70.6059 41.6429
" />
<path d="M70.6059 41.6429
L70.6059 42.0662
" />
<path d="M70.6059 42.0662
L70.5454 42.3081
" />
<path d="M70.5454 42.3081
L70.4245 42.4291
" />
<path d="M70.4245 42.4291
L70.3035 42.4895
" />
<path d="M70.3035 42.4895
L70.0616 42.4895
" />
<path d="M71.0898 41.3405
L71.1502 41.2800
" />
<path d="M71.1502 41.2800
L71.2712 41.2195
" />
<path d="M71.2712 41.2195
L71.5736 41.2195
" />
<path d="M71.5736 41.2195
L71.6945 41.2800
" />
<path d="M71.6945 41.2800
L71.7550 41.3405
" />
<path d="M71.7550 41.3405
L71.8155 41.4614
" />
<path d="M71.8155 41.4614
L71.8155 41.5824
" />
<path d="M71.8155 41.5824
L71.7550 41.7638
" />
<path d="M71.7550 41.7638
L71.0293 42.4895
" />
<path d="M71.0293 42.4895
L71.8155 42.4895
" />
<path d="M72.9040 41.6429
L72.9040 42.4895
" />
<path d="M72.6016 41.1591
L72.2993 42.0662
" />
<path d="M72.2993 42.0662
L73.0854 42.0662
" />
<path d="M74.1135 41.2195
L73.8716 41.2195
" />
<path d="M73.8716 41.2195
L73.7507 41.2800
" />
<path d="M73.7507 41.2800
L73.6902 41.3405
" />
<path d="M73.6902 41.3405
L73.5692 41.5219
" />
<path d="M73.5692 41.5219
L73.5088 41.7638
" />
<path d="M73.5088 41.7638
L73.5088 42.2476
" />
<path d="M73.5088 42.2476
L73.5692 42.3686
" />
<path d="M73.5692 42.3686
L73.6297 42.4291
" />
<path d="M73.6297 42.4291
L73.7507 42.4895
" />
<path d="M73.7507 42.4895
L73.9926 42.4895
" />
<path d="M73.9926 42.4895
L74.1135 42.4291
" />
<path d="M74.1135 42.4291
L74.1740 42.3686
" />
<path d="M74.1740 42.3686
L74.2345 42.2476
" />
<path d="M74.2345 42.2476
L74.2345 41.9452
" />
<path d="M74.2345 41.9452
L74.1740 41.8243
" />
<path d="M74.1740 41.8243
L74.1135 41.7638
" />
<path d="M74.1135 41.7638
L73.9926 41.7033
" />
<path d="M73.9926 41.7033
L73.7507 41.7033
" />
<path d="M73.7507 41.7033
L73.6297 41.7638
" />
<path d="M73.6297 41.7638
L73.5692 41.8243
" />
<path d="M73.5692 41.8243
L73.5088 41.9452
" />
<path d="M75.3230 41.6429
L75.3230 42.4895
" />
<path d="M75.0206 41.1591
L74.7183 42.0662
" />
<path d="M74.7183 42.0662
L75.5044 42.0662
" />
<path d="M76.2301 41.2195
L76.3511 41.2195
" />
<path d="M76.3511 41.2195
L76.4720 41.2800
" />
<path d="M76.4720 41.2800
L76.5325 41.3405
" />
<path d="M76.5325 41.3405
L76.5930 41.4614
" />
<path d="M76.5930 41.4614
L76.6535 41.7033
" />
<path d="M76.6535 41.7033
L76.6535 42.0057
" />
<path d="M76.6535 42.0057
L76.5930 42.2476
" />
<path d="M76.5930 42.2476
L76.5325 42.3686
" />
<path d="M76.5325 42.3686
L76.4720 42.4291
" />
<path d="M76.4720 42.4291
L76.3511 42.4895
" />
<path d="M76.3511 42.4895
L76.2301 42.4895
" />
<path d="M76.2301 42.4895
L76.1092 42.4291
" />
<path d="M76.1092 42.4291
L76.0487 42.3686
" />
<path d="M76.0487 42.3686
L75.9882 42.2476
" />
<path d="M75.9882 42.2476
L75.9278 42.0057
" />
<path d="M75.9278 42.0057
L75.9278 41.7033
" />
<path d="M75.9278 41.7033
L75.9882 41.4614
" />
<path d="M75.9882 41.4614
L76.0487 41.3405
" />
<path d="M76.0487 41.3405
L76.1092 41.2800
" />
<path d="M76.1092 41.2800
L76.2301 41.2195
" />
<path d="M77.9234 42.4895
L77.5001 41.8848
" />
<path d="M77.1977 42.4895
L77.1977 41.2195
" />
<path d="M77.1977 41.2195
L77.6815 41.2195
" />
<path d="M77.6815 41.2195
L77.8025 41.2800
" />
<path d="M77.8025 41.2800
L77.8630 41.3405
" />
<path d="M77.8630 41.3405
L77.9234 41.4614
" />
<path d="M77.9234 41.4614
L77.9234 41.6429
" />
<path d="M77.9234 41.6429
L77.8630 41.7638
" />
<path d="M77.8630 41.7638
L77.8025 41.8243
" />
<path d="M77.8025 41.8243
L77.6815 41.8848
" />
<path d="M77.6815 41.8848
L77.1977 41.8848
" />
<path d="M78.2863 41.2195
L78.7096 42.4895
" />
<path d="M78.7096 42.4895
L79.1330 41.2195
" />
<path d="M79.4959 42.1267
L80.1006 42.1267
" />
<path d="M79.3749 42.4895
L79.7982 41.2195
" />
<path d="M79.7982 41.2195
L80.2216 42.4895
" />
<path d="M81.3706 42.4895
L80.9473 41.8848
" />
<path d="M80.6449 42.4895
L80.6449 41.2195
" />
<path d="M80.6449 41.2195
L81.1287 41.2195
" />
<path d="M81.1287 41.2195
L81.2497 41.2800
" />
<path d="M81.2497 41.2800
L81.3102 41.3405
" />
<path d="M81.3102 41.3405
L81.3706 41.4614
" />
<path d="M81.3706 41.4614
L81.3706 41.6429
" />
<path d="M81.3706 41.6429
L81.3102 41.7638
" />
<path d="M81.3102 41.7638
L81.2497 41.8243
" />
<path d="M81.2497 41.8243
L81.1287 41.8848
" />
<path d="M81.1287 41.8848
L80.6449 41.8848
" />
</g><path style="fill:none; 
stroke:#840000; stroke-width:0.2540; stroke-opacity:1; 
stroke-linecap:round; stroke-linejoin:round;fill:none"
d="M 12.0650,61.5950
12.0650,62.8650
15.8750,66.6750
15.8750,67.9450
15.8750,67.9450
" /> 
</g>
<g style="fill:none; 
stroke:#840000; stroke-width:0.2032; stroke-opacity:1; 
stroke-linecap:round; stroke-linejoin:round;">
<rect x="12.954000" y="62.230000" width="2.032000" height="5.080000" rx="0.000000" />
</g>
<g style="fill:none; 
stroke:#840000; stroke-width:0.1524; stroke-opacity:1; 
stroke-linecap:round; stroke-linejoin:round;">
<path d="M13.9700 62.2300
L13.9700 59.6900
" />
<path d="M13.9700 67.3100
L13.9700 69.8500
" />
</g>
<g style="fill:none; 
stroke:#006464; stroke-width:0.1524; stroke-opacity:1; 
stroke-linecap:round; stroke-linejoin:round;">
<text x="20.5824" y="64.1349"
textLength="5.5856" font-size="1.6933" lengthAdjust="spacingAndGlyphs"
text-anchor="middle" opacity="0" stroke-opacity="0">C.TH1</text>
<g class="stroked-text"><desc>C.TH1</desc>
<path d="M18.9192 63.9585
L18.8588 64.0190
" />
<path d="M18.8588 64.0190
L18.6773 64.0794
" />
<path d="M18.6773 64.0794
L18.5564 64.0794
" />
<path d="M18.5564 64.0794
L18.3750 64.0190
" />
<path d="M18.3750 64.0190
L18.2540 63.8980
" />
<path d="M18.2540 63.8980
L18.1935 63.7770
" />
<path d="M18.1935 63.7770
L18.1331 63.5351
" />
<path d="M18.1331 63.5351
L18.1331 63.3537
" />
<path d="M18.1331 63.3537
L18.1935 63.1118
" />
<path d="M18.1935 63.1118
L18.2540 62.9909
" />
<path d="M18.2540 62.9909
L18.3750 62.8699
" />
<path d="M18.3750 62.8699
L18.5564 62.8094
" />
<path d="M18.5564 62.8094
L18.6773 62.8094
" />
<path d="M18.6773 62.8094
L18.8588 62.8699
" />
<path d="M18.8588 62.8699
L18.9192 62.9304
" />
<path d="M19.4635 63.9585
L19.5240 64.0190
" />
<path d="M19.5240 64.0190
L19.4635 64.0794
" />
<path d="M19.4635 64.0794
L19.4031 64.0190
" />
<path d="M19.4031 64.0190
L19.4635 63.9585
" />
<path d="M19.4635 63.9585
L19.4635 64.0794
" />
<path d="M19.8869 62.8094
L20.6126 62.8094
" />
<path d="M20.2498 64.0794
L20.2498 62.8094
" />
<path d="M21.0359 64.0794
L21.0359 62.8094
" />
<path d="M21.0359 63.4142
L21.7616 63.4142
" />
<path d="M21.7616 64.0794
L21.7616 62.8094
" />
<path d="M23.0317 64.0794
L22.3060 64.0794
" />
<path d="M22.6688 64.0794
L22.6688 62.8094
" />
<path d="M22.6688 62.8094
L22.5479 62.9909
" />
<path d="M22.5479 62.9909
L22.4269 63.1118
" />
<path d="M22.4269 63.1118
L22.3060 63.1723
" />
</g><text x="22.1547" y="66.6749"
textLength="8.7302" font-size="1.6933" lengthAdjust="spacingAndGlyphs"
text-anchor="middle" opacity="0" stroke-opacity="0">10kΩ 1%</text>
<g class="stroked-text"><desc>10kΩ 1%</desc>
<path d="M18.8588 66.6194
L18.1331 66.6194
" />
<path d="M18.4959 66.6194
L18.4959 65.3494
" />
<path d="M18.4959 65.3494
L18.3750 65.5309
" />
<path d="M18.3750 65.5309
L18.2540 65.6518
" />
<path d="M18.2540 65.6518
L18.1331 65.7123
" />
<path d="M19.6449 65.3494
L19.7659 65.3494
" />
<path d="M19.7659 65.3494
L19.8868 65.4099
" />
<path d="M19.8868 65.4099
L19.9473 65.4704
" />
<path d="M19.9473 65.4704
L20.0078 65.5913
" />
<path d="M20.0078 65.5913
L20.0683 65.8332
" />
<path d="M20.0683 65.8332
L20.0683 66.1356
" />
<path d="M20.0683 66.1356
L20.0078 66.3775
" />
<path d="M20.0078 66.3775
L19.9473 66.4985
" />
<path d="M19.9473 66.4985
L19.8868 66.5590
" />
<path d="M19.8868 66.5590
L19.7659 66.6194
" />
<path d="M19.7659 66.6194
L19.6449 66.6194
" />
<path d="M19.6449 66.6194
L19.5240 66.5590
" />
<path d="M19.5240 66.5590
L19.4635 66.4985
" />
<path d="M19.4635 66.4985
L19.4030 66.3775
" />
<path d="M19.4030 66.3775
L19.3426 66.1356
" />
<path d="M19.3426 66.1356
L19.3426 65.8332
" />
<path d="M19.3426 65.8332
L19.4030 65.5913
" />
<path d="M19.4030 65.5913
L19.4635 65.4704
" />
<path d="M19.4635 65.4704
L19.5240 65.4099
" />
<path d="M19.5240 65.4099
L19.6449 65.3494
" />
<path d="M20.6125 66.6194
L20.6125 65.3494
" />
<path d="M20.7335 66.1356
L21.0963 66.6194
" />
<path d="M21.0963 65.7728
L20.6125 66.2566
" />
<path d="M21.5802 66.6194
L21.8825 66.6194
" />
<path d="M21.8825 66.6194
L21.8825 66.3775
" />
<path d="M21.8825 66.3775
L21.7616 66.3170
" />
<path d="M21.7616 66.3170
L21.6406 66.1961
" />
<path d="M21.6406 66.1961
L21.5802 66.0147
" />
<path d="M21.5802 66.0147
L21.5802 65.7123
" />
<path d="M21.5802 65.7123
L21.6406 65.5309
" />
<path d="M21.6406 65.5309
L21.7616 65.4099
" />
<path d="M21.7616 65.4099
L21.9430 65.3494
" />
<path d="M21.9430 65.3494
L22.1849 65.3494
" />
<path d="M22.1849 65.3494
L22.3663 65.4099
" />
<path d="M22.3663 65.4099
L22.4873 65.5309
" />
<path d="M22.4873 65.5309
L22.5478 65.7123
" />
<path d="M22.5478 65.7123
L22.5478 66.0147
" />
<path d="M22.5478 66.0147
L22.4873 66.1961
" />
<path d="M22.4873 66.1961
L22.3663 66.3170
" />
<path d="M22.3663 66.3170
L22.2454 66.3775
" />
<path d="M22.2454 66.3775
L22.2454 66.6194
" />
<path d="M22.2454 66.6194
L22.5478 66.6194
" />
<path d="M24.7249 66.6194
L23.9992 66.6194
" />
<path d="M24.3620 66.6194
L24.3620 65.3494
" />
<path d="M24.3620 65.3494
L24.2411 65.5309
" />
<path d="M24.2411 65.5309
L24.1201 65.6518
" />
<path d="M24.1201 65.6518
L23.9992 65.7123
" />
<path d="M25.2087 66.6194
L26.1763 65.3494
" />
<path d="M25.3901 65.3494
L25.5110 65.4099
" />
<path d="M25.5110 65.4099
L25.5715 65.5309
" />
<path d="M25.5715 65.5309
L25.5110 65.6518
" />
<path d="M25.5110 65.6518
L25.3901 65.7123
" />
<path d="M25.3901 65.7123
L25.2691 65.6518
" />
<path d="M25.2691 65.6518
L25.2087 65.5309
" />
<path d="M25.2087 65.5309
L25.2691 65.4099
" />
<path d="M25.2691 65.4099
L25.3901 65.3494
" />
<path d="M26.1158 66.5590
L26.1763 66.4380
" />
<path d="M26.1763 66.4380
L26.1158 66.3170
" />
<path d="M26.1158 66.3170
L25.9948 66.2566
" />
<path d="M25.9948 66.2566
L25.8739 66.3170
" />
<path d="M25.8739 66.3170
L25.8134 66.4380
" />
<path d="M25.8134 66.4380
L25.8739 66.5590
" />
<path d="M25.8739 66.5590
L25.9948 66.6194
" />
<path d="M25.9948 66.6194
L26.1158 66.5590
" />
</g></g>
<g style="fill:none; 
stroke:#725600; stroke-width:0.1524; stroke-opacity:1; 
stroke-linecap:round; stroke-linejoin:round;">
<text x="97.9805" y="57.7850"
textLength="26.1472" font-size="1.6933" lengthAdjust="spacingAndGlyphs"
text-anchor="start" opacity="0" stroke-opacity="0">~{EXTERNAL_POWER_PRESENT}</text>
<g class="stroked-text"><desc>~{EXTERNAL_POWER_PRESENT}</desc>
<path d="M98.3830 57.0643
L98.8064 57.0643
" />
<path d="M98.9878 57.7295
L98.3830 57.7295
" />
<path d="M98.3830 57.7295
L98.3830 56.4595
" />
<path d="M98.3830 56.4595
L98.9878 56.4595
" />
<path d="M99.4111 56.4595
L100.2577 57.7295
" />
<path d="M100.2577 56.4595
L99.4111 57.7295
" />
<path d="M100.5601 56.4595
L101.2858 56.4595
" />
<path d="M100.9230 57.7295
L100.9230 56.4595
" />
<path d="M101.7091 57.0643
L102.1325 57.0643
" />
<path d="M102.3139 57.7295
L101.7091 57.7295
" />
<path d="M101.7091 57.7295
L101.7091 56.4595
" />
<path d="M101.7091 56.4595
L102.3139 56.4595
" />
<path d="M103.5838 57.7295
L103.1605 57.1248
" />
<path d="M102.8581 57.7295
L102.8581 56.4595
" />
<path d="M102.8581 56.4595
L103.3419 56.4595
" />
<path d="M103.3419 56.4595
L103.4629 56.5200
" />
<path d="M103.4629 56.5200
L103.5234 56.5805
" />
<path d="M103.5234 56.5805
L103.5838 56.7014
" />
<path d="M103.5838 56.7014
L103.5838 56.8829
" />
<path d="M103.5838 56.8829
L103.5234 57.0038
" />
<path d="M103.5234 57.0038
L103.4629 57.0643
" />
<path d="M103.4629 57.0643
L103.3419 57.1248
" />
<path d="M103.3419 57.1248
L102.8581 57.1248
" />
<path d="M104.1281 57.7295
L104.1281 56.4595
" />
<path d="M104.1281 56.4595
L104.8538 57.7295
" />
<path d="M104.8538 57.7295
L104.8538 56.4595
" />
<path d="M105.3982 57.3667
L106.0029 57.3667
" />
<path d="M105.2772 57.7295
L105.7005 56.4595
" />
<path d="M105.7005 56.4595
L106.1239 57.7295
" />
<path d="M107.1520 57.7295
L106.5472 57.7295
" />
<path d="M106.5472 57.7295
L106.5472 56.4595
" />
<path d="M107.2730 57.8505
L108.2406 57.8505
" />
<path d="M108.5429 57.7295
L108.5429 56.4595
" />
<path d="M108.5429 56.4595
L109.0267 56.4595
" />
<path d="M109.0267 56.4595
L109.1477 56.5200
" />
<path d="M109.1477 56.5200
L109.2082 56.5805
" />
<path d="M109.2082 56.5805
L109.2686 56.7014
" />
<path d="M109.2686 56.7014
L109.2686 56.8829
" />
<path d="M109.2686 56.8829
L109.2082 57.0038
" />
<path d="M109.2082 57.0038
L109.1477 57.0643
" />
<path d="M109.1477 57.0643
L109.0267 57.1248
" />
<path d="M109.0267 57.1248
L108.5429 57.1248
" />
<path d="M110.0548 56.4595
L110.2967 56.4595
" />
<path d="M110.2967 56.4595
L110.4177 56.5200
" />
<path d="M110.4177 56.5200
L110.5386 56.6410
" />
<path d="M110.5386 56.6410
L110.5991 56.8829
" />
<path d="M110.5991 56.8829
L110.5991 57.3062
" />
<path d="M110.5991 57.3062
L110.5386 57.5481
" />
<path d="M110.5386 57.5481
L110.4177 57.6691
" />
<path d="M110.4177 57.6691
L110.2967 57.7295
" />
<path d="M110.2967 57.7295
L110.0548 57.7295
" />
<path d="M110.0548 57.7295
L109.9339 57.6691
" />
<path d="M109.9339 57.6691
L109.8129 57.5481
" />
<path d="M109.8129 57.5481
L109.7525 57.3062
" />
<path d="M109.7525 57.3062
L109.7525 56.8829
" />
<path d="M109.7525 56.8829
L109.8129 56.6410
" />
<path d="M109.8129 56.6410
L109.9339 56.5200
" />
<path d="M109.9339 56.5200
L110.0548 56.4595
" />
<path d="M111.0225 56.4595
L111.3249 57.7295
" />
<path d="M111.3249 57.7295
L111.5668 56.8224
" />
<path d="M111.5668 56.8224
L111.8087 57.7295
" />
<path d="M111.8087 57.7295
L112.1111 56.4595
" />
<path d="M112.5948 57.0643
L113.0182 57.0643
" />
<path d="M113.1996 57.7295
L112.5948 57.7295
" />
<path d="M112.5948 57.7295
L112.5948 56.4595
" />
<path d="M112.5948 56.4595
L113.1996 56.4595
" />
<path d="M114.4695 57.7295
L114.0462 57.1248
" />
<path d="M113.7438 57.7295
L113.7438 56.4595
" />
<path d="M113.7438 56.4595
L114.2276 56.4595
" />
<path d="M114.2276 56.4595
L114.3486 56.5200
" />
<path d="M114.3486 56.5200
L114.4091 56.5805
" />
<path d="M114.4091 56.5805
L114.4695 56.7014
" />
<path d="M114.4695 56.7014
L114.4695 56.8829
" />
<path d="M114.4695 56.8829
L114.4091 57.0038
" />
<path d="M114.4091 57.0038
L114.3486 57.0643
" />
<path d="M114.3486 57.0643
L114.2276 57.1248
" />
<path d="M114.2276 57.1248
L113.7438 57.1248
" />
<path d="M114.7115 57.8505
L115.6791 57.8505
" />
<path d="M115.9814 57.7295
L115.9814 56.4595
" />
<path d="M115.9814 56.4595
L116.4652 56.4595
" />
<path d="M116.4652 56.4595
L116.5862 56.5200
" />
<path d="M116.5862 56.5200
L116.6467 56.5805
" />
<path d="M116.6467 56.5805
L116.7071 56.7014
" />
<path d="M116.7071 56.7014
L116.7071 56.8829
" />
<path d="M116.7071 56.8829
L116.6467 57.0038
" />
<path d="M116.6467 57.0038
L116.5862 57.0643
" />
<path d="M116.5862 57.0643
L116.4652 57.1248
" />
<path d="M116.4652 57.1248
L115.9814 57.1248
" />
<path d="M117.9771 57.7295
L117.5538 57.1248
" />
<path d="M117.2514 57.7295
L117.2514 56.4595
" />
<path d="M117.2514 56.4595
L117.7352 56.4595
" />
<path d="M117.7352 56.4595
L117.8562 56.5200
" />
<path d="M117.8562 56.5200
L117.9167 56.5805
" />
<path d="M117.9167 56.5805
L117.9771 56.7014
" />
<path d="M117.9771 56.7014
L117.9771 56.8829
" />
<path d="M117.9771 56.8829
L117.9167 57.0038
" />
<path d="M117.9167 57.0038
L117.8562 57.0643
" />
<path d="M117.8562 57.0643
L117.7352 57.1248
" />
<path d="M117.7352 57.1248
L117.2514 57.1248
" />
<path d="M118.5214 57.0643
L118.9448 57.0643
" />
<path d="M119.1262 57.7295
L118.5214 57.7295
" />
<path d="M118.5214 57.7295
L118.5214 56.4595
" />
<path d="M118.5214 56.4595
L119.1262 56.4595
" />
<path d="M119.6100 57.6691
L119.7914 57.7295
" />
<path d="M119.7914 57.7295
L120.0938 57.7295
" />
<path d="M120.0938 57.7295
L120.2147 57.6691
" />
<path d="M120.2147 57.6691
L120.2752 57.6086
" />
<path d="M120.2752 57.6086
L120.3357 57.4876
" />
<path d="M120.3357 57.4876
L120.3357 57.3667
" />
<path d="M120.3357 57.3667
L120.2752 57.2457
" />
<path d="M120.2752 57.2457
L120.2147 57.1852
" />
<path d="M120.2147 57.1852
L120.0938 57.1248
" />
<path d="M120.0938 57.1248
L119.8519 57.0643
" />
<path d="M119.8519 57.0643
L119.7309 57.0038
" />
<path d="M119.7309 57.0038
L119.6704 56.9433
" />
<path d="M119.6704 56.9433
L119.6100 56.8224
" />
<path d="M119.6100 56.8224
L119.6100 56.7014
" />
<path d="M119.6100 56.7014
L119.6704 56.5805
" />
<path d="M119.6704 56.5805
L119.7309 56.5200
" />
<path d="M119.7309 56.5200
L119.8519 56.4595
" />
<path d="M119.8519 56.4595
L120.1542 56.4595
" />
<path d="M120.1542 56.4595
L120.3357 56.5200
" />
<path d="M120.8799 57.0643
L121.3033 57.0643
" />
<path d="M121.4847 57.7295
L120.8799 57.7295
" />
<path d="M120.8799 57.7295
L120.8799 56.4595
" />
<path d="M120.8799 56.4595
L121.4847 56.4595
" />
<path d="M122.0289 57.7295
L122.0289 56.4595
" />
<path d="M122.0289 56.4595
L122.7546 57.7295
" />
<path d="M122.7546 57.7295
L122.7546 56.4595
" />
<path d="M123.1780 56.4595
L123.9037 56.4595
" />
<path d="M123.5409 57.7295
L123.5409 56.4595
" />
<path d="M98.2077 56.1070
L123.8977 56.1070
" />
</g><path style="fill:none; 
stroke:#725600; stroke-width:0.1524; stroke-opacity:1; 
stroke-linecap:round; stroke-linejoin:round;fill:none"
d="M 97.7900,57.1500
97.1550,56.5150
96.5200,56.5150
96.5200,57.7850
97.1550,57.7850
Z" /> 
</g>
<g style="fill:none; 
stroke:#725600; stroke-width:0.1524; stroke-opacity:1; 
stroke-linecap:round; stroke-linejoin:round;">
<text x="97.9805" y="67.9450"
textLength="15.3222" font-size="1.6933" lengthAdjust="spacingAndGlyphs"
text-anchor="start" opacity="0" stroke-opacity="0">CHARGE_STATUS</text>
<g class="stroked-text"><desc>CHARGE_STATUS</desc>
<path d="M99.1087 67.7686
L99.0483 67.8291
" />
<path d="M99.0483 67.8291
L98.8668 67.8895
" />
<path d="M98.8668 67.8895
L98.7459 67.8895
" />
<path d="M98.7459 67.8895
L98.5645 67.8291
" />
<path d="M98.5645 67.8291
L98.4435 67.7081
" />
<path d="M98.4435 67.7081
L98.3830 67.5871
" />
<path d="M98.3830 67.5871
L98.3226 67.3452
" />
<path d="M98.3226 67.3452
L98.3226 67.1638
" />
<path d="M98.3226 67.1638
L98.3830 66.9219
" />
<path d="M98.3830 66.9219
L98.4435 66.8010
" />
<path d="M98.4435 66.8010
L98.5645 66.6800
" />
<path d="M98.5645 66.6800
L98.7459 66.6195
" />
<path d="M98.7459 66.6195
L98.8668 66.6195
" />
<path d="M98.8668 66.6195
L99.0483 66.6800
" />
<path d="M99.0483 66.6800
L99.1087 66.7405
" />
<path d="M99.6530 67.8895
L99.6530 66.6195
" />
<path d="M99.6530 67.2243
L100.3787 67.2243
" />
<path d="M100.3787 67.8895
L100.3787 66.6195
" />
<path d="M100.9231 67.5267
L101.5278 67.5267
" />
<path d="M100.8021 67.8895
L101.2254 66.6195
" />
<path d="M101.2254 66.6195
L101.6488 67.8895
" />
<path d="M102.7978 67.8895
L102.3745 67.2848
" />
<path d="M102.0721 67.8895
L102.0721 66.6195
" />
<path d="M102.0721 66.6195
L102.5559 66.6195
" />
<path d="M102.5559 66.6195
L102.6769 66.6800
" />
<path d="M102.6769 66.6800
L102.7374 66.7405
" />
<path d="M102.7374 66.7405
L102.7978 66.8614
" />
<path d="M102.7978 66.8614
L102.7978 67.0429
" />
<path d="M102.7978 67.0429
L102.7374 67.1638
" />
<path d="M102.7374 67.1638
L102.6769 67.2243
" />
<path d="M102.6769 67.2243
L102.5559 67.2848
" />
<path d="M102.5559 67.2848
L102.0721 67.2848
" />
<path d="M104.0074 66.6800
L103.8864 66.6195
" />
<path d="M103.8864 66.6195
L103.7050 66.6195
" />
<path d="M103.7050 66.6195
L103.5236 66.6800
" />
<path d="M103.5236 66.6800
L103.4026 66.8010
" />
<path d="M103.4026 66.8010
L103.3421 66.9219
" />
<path d="M103.3421 66.9219
L103.2817 67.1638
" />
<path d="M103.2817 67.1638
L103.2817 67.3452
" />
<path d="M103.2817 67.3452
L103.3421 67.5871
" />
<path d="M103.3421 67.5871
L103.4026 67.7081
" />
<path d="M103.4026 67.7081
L103.5236 67.8291
" />
<path d="M103.5236 67.8291
L103.7050 67.8895
" />
<path d="M103.7050 67.8895
L103.8259 67.8895
" />
<path d="M103.8259 67.8895
L104.0074 67.8291
" />
<path d="M104.0074 67.8291
L104.0678 67.7686
" />
<path d="M104.0678 67.7686
L104.0678 67.3452
" />
<path d="M104.0678 67.3452
L103.8259 67.3452
" />
<path d="M104.6121 67.2243
L105.0355 67.2243
" />
<path d="M105.2169 67.8895
L104.6121 67.8895
" />
<path d="M104.6121 67.8895
L104.6121 66.6195
" />
<path d="M104.6121 66.6195
L105.2169 66.6195
" />
<path d="M105.4588 68.0105
L106.4264 68.0105
" />
<path d="M106.6683 67.8291
L106.8497 67.8895
" />
<path d="M106.8497 67.8895
L107.1521 67.8895
" />
<path d="M107.1521 67.8895
L107.2730 67.8291
" />
<path d="M107.2730 67.8291
L107.3335 67.7686
" />
<path d="M107.3335 67.7686
L107.3940 67.6476
" />
<path d="M107.3940 67.6476
L107.3940 67.5267
" />
<path d="M107.3940 67.5267
L107.3335 67.4057
" />
<path d="M107.3335 67.4057
L107.2730 67.3452
" />
<path d="M107.2730 67.3452
L107.1521 67.2848
" />
<path d="M107.1521 67.2848
L106.9102 67.2243
" />
<path d="M106.9102 67.2243
L106.7892 67.1638
" />
<path d="M106.7892 67.1638
L106.7287 67.1033
" />
<path d="M106.7287 67.1033
L106.6683 66.9824
" />
<path d="M106.6683 66.9824
L106.6683 66.8614
" />
<path d="M106.6683 66.8614
L106.7287 66.7405
" />
<path d="M106.7287 66.7405
L106.7892 66.6800
" />
<path d="M106.7892 66.6800
L106.9102 66.6195
" />
<path d="M106.9102 66.6195
L107.2125 66.6195
" />
<path d="M107.2125 66.6195
L107.3940 66.6800
" />
<path d="M107.7568 66.6195
L108.4825 66.6195
" />
<path d="M108.1197 67.8895
L108.1197 66.6195
" />
<path d="M108.8454 67.5267
L109.4501 67.5267
" />
<path d="M108.7244 67.8895
L109.1477 66.6195
" />
<path d="M109.1477 66.6195
L109.5711 67.8895
" />
<path d="M109.8130 66.6195
L110.5387 66.6195
" />
<path d="M110.1759 67.8895
L110.1759 66.6195
" />
<path d="M110.9620 66.6195
L110.9620 67.6476
" />
<path d="M110.9620 67.6476
L111.0225 67.7686
" />
<path d="M111.0225 67.7686
L111.0830 67.8291
" />
<path d="M111.0830 67.8291
L111.2039 67.8895
" />
<path d="M111.2039 67.8895
L111.4458 67.8895
" />
<path d="M111.4458 67.8895
L111.5668 67.8291
" />
<path d="M111.5668 67.8291
L111.6273 67.7686
" />
<path d="M111.6273 67.7686
L111.6877 67.6476
" />
<path d="M111.6877 67.6476
L111.6877 66.6195
" />
<path d="M112.2321 67.8291
L112.4135 67.8895
" />
<path d="M112.4135 67.8895
L112.7159 67.8895
" />
<path d="M112.7159 67.8895
L112.8368 67.8291
" />
<path d="M112.8368 67.8291
L112.8973 67.7686
" />
<path d="M112.8973 67.7686
L112.9578 67.6476
" />
<path d="M112.9578 67.6476
L112.9578 67.5267
" />
<path d="M112.9578 67.5267
L112.8973 67.4057
" />
<path d="M112.8973 67.4057
L112.8368 67.3452
" />
<path d="M112.8368 67.3452
L112.7159 67.2848
" />
<path d="M112.7159 67.2848
L112.4740 67.2243
" />
<path d="M112.4740 67.2243
L112.3530 67.1638
" />
<path d="M112.3530 67.1638
L112.2925 67.1033
" />
<path d="M112.2925 67.1033
L112.2321 66.9824
" />
<path d="M112.2321 66.9824
L112.2321 66.8614
" />
<path d="M112.2321 66.8614
L112.2925 66.7405
" />
<path d="M112.2925 66.7405
L112.3530 66.6800
" />
<path d="M112.3530 66.6800
L112.4740 66.6195
" />
<path d="M112.4740 66.6195
L112.7763 66.6195
" />
<path d="M112.7763 66.6195
L112.9578 66.6800
" />
</g><path style="fill:none; 
stroke:#725600; stroke-width:0.1524; stroke-opacity:1; 
stroke-linecap:round; stroke-linejoin:round;fill:none"
d="M 97.7900,67.3100
97.1550,66.6750
96.5200,66.6750
96.5200,67.9450
97.1550,67.9450
Z" /> 
</g>
<g style="fill:none; 
stroke:#725600; stroke-width:0.1524; stroke-opacity:1; 
stroke-linecap:round; stroke-linejoin:round;">
<text x="23.9395" y="13.3350"
textLength="10.0608" font-size="1.6933" lengthAdjust="spacingAndGlyphs"
text-anchor="end" opacity="0" stroke-opacity="0">SUPERCAP</text>
<g class="stroked-text"><desc>SUPERCAP</desc>
<path d="M14.2236 13.2191
L14.4050 13.2795
" />
<path d="M14.4050 13.2795
L14.7074 13.2795
" />
<path d="M14.7074 13.2795
L14.8283 13.2191
" />
<path d="M14.8283 13.2191
L14.8888 13.1586
" />
<path d="M14.8888 13.1586
L14.9493 13.0376
" />
<path d="M14.9493 13.0376
L14.9493 12.9167
" />
<path d="M14.9493 12.9167
L14.8888 12.7957
" />
<path d="M14.8888 12.7957
L14.8283 12.7352
" />
<path d="M14.8283 12.7352
L14.7074 12.6748
" />
<path d="M14.7074 12.6748
L14.4655 12.6143
" />
<path d="M14.4655 12.6143
L14.3445 12.5538
" />
<path d="M14.3445 12.5538
L14.2840 12.4933
" />
<path d="M14.2840 12.4933
L14.2236 12.3724
" />
<path d="M14.2236 12.3724
L14.2236 12.2514
" />
<path d="M14.2236 12.2514
L14.2840 12.1305
" />
<path d="M14.2840 12.1305
L14.3445 12.0700
" />
<path d="M14.3445 12.0700
L14.4655 12.0095
" />
<path d="M14.4655 12.0095
L14.7678 12.0095
" />
<path d="M14.7678 12.0095
L14.9493 12.0700
" />
<path d="M15.4935 12.0095
L15.4935 13.0376
" />
<path d="M15.4935 13.0376
L15.5540 13.1586
" />
<path d="M15.5540 13.1586
L15.6145 13.2191
" />
<path d="M15.6145 13.2191
L15.7354 13.2795
" />
<path d="M15.7354 13.2795
L15.9773 13.2795
" />
<path d="M15.9773 13.2795
L16.0983 13.2191
" />
<path d="M16.0983 13.2191
L16.1588 13.1586
" />
<path d="M16.1588 13.1586
L16.2192 13.0376
" />
<path d="M16.2192 13.0376
L16.2192 12.0095
" />
<path d="M16.8240 13.2795
L16.8240 12.0095
" />
<path d="M16.8240 12.0095
L17.3078 12.0095
" />
<path d="M17.3078 12.0095
L17.4288 12.0700
" />
<path d="M17.4288 12.0700
L17.4893 12.1305
" />
<path d="M17.4893 12.1305
L17.5497 12.2514
" />
<path d="M17.5497 12.2514
L17.5497 12.4329
" />
<path d="M17.5497 12.4329
L17.4893 12.5538
" />
<path d="M17.4893 12.5538
L17.4288 12.6143
" />
<path d="M17.4288 12.6143
L17.3078 12.6748
" />
<path d="M17.3078 12.6748
L16.8240 12.6748
" />
<path d="M18.0940 12.6143
L18.5174 12.6143
" />
<path d="M18.6988 13.2795
L18.0940 13.2795
" />
<path d="M18.0940 13.2795
L18.0940 12.0095
" />
<path d="M18.0940 12.0095
L18.6988 12.0095
" />
<path d="M19.9687 13.2795
L19.5454 12.6748
" />
<path d="M19.2430 13.2795
L19.2430 12.0095
" />
<path d="M19.2430 12.0095
L19.7268 12.0095
" />
<path d="M19.7268 12.0095
L19.8478 12.0700
" />
<path d="M19.8478 12.0700
L19.9083 12.1305
" />
<path d="M19.9083 12.1305
L19.9687 12.2514
" />
<path d="M19.9687 12.2514
L19.9687 12.4329
" />
<path d="M19.9687 12.4329
L19.9083 12.5538
" />
<path d="M19.9083 12.5538
L19.8478 12.6143
" />
<path d="M19.8478 12.6143
L19.7268 12.6748
" />
<path d="M19.7268 12.6748
L19.2430 12.6748
" />
<path d="M21.2387 13.1586
L21.1783 13.2191
" />
<path d="M21.1783 13.2191
L20.9968 13.2795
" />
<path d="M20.9968 13.2795
L20.8759 13.2795
" />
<path d="M20.8759 13.2795
L20.6945 13.2191
" />
<path d="M20.6945 13.2191
L20.5735 13.0981
" />
<path d="M20.5735 13.0981
L20.5130 12.9771
" />
<path d="M20.5130 12.9771
L20.4526 12.7352
" />
<path d="M20.4526 12.7352
L20.4526 12.5538
" />
<path d="M20.4526 12.5538
L20.5130 12.3119
" />
<path d="M20.5130 12.3119
L20.5735 12.1910
" />
<path d="M20.5735 12.1910
L20.6945 12.0700
" />
<path d="M20.6945 12.0700
L20.8759 12.0095
" />
<path d="M20.8759 12.0095
L20.9968 12.0095
" />
<path d="M20.9968 12.0095
L21.1783 12.0700
" />
<path d="M21.1783 12.0700
L21.2387 12.1305
" />
<path d="M21.7226 12.9167
L22.3273 12.9167
" />
<path d="M21.6016 13.2795
L22.0249 12.0095
" />
<path d="M22.0249 12.0095
L22.4483 13.2795
" />
<path d="M22.8716 13.2795
L22.8716 12.0095
" />
<path d="M22.8716 12.0095
L23.3554 12.0095
" />
<path d="M23.3554 12.0095
L23.4764 12.0700
" />
<path d="M23.4764 12.0700
L23.5369 12.1305
" />
<path d="M23.5369 12.1305
L23.5973 12.2514
" />
<path d="M23.5973 12.2514
L23.5973 12.4329
" />
<path d="M23.5973 12.4329
L23.5369 12.5538
" />
<path d="M23.5369 12.5538
L23.4764 12.6143
" />
<path d="M23.4764 12.6143
L23.3554 12.6748
" />
<path d="M23.3554 12.6748
L22.8716 12.6748
" />
</g><path style="fill:none; 
stroke:#725600; stroke-width:0.1524; stroke-opacity:1; 
stroke-linecap:round; stroke-linejoin:round;fill:none"
d="M 25.4000,12.0650
24.1300,12.0650
24.1300,13.3350
25.4000,13.3350
Z" /> 
</g>
<g style="fill:none; 
stroke:#009600; stroke-width:0.1524; stroke-opacity:1; 
stroke-linecap:round; stroke-linejoin:round;">
<path d="M104.1400 69.8500
L92.7100 69.8500
" />
<path d="M104.1400 88.9000
L104.1400 69.8500
" />
<path d="M92.7100 67.3100
L96.5200 67.3100
" />
<path d="M96.5200 46.9900
L92.7100 46.9900
" />
<path d="M92.7100 57.1500
L96.5200 57.1500
" />
<path d="M41.9100 88.9000
L104.1400 88.9000
" />
<path d="M41.9100 57.1500
L41.9100 88.9000
" />
<path d="M57.1500 57.1500
L41.9100 57.1500
" />
<path d="M92.7100 80.0100
L95.2500 80.0100
" />
</g> 
</svg>
