<?xml version="1.0" standalone="no"?>
 <!DOCTYPE svg PUBLIC "-//W3C//DTD SVG 1.1//EN" 
 "http://www.w3.org/Graphics/SVG/1.1/DTD/svg11.dtd"> 
<svg
  xmlns:svg="http://www.w3.org/2000/svg"
  xmlns="http://www.w3.org/2000/svg"
  xmlns:xlink="http://www.w3.org/1999/xlink"
  version="1.1"
  width="297.0022mm" height="210.0072mm" viewBox="0.0000 0.0000 297.0022 210.0072">

  <desc>Image generated by Eeschema-SVG </desc>
<g style="fill:#000000; fill-opacity:1.0000;stroke:#000000; stroke-opacity:1.0000;
stroke-linecap:round; stroke-linejoin:round;"
 transform="translate(0 0) scale(1 1)">
<path style="fill:none; 
stroke:#840000; stroke-width:0.1524; stroke-opacity:1; 
stroke-linecap:round; stroke-linejoin:round;fill:none"
d="M 44.4500,67.3100
44.4500,68.5800
45.7200,68.5800
44.4500,69.8500
43.1800,68.5800
44.4500,68.5800
" /> 
</g>
<g style="fill:none; 
stroke:#840000; stroke-width:0.1524; stroke-opacity:1; 
stroke-linecap:round; stroke-linejoin:round;">
<path d="M44.4500 67.3100
L44.4500 67.3100
" />
</g>
<g style="fill:none; 
stroke:#006464; stroke-width:0.1524; stroke-opacity:1; 
stroke-linecap:round; stroke-linejoin:round;">
<text x="44.4500" y="73.0250"
textLength="4.0737" font-size="1.6933" lengthAdjust="spacingAndGlyphs"
text-anchor="middle" opacity="0" stroke-opacity="0">GND</text>
<g class="stroked-text"><desc>GND</desc>
<path d="M43.4824 71.7600
L43.3614 71.6995
" />
<path d="M43.3614 71.6995
L43.1800 71.6995
" />
<path d="M43.1800 71.6995
L42.9986 71.7600
" />
<path d="M42.9986 71.7600
L42.8776 71.8810
" />
<path d="M42.8776 71.8810
L42.8171 72.0019
" />
<path d="M42.8171 72.0019
L42.7567 72.2438
" />
<path d="M42.7567 72.2438
L42.7567 72.4252
" />
<path d="M42.7567 72.4252
L42.8171 72.6671
" />
<path d="M42.8171 72.6671
L42.8776 72.7881
" />
<path d="M42.8776 72.7881
L42.9986 72.9091
" />
<path d="M42.9986 72.9091
L43.1800 72.9695
" />
<path d="M43.1800 72.9695
L43.3009 72.9695
" />
<path d="M43.3009 72.9695
L43.4824 72.9091
" />
<path d="M43.4824 72.9091
L43.5428 72.8486
" />
<path d="M43.5428 72.8486
L43.5428 72.4252
" />
<path d="M43.5428 72.4252
L43.3009 72.4252
" />
<path d="M44.0871 72.9695
L44.0871 71.6995
" />
<path d="M44.0871 71.6995
L44.8128 72.9695
" />
<path d="M44.8128 72.9695
L44.8128 71.6995
" />
<path d="M45.4176 72.9695
L45.4176 71.6995
" />
<path d="M45.4176 71.6995
L45.7200 71.6995
" />
<path d="M45.7200 71.6995
L45.9014 71.7600
" />
<path d="M45.9014 71.7600
L46.0224 71.8810
" />
<path d="M46.0224 71.8810
L46.0829 72.0019
" />
<path d="M46.0829 72.0019
L46.1433 72.2438
" />
<path d="M46.1433 72.2438
L46.1433 72.4252
" />
<path d="M46.1433 72.4252
L46.0829 72.6671
" />
<path d="M46.0829 72.6671
L46.0224 72.7881
" />
<path d="M46.0224 72.7881
L45.9014 72.9091
" />
<path d="M45.9014 72.9091
L45.7200 72.9695
" />
<path d="M45.7200 72.9695
L45.4176 72.9695
" />
</g><path style="fill:none; 
stroke:#840000; stroke-width:0.1524; stroke-opacity:1; 
stroke-linecap:round; stroke-linejoin:round;fill:none"
d="M 44.4500,62.2300
43.1800,62.2300
42.5450,63.2460
41.9100,62.2300
42.5450,61.2140
43.1800,62.2300
" /> 
</g>
<g style="fill:none; 
stroke:#840000; stroke-width:0.1524; stroke-opacity:1; 
stroke-linecap:round; stroke-linejoin:round;">
<path d="M44.4500 62.2300
L44.4500 62.2300
" />
</g>
<g style="fill:none; 
stroke:#006464; stroke-width:0.1524; stroke-opacity:1; 
stroke-linecap:round; stroke-linejoin:round;">
<g transform="rotate(-90.000000 39.3700 62.2299)">
<text x="39.3700" y="62.8649"
textLength="9.6375" font-size="1.6933" lengthAdjust="spacingAndGlyphs"
text-anchor="middle" opacity="0" stroke-opacity="0">PWR_FLAG</text>
</g>
<g class="stroked-text"><desc>PWR_FLAG</desc>
<path d="M39.9495 66.6446
L38.6795 66.6446
" />
<path d="M38.6795 66.6446
L38.6795 66.1608
" />
<path d="M38.6795 66.1608
L38.7400 66.0398
" />
<path d="M38.7400 66.0398
L38.8005 65.9793
" />
<path d="M38.8005 65.9793
L38.9214 65.9189
" />
<path d="M38.9214 65.9189
L39.1029 65.9189
" />
<path d="M39.1029 65.9189
L39.2238 65.9793
" />
<path d="M39.2238 65.9793
L39.2843 66.0398
" />
<path d="M39.2843 66.0398
L39.3448 66.1608
" />
<path d="M39.3448 66.1608
L39.3448 66.6446
" />
<path d="M38.6795 65.4955
L39.9495 65.1931
" />
<path d="M39.9495 65.1931
L39.0424 64.9512
" />
<path d="M39.0424 64.9512
L39.9495 64.7093
" />
<path d="M39.9495 64.7093
L38.6795 64.4070
" />
<path d="M39.9495 63.1975
L39.3448 63.6208
" />
<path d="M39.9495 63.9232
L38.6795 63.9232
" />
<path d="M38.6795 63.9232
L38.6795 63.4394
" />
<path d="M38.6795 63.4394
L38.7400 63.3184
" />
<path d="M38.7400 63.3184
L38.8005 63.2579
" />
<path d="M38.8005 63.2579
L38.9214 63.1975
" />
<path d="M38.9214 63.1975
L39.1029 63.1975
" />
<path d="M39.1029 63.1975
L39.2238 63.2579
" />
<path d="M39.2238 63.2579
L39.2843 63.3184
" />
<path d="M39.2843 63.3184
L39.3448 63.4394
" />
<path d="M39.3448 63.4394
L39.3448 63.9232
" />
<path d="M40.0705 62.9556
L40.0705 61.9879
" />
<path d="M39.2843 61.2622
L39.2843 61.6856
" />
<path d="M39.9495 61.6856
L38.6795 61.6856
" />
<path d="M38.6795 61.6856
L38.6795 61.0808
" />
<path d="M39.9495 59.9922
L39.9495 60.5970
" />
<path d="M39.9495 60.5970
L38.6795 60.5970
" />
<path d="M39.5867 59.6293
L39.5867 59.0246
" />
<path d="M39.9495 59.7503
L38.6795 59.3270
" />
<path d="M38.6795 59.3270
L39.9495 58.9036
" />
<path d="M38.7400 57.8150
L38.6795 57.9360
" />
<path d="M38.6795 57.9360
L38.6795 58.1174
" />
<path d="M38.6795 58.1174
L38.7400 58.2988
" />
<path d="M38.7400 58.2988
L38.8610 58.4198
" />
<path d="M38.8610 58.4198
L38.9819 58.4803
" />
<path d="M38.9819 58.4803
L39.2238 58.5407
" />
<path d="M39.2238 58.5407
L39.4052 58.5407
" />
<path d="M39.4052 58.5407
L39.6471 58.4803
" />
<path d="M39.6471 58.4803
L39.7681 58.4198
" />
<path d="M39.7681 58.4198
L39.8891 58.2988
" />
<path d="M39.8891 58.2988
L39.9495 58.1174
" />
<path d="M39.9495 58.1174
L39.9495 57.9965
" />
<path d="M39.9495 57.9965
L39.8891 57.8150
" />
<path d="M39.8891 57.8150
L39.8286 57.7546
" />
<path d="M39.8286 57.7546
L39.4052 57.7546
" />
<path d="M39.4052 57.7546
L39.4052 57.9965
" />
</g></g>
<g style="fill:#840000; fill-opacity:1.0000; 
stroke:#840000; stroke-width:0.1524; stroke-opacity:1; 
stroke-linecap:round; stroke-linejoin:round;">
<rect x="39.370000" y="17.653000" width="0.863600" height="0.254000" rx="0.000000" />
<rect x="39.370000" y="20.193000" width="0.863600" height="0.254000" rx="0.000000" />
<path style="fill:none; 
stroke:#840000; stroke-width:0.1524; stroke-opacity:1; 
stroke-linecap:round; stroke-linejoin:round;fill:none"
d="M 40.6400,17.7800
40.2336,17.7800
" /> 
<path style="fill:none; 
stroke:#840000; stroke-width:0.1524; stroke-opacity:1; 
stroke-linecap:round; stroke-linejoin:round;fill:none"
d="M 40.6400,20.3200
40.2336,20.3200
" /> 
</g>
<g style="fill:none; 
stroke:#840000; stroke-width:0.1524; stroke-opacity:1; 
stroke-linecap:round; stroke-linejoin:round;">
<path d="M40.6400 17.7800
L44.4500 17.7800
" />
</g>
<g style="fill:none; 
stroke:#A90000; stroke-width:0.1524; stroke-opacity:1; 
stroke-linecap:round; stroke-linejoin:round;">
<text x="42.5450" y="17.5260"
textLength="1.4127" font-size="1.6933" lengthAdjust="spacingAndGlyphs"
text-anchor="middle" opacity="0" stroke-opacity="0">1</text>
<g class="stroked-text"><desc>1</desc>
<path d="M42.9079 17.3625
L42.1822 17.3625
" />
<path d="M42.5450 17.3625
L42.5450 16.0925
" />
<path d="M42.5450 16.0925
L42.4241 16.2740
" />
<path d="M42.4241 16.2740
L42.3031 16.3949
" />
<path d="M42.3031 16.3949
L42.1822 16.4554
" />
</g></g>
<g style="fill:none; 
stroke:#840000; stroke-width:0.1524; stroke-opacity:1; 
stroke-linecap:round; stroke-linejoin:round;">
<path d="M40.6400 20.3200
L44.4500 20.3200
" />
</g>
<g style="fill:none; 
stroke:#A90000; stroke-width:0.1524; stroke-opacity:1; 
stroke-linecap:round; stroke-linejoin:round;">
<text x="42.5450" y="20.0660"
textLength="1.4127" font-size="1.6933" lengthAdjust="spacingAndGlyphs"
text-anchor="middle" opacity="0" stroke-opacity="0">2</text>
<g class="stroked-text"><desc>2</desc>
<path d="M42.1822 18.7535
L42.2426 18.6930
" />
<path d="M42.2426 18.6930
L42.3636 18.6325
" />
<path d="M42.3636 18.6325
L42.6660 18.6325
" />
<path d="M42.6660 18.6325
L42.7869 18.6930
" />
<path d="M42.7869 18.6930
L42.8474 18.7535
" />
<path d="M42.8474 18.7535
L42.9079 18.8744
" />
<path d="M42.9079 18.8744
L42.9079 18.9954
" />
<path d="M42.9079 18.9954
L42.8474 19.1768
" />
<path d="M42.8474 19.1768
L42.1217 19.9025
" />
<path d="M42.1217 19.9025
L42.9079 19.9025
" />
</g></g>
<g style="fill:none; 
stroke:#006464; stroke-width:0.1524; stroke-opacity:1; 
stroke-linecap:round; stroke-linejoin:round;">
<text x="40.0050" y="13.3350"
textLength="2.3803" font-size="1.6933" lengthAdjust="spacingAndGlyphs"
text-anchor="middle" opacity="0" stroke-opacity="0">J1</text>
<g class="stroked-text"><desc>J1</desc>
<path d="M39.5817 12.0095
L39.5817 12.9167
" />
<path d="M39.5817 12.9167
L39.5212 13.0981
" />
<path d="M39.5212 13.0981
L39.4003 13.2191
" />
<path d="M39.4003 13.2191
L39.2188 13.2795
" />
<path d="M39.2188 13.2795
L39.0979 13.2795
" />
<path d="M40.8517 13.2795
L40.1260 13.2795
" />
<path d="M40.4888 13.2795
L40.4888 12.0095
" />
<path d="M40.4888 12.0095
L40.3679 12.1910
" />
<path d="M40.3679 12.1910
L40.2469 12.3119
" />
<path d="M40.2469 12.3119
L40.1260 12.3724
" />
</g><text x="40.0050" y="15.8750"
textLength="11.8751" font-size="1.6933" lengthAdjust="spacingAndGlyphs"
text-anchor="middle" opacity="0" stroke-opacity="0">POWER-OUT</text>
<g class="stroked-text"><desc>POWER-OUT</desc>
<path d="M34.4714 15.8195
L34.4714 14.5495
" />
<path d="M34.4714 14.5495
L34.9552 14.5495
" />
<path d="M34.9552 14.5495
L35.0762 14.6100
" />
<path d="M35.0762 14.6100
L35.1367 14.6705
" />
<path d="M35.1367 14.6705
L35.1971 14.7914
" />
<path d="M35.1971 14.7914
L35.1971 14.9729
" />
<path d="M35.1971 14.9729
L35.1367 15.0938
" />
<path d="M35.1367 15.0938
L35.0762 15.1543
" />
<path d="M35.0762 15.1543
L34.9552 15.2148
" />
<path d="M34.9552 15.2148
L34.4714 15.2148
" />
<path d="M35.9833 14.5495
L36.2252 14.5495
" />
<path d="M36.2252 14.5495
L36.3462 14.6100
" />
<path d="M36.3462 14.6100
L36.4671 14.7310
" />
<path d="M36.4671 14.7310
L36.5276 14.9729
" />
<path d="M36.5276 14.9729
L36.5276 15.3962
" />
<path d="M36.5276 15.3962
L36.4671 15.6381
" />
<path d="M36.4671 15.6381
L36.3462 15.7591
" />
<path d="M36.3462 15.7591
L36.2252 15.8195
" />
<path d="M36.2252 15.8195
L35.9833 15.8195
" />
<path d="M35.9833 15.8195
L35.8624 15.7591
" />
<path d="M35.8624 15.7591
L35.7414 15.6381
" />
<path d="M35.7414 15.6381
L35.6810 15.3962
" />
<path d="M35.6810 15.3962
L35.6810 14.9729
" />
<path d="M35.6810 14.9729
L35.7414 14.7310
" />
<path d="M35.7414 14.7310
L35.8624 14.6100
" />
<path d="M35.8624 14.6100
L35.9833 14.5495
" />
<path d="M36.9510 14.5495
L37.2534 15.8195
" />
<path d="M37.2534 15.8195
L37.4953 14.9124
" />
<path d="M37.4953 14.9124
L37.7372 15.8195
" />
<path d="M37.7372 15.8195
L38.0396 14.5495
" />
<path d="M38.5233 15.1543
L38.9467 15.1543
" />
<path d="M39.1281 15.8195
L38.5233 15.8195
" />
<path d="M38.5233 15.8195
L38.5233 14.5495
" />
<path d="M38.5233 14.5495
L39.1281 14.5495
" />
<path d="M40.3980 15.8195
L39.9747 15.2148
" />
<path d="M39.6723 15.8195
L39.6723 14.5495
" />
<path d="M39.6723 14.5495
L40.1561 14.5495
" />
<path d="M40.1561 14.5495
L40.2771 14.6100
" />
<path d="M40.2771 14.6100
L40.3376 14.6705
" />
<path d="M40.3376 14.6705
L40.3980 14.7914
" />
<path d="M40.3980 14.7914
L40.3980 14.9729
" />
<path d="M40.3980 14.9729
L40.3376 15.0938
" />
<path d="M40.3376 15.0938
L40.2771 15.1543
" />
<path d="M40.2771 15.1543
L40.1561 15.2148
" />
<path d="M40.1561 15.2148
L39.6723 15.2148
" />
<path d="M40.9423 15.3357
L41.9100 15.3357
" />
<path d="M42.7566 14.5495
L42.9985 14.5495
" />
<path d="M42.9985 14.5495
L43.1195 14.6100
" />
<path d="M43.1195 14.6100
L43.2404 14.7310
" />
<path d="M43.2404 14.7310
L43.3009 14.9729
" />
<path d="M43.3009 14.9729
L43.3009 15.3962
" />
<path d="M43.3009 15.3962
L43.2404 15.6381
" />
<path d="M43.2404 15.6381
L43.1195 15.7591
" />
<path d="M43.1195 15.7591
L42.9985 15.8195
" />
<path d="M42.9985 15.8195
L42.7566 15.8195
" />
<path d="M42.7566 15.8195
L42.6357 15.7591
" />
<path d="M42.6357 15.7591
L42.5147 15.6381
" />
<path d="M42.5147 15.6381
L42.4543 15.3962
" />
<path d="M42.4543 15.3962
L42.4543 14.9729
" />
<path d="M42.4543 14.9729
L42.5147 14.7310
" />
<path d="M42.5147 14.7310
L42.6357 14.6100
" />
<path d="M42.6357 14.6100
L42.7566 14.5495
" />
<path d="M43.8452 14.5495
L43.8452 15.5776
" />
<path d="M43.8452 15.5776
L43.9057 15.6986
" />
<path d="M43.9057 15.6986
L43.9662 15.7591
" />
<path d="M43.9662 15.7591
L44.0871 15.8195
" />
<path d="M44.0871 15.8195
L44.3290 15.8195
" />
<path d="M44.3290 15.8195
L44.4500 15.7591
" />
<path d="M44.4500 15.7591
L44.5105 15.6986
" />
<path d="M44.5105 15.6986
L44.5709 15.5776
" />
<path d="M44.5709 15.5776
L44.5709 14.5495
" />
<path d="M44.9943 14.5495
L45.7200 14.5495
" />
<path d="M45.3572 15.8195
L45.3572 14.5495
" />
</g></g>
<g style="fill:none; 
stroke:#840000; stroke-width:0.1524; stroke-opacity:1; 
stroke-linecap:round; stroke-linejoin:round;">
<rect x="42.164000" y="53.594000" width="4.572000" height="0.508000" rx="0.000000" />
<path style="fill:none; 
stroke:#840000; stroke-width:0.1524; stroke-opacity:1; 
stroke-linecap:round; stroke-linejoin:round;fill:none"
d="M 42.6720,52.3240
43.6880,52.3240
" /> 
<path style="fill:none; 
stroke:#840000; stroke-width:0.1524; stroke-opacity:1; 
stroke-linecap:round; stroke-linejoin:round;fill:none"
d="M 43.1800,51.8160
43.1800,52.8320
" /> 
</g>
<g style="fill:#840000; fill-opacity:1.0000; 
stroke:#840000; stroke-width:0.1524; stroke-opacity:1; 
stroke-linecap:round; stroke-linejoin:round;">
<rect x="42.164000" y="55.118000" width="4.572000" height="0.508000" rx="0.000000" />
</g>
<g style="fill:none; 
stroke:#840000; stroke-width:0.1524; stroke-opacity:1; 
stroke-linecap:round; stroke-linejoin:round;">
<path d="M44.4500 53.5940
L44.4500 50.8000
" />
<path d="M44.4500 55.6260
L44.4500 58.4200
" />
</g>
<g style="fill:none; 
stroke:#006464; stroke-width:0.1524; stroke-opacity:1; 
stroke-linecap:round; stroke-linejoin:round;">
<text x="49.6109" y="53.0859"
textLength="2.6827" font-size="1.6933" lengthAdjust="spacingAndGlyphs"
text-anchor="middle" opacity="0" stroke-opacity="0">C1</text>
<g class="stroked-text"><desc>C1</desc>
<path d="M49.3992 52.9095
L49.3388 52.9700
" />
<path d="M49.3388 52.9700
L49.1573 53.0304
" />
<path d="M49.1573 53.0304
L49.0364 53.0304
" />
<path d="M49.0364 53.0304
L48.8550 52.9700
" />
<path d="M48.8550 52.9700
L48.7340 52.8490
" />
<path d="M48.7340 52.8490
L48.6735 52.7280
" />
<path d="M48.6735 52.7280
L48.6131 52.4861
" />
<path d="M48.6131 52.4861
L48.6131 52.3047
" />
<path d="M48.6131 52.3047
L48.6735 52.0628
" />
<path d="M48.6735 52.0628
L48.7340 51.9419
" />
<path d="M48.7340 51.9419
L48.8550 51.8209
" />
<path d="M48.8550 51.8209
L49.0364 51.7604
" />
<path d="M49.0364 51.7604
L49.1573 51.7604
" />
<path d="M49.1573 51.7604
L49.3388 51.8209
" />
<path d="M49.3388 51.8209
L49.3992 51.8814
" />
<path d="M50.6088 53.0304
L49.8831 53.0304
" />
<path d="M50.2459 53.0304
L50.2459 51.7604
" />
<path d="M50.2459 51.7604
L50.1250 51.9419
" />
<path d="M50.1250 51.9419
L50.0040 52.0628
" />
<path d="M50.0040 52.0628
L49.8831 52.1233
" />
</g><text x="53.2697" y="55.6259"
textLength="10.0003" font-size="1.6933" lengthAdjust="spacingAndGlyphs"
text-anchor="middle" opacity="0" stroke-opacity="0">800F 2.7V</text>
<g class="stroked-text"><desc>800F 2.7V</desc>
<path d="M48.8550 54.8447
L48.7340 54.7842
" />
<path d="M48.7340 54.7842
L48.6735 54.7238
" />
<path d="M48.6735 54.7238
L48.6131 54.6028
" />
<path d="M48.6131 54.6028
L48.6131 54.5423
" />
<path d="M48.6131 54.5423
L48.6735 54.4214
" />
<path d="M48.6735 54.4214
L48.7340 54.3609
" />
<path d="M48.7340 54.3609
L48.8550 54.3004
" />
<path d="M48.8550 54.3004
L49.0969 54.3004
" />
<path d="M49.0969 54.3004
L49.2178 54.3609
" />
<path d="M49.2178 54.3609
L49.2783 54.4214
" />
<path d="M49.2783 54.4214
L49.3388 54.5423
" />
<path d="M49.3388 54.5423
L49.3388 54.6028
" />
<path d="M49.3388 54.6028
L49.2783 54.7238
" />
<path d="M49.2783 54.7238
L49.2178 54.7842
" />
<path d="M49.2178 54.7842
L49.0969 54.8447
" />
<path d="M49.0969 54.8447
L48.8550 54.8447
" />
<path d="M48.8550 54.8447
L48.7340 54.9052
" />
<path d="M48.7340 54.9052
L48.6735 54.9657
" />
<path d="M48.6735 54.9657
L48.6131 55.0866
" />
<path d="M48.6131 55.0866
L48.6131 55.3285
" />
<path d="M48.6131 55.3285
L48.6735 55.4495
" />
<path d="M48.6735 55.4495
L48.7340 55.5100
" />
<path d="M48.7340 55.5100
L48.8550 55.5704
" />
<path d="M48.8550 55.5704
L49.0969 55.5704
" />
<path d="M49.0969 55.5704
L49.2178 55.5100
" />
<path d="M49.2178 55.5100
L49.2783 55.4495
" />
<path d="M49.2783 55.4495
L49.3388 55.3285
" />
<path d="M49.3388 55.3285
L49.3388 55.0866
" />
<path d="M49.3388 55.0866
L49.2783 54.9657
" />
<path d="M49.2783 54.9657
L49.2178 54.9052
" />
<path d="M49.2178 54.9052
L49.0969 54.8447
" />
<path d="M50.1249 54.3004
L50.2459 54.3004
" />
<path d="M50.2459 54.3004
L50.3668 54.3609
" />
<path d="M50.3668 54.3609
L50.4273 54.4214
" />
<path d="M50.4273 54.4214
L50.4878 54.5423
" />
<path d="M50.4878 54.5423
L50.5483 54.7842
" />
<path d="M50.5483 54.7842
L50.5483 55.0866
" />
<path d="M50.5483 55.0866
L50.4878 55.3285
" />
<path d="M50.4878 55.3285
L50.4273 55.4495
" />
<path d="M50.4273 55.4495
L50.3668 55.5100
" />
<path d="M50.3668 55.5100
L50.2459 55.5704
" />
<path d="M50.2459 55.5704
L50.1249 55.5704
" />
<path d="M50.1249 55.5704
L50.0040 55.5100
" />
<path d="M50.0040 55.5100
L49.9435 55.4495
" />
<path d="M49.9435 55.4495
L49.8830 55.3285
" />
<path d="M49.8830 55.3285
L49.8226 55.0866
" />
<path d="M49.8226 55.0866
L49.8226 54.7842
" />
<path d="M49.8226 54.7842
L49.8830 54.5423
" />
<path d="M49.8830 54.5423
L49.9435 54.4214
" />
<path d="M49.9435 54.4214
L50.0040 54.3609
" />
<path d="M50.0040 54.3609
L50.1249 54.3004
" />
<path d="M51.3344 54.3004
L51.4554 54.3004
" />
<path d="M51.4554 54.3004
L51.5763 54.3609
" />
<path d="M51.5763 54.3609
L51.6368 54.4214
" />
<path d="M51.6368 54.4214
L51.6973 54.5423
" />
<path d="M51.6973 54.5423
L51.7578 54.7842
" />
<path d="M51.7578 54.7842
L51.7578 55.0866
" />
<path d="M51.7578 55.0866
L51.6973 55.3285
" />
<path d="M51.6973 55.3285
L51.6368 55.4495
" />
<path d="M51.6368 55.4495
L51.5763 55.5100
" />
<path d="M51.5763 55.5100
L51.4554 55.5704
" />
<path d="M51.4554 55.5704
L51.3344 55.5704
" />
<path d="M51.3344 55.5704
L51.2135 55.5100
" />
<path d="M51.2135 55.5100
L51.1530 55.4495
" />
<path d="M51.1530 55.4495
L51.0925 55.3285
" />
<path d="M51.0925 55.3285
L51.0321 55.0866
" />
<path d="M51.0321 55.0866
L51.0321 54.7842
" />
<path d="M51.0321 54.7842
L51.0925 54.5423
" />
<path d="M51.0925 54.5423
L51.1530 54.4214
" />
<path d="M51.1530 54.4214
L51.2135 54.3609
" />
<path d="M51.2135 54.3609
L51.3344 54.3004
" />
<path d="M52.7254 54.9052
L52.3020 54.9052
" />
<path d="M52.3020 55.5704
L52.3020 54.3004
" />
<path d="M52.3020 54.3004
L52.9068 54.3004
" />
<path d="M54.2978 54.4214
L54.3582 54.3609
" />
<path d="M54.3582 54.3609
L54.4792 54.3004
" />
<path d="M54.4792 54.3004
L54.7816 54.3004
" />
<path d="M54.7816 54.3004
L54.9025 54.3609
" />
<path d="M54.9025 54.3609
L54.9630 54.4214
" />
<path d="M54.9630 54.4214
L55.0235 54.5423
" />
<path d="M55.0235 54.5423
L55.0235 54.6633
" />
<path d="M55.0235 54.6633
L54.9630 54.8447
" />
<path d="M54.9630 54.8447
L54.2373 55.5704
" />
<path d="M54.2373 55.5704
L55.0235 55.5704
" />
<path d="M55.5677 55.4495
L55.6282 55.5100
" />
<path d="M55.6282 55.5100
L55.5677 55.5704
" />
<path d="M55.5677 55.5704
L55.5073 55.5100
" />
<path d="M55.5073 55.5100
L55.5677 55.4495
" />
<path d="M55.5677 55.4495
L55.5677 55.5704
" />
<path d="M56.0516 54.3004
L56.8982 54.3004
" />
<path d="M56.8982 54.3004
L56.3540 55.5704
" />
<path d="M57.2006 54.3004
L57.6239 55.5704
" />
<path d="M57.6239 55.5704
L58.0473 54.3004
" />
</g></g>
<g style="fill:#840000; fill-opacity:1.0000; 
stroke:#840000; stroke-width:0.1524; stroke-opacity:1; 
stroke-linecap:round; stroke-linejoin:round;">
<rect x="143.916400" y="18.923000" width="0.863600" height="0.254000" rx="0.000000" />
<rect x="143.916400" y="21.463000" width="0.863600" height="0.254000" rx="0.000000" />
<path style="fill:none; 
stroke:#840000; stroke-width:0.1524; stroke-opacity:1; 
stroke-linecap:round; stroke-linejoin:round;fill:none"
d="M 143.5100,19.0500
143.9164,19.0500
" /> 
<path style="fill:none; 
stroke:#840000; stroke-width:0.1524; stroke-opacity:1; 
stroke-linecap:round; stroke-linejoin:round;fill:none"
d="M 143.5100,21.5900
143.9164,21.5900
" /> 
</g>
<g style="fill:none; 
stroke:#840000; stroke-width:0.1524; stroke-opacity:1; 
stroke-linecap:round; stroke-linejoin:round;">
<path d="M143.5100 19.0500
L139.7000 19.0500
" />
</g>
<g style="fill:none; 
stroke:#A90000; stroke-width:0.1524; stroke-opacity:1; 
stroke-linecap:round; stroke-linejoin:round;">
<text x="141.6050" y="18.7960"
textLength="1.4127" font-size="1.6933" lengthAdjust="spacingAndGlyphs"
text-anchor="middle" opacity="0" stroke-opacity="0">1</text>
<g class="stroked-text"><desc>1</desc>
<path d="M141.9679 18.6325
L141.2422 18.6325
" />
<path d="M141.6050 18.6325
L141.6050 17.3625
" />
<path d="M141.6050 17.3625
L141.4841 17.5440
" />
<path d="M141.4841 17.5440
L141.3631 17.6649
" />
<path d="M141.3631 17.6649
L141.2422 17.7254
" />
</g></g>
<g style="fill:none; 
stroke:#840000; stroke-width:0.1524; stroke-opacity:1; 
stroke-linecap:round; stroke-linejoin:round;">
<path d="M143.5100 21.5900
L139.7000 21.5900
" />
</g>
<g style="fill:none; 
stroke:#A90000; stroke-width:0.1524; stroke-opacity:1; 
stroke-linecap:round; stroke-linejoin:round;">
<text x="141.6050" y="21.3360"
textLength="1.4127" font-size="1.6933" lengthAdjust="spacingAndGlyphs"
text-anchor="middle" opacity="0" stroke-opacity="0">2</text>
<g class="stroked-text"><desc>2</desc>
<path d="M141.2422 20.0235
L141.3026 19.9630
" />
<path d="M141.3026 19.9630
L141.4236 19.9025
" />
<path d="M141.4236 19.9025
L141.7260 19.9025
" />
<path d="M141.7260 19.9025
L141.8469 19.9630
" />
<path d="M141.8469 19.9630
L141.9074 20.0235
" />
<path d="M141.9074 20.0235
L141.9679 20.1444
" />
<path d="M141.9679 20.1444
L141.9679 20.2654
" />
<path d="M141.9679 20.2654
L141.9074 20.4468
" />
<path d="M141.9074 20.4468
L141.1817 21.1725
" />
<path d="M141.1817 21.1725
L141.9679 21.1725
" />
</g></g>
<g style="fill:none; 
stroke:#006464; stroke-width:0.1524; stroke-opacity:1; 
stroke-linecap:round; stroke-linejoin:round;">
<text x="144.1449" y="14.6050"
textLength="2.3803" font-size="1.6933" lengthAdjust="spacingAndGlyphs"
text-anchor="middle" opacity="0" stroke-opacity="0">J2</text>
<g class="stroked-text"><desc>J2</desc>
<path d="M143.7216 13.2795
L143.7216 14.1867
" />
<path d="M143.7216 14.1867
L143.6611 14.3681
" />
<path d="M143.6611 14.3681
L143.5402 14.4891
" />
<path d="M143.5402 14.4891
L143.3587 14.5495
" />
<path d="M143.3587 14.5495
L143.2378 14.5495
" />
<path d="M144.2659 13.4005
L144.3263 13.3400
" />
<path d="M144.3263 13.3400
L144.4473 13.2795
" />
<path d="M144.4473 13.2795
L144.7497 13.2795
" />
<path d="M144.7497 13.2795
L144.8706 13.3400
" />
<path d="M144.8706 13.3400
L144.9311 13.4005
" />
<path d="M144.9311 13.4005
L144.9916 13.5214
" />
<path d="M144.9916 13.5214
L144.9916 13.6424
" />
<path d="M144.9916 13.6424
L144.9311 13.8238
" />
<path d="M144.9311 13.8238
L144.2054 14.5495
" />
<path d="M144.2054 14.5495
L144.9916 14.5495
" />
</g><text x="144.1450" y="17.1450"
textLength="10.1818" font-size="1.6933" lengthAdjust="spacingAndGlyphs"
text-anchor="middle" opacity="0" stroke-opacity="0">POWER-IN</text>
<g class="stroked-text"><desc>POWER-IN</desc>
<path d="M139.4580 17.0895
L139.4580 15.8195
" />
<path d="M139.4580 15.8195
L139.9418 15.8195
" />
<path d="M139.9418 15.8195
L140.0628 15.8800
" />
<path d="M140.0628 15.8800
L140.1233 15.9405
" />
<path d="M140.1233 15.9405
L140.1837 16.0614
" />
<path d="M140.1837 16.0614
L140.1837 16.2429
" />
<path d="M140.1837 16.2429
L140.1233 16.3638
" />
<path d="M140.1233 16.3638
L140.0628 16.4243
" />
<path d="M140.0628 16.4243
L139.9418 16.4848
" />
<path d="M139.9418 16.4848
L139.4580 16.4848
" />
<path d="M140.9699 15.8195
L141.2118 15.8195
" />
<path d="M141.2118 15.8195
L141.3328 15.8800
" />
<path d="M141.3328 15.8800
L141.4537 16.0010
" />
<path d="M141.4537 16.0010
L141.5142 16.2429
" />
<path d="M141.5142 16.2429
L141.5142 16.6662
" />
<path d="M141.5142 16.6662
L141.4537 16.9081
" />
<path d="M141.4537 16.9081
L141.3328 17.0291
" />
<path d="M141.3328 17.0291
L141.2118 17.0895
" />
<path d="M141.2118 17.0895
L140.9699 17.0895
" />
<path d="M140.9699 17.0895
L140.8490 17.0291
" />
<path d="M140.8490 17.0291
L140.7280 16.9081
" />
<path d="M140.7280 16.9081
L140.6676 16.6662
" />
<path d="M140.6676 16.6662
L140.6676 16.2429
" />
<path d="M140.6676 16.2429
L140.7280 16.0010
" />
<path d="M140.7280 16.0010
L140.8490 15.8800
" />
<path d="M140.8490 15.8800
L140.9699 15.8195
" />
<path d="M141.9376 15.8195
L142.2400 17.0895
" />
<path d="M142.2400 17.0895
L142.4819 16.1824
" />
<path d="M142.4819 16.1824
L142.7238 17.0895
" />
<path d="M142.7238 17.0895
L143.0262 15.8195
" />
<path d="M143.5099 16.4243
L143.9333 16.4243
" />
<path d="M144.1147 17.0895
L143.5099 17.0895
" />
<path d="M143.5099 17.0895
L143.5099 15.8195
" />
<path d="M143.5099 15.8195
L144.1147 15.8195
" />
<path d="M145.3846 17.0895
L144.9613 16.4848
" />
<path d="M144.6589 17.0895
L144.6589 15.8195
" />
<path d="M144.6589 15.8195
L145.1427 15.8195
" />
<path d="M145.1427 15.8195
L145.2637 15.8800
" />
<path d="M145.2637 15.8800
L145.3242 15.9405
" />
<path d="M145.3242 15.9405
L145.3846 16.0614
" />
<path d="M145.3846 16.0614
L145.3846 16.2429
" />
<path d="M145.3846 16.2429
L145.3242 16.3638
" />
<path d="M145.3242 16.3638
L145.2637 16.4243
" />
<path d="M145.2637 16.4243
L145.1427 16.4848
" />
<path d="M145.1427 16.4848
L144.6589 16.4848
" />
<path d="M145.9289 16.6057
L146.8966 16.6057
" />
<path d="M147.5013 17.0895
L147.5013 15.8195
" />
<path d="M148.1061 17.0895
L148.1061 15.8195
" />
<path d="M148.1061 15.8195
L148.8318 17.0895
" />
<path d="M148.8318 17.0895
L148.8318 15.8195
" />
</g><path style="fill:none; 
stroke:#840000; stroke-width:0.1524; stroke-opacity:1; 
stroke-linecap:round; stroke-linejoin:round;fill:none"
d="M 49.5300,27.9400
49.5300,29.2100
50.8000,29.2100
49.5300,30.4800
48.2600,29.2100
49.5300,29.2100
" /> 
</g>
<g style="fill:none; 
stroke:#840000; stroke-width:0.1524; stroke-opacity:1; 
stroke-linecap:round; stroke-linejoin:round;">
<path d="M49.5300 27.9400
L49.5300 27.9400
" />
</g>
<g style="fill:none; 
stroke:#006464; stroke-width:0.1524; stroke-opacity:1; 
stroke-linecap:round; stroke-linejoin:round;">
<text x="49.5300" y="33.6550"
textLength="4.0737" font-size="1.6933" lengthAdjust="spacingAndGlyphs"
text-anchor="middle" opacity="0" stroke-opacity="0">GND</text>
<g class="stroked-text"><desc>GND</desc>
<path d="M48.5624 32.3900
L48.4414 32.3295
" />
<path d="M48.4414 32.3295
L48.2600 32.3295
" />
<path d="M48.2600 32.3295
L48.0786 32.3900
" />
<path d="M48.0786 32.3900
L47.9576 32.5110
" />
<path d="M47.9576 32.5110
L47.8971 32.6319
" />
<path d="M47.8971 32.6319
L47.8367 32.8738
" />
<path d="M47.8367 32.8738
L47.8367 33.0552
" />
<path d="M47.8367 33.0552
L47.8971 33.2971
" />
<path d="M47.8971 33.2971
L47.9576 33.4181
" />
<path d="M47.9576 33.4181
L48.0786 33.5391
" />
<path d="M48.0786 33.5391
L48.2600 33.5995
" />
<path d="M48.2600 33.5995
L48.3809 33.5995
" />
<path d="M48.3809 33.5995
L48.5624 33.5391
" />
<path d="M48.5624 33.5391
L48.6228 33.4786
" />
<path d="M48.6228 33.4786
L48.6228 33.0552
" />
<path d="M48.6228 33.0552
L48.3809 33.0552
" />
<path d="M49.1671 33.5995
L49.1671 32.3295
" />
<path d="M49.1671 32.3295
L49.8928 33.5995
" />
<path d="M49.8928 33.5995
L49.8928 32.3295
" />
<path d="M50.4976 33.5995
L50.4976 32.3295
" />
<path d="M50.4976 32.3295
L50.8000 32.3295
" />
<path d="M50.8000 32.3295
L50.9814 32.3900
" />
<path d="M50.9814 32.3900
L51.1024 32.5110
" />
<path d="M51.1024 32.5110
L51.1629 32.6319
" />
<path d="M51.1629 32.6319
L51.2233 32.8738
" />
<path d="M51.2233 32.8738
L51.2233 33.0552
" />
<path d="M51.2233 33.0552
L51.1629 33.2971
" />
<path d="M51.1629 33.2971
L51.1024 33.4181
" />
<path d="M51.1024 33.4181
L50.9814 33.5391
" />
<path d="M50.9814 33.5391
L50.8000 33.5995
" />
<path d="M50.8000 33.5995
L50.4976 33.5995
" />
</g></g>
<g style="fill:none; 
stroke:#009600; stroke-width:0.1524; stroke-opacity:1; 
stroke-linecap:round; stroke-linejoin:round;">
<path d="M44.4500 62.2300
L44.4500 58.4200
" />
<path d="M44.4500 67.3100
L44.4500 62.2300
" />
<path d="M49.5300 27.9400
L49.5300 20.3200
" />
<path d="M49.5300 20.3200
L44.4500 20.3200
" />
</g>
<g style="fill:none; 
stroke:#006464; stroke-width:0.1524; stroke-opacity:1; 
stroke-linecap:round; stroke-linejoin:round;">
<text x="44.4500" y="73.0250"
textLength="4.0737" font-size="1.6933" lengthAdjust="spacingAndGlyphs"
text-anchor="middle" opacity="0" stroke-opacity="0">GND</text>
<g class="stroked-text"><desc>GND</desc>
<path d="M43.4824 71.7600
L43.3614 71.6995
" />
<path d="M43.3614 71.6995
L43.1800 71.6995
" />
<path d="M43.1800 71.6995
L42.9986 71.7600
" />
<path d="M42.9986 71.7600
L42.8776 71.8810
" />
<path d="M42.8776 71.8810
L42.8171 72.0019
" />
<path d="M42.8171 72.0019
L42.7567 72.2438
" />
<path d="M42.7567 72.2438
L42.7567 72.4252
" />
<path d="M42.7567 72.4252
L42.8171 72.6671
" />
<path d="M42.8171 72.6671
L42.8776 72.7881
" />
<path d="M42.8776 72.7881
L42.9986 72.9091
" />
<path d="M42.9986 72.9091
L43.1800 72.9695
" />
<path d="M43.1800 72.9695
L43.3009 72.9695
" />
<path d="M43.3009 72.9695
L43.4824 72.9091
" />
<path d="M43.4824 72.9091
L43.5428 72.8486
" />
<path d="M43.5428 72.8486
L43.5428 72.4252
" />
<path d="M43.5428 72.4252
L43.3009 72.4252
" />
<path d="M44.0871 72.9695
L44.0871 71.6995
" />
<path d="M44.0871 71.6995
L44.8128 72.9695
" />
<path d="M44.8128 72.9695
L44.8128 71.6995
" />
<path d="M45.4176 72.9695
L45.4176 71.6995
" />
<path d="M45.4176 71.6995
L45.7200 71.6995
" />
<path d="M45.7200 71.6995
L45.9014 71.7600
" />
<path d="M45.9014 71.7600
L46.0224 71.8810
" />
<path d="M46.0224 71.8810
L46.0829 72.0019
" />
<path d="M46.0829 72.0019
L46.1433 72.2438
" />
<path d="M46.1433 72.2438
L46.1433 72.4252
" />
<path d="M46.1433 72.4252
L46.0829 72.6671
" />
<path d="M46.0829 72.6671
L46.0224 72.7881
" />
<path d="M46.0224 72.7881
L45.9014 72.9091
" />
<path d="M45.9014 72.9091
L45.7200 72.9695
" />
<path d="M45.7200 72.9695
L45.4176 72.9695
" />
</g></g>
<g style="fill:none; 
stroke:#840000; stroke-width:0.1524; stroke-opacity:1; 
stroke-linecap:round; stroke-linejoin:round;">
<path d="M44.4500 67.3100
L44.4500 67.3100
" />
</g>
<g style="fill:none; 
stroke:#006464; stroke-width:0.1524; stroke-opacity:1; 
stroke-linecap:round; stroke-linejoin:round;">
<g transform="rotate(-90.000000 39.3700 62.2299)">
<text x="39.3700" y="62.8649"
textLength="9.6375" font-size="1.6933" lengthAdjust="spacingAndGlyphs"
text-anchor="middle" opacity="0" stroke-opacity="0">PWR_FLAG</text>
</g>
<g class="stroked-text"><desc>PWR_FLAG</desc>
<path d="M39.9495 66.6446
L38.6795 66.6446
" />
<path d="M38.6795 66.6446
L38.6795 66.1608
" />
<path d="M38.6795 66.1608
L38.7400 66.0398
" />
<path d="M38.7400 66.0398
L38.8005 65.9793
" />
<path d="M38.8005 65.9793
L38.9214 65.9189
" />
<path d="M38.9214 65.9189
L39.1029 65.9189
" />
<path d="M39.1029 65.9189
L39.2238 65.9793
" />
<path d="M39.2238 65.9793
L39.2843 66.0398
" />
<path d="M39.2843 66.0398
L39.3448 66.1608
" />
<path d="M39.3448 66.1608
L39.3448 66.6446
" />
<path d="M38.6795 65.4955
L39.9495 65.1931
" />
<path d="M39.9495 65.1931
L39.0424 64.9512
" />
<path d="M39.0424 64.9512
L39.9495 64.7093
" />
<path d="M39.9495 64.7093
L38.6795 64.4070
" />
<path d="M39.9495 63.1975
L39.3448 63.6208
" />
<path d="M39.9495 63.9232
L38.6795 63.9232
" />
<path d="M38.6795 63.9232
L38.6795 63.4394
" />
<path d="M38.6795 63.4394
L38.7400 63.3184
" />
<path d="M38.7400 63.3184
L38.8005 63.2579
" />
<path d="M38.8005 63.2579
L38.9214 63.1975
" />
<path d="M38.9214 63.1975
L39.1029 63.1975
" />
<path d="M39.1029 63.1975
L39.2238 63.2579
" />
<path d="M39.2238 63.2579
L39.2843 63.3184
" />
<path d="M39.2843 63.3184
L39.3448 63.4394
" />
<path d="M39.3448 63.4394
L39.3448 63.9232
" />
<path d="M40.0705 62.9556
L40.0705 61.9879
" />
<path d="M39.2843 61.2622
L39.2843 61.6856
" />
<path d="M39.9495 61.6856
L38.6795 61.6856
" />
<path d="M38.6795 61.6856
L38.6795 61.0808
" />
<path d="M39.9495 59.9922
L39.9495 60.5970
" />
<path d="M39.9495 60.5970
L38.6795 60.5970
" />
<path d="M39.5867 59.6293
L39.5867 59.0246
" />
<path d="M39.9495 59.7503
L38.6795 59.3270
" />
<path d="M38.6795 59.3270
L39.9495 58.9036
" />
<path d="M38.7400 57.8150
L38.6795 57.9360
" />
<path d="M38.6795 57.9360
L38.6795 58.1174
" />
<path d="M38.6795 58.1174
L38.7400 58.2988
" />
<path d="M38.7400 58.2988
L38.8610 58.4198
" />
<path d="M38.8610 58.4198
L38.9819 58.4803
" />
<path d="M38.9819 58.4803
L39.2238 58.5407
" />
<path d="M39.2238 58.5407
L39.4052 58.5407
" />
<path d="M39.4052 58.5407
L39.6471 58.4803
" />
<path d="M39.6471 58.4803
L39.7681 58.4198
" />
<path d="M39.7681 58.4198
L39.8891 58.2988
" />
<path d="M39.8891 58.2988
L39.9495 58.1174
" />
<path d="M39.9495 58.1174
L39.9495 57.9965
" />
<path d="M39.9495 57.9965
L39.8891 57.8150
" />
<path d="M39.8891 57.8150
L39.8286 57.7546
" />
<path d="M39.8286 57.7546
L39.4052 57.7546
" />
<path d="M39.4052 57.7546
L39.4052 57.9965
" />
</g></g>
<g style="fill:none; 
stroke:#840000; stroke-width:0.1524; stroke-opacity:1; 
stroke-linecap:round; stroke-linejoin:round;">
<path d="M44.4500 62.2300
L44.4500 62.2300
" />
</g>
<g style="fill:none; 
stroke:#006464; stroke-width:0.1524; stroke-opacity:1; 
stroke-linecap:round; stroke-linejoin:round;">
<text x="49.6109" y="53.0859"
textLength="2.6827" font-size="1.6933" lengthAdjust="spacingAndGlyphs"
text-anchor="middle" opacity="0" stroke-opacity="0">C1</text>
<g class="stroked-text"><desc>C1</desc>
<path d="M49.3992 52.9095
L49.3388 52.9700
" />
<path d="M49.3388 52.9700
L49.1573 53.0304
" />
<path d="M49.1573 53.0304
L49.0364 53.0304
" />
<path d="M49.0364 53.0304
L48.8550 52.9700
" />
<path d="M48.8550 52.9700
L48.7340 52.8490
" />
<path d="M48.7340 52.8490
L48.6735 52.7280
" />
<path d="M48.6735 52.7280
L48.6131 52.4861
" />
<path d="M48.6131 52.4861
L48.6131 52.3047
" />
<path d="M48.6131 52.3047
L48.6735 52.0628
" />
<path d="M48.6735 52.0628
L48.7340 51.9419
" />
<path d="M48.7340 51.9419
L48.8550 51.8209
" />
<path d="M48.8550 51.8209
L49.0364 51.7604
" />
<path d="M49.0364 51.7604
L49.1573 51.7604
" />
<path d="M49.1573 51.7604
L49.3388 51.8209
" />
<path d="M49.3388 51.8209
L49.3992 51.8814
" />
<path d="M50.6088 53.0304
L49.8831 53.0304
" />
<path d="M50.2459 53.0304
L50.2459 51.7604
" />
<path d="M50.2459 51.7604
L50.1250 51.9419
" />
<path d="M50.1250 51.9419
L50.0040 52.0628
" />
<path d="M50.0040 52.0628
L49.8831 52.1233
" />
</g><text x="53.2697" y="55.6259"
textLength="10.0003" font-size="1.6933" lengthAdjust="spacingAndGlyphs"
text-anchor="middle" opacity="0" stroke-opacity="0">800F 2.7V</text>
<g class="stroked-text"><desc>800F 2.7V</desc>
<path d="M48.8550 54.8447
L48.7340 54.7842
" />
<path d="M48.7340 54.7842
L48.6735 54.7238
" />
<path d="M48.6735 54.7238
L48.6131 54.6028
" />
<path d="M48.6131 54.6028
L48.6131 54.5423
" />
<path d="M48.6131 54.5423
L48.6735 54.4214
" />
<path d="M48.6735 54.4214
L48.7340 54.3609
" />
<path d="M48.7340 54.3609
L48.8550 54.3004
" />
<path d="M48.8550 54.3004
L49.0969 54.3004
" />
<path d="M49.0969 54.3004
L49.2178 54.3609
" />
<path d="M49.2178 54.3609
L49.2783 54.4214
" />
<path d="M49.2783 54.4214
L49.3388 54.5423
" />
<path d="M49.3388 54.5423
L49.3388 54.6028
" />
<path d="M49.3388 54.6028
L49.2783 54.7238
" />
<path d="M49.2783 54.7238
L49.2178 54.7842
" />
<path d="M49.2178 54.7842
L49.0969 54.8447
" />
<path d="M49.0969 54.8447
L48.8550 54.8447
" />
<path d="M48.8550 54.8447
L48.7340 54.9052
" />
<path d="M48.7340 54.9052
L48.6735 54.9657
" />
<path d="M48.6735 54.9657
L48.6131 55.0866
" />
<path d="M48.6131 55.0866
L48.6131 55.3285
" />
<path d="M48.6131 55.3285
L48.6735 55.4495
" />
<path d="M48.6735 55.4495
L48.7340 55.5100
" />
<path d="M48.7340 55.5100
L48.8550 55.5704
" />
<path d="M48.8550 55.5704
L49.0969 55.5704
" />
<path d="M49.0969 55.5704
L49.2178 55.5100
" />
<path d="M49.2178 55.5100
L49.2783 55.4495
" />
<path d="M49.2783 55.4495
L49.3388 55.3285
" />
<path d="M49.3388 55.3285
L49.3388 55.0866
" />
<path d="M49.3388 55.0866
L49.2783 54.9657
" />
<path d="M49.2783 54.9657
L49.2178 54.9052
" />
<path d="M49.2178 54.9052
L49.0969 54.8447
" />
<path d="M50.1249 54.3004
L50.2459 54.3004
" />
<path d="M50.2459 54.3004
L50.3668 54.3609
" />
<path d="M50.3668 54.3609
L50.4273 54.4214
" />
<path d="M50.4273 54.4214
L50.4878 54.5423
" />
<path d="M50.4878 54.5423
L50.5483 54.7842
" />
<path d="M50.5483 54.7842
L50.5483 55.0866
" />
<path d="M50.5483 55.0866
L50.4878 55.3285
" />
<path d="M50.4878 55.3285
L50.4273 55.4495
" />
<path d="M50.4273 55.4495
L50.3668 55.5100
" />
<path d="M50.3668 55.5100
L50.2459 55.5704
" />
<path d="M50.2459 55.5704
L50.1249 55.5704
" />
<path d="M50.1249 55.5704
L50.0040 55.5100
" />
<path d="M50.0040 55.5100
L49.9435 55.4495
" />
<path d="M49.9435 55.4495
L49.8830 55.3285
" />
<path d="M49.8830 55.3285
L49.8226 55.0866
" />
<path d="M49.8226 55.0866
L49.8226 54.7842
" />
<path d="M49.8226 54.7842
L49.8830 54.5423
" />
<path d="M49.8830 54.5423
L49.9435 54.4214
" />
<path d="M49.9435 54.4214
L50.0040 54.3609
" />
<path d="M50.0040 54.3609
L50.1249 54.3004
" />
<path d="M51.3344 54.3004
L51.4554 54.3004
" />
<path d="M51.4554 54.3004
L51.5763 54.3609
" />
<path d="M51.5763 54.3609
L51.6368 54.4214
" />
<path d="M51.6368 54.4214
L51.6973 54.5423
" />
<path d="M51.6973 54.5423
L51.7578 54.7842
" />
<path d="M51.7578 54.7842
L51.7578 55.0866
" />
<path d="M51.7578 55.0866
L51.6973 55.3285
" />
<path d="M51.6973 55.3285
L51.6368 55.4495
" />
<path d="M51.6368 55.4495
L51.5763 55.5100
" />
<path d="M51.5763 55.5100
L51.4554 55.5704
" />
<path d="M51.4554 55.5704
L51.3344 55.5704
" />
<path d="M51.3344 55.5704
L51.2135 55.5100
" />
<path d="M51.2135 55.5100
L51.1530 55.4495
" />
<path d="M51.1530 55.4495
L51.0925 55.3285
" />
<path d="M51.0925 55.3285
L51.0321 55.0866
" />
<path d="M51.0321 55.0866
L51.0321 54.7842
" />
<path d="M51.0321 54.7842
L51.0925 54.5423
" />
<path d="M51.0925 54.5423
L51.1530 54.4214
" />
<path d="M51.1530 54.4214
L51.2135 54.3609
" />
<path d="M51.2135 54.3609
L51.3344 54.3004
" />
<path d="M52.7254 54.9052
L52.3020 54.9052
" />
<path d="M52.3020 55.5704
L52.3020 54.3004
" />
<path d="M52.3020 54.3004
L52.9068 54.3004
" />
<path d="M54.2978 54.4214
L54.3582 54.3609
" />
<path d="M54.3582 54.3609
L54.4792 54.3004
" />
<path d="M54.4792 54.3004
L54.7816 54.3004
" />
<path d="M54.7816 54.3004
L54.9025 54.3609
" />
<path d="M54.9025 54.3609
L54.9630 54.4214
" />
<path d="M54.9630 54.4214
L55.0235 54.5423
" />
<path d="M55.0235 54.5423
L55.0235 54.6633
" />
<path d="M55.0235 54.6633
L54.9630 54.8447
" />
<path d="M54.9630 54.8447
L54.2373 55.5704
" />
<path d="M54.2373 55.5704
L55.0235 55.5704
" />
<path d="M55.5677 55.4495
L55.6282 55.5100
" />
<path d="M55.6282 55.5100
L55.5677 55.5704
" />
<path d="M55.5677 55.5704
L55.5073 55.5100
" />
<path d="M55.5073 55.5100
L55.5677 55.4495
" />
<path d="M55.5677 55.4495
L55.5677 55.5704
" />
<path d="M56.0516 54.3004
L56.8982 54.3004
" />
<path d="M56.8982 54.3004
L56.3540 55.5704
" />
<path d="M57.2006 54.3004
L57.6239 55.5704
" />
<path d="M57.6239 55.5704
L58.0473 54.3004
" />
</g></g>
<g style="fill:none; 
stroke:#840000; stroke-width:0.1524; stroke-opacity:1; 
stroke-linecap:round; stroke-linejoin:round;">
<path d="M44.4500 53.5940
L44.4500 50.8000
" />
<path d="M44.4500 55.6260
L44.4500 58.4200
" />
</g>
<g style="fill:#009600; fill-opacity:1.0000; 
stroke:#009600; stroke-width:0.1524; stroke-opacity:1; 
stroke-linecap:round; stroke-linejoin:round;">
<circle cx="44.4500" cy="62.2300" r="0.4572" /> 
</g> 
</svg>
